<?xml version="1.0" encoding="utf-8" standalone="no"?>
<!DOCTYPE svg PUBLIC "-//W3C//DTD SVG 1.1//EN"
  "http://www.w3.org/Graphics/SVG/1.1/DTD/svg11.dtd">
<svg xmlns:xlink="http://www.w3.org/1999/xlink" width="728.348278pt" height="440.39952pt" viewBox="0 0 728.348278 440.39952" xmlns="http://www.w3.org/2000/svg" version="1.1">
 <metadata>
  <rdf:RDF xmlns:dc="http://purl.org/dc/elements/1.1/" xmlns:cc="http://creativecommons.org/ns#" xmlns:rdf="http://www.w3.org/1999/02/22-rdf-syntax-ns#">
   <cc:Work>
    <dc:type rdf:resource="http://purl.org/dc/dcmitype/StillImage"/>
    <dc:date>2026-04-18T16:23:39.072351</dc:date>
    <dc:format>image/svg+xml</dc:format>
    <dc:creator>
     <cc:Agent>
      <dc:title>Matplotlib v3.10.8, https://matplotlib.org/</dc:title>
     </cc:Agent>
    </dc:creator>
   </cc:Work>
  </rdf:RDF>
 </metadata>
 <defs>
  <style type="text/css">*{stroke-linejoin: round; stroke-linecap: butt}</style>
 </defs>
 <g id="figure_1">
  <g id="patch_1">
   <path d="M 0 440.39952 
L 728.348278 440.39952 
L 728.348278 0 
L 0 0 
z
" style="fill: #ffffff"/>
  </g>
  <g id="axes_1">
   <g id="patch_2">
    <path d="M 47.609375 390.536395 
L 711.128659 390.536395 
L 711.128659 51.916562 
L 47.609375 51.916562 
z
" style="fill: #ffffff"/>
   </g>
   <g id="matplotlib.axis_1">
    <g id="xtick_1">
     <g id="line2d_1"/>
     <g id="text_1">
      <!-- p0 -->
      <g transform="translate(39.982813 403.15452) scale(0.12 -0.12)">
       <defs>
        <path id="DejaVuSans-70" d="M 1159 525 
L 1159 -1331 
L 581 -1331 
L 581 3500 
L 1159 3500 
L 1159 2969 
Q 1341 3281 1617 3432 
Q 1894 3584 2278 3584 
Q 2916 3584 3314 3078 
Q 3713 2572 3713 1747 
Q 3713 922 3314 415 
Q 2916 -91 2278 -91 
Q 1894 -91 1617 61 
Q 1341 213 1159 525 
z
M 3116 1747 
Q 3116 2381 2855 2742 
Q 2594 3103 2138 3103 
Q 1681 3103 1420 2742 
Q 1159 2381 1159 1747 
Q 1159 1113 1420 752 
Q 1681 391 2138 391 
Q 2594 391 2855 752 
Q 3116 1113 3116 1747 
z
" transform="scale(0.015625)"/>
        <path id="DejaVuSans-30" d="M 2034 4250 
Q 1547 4250 1301 3770 
Q 1056 3291 1056 2328 
Q 1056 1369 1301 889 
Q 1547 409 2034 409 
Q 2525 409 2770 889 
Q 3016 1369 3016 2328 
Q 3016 3291 2770 3770 
Q 2525 4250 2034 4250 
z
M 2034 4750 
Q 2819 4750 3233 4129 
Q 3647 3509 3647 2328 
Q 3647 1150 3233 529 
Q 2819 -91 2034 -91 
Q 1250 -91 836 529 
Q 422 1150 422 2328 
Q 422 3509 836 4129 
Q 1250 4750 2034 4750 
z
" transform="scale(0.015625)"/>
       </defs>
       <use xlink:href="#DejaVuSans-70"/>
       <use xlink:href="#DejaVuSans-30" transform="translate(63.476562 0)"/>
      </g>
     </g>
    </g>
    <g id="xtick_2">
     <g id="line2d_2"/>
     <g id="text_2">
      <!-- p50 -->
      <g transform="translate(75.223079 403.15452) scale(0.12 -0.12)">
       <defs>
        <path id="DejaVuSans-35" d="M 691 4666 
L 3169 4666 
L 3169 4134 
L 1269 4134 
L 1269 2991 
Q 1406 3038 1543 3061 
Q 1681 3084 1819 3084 
Q 2600 3084 3056 2656 
Q 3513 2228 3513 1497 
Q 3513 744 3044 326 
Q 2575 -91 1722 -91 
Q 1428 -91 1123 -41 
Q 819 9 494 109 
L 494 744 
Q 775 591 1075 516 
Q 1375 441 1709 441 
Q 2250 441 2565 725 
Q 2881 1009 2881 1497 
Q 2881 1984 2565 2268 
Q 2250 2553 1709 2553 
Q 1456 2553 1204 2497 
Q 953 2441 691 2322 
L 691 4666 
z
" transform="scale(0.015625)"/>
       </defs>
       <use xlink:href="#DejaVuSans-70"/>
       <use xlink:href="#DejaVuSans-35" transform="translate(63.476562 0)"/>
       <use xlink:href="#DejaVuSans-30" transform="translate(127.099609 0)"/>
      </g>
     </g>
    </g>
    <g id="xtick_3">
     <g id="line2d_3"/>
     <g id="text_3">
      <!-- p90 -->
      <g transform="translate(165.912406 403.15452) scale(0.12 -0.12)">
       <defs>
        <path id="DejaVuSans-39" d="M 703 97 
L 703 672 
Q 941 559 1184 500 
Q 1428 441 1663 441 
Q 2288 441 2617 861 
Q 2947 1281 2994 2138 
Q 2813 1869 2534 1725 
Q 2256 1581 1919 1581 
Q 1219 1581 811 2004 
Q 403 2428 403 3163 
Q 403 3881 828 4315 
Q 1253 4750 1959 4750 
Q 2769 4750 3195 4129 
Q 3622 3509 3622 2328 
Q 3622 1225 3098 567 
Q 2575 -91 1691 -91 
Q 1453 -91 1209 -44 
Q 966 3 703 97 
z
M 1959 2075 
Q 2384 2075 2632 2365 
Q 2881 2656 2881 3163 
Q 2881 3666 2632 3958 
Q 2384 4250 1959 4250 
Q 1534 4250 1286 3958 
Q 1038 3666 1038 3163 
Q 1038 2656 1286 2365 
Q 1534 2075 1959 2075 
z
" transform="scale(0.015625)"/>
       </defs>
       <use xlink:href="#DejaVuSans-70"/>
       <use xlink:href="#DejaVuSans-39" transform="translate(63.476562 0)"/>
       <use xlink:href="#DejaVuSans-30" transform="translate(127.099609 0)"/>
      </g>
     </g>
    </g>
    <g id="xtick_4">
     <g id="line2d_4"/>
     <g id="text_4">
      <!-- p99 -->
      <g transform="translate(295.659499 403.15452) scale(0.12 -0.12)">
       <use xlink:href="#DejaVuSans-70"/>
       <use xlink:href="#DejaVuSans-39" transform="translate(63.476562 0)"/>
       <use xlink:href="#DejaVuSans-39" transform="translate(127.099609 0)"/>
      </g>
     </g>
    </g>
    <g id="xtick_5">
     <g id="line2d_5"/>
     <g id="text_5">
      <!-- p99.9 -->
      <g transform="translate(419.682217 403.15452) scale(0.12 -0.12)">
       <defs>
        <path id="DejaVuSans-2e" d="M 684 794 
L 1344 794 
L 1344 0 
L 684 0 
L 684 794 
z
" transform="scale(0.015625)"/>
       </defs>
       <use xlink:href="#DejaVuSans-70"/>
       <use xlink:href="#DejaVuSans-39" transform="translate(63.476562 0)"/>
       <use xlink:href="#DejaVuSans-39" transform="translate(127.099609 0)"/>
       <use xlink:href="#DejaVuSans-2e" transform="translate(190.722656 0)"/>
       <use xlink:href="#DejaVuSans-39" transform="translate(222.509766 0)"/>
      </g>
     </g>
    </g>
    <g id="xtick_6">
     <g id="line2d_6"/>
     <g id="text_6">
      <!-- p99.99 -->
      <g transform="translate(545.61181 403.15452) scale(0.12 -0.12)">
       <use xlink:href="#DejaVuSans-70"/>
       <use xlink:href="#DejaVuSans-39" transform="translate(63.476562 0)"/>
       <use xlink:href="#DejaVuSans-39" transform="translate(127.099609 0)"/>
       <use xlink:href="#DejaVuSans-2e" transform="translate(190.722656 0)"/>
       <use xlink:href="#DejaVuSans-39" transform="translate(222.509766 0)"/>
       <use xlink:href="#DejaVuSans-39" transform="translate(286.132812 0)"/>
      </g>
     </g>
    </g>
    <g id="xtick_7">
     <g id="line2d_7"/>
     <g id="text_7">
      <!-- p99.999 -->
      <g transform="translate(671.541403 403.15452) scale(0.12 -0.12)">
       <use xlink:href="#DejaVuSans-70"/>
       <use xlink:href="#DejaVuSans-39" transform="translate(63.476562 0)"/>
       <use xlink:href="#DejaVuSans-39" transform="translate(127.099609 0)"/>
       <use xlink:href="#DejaVuSans-2e" transform="translate(190.722656 0)"/>
       <use xlink:href="#DejaVuSans-39" transform="translate(222.509766 0)"/>
       <use xlink:href="#DejaVuSans-39" transform="translate(286.132812 0)"/>
       <use xlink:href="#DejaVuSans-39" transform="translate(349.755859 0)"/>
      </g>
     </g>
    </g>
    <g id="text_8">
     <!-- Percentile -->
     <g transform="translate(344.841517 430.287957) scale(0.14 -0.14)">
      <defs>
       <path id="DejaVuSans-50" d="M 1259 4147 
L 1259 2394 
L 2053 2394 
Q 2494 2394 2734 2622 
Q 2975 2850 2975 3272 
Q 2975 3691 2734 3919 
Q 2494 4147 2053 4147 
L 1259 4147 
z
M 628 4666 
L 2053 4666 
Q 2838 4666 3239 4311 
Q 3641 3956 3641 3272 
Q 3641 2581 3239 2228 
Q 2838 1875 2053 1875 
L 1259 1875 
L 1259 0 
L 628 0 
L 628 4666 
z
" transform="scale(0.015625)"/>
       <path id="DejaVuSans-65" d="M 3597 1894 
L 3597 1613 
L 953 1613 
Q 991 1019 1311 708 
Q 1631 397 2203 397 
Q 2534 397 2845 478 
Q 3156 559 3463 722 
L 3463 178 
Q 3153 47 2828 -22 
Q 2503 -91 2169 -91 
Q 1331 -91 842 396 
Q 353 884 353 1716 
Q 353 2575 817 3079 
Q 1281 3584 2069 3584 
Q 2775 3584 3186 3129 
Q 3597 2675 3597 1894 
z
M 3022 2063 
Q 3016 2534 2758 2815 
Q 2500 3097 2075 3097 
Q 1594 3097 1305 2825 
Q 1016 2553 972 2059 
L 3022 2063 
z
" transform="scale(0.015625)"/>
       <path id="DejaVuSans-72" d="M 2631 2963 
Q 2534 3019 2420 3045 
Q 2306 3072 2169 3072 
Q 1681 3072 1420 2755 
Q 1159 2438 1159 1844 
L 1159 0 
L 581 0 
L 581 3500 
L 1159 3500 
L 1159 2956 
Q 1341 3275 1631 3429 
Q 1922 3584 2338 3584 
Q 2397 3584 2469 3576 
Q 2541 3569 2628 3553 
L 2631 2963 
z
" transform="scale(0.015625)"/>
       <path id="DejaVuSans-63" d="M 3122 3366 
L 3122 2828 
Q 2878 2963 2633 3030 
Q 2388 3097 2138 3097 
Q 1578 3097 1268 2742 
Q 959 2388 959 1747 
Q 959 1106 1268 751 
Q 1578 397 2138 397 
Q 2388 397 2633 464 
Q 2878 531 3122 666 
L 3122 134 
Q 2881 22 2623 -34 
Q 2366 -91 2075 -91 
Q 1284 -91 818 406 
Q 353 903 353 1747 
Q 353 2603 823 3093 
Q 1294 3584 2113 3584 
Q 2378 3584 2631 3529 
Q 2884 3475 3122 3366 
z
" transform="scale(0.015625)"/>
       <path id="DejaVuSans-6e" d="M 3513 2113 
L 3513 0 
L 2938 0 
L 2938 2094 
Q 2938 2591 2744 2837 
Q 2550 3084 2163 3084 
Q 1697 3084 1428 2787 
Q 1159 2491 1159 1978 
L 1159 0 
L 581 0 
L 581 3500 
L 1159 3500 
L 1159 2956 
Q 1366 3272 1645 3428 
Q 1925 3584 2291 3584 
Q 2894 3584 3203 3211 
Q 3513 2838 3513 2113 
z
" transform="scale(0.015625)"/>
       <path id="DejaVuSans-74" d="M 1172 4494 
L 1172 3500 
L 2356 3500 
L 2356 3053 
L 1172 3053 
L 1172 1153 
Q 1172 725 1289 603 
Q 1406 481 1766 481 
L 2356 481 
L 2356 0 
L 1766 0 
Q 1100 0 847 248 
Q 594 497 594 1153 
L 594 3053 
L 172 3053 
L 172 3500 
L 594 3500 
L 594 4494 
L 1172 4494 
z
" transform="scale(0.015625)"/>
       <path id="DejaVuSans-69" d="M 603 3500 
L 1178 3500 
L 1178 0 
L 603 0 
L 603 3500 
z
M 603 4863 
L 1178 4863 
L 1178 4134 
L 603 4134 
L 603 4863 
z
" transform="scale(0.015625)"/>
       <path id="DejaVuSans-6c" d="M 603 4863 
L 1178 4863 
L 1178 0 
L 603 0 
L 603 4863 
z
" transform="scale(0.015625)"/>
      </defs>
      <use xlink:href="#DejaVuSans-50"/>
      <use xlink:href="#DejaVuSans-65" transform="translate(56.677734 0)"/>
      <use xlink:href="#DejaVuSans-72" transform="translate(118.201172 0)"/>
      <use xlink:href="#DejaVuSans-63" transform="translate(157.064453 0)"/>
      <use xlink:href="#DejaVuSans-65" transform="translate(212.044922 0)"/>
      <use xlink:href="#DejaVuSans-6e" transform="translate(273.568359 0)"/>
      <use xlink:href="#DejaVuSans-74" transform="translate(336.947266 0)"/>
      <use xlink:href="#DejaVuSans-69" transform="translate(376.15625 0)"/>
      <use xlink:href="#DejaVuSans-6c" transform="translate(403.939453 0)"/>
      <use xlink:href="#DejaVuSans-65" transform="translate(431.722656 0)"/>
     </g>
    </g>
   </g>
   <g id="matplotlib.axis_2">
    <g id="ytick_1">
     <g id="line2d_8"/>
     <g id="text_9">
      <!-- $\mathdefault{10^{0}}$ -->
      <g transform="translate(24.749375 379.323725) scale(0.11 -0.11)">
       <defs>
        <path id="DejaVuSans-31" d="M 794 531 
L 1825 531 
L 1825 4091 
L 703 3866 
L 703 4441 
L 1819 4666 
L 2450 4666 
L 2450 531 
L 3481 531 
L 3481 0 
L 794 0 
L 794 531 
z
" transform="scale(0.015625)"/>
       </defs>
       <use xlink:href="#DejaVuSans-31" transform="translate(0 0.765625)"/>
       <use xlink:href="#DejaVuSans-30" transform="translate(63.623047 0.765625)"/>
       <use xlink:href="#DejaVuSans-30" transform="translate(128.203125 39.046875) scale(0.7)"/>
      </g>
     </g>
    </g>
    <g id="ytick_2">
     <g id="line2d_9"/>
     <g id="text_10">
      <!-- $\mathdefault{10^{1}}$ -->
      <g transform="translate(24.749375 302.378028) scale(0.11 -0.11)">
       <use xlink:href="#DejaVuSans-31" transform="translate(0 0.684375)"/>
       <use xlink:href="#DejaVuSans-30" transform="translate(63.623047 0.684375)"/>
       <use xlink:href="#DejaVuSans-31" transform="translate(128.203125 38.965625) scale(0.7)"/>
      </g>
     </g>
    </g>
    <g id="ytick_3">
     <g id="line2d_10"/>
     <g id="text_11">
      <!-- $\mathdefault{10^{2}}$ -->
      <g transform="translate(24.749375 225.432332) scale(0.11 -0.11)">
       <defs>
        <path id="DejaVuSans-32" d="M 1228 531 
L 3431 531 
L 3431 0 
L 469 0 
L 469 531 
Q 828 903 1448 1529 
Q 2069 2156 2228 2338 
Q 2531 2678 2651 2914 
Q 2772 3150 2772 3378 
Q 2772 3750 2511 3984 
Q 2250 4219 1831 4219 
Q 1534 4219 1204 4116 
Q 875 4013 500 3803 
L 500 4441 
Q 881 4594 1212 4672 
Q 1544 4750 1819 4750 
Q 2544 4750 2975 4387 
Q 3406 4025 3406 3419 
Q 3406 3131 3298 2873 
Q 3191 2616 2906 2266 
Q 2828 2175 2409 1742 
Q 1991 1309 1228 531 
z
" transform="scale(0.015625)"/>
       </defs>
       <use xlink:href="#DejaVuSans-31" transform="translate(0 0.765625)"/>
       <use xlink:href="#DejaVuSans-30" transform="translate(63.623047 0.765625)"/>
       <use xlink:href="#DejaVuSans-32" transform="translate(128.203125 39.046875) scale(0.7)"/>
      </g>
     </g>
    </g>
    <g id="ytick_4">
     <g id="line2d_11"/>
     <g id="text_12">
      <!-- $\mathdefault{10^{3}}$ -->
      <g transform="translate(24.749375 148.486635) scale(0.11 -0.11)">
       <defs>
        <path id="DejaVuSans-33" d="M 2597 2516 
Q 3050 2419 3304 2112 
Q 3559 1806 3559 1356 
Q 3559 666 3084 287 
Q 2609 -91 1734 -91 
Q 1441 -91 1130 -33 
Q 819 25 488 141 
L 488 750 
Q 750 597 1062 519 
Q 1375 441 1716 441 
Q 2309 441 2620 675 
Q 2931 909 2931 1356 
Q 2931 1769 2642 2001 
Q 2353 2234 1838 2234 
L 1294 2234 
L 1294 2753 
L 1863 2753 
Q 2328 2753 2575 2939 
Q 2822 3125 2822 3475 
Q 2822 3834 2567 4026 
Q 2313 4219 1838 4219 
Q 1578 4219 1281 4162 
Q 984 4106 628 3988 
L 628 4550 
Q 988 4650 1302 4700 
Q 1616 4750 1894 4750 
Q 2613 4750 3031 4423 
Q 3450 4097 3450 3541 
Q 3450 3153 3228 2886 
Q 3006 2619 2597 2516 
z
" transform="scale(0.015625)"/>
       </defs>
       <use xlink:href="#DejaVuSans-31" transform="translate(0 0.765625)"/>
       <use xlink:href="#DejaVuSans-30" transform="translate(63.623047 0.765625)"/>
       <use xlink:href="#DejaVuSans-33" transform="translate(128.203125 39.046875) scale(0.7)"/>
      </g>
     </g>
    </g>
    <g id="ytick_5">
     <g id="line2d_12"/>
     <g id="text_13">
      <!-- $\mathdefault{10^{4}}$ -->
      <g transform="translate(24.749375 71.540938) scale(0.11 -0.11)">
       <defs>
        <path id="DejaVuSans-34" d="M 2419 4116 
L 825 1625 
L 2419 1625 
L 2419 4116 
z
M 2253 4666 
L 3047 4666 
L 3047 1625 
L 3713 1625 
L 3713 1100 
L 3047 1100 
L 3047 0 
L 2419 0 
L 2419 1100 
L 313 1100 
L 313 1709 
L 2253 4666 
z
" transform="scale(0.015625)"/>
       </defs>
       <use xlink:href="#DejaVuSans-31" transform="translate(0 0.684375)"/>
       <use xlink:href="#DejaVuSans-30" transform="translate(63.623047 0.684375)"/>
       <use xlink:href="#DejaVuSans-34" transform="translate(128.203125 38.965625) scale(0.7)"/>
      </g>
     </g>
    </g>
    <g id="text_14">
     <!-- Latency (ns, log scale) -->
     <g transform="translate(17.837813 300.048666) rotate(-90) scale(0.14 -0.14)">
      <defs>
       <path id="DejaVuSans-4c" d="M 628 4666 
L 1259 4666 
L 1259 531 
L 3531 531 
L 3531 0 
L 628 0 
L 628 4666 
z
" transform="scale(0.015625)"/>
       <path id="DejaVuSans-61" d="M 2194 1759 
Q 1497 1759 1228 1600 
Q 959 1441 959 1056 
Q 959 750 1161 570 
Q 1363 391 1709 391 
Q 2188 391 2477 730 
Q 2766 1069 2766 1631 
L 2766 1759 
L 2194 1759 
z
M 3341 1997 
L 3341 0 
L 2766 0 
L 2766 531 
Q 2569 213 2275 61 
Q 1981 -91 1556 -91 
Q 1019 -91 701 211 
Q 384 513 384 1019 
Q 384 1609 779 1909 
Q 1175 2209 1959 2209 
L 2766 2209 
L 2766 2266 
Q 2766 2663 2505 2880 
Q 2244 3097 1772 3097 
Q 1472 3097 1187 3025 
Q 903 2953 641 2809 
L 641 3341 
Q 956 3463 1253 3523 
Q 1550 3584 1831 3584 
Q 2591 3584 2966 3190 
Q 3341 2797 3341 1997 
z
" transform="scale(0.015625)"/>
       <path id="DejaVuSans-79" d="M 2059 -325 
Q 1816 -950 1584 -1140 
Q 1353 -1331 966 -1331 
L 506 -1331 
L 506 -850 
L 844 -850 
Q 1081 -850 1212 -737 
Q 1344 -625 1503 -206 
L 1606 56 
L 191 3500 
L 800 3500 
L 1894 763 
L 2988 3500 
L 3597 3500 
L 2059 -325 
z
" transform="scale(0.015625)"/>
       <path id="DejaVuSans-20" transform="scale(0.015625)"/>
       <path id="DejaVuSans-28" d="M 1984 4856 
Q 1566 4138 1362 3434 
Q 1159 2731 1159 2009 
Q 1159 1288 1364 580 
Q 1569 -128 1984 -844 
L 1484 -844 
Q 1016 -109 783 600 
Q 550 1309 550 2009 
Q 550 2706 781 3412 
Q 1013 4119 1484 4856 
L 1984 4856 
z
" transform="scale(0.015625)"/>
       <path id="DejaVuSans-73" d="M 2834 3397 
L 2834 2853 
Q 2591 2978 2328 3040 
Q 2066 3103 1784 3103 
Q 1356 3103 1142 2972 
Q 928 2841 928 2578 
Q 928 2378 1081 2264 
Q 1234 2150 1697 2047 
L 1894 2003 
Q 2506 1872 2764 1633 
Q 3022 1394 3022 966 
Q 3022 478 2636 193 
Q 2250 -91 1575 -91 
Q 1294 -91 989 -36 
Q 684 19 347 128 
L 347 722 
Q 666 556 975 473 
Q 1284 391 1588 391 
Q 1994 391 2212 530 
Q 2431 669 2431 922 
Q 2431 1156 2273 1281 
Q 2116 1406 1581 1522 
L 1381 1569 
Q 847 1681 609 1914 
Q 372 2147 372 2553 
Q 372 3047 722 3315 
Q 1072 3584 1716 3584 
Q 2034 3584 2315 3537 
Q 2597 3491 2834 3397 
z
" transform="scale(0.015625)"/>
       <path id="DejaVuSans-2c" d="M 750 794 
L 1409 794 
L 1409 256 
L 897 -744 
L 494 -744 
L 750 256 
L 750 794 
z
" transform="scale(0.015625)"/>
       <path id="DejaVuSans-6f" d="M 1959 3097 
Q 1497 3097 1228 2736 
Q 959 2375 959 1747 
Q 959 1119 1226 758 
Q 1494 397 1959 397 
Q 2419 397 2687 759 
Q 2956 1122 2956 1747 
Q 2956 2369 2687 2733 
Q 2419 3097 1959 3097 
z
M 1959 3584 
Q 2709 3584 3137 3096 
Q 3566 2609 3566 1747 
Q 3566 888 3137 398 
Q 2709 -91 1959 -91 
Q 1206 -91 779 398 
Q 353 888 353 1747 
Q 353 2609 779 3096 
Q 1206 3584 1959 3584 
z
" transform="scale(0.015625)"/>
       <path id="DejaVuSans-67" d="M 2906 1791 
Q 2906 2416 2648 2759 
Q 2391 3103 1925 3103 
Q 1463 3103 1205 2759 
Q 947 2416 947 1791 
Q 947 1169 1205 825 
Q 1463 481 1925 481 
Q 2391 481 2648 825 
Q 2906 1169 2906 1791 
z
M 3481 434 
Q 3481 -459 3084 -895 
Q 2688 -1331 1869 -1331 
Q 1566 -1331 1297 -1286 
Q 1028 -1241 775 -1147 
L 775 -588 
Q 1028 -725 1275 -790 
Q 1522 -856 1778 -856 
Q 2344 -856 2625 -561 
Q 2906 -266 2906 331 
L 2906 616 
Q 2728 306 2450 153 
Q 2172 0 1784 0 
Q 1141 0 747 490 
Q 353 981 353 1791 
Q 353 2603 747 3093 
Q 1141 3584 1784 3584 
Q 2172 3584 2450 3431 
Q 2728 3278 2906 2969 
L 2906 3500 
L 3481 3500 
L 3481 434 
z
" transform="scale(0.015625)"/>
       <path id="DejaVuSans-29" d="M 513 4856 
L 1013 4856 
Q 1481 4119 1714 3412 
Q 1947 2706 1947 2009 
Q 1947 1309 1714 600 
Q 1481 -109 1013 -844 
L 513 -844 
Q 928 -128 1133 580 
Q 1338 1288 1338 2009 
Q 1338 2731 1133 3434 
Q 928 4138 513 4856 
z
" transform="scale(0.015625)"/>
      </defs>
      <use xlink:href="#DejaVuSans-4c"/>
      <use xlink:href="#DejaVuSans-61" transform="translate(55.712891 0)"/>
      <use xlink:href="#DejaVuSans-74" transform="translate(116.992188 0)"/>
      <use xlink:href="#DejaVuSans-65" transform="translate(156.201172 0)"/>
      <use xlink:href="#DejaVuSans-6e" transform="translate(217.724609 0)"/>
      <use xlink:href="#DejaVuSans-63" transform="translate(281.103516 0)"/>
      <use xlink:href="#DejaVuSans-79" transform="translate(336.083984 0)"/>
      <use xlink:href="#DejaVuSans-20" transform="translate(395.263672 0)"/>
      <use xlink:href="#DejaVuSans-28" transform="translate(427.050781 0)"/>
      <use xlink:href="#DejaVuSans-6e" transform="translate(466.064453 0)"/>
      <use xlink:href="#DejaVuSans-73" transform="translate(529.443359 0)"/>
      <use xlink:href="#DejaVuSans-2c" transform="translate(581.542969 0)"/>
      <use xlink:href="#DejaVuSans-20" transform="translate(613.330078 0)"/>
      <use xlink:href="#DejaVuSans-6c" transform="translate(645.117188 0)"/>
      <use xlink:href="#DejaVuSans-6f" transform="translate(672.900391 0)"/>
      <use xlink:href="#DejaVuSans-67" transform="translate(734.082031 0)"/>
      <use xlink:href="#DejaVuSans-20" transform="translate(797.558594 0)"/>
      <use xlink:href="#DejaVuSans-73" transform="translate(829.345703 0)"/>
      <use xlink:href="#DejaVuSans-63" transform="translate(881.445312 0)"/>
      <use xlink:href="#DejaVuSans-61" transform="translate(936.425781 0)"/>
      <use xlink:href="#DejaVuSans-6c" transform="translate(997.705078 0)"/>
      <use xlink:href="#DejaVuSans-65" transform="translate(1025.488281 0)"/>
      <use xlink:href="#DejaVuSans-29" transform="translate(1087.011719 0)"/>
     </g>
    </g>
   </g>
   <g id="line2d_13">
    <path d="M 47.609713 375.144584 
L 47.660506 301.71973 
L 48.014395 267.579117 
L 48.37132 251.047807 
L 49.311475 240.03757 
L 50.31616 231.769909 
L 50.507268 225.147412 
L 51.344261 219.306014 
L 54.18253 214.883213 
L 54.182656 214.608174 
L 58.36325 210.733132 
L 58.363455 210.490097 
L 78.173621 207.04198 
L 78.175269 206.824279 
L 122.744672 203.71829 
L 122.750017 203.521138 
L 134.883337 200.695476 
L 134.885724 200.51533 
L 140.722886 197.923559 
L 140.72318 197.757717 
L 181.381469 195.364062 
L 181.389337 195.21042 
L 220.047218 192.986734 
L 220.058037 192.84362 
L 237.026563 190.767356 
L 270.392971 188.686242 
L 270.395908 188.560378 
L 306.042928 186.727171 
L 306.053989 186.60846 
L 327.865562 184.876617 
L 338.659529 183.123187 
L 360.349825 181.457192 
L 385.944954 179.870326 
L 403.698436 178.355411 
L 419.358825 176.906204 
L 429.368588 175.517242 
L 436.401604 174.183715 
L 441.30456 172.901367 
L 444.633068 171.666415 
L 448.239531 170.475479 
L 451.286135 169.32553 
L 452.985954 168.213841 
L 454.276144 167.137946 
L 457.271591 165.084811 
L 458.416592 164.103688 
L 459.754303 163.150552 
L 460.606792 162.223848 
L 462.351466 161.322152 
L 463.244487 160.444149 
L 464.795878 159.588624 
L 466.011742 157.940606 
L 466.869132 157.146106 
L 468.131079 156.370057 
L 470.12946 154.87002 
L 471.467477 154.144519 
L 472.095905 153.434435 
L 472.944862 152.739125 
L 474.903113 151.39046 
L 475.236208 150.736004 
L 477.974323 148.846194 
L 480.362327 147.6432 
L 482.096262 147.057562 
L 483.111577 146.482011 
L 484.538196 145.359821 
L 486.953499 144.274094 
L 487.782167 143.744179 
L 489.333787 143.222535 
L 491.669809 142.20306 
L 492.571403 141.213767 
L 493.951434 140.729892 
L 496.654134 139.318934 
L 497.805821 138.410342 
L 500.182313 137.525802 
L 500.35596 137.092159 
L 500.880135 136.664072 
L 501.232314 135.824007 
L 502.122514 135.411763 
L 502.482569 135.004543 
L 504.131909 134.204694 
L 506.408924 132.660236 
L 507.780954 131.913975 
L 508.179178 131.547003 
L 508.37935 131.184017 
L 510.213639 130.118132 
L 511.048446 129.425973 
L 512.109653 129.085197 
L 512.756105 128.083235 
L 513.850284 127.755815 
L 515.191977 127.110443 
L 517.03209 126.792372 
L 517.501663 126.4773 
L 517.737925 126.165171 
L 518.693007 125.549525 
L 519.420094 125.245904 
L 520.65315 124.945016 
L 521.406147 124.646814 
L 522.683945 124.351249 
L 523.203289 123.767848 
L 524.522985 123.479923 
L 526.424077 123.194457 
L 526.979238 122.91141 
L 527.822373 122.63074 
L 528.106245 122.076374 
L 528.678315 121.802602 
L 531.62917 121.261697 
L 532.545425 120.994492 
L 538.722326 120.189222 
L 539.066966 119.930424 
L 542.267422 119.165844 
L 546.443292 118.665672 
L 551.382081 117.687243 
L 554.476499 117.447047 
L 554.932764 117.208565 
L 556.324154 116.971773 
L 560.717166 116.503165 
L 564.932098 115.585213 
L 568.31402 115.135523 
L 568.897947 114.912927 
L 570.084274 114.691804 
L 571.911951 114.472134 
L 572.534592 114.2539 
L 573.16419 113.82166 
L 577.780093 112.973599 
L 582.808129 112.764905 
L 584.331152 112.557505 
L 587.506553 112.351385 
L 588.329173 112.146529 
L 592.632671 111.740546 
L 593.534266 111.339436 
L 597.292221 110.551376 
L 605.655458 109.781474 
L 607.955714 109.028911 
L 609.142041 108.843389 
L 610.353882 108.292923 
L 611.592359 107.572796 
L 614.154093 107.395164 
L 615.48 107.042706 
L 616.83786 106.520893 
L 618.22925 106.34875 
L 619.655869 105.83758 
L 621.119548 105.668913 
L 622.622262 105.167961 
L 624.166152 105.002631 
L 625.753537 104.511496 
L 630.803043 104.027474 
L 634.439688 103.392827 
L 636.349988 102.616102 
L 638.327329 101.558152 
L 644.713225 101.114801 
L 647.013481 99.960508 
L 651.916437 99.818985 
L 657.287017 99.258811 
L 660.177315 98.707872 
L 663.223918 98.300549 
L 666.444706 95.440711 
L 673.497455 94.948822 
L 677.385096 94.343971 
L 686.071247 93.515161 
L 690.974203 92.820755 
L 696.344784 91.805474 
L 702.281685 91.145362 
L 708.918576 89.75834 
L 716.442863 88.729249 
L 725.129014 88.126671 
L 729.348278 87.448797 
L 729.348278 87.448797 
" clip-path="url(#pb6e9455ea3)" style="fill: none; stroke: #1f77b4; stroke-width: 2; stroke-linecap: square"/>
    <defs>
     <path id="md44d9e3773" d="M 0 2 
C 0.530406 2 1.03916 1.789267 1.414214 1.414214 
C 1.789267 1.03916 2 0.530406 2 0 
C 2 -0.530406 1.789267 -1.03916 1.414214 -1.414214 
C 1.03916 -1.789267 0.530406 -2 0 -2 
C -0.530406 -2 -1.03916 -1.789267 -1.414214 -1.414214 
C -1.789267 -1.03916 -2 -0.530406 -2 0 
C -2 0.530406 -1.789267 1.03916 -1.414214 1.414214 
C -1.03916 1.789267 -0.530406 2 0 2 
z
" style="stroke: #1f77b4"/>
    </defs>
    <g clip-path="url(#pb6e9455ea3)">
     <use xlink:href="#md44d9e3773" x="47.609713" y="375.144584" style="fill: #1f77b4; stroke: #1f77b4"/>
     <use xlink:href="#md44d9e3773" x="58.36325" y="210.733132" style="fill: #1f77b4; stroke: #1f77b4"/>
     <use xlink:href="#md44d9e3773" x="181.389337" y="195.21042" style="fill: #1f77b4; stroke: #1f77b4"/>
     <use xlink:href="#md44d9e3773" x="385.944954" y="179.870326" style="fill: #1f77b4; stroke: #1f77b4"/>
     <use xlink:href="#md44d9e3773" x="455.83283" y="166.095613" style="fill: #1f77b4; stroke: #1f77b4"/>
     <use xlink:href="#md44d9e3773" x="468.131079" y="156.370057" style="fill: #1f77b4; stroke: #1f77b4"/>
     <use xlink:href="#md44d9e3773" x="477.974323" y="148.846194" style="fill: #1f77b4; stroke: #1f77b4"/>
     <use xlink:href="#md44d9e3773" x="490.489693" y="142.70891" style="fill: #1f77b4; stroke: #1f77b4"/>
     <use xlink:href="#md44d9e3773" x="500.182313" y="137.525802" style="fill: #1f77b4; stroke: #1f77b4"/>
     <use xlink:href="#md44d9e3773" x="506.408924" y="132.660236" style="fill: #1f77b4; stroke: #1f77b4"/>
     <use xlink:href="#md44d9e3773" x="512.756105" y="128.083235" style="fill: #1f77b4; stroke: #1f77b4"/>
     <use xlink:href="#md44d9e3773" x="521.406147" y="124.646814" style="fill: #1f77b4; stroke: #1f77b4"/>
     <use xlink:href="#md44d9e3773" x="531.62917" y="121.261697" style="fill: #1f77b4; stroke: #1f77b4"/>
     <use xlink:href="#md44d9e3773" x="547.638003" y="118.418366" style="fill: #1f77b4; stroke: #1f77b4"/>
     <use xlink:href="#md44d9e3773" x="563.848441" y="115.812348" style="fill: #1f77b4; stroke: #1f77b4"/>
     <use xlink:href="#md44d9e3773" x="576.422233" y="113.183605" style="fill: #1f77b4; stroke: #1f77b4"/>
     <use xlink:href="#md44d9e3773" x="597.292221" y="110.551376" style="fill: #1f77b4; stroke: #1f77b4"/>
     <use xlink:href="#md44d9e3773" x="616.83786" y="106.520893" style="fill: #1f77b4; stroke: #1f77b4"/>
     <use xlink:href="#md44d9e3773" x="636.349988" y="102.616102" style="fill: #1f77b4; stroke: #1f77b4"/>
     <use xlink:href="#md44d9e3773" x="673.497455" y="94.948822" style="fill: #1f77b4; stroke: #1f77b4"/>
     <use xlink:href="#md44d9e3773" x="747.976343" y="84.722981" style="fill: #1f77b4; stroke: #1f77b4"/>
    </g>
   </g>
   <g id="line2d_14">
    <path d="M 47.609431 375.144584 
L 47.610164 375.144584 
L 47.788849 301.71973 
L 48.179341 267.579117 
L 48.642933 251.047807 
L 49.76227 240.03757 
L 50.89593 224.774033 
L 53.617972 219.622766 
L 53.618223 219.306014 
L 60.263578 214.883213 
L 60.264142 214.608174 
L 66.450607 210.733132 
L 66.451001 210.490097 
L 98.236149 207.04198 
L 98.238225 206.824279 
L 142.403174 203.71829 
L 142.408932 203.521138 
L 153.813005 200.695476 
L 153.815232 200.51533 
L 165.879458 197.923559 
L 165.880837 197.757717 
L 221.015744 195.364062 
L 221.032867 195.21042 
L 256.389805 192.986734 
L 273.452788 190.767356 
L 273.465194 190.63342 
L 297.958608 188.686242 
L 297.963399 188.560378 
L 333.75887 186.727171 
L 333.767914 186.60846 
L 358.706728 184.876617 
L 371.910593 183.123187 
L 429.122248 179.870326 
L 452.092528 178.355411 
L 470.537615 175.517242 
L 478.325967 174.183715 
L 484.406831 172.901367 
L 491.520766 170.475479 
L 494.575631 169.32553 
L 495.525346 167.137946 
L 496.329189 166.095613 
L 496.817058 164.103688 
L 497.47419 163.150552 
L 498.306531 160.444149 
L 499.321845 159.588624 
L 500.704699 157.940606 
L 501.943176 157.146106 
L 502.84477 156.370057 
L 504.880568 154.144519 
L 505.06934 153.434435 
L 505.639481 152.739125 
L 506.602726 152.057989 
L 507.188677 151.39046 
L 508.379181 150.736004 
L 508.580067 149.464332 
L 510.21347 147.6432 
L 510.629327 147.057562 
L 511.258926 146.482011 
L 511.6826 145.916206 
L 512.324145 145.359821 
L 513.409891 144.812548 
L 513.629573 144.274094 
L 514.071524 143.744179 
L 515.191808 143.222535 
L 516.566229 142.70891 
L 517.266218 142.20306 
L 519.176518 141.213767 
L 519.419924 140.729892 
L 519.909914 140.252922 
L 520.404202 139.318934 
L 523.20312 135.824007 
L 523.464598 135.411763 
L 523.991223 135.004543 
L 524.522816 134.204694 
L 525.059472 132.660236 
L 525.874162 131.547003 
L 526.148365 130.469663 
L 526.700805 130.118132 
L 526.979069 129.085197 
L 527.822204 128.747861 
L 528.391385 128.083235 
L 528.966374 127.755815 
L 529.256084 127.431571 
L 531.326864 126.792372 
L 532.545256 125.549525 
L 534.106255 124.945016 
L 534.423711 124.646814 
L 535.064042 124.351249 
L 540.113547 122.91141 
L 541.540167 122.63074 
L 541.902537 122.352407 
L 552.68734 120.712909 
L 554.47633 119.673615 
L 556.323985 119.418765 
L 562.260887 117.929177 
L 564.931929 117.687243 
L 566.036836 117.447047 
L 572.534423 116.971773 
L 573.164021 116.736648 
L 579.171314 116.041037 
L 582.80796 115.359611 
L 584.330983 115.135523 
L 594.450352 114.2539 
L 600.284708 113.82166 
L 601.318654 113.607618 
L 606.79368 112.973599 
L 607.955545 112.764905 
L 609.141872 112.146529 
L 610.353713 111.740546 
L 611.59219 111.539389 
L 625.753368 110.164208 
L 627.38677 109.591738 
L 630.802874 109.215469 
L 632.591863 108.658891 
L 636.349819 108.475406 
L 640.37642 107.751378 
L 642.503029 107.21847 
L 644.713056 106.007103 
L 647.013312 105.83758 
L 649.41148 104.838116 
L 651.916267 104.027474 
L 654.537598 102.924629 
L 657.286848 102.310398 
L 663.223749 101.707253 
L 666.444537 100.102633 
L 669.860641 99.960508 
L 677.384927 98.982206 
L 681.560796 97.091273 
L 686.071078 96.831973 
L 690.974034 96.192392 
L 696.344615 93.166155 
L 702.281516 89.653993 
L 708.918407 89.137091 
L 716.442694 88.027289 
L 725.128845 84.365337 
L 729.348278 83.109632 
L 729.348278 83.109632 
" clip-path="url(#pb6e9455ea3)" style="fill: none; stroke: #ff7f0e; stroke-width: 2; stroke-linecap: square"/>
    <defs>
     <path id="m9be1834093" d="M -0 2 
L 2 -2 
L -2 -2 
z
" style="stroke: #ff7f0e; stroke-linejoin: miter"/>
    </defs>
    <g clip-path="url(#pb6e9455ea3)">
     <use xlink:href="#m9be1834093" x="47.609431" y="375.144584" style="fill: #ff7f0e; stroke: #ff7f0e; stroke-linejoin: miter"/>
     <use xlink:href="#m9be1834093" x="50.89593" y="224.774033" style="fill: #ff7f0e; stroke: #ff7f0e; stroke-linejoin: miter"/>
     <use xlink:href="#m9be1834093" x="142.403174" y="203.71829" style="fill: #ff7f0e; stroke: #ff7f0e; stroke-linejoin: miter"/>
     <use xlink:href="#m9be1834093" x="273.452788" y="190.767356" style="fill: #ff7f0e; stroke: #ff7f0e; stroke-linejoin: miter"/>
     <use xlink:href="#m9be1834093" x="429.122248" y="179.870326" style="fill: #ff7f0e; stroke: #ff7f0e; stroke-linejoin: miter"/>
     <use xlink:href="#m9be1834093" x="495.048488" y="168.213841" style="fill: #ff7f0e; stroke: #ff7f0e; stroke-linejoin: miter"/>
     <use xlink:href="#m9be1834093" x="500.704699" y="157.940606" style="fill: #ff7f0e; stroke: #ff7f0e; stroke-linejoin: miter"/>
     <use xlink:href="#m9be1834093" x="508.379181" y="150.736004" style="fill: #ff7f0e; stroke: #ff7f0e; stroke-linejoin: miter"/>
     <use xlink:href="#m9be1834093" x="513.409891" y="144.812548" style="fill: #ff7f0e; stroke: #ff7f0e; stroke-linejoin: miter"/>
     <use xlink:href="#m9be1834093" x="519.909914" y="140.252922" style="fill: #ff7f0e; stroke: #ff7f0e; stroke-linejoin: miter"/>
     <use xlink:href="#m9be1834093" x="523.991223" y="135.004543" style="fill: #ff7f0e; stroke: #ff7f0e; stroke-linejoin: miter"/>
     <use xlink:href="#m9be1834093" x="527.822204" y="128.747861" style="fill: #ff7f0e; stroke: #ff7f0e; stroke-linejoin: miter"/>
     <use xlink:href="#m9be1834093" x="533.476656" y="125.245904" style="fill: #ff7f0e; stroke: #ff7f0e; stroke-linejoin: miter"/>
     <use xlink:href="#m9be1834093" x="541.540167" y="122.63074" style="fill: #ff7f0e; stroke: #ff7f0e; stroke-linejoin: miter"/>
     <use xlink:href="#m9be1834093" x="554.023729" y="119.930424" style="fill: #ff7f0e; stroke: #ff7f0e; stroke-linejoin: miter"/>
     <use xlink:href="#m9be1834093" x="566.036836" y="117.447047" style="fill: #ff7f0e; stroke: #ff7f0e; stroke-linejoin: miter"/>
     <use xlink:href="#m9be1834093" x="584.330983" y="115.135523" style="fill: #ff7f0e; stroke: #ff7f0e; stroke-linejoin: miter"/>
     <use xlink:href="#m9be1834093" x="604.539441" y="113.183605" style="fill: #ff7f0e; stroke: #ff7f0e; stroke-linejoin: miter"/>
     <use xlink:href="#m9be1834093" x="621.119379" y="110.551376" style="fill: #ff7f0e; stroke: #ff7f0e; stroke-linejoin: miter"/>
     <use xlink:href="#m9be1834093" x="644.713056" y="106.007103" style="fill: #ff7f0e; stroke: #ff7f0e; stroke-linejoin: miter"/>
     <use xlink:href="#m9be1834093" x="677.384927" y="98.982206" style="fill: #ff7f0e; stroke: #ff7f0e; stroke-linejoin: miter"/>
     <use xlink:href="#m9be1834093" x="735.402382" y="81.307929" style="fill: #ff7f0e; stroke: #ff7f0e; stroke-linejoin: miter"/>
    </g>
   </g>
   <g id="line2d_15">
    <path d="M 47.609431 375.144584 
L 47.610164 375.144584 
L 47.630622 301.71973 
L 48.338831 267.579117 
L 51.039465 251.047807 
L 51.039525 250.242537 
L 54.435753 240.03757 
L 54.435944 239.456389 
L 56.546101 231.769909 
L 56.546167 231.315247 
L 58.509599 225.147412 
L 58.509735 224.774033 
L 66.30166 219.622766 
L 66.302052 219.306014 
L 74.7248 214.883213 
L 74.725529 214.608174 
L 86.085036 210.733132 
L 86.085705 210.490097 
L 105.791812 207.04198 
L 105.793711 206.824279 
L 125.578031 203.71829 
L 125.579604 203.521138 
L 135.079319 200.695476 
L 135.080649 200.51533 
L 140.282773 197.923559 
L 140.283064 197.757717 
L 148.826492 195.364062 
L 148.82785 195.21042 
L 159.805951 192.986734 
L 159.807189 192.84362 
L 171.854789 190.767356 
L 171.856833 190.63342 
L 192.336156 188.686242 
L 192.339097 188.560378 
L 218.367963 186.727171 
L 218.373797 186.60846 
L 235.451625 184.876617 
L 235.457945 184.76429 
L 247.82827 183.123187 
L 269.538802 179.773605 
L 280.96567 178.355411 
L 293.559841 176.906204 
L 306.996488 175.517242 
L 384.859501 168.213841 
L 417.250523 165.084811 
L 450.706655 162.223848 
L 467.254365 160.444149 
L 474.682082 159.588624 
L 486.543634 157.940606 
L 490.929289 157.146106 
L 495.845621 156.370057 
L 498.812014 155.611623 
L 502.482512 154.87002 
L 508.179122 152.739125 
L 511.895751 150.094119 
L 512.756049 149.464332 
L 514.071637 148.239284 
L 514.966075 147.057562 
L 515.191921 146.482011 
L 515.418676 144.812548 
L 515.874941 144.274094 
L 516.566341 143.744179 
L 516.798707 142.70891 
L 517.501607 142.20306 
L 517.737869 141.704753 
L 518.69295 140.729892 
L 519.910027 140.252922 
L 520.653094 139.782665 
L 522.683888 137.965145 
L 523.991336 135.824007 
L 524.522929 135.411763 
L 524.790618 135.004543 
L 525.601401 134.602225 
L 526.148477 134.204694 
L 526.42402 133.811836 
L 527.539868 132.660236 
L 527.822317 132.285022 
L 528.966487 131.547003 
L 529.547404 130.824931 
L 529.840124 130.118132 
L 530.430165 129.770261 
L 531.326976 129.425973 
L 533.164589 128.413896 
L 533.476769 128.083235 
L 534.106367 127.755815 
L 535.387069 127.431571 
L 536.697557 126.165171 
L 539.762578 125.245904 
L 540.11366 124.945016 
L 542.634458 124.351249 
L 544.12722 123.767848 
L 544.506672 123.479923 
L 550.528244 122.91141 
L 551.382025 122.63074 
L 551.813816 122.352407 
L 553.574848 122.076374 
L 554.023842 121.802602 
L 554.932708 121.531055 
L 557.750717 121.261697 
L 559.214396 120.994492 
L 560.71711 120.189222 
L 563.848385 119.673615 
L 571.911895 118.665672 
L 572.534536 118.418366 
L 573.800846 118.172876 
L 580.598046 117.929177 
L 582.061724 117.687243 
L 589.163923 117.208565 
L 590.871583 116.736648 
L 599.269506 115.812348 
L 600.284821 115.585213 
L 601.318766 115.135523 
L 602.372039 114.912927 
L 604.539554 114.691804 
L 606.793793 114.2539 
L 609.141984 114.037081 
L 612.858613 112.973599 
L 614.154037 112.764905 
L 616.837804 112.557505 
L 624.166095 112.351385 
L 627.386883 112.146529 
L 629.069051 111.539389 
L 632.591976 111.140672 
L 638.327273 110.943083 
L 640.376533 110.746656 
L 642.503142 110.357231 
L 644.713168 110.164208 
L 649.411592 109.403074 
L 651.91638 108.843389 
L 654.537711 108.658891 
L 663.223862 107.395164 
L 666.44465 105.83758 
L 669.860753 105.501093 
L 677.38504 105.334112 
L 686.071191 99.960508 
L 690.974147 97.765061 
L 696.344728 96.192392 
L 702.281629 94.224304 
L 708.91852 93.515161 
L 725.128958 91.473788 
L 729.348278 91.205333 
L 729.348278 91.205333 
" clip-path="url(#pb6e9455ea3)" style="fill: none; stroke: #2ca02c; stroke-width: 2; stroke-linecap: square"/>
    <defs>
     <path id="m4cd7fd5552" d="M -2 2 
L 2 2 
L 2 -2 
L -2 -2 
z
" style="stroke: #2ca02c; stroke-linejoin: miter"/>
    </defs>
    <g clip-path="url(#pb6e9455ea3)">
     <use xlink:href="#m4cd7fd5552" x="47.609431" y="375.144584" style="fill: #2ca02c; stroke: #2ca02c; stroke-linejoin: miter"/>
     <use xlink:href="#m4cd7fd5552" x="56.546167" y="231.315247" style="fill: #2ca02c; stroke: #2ca02c; stroke-linejoin: miter"/>
     <use xlink:href="#m4cd7fd5552" x="105.791812" y="207.04198" style="fill: #2ca02c; stroke: #2ca02c; stroke-linejoin: miter"/>
     <use xlink:href="#m4cd7fd5552" x="148.82785" y="195.21042" style="fill: #2ca02c; stroke: #2ca02c; stroke-linejoin: miter"/>
     <use xlink:href="#m4cd7fd5552" x="235.451625" y="184.876617" style="fill: #2ca02c; stroke: #2ca02c; stroke-linejoin: miter"/>
     <use xlink:href="#m4cd7fd5552" x="306.996488" y="175.517242" style="fill: #2ca02c; stroke: #2ca02c; stroke-linejoin: miter"/>
     <use xlink:href="#m4cd7fd5552" x="417.250523" y="165.084811" style="fill: #2ca02c; stroke: #2ca02c; stroke-linejoin: miter"/>
     <use xlink:href="#m4cd7fd5552" x="490.929289" y="157.146106" style="fill: #2ca02c; stroke: #2ca02c; stroke-linejoin: miter"/>
     <use xlink:href="#m4cd7fd5552" x="511.259038" y="150.736004" style="fill: #2ca02c; stroke: #2ca02c; stroke-linejoin: miter"/>
     <use xlink:href="#m4cd7fd5552" x="515.874941" y="144.274094" style="fill: #2ca02c; stroke: #2ca02c; stroke-linejoin: miter"/>
     <use xlink:href="#m4cd7fd5552" x="521.659343" y="138.86155" style="fill: #2ca02c; stroke: #2ca02c; stroke-linejoin: miter"/>
     <use xlink:href="#m4cd7fd5552" x="525.601401" y="134.602225" style="fill: #2ca02c; stroke: #2ca02c; stroke-linejoin: miter"/>
     <use xlink:href="#m4cd7fd5552" x="529.547404" y="130.824931" style="fill: #2ca02c; stroke: #2ca02c; stroke-linejoin: miter"/>
     <use xlink:href="#m4cd7fd5552" x="536.038503" y="126.792372" style="fill: #2ca02c; stroke: #2ca02c; stroke-linejoin: miter"/>
     <use xlink:href="#m4cd7fd5552" x="543.375896" y="124.058275" style="fill: #2ca02c; stroke: #2ca02c; stroke-linejoin: miter"/>
     <use xlink:href="#m4cd7fd5552" x="554.932708" y="121.531055" style="fill: #2ca02c; stroke: #2ca02c; stroke-linejoin: miter"/>
     <use xlink:href="#m4cd7fd5552" x="568.313964" y="119.165844" style="fill: #2ca02c; stroke: #2ca02c; stroke-linejoin: miter"/>
     <use xlink:href="#m4cd7fd5552" x="590.871583" y="116.736648" style="fill: #2ca02c; stroke: #2ca02c; stroke-linejoin: miter"/>
     <use xlink:href="#m4cd7fd5552" x="609.141984" y="114.037081" style="fill: #2ca02c; stroke: #2ca02c; stroke-linejoin: miter"/>
     <use xlink:href="#m4cd7fd5552" x="640.376533" y="110.746656" style="fill: #2ca02c; stroke: #2ca02c; stroke-linejoin: miter"/>
     <use xlink:href="#m4cd7fd5552" x="663.223862" y="107.395164" style="fill: #2ca02c; stroke: #2ca02c; stroke-linejoin: miter"/>
     <use xlink:href="#m4cd7fd5552" x="708.91852" y="93.515161" style="fill: #2ca02c; stroke: #2ca02c; stroke-linejoin: miter"/>
    </g>
   </g>
   <g id="line2d_16">
    <path d="M 47.610277 375.144584 
L 47.65013 301.71973 
L 48.453284 267.579117 
L 50.68064 251.047807 
L 53.72972 240.03757 
L 53.729971 239.456389 
L 55.937734 231.769909 
L 55.937799 231.315247 
L 58.184325 225.147412 
L 58.184528 224.774033 
L 65.414479 219.622766 
L 65.415097 219.306014 
L 75.039039 214.883213 
L 75.039956 214.608174 
L 85.584227 210.733132 
L 85.584559 210.490097 
L 103.009552 207.04198 
L 103.011058 206.824279 
L 122.317179 203.71829 
L 122.318664 203.521138 
L 132.613846 200.695476 
L 132.61461 200.51533 
L 138.327897 197.923559 
L 138.328461 197.757717 
L 147.552816 195.364062 
L 147.553812 195.21042 
L 160.986536 192.986734 
L 160.988222 192.84362 
L 174.778558 190.767356 
L 174.779096 190.63342 
L 198.482045 188.686242 
L 198.486964 188.560378 
L 236.849691 186.727171 
L 236.861029 186.60846 
L 263.837019 184.876617 
L 263.839634 184.76429 
L 283.870516 183.016593 
L 300.271554 181.457192 
L 329.476633 178.355411 
L 344.408159 176.817682 
L 384.235876 174.183715 
L 426.906667 170.475479 
L 444.827428 168.213841 
L 460.008642 166.095613 
L 465.728764 165.084811 
L 469.522413 164.103688 
L 474.682082 162.223848 
L 477.74094 161.322152 
L 479.997554 160.444149 
L 482.983601 158.754457 
L 484.933569 157.940606 
L 487.504532 156.370057 
L 492.118746 154.87002 
L 492.875113 154.144519 
L 493.796361 153.434435 
L 495.0486 152.739125 
L 496.81717 151.39046 
L 497.63979 150.736004 
L 498.812014 150.094119 
L 499.321958 149.464332 
L 501.764688 148.239284 
L 503.392846 146.482011 
L 505.448905 144.812548 
L 507.188789 144.274094 
L 507.385468 143.744179 
L 507.979658 143.222535 
L 509.595495 142.20306 
L 510.006799 141.213767 
L 511.259038 140.729892 
L 512.109597 140.252922 
L 513.629686 139.782665 
L 514.517081 138.86155 
L 515.874941 137.965145 
L 516.798707 137.525802 
L 517.032034 137.092159 
L 517.737869 136.664072 
L 518.213386 135.004543 
L 518.69295 134.602225 
L 519.664499 134.204694 
L 519.910027 133.423543 
L 520.156629 133.03971 
L 521.406091 132.285022 
L 521.913738 131.547003 
L 523.464711 130.469663 
L 523.727408 130.118132 
L 524.522929 129.770261 
L 526.42402 129.085197 
L 526.979182 128.747861 
L 528.966487 128.413896 
L 530.134372 127.755815 
L 531.326976 127.431571 
L 531.932879 126.792372 
L 534.74308 125.85593 
L 536.038503 125.549525 
L 536.367067 125.245904 
L 537.029997 124.945016 
L 538.03925 124.058275 
L 540.466943 123.767848 
L 541.180224 123.479923 
L 543.750306 122.91141 
L 544.12722 122.63074 
L 546.443235 122.076374 
L 549.687207 121.531055 
L 550.528244 121.261697 
L 550.953517 120.994492 
L 552.248941 120.712909 
L 553.574848 119.930424 
L 554.476442 119.673615 
L 554.932708 119.165844 
L 561.741655 118.418366 
L 562.260999 118.172876 
L 566.036949 117.208565 
L 570.084217 116.736648 
L 572.534536 116.271302 
L 575.755324 116.041037 
L 577.097017 115.812348 
L 582.061724 115.359611 
L 593.534209 113.607618 
L 594.450464 113.394939 
L 598.272162 112.973599 
L 600.284821 112.351385 
L 609.141984 111.539389 
L 610.353826 111.140672 
L 612.858613 110.943083 
L 614.154037 110.551376 
L 615.479944 110.357231 
L 616.837804 109.781474 
L 618.229194 108.475406 
L 621.119491 108.111431 
L 624.166095 106.520893 
L 625.75348 106.34875 
L 627.386883 105.83758 
L 632.591976 105.334112 
L 638.327273 105.002631 
L 640.376533 104.838116 
L 642.503142 104.349375 
L 644.713168 104.188037 
L 647.013424 103.708644 
L 651.91638 99.397976 
L 654.537711 98.571545 
L 657.286961 97.89813 
L 660.177258 96.57467 
L 663.223862 95.939948 
L 666.44465 94.105063 
L 669.860753 92.820755 
L 673.497399 92.706411 
L 677.38504 92.028442 
L 681.560909 91.916772 
L 686.071191 91.145362 
L 690.974147 90.712422 
L 696.344728 90.498037 
L 702.281629 89.137091 
L 708.91852 87.437126 
L 716.442807 86.099309 
L 725.128958 85.91249 
L 729.348278 85.684853 
L 729.348278 85.684853 
" clip-path="url(#pb6e9455ea3)" style="fill: none; stroke: #d62728; stroke-width: 2; stroke-linecap: square"/>
    <defs>
     <path id="m9ab8457e2b" d="M -0 2.828427 
L 2.828427 0 
L 0 -2.828427 
L -2.828427 -0 
z
" style="stroke: #d62728; stroke-linejoin: miter"/>
    </defs>
    <g clip-path="url(#pb6e9455ea3)">
     <use xlink:href="#m9ab8457e2b" x="47.610277" y="375.144584" style="fill: #d62728; stroke: #d62728; stroke-linejoin: miter"/>
     <use xlink:href="#m9ab8457e2b" x="65.414479" y="219.622766" style="fill: #d62728; stroke: #d62728; stroke-linejoin: miter"/>
     <use xlink:href="#m9ab8457e2b" x="132.613846" y="200.695476" style="fill: #d62728; stroke: #d62728; stroke-linejoin: miter"/>
     <use xlink:href="#m9ab8457e2b" x="198.482045" y="188.686242" style="fill: #d62728; stroke: #d62728; stroke-linejoin: miter"/>
     <use xlink:href="#m9ab8457e2b" x="329.476633" y="178.355411" style="fill: #d62728; stroke: #d62728; stroke-linejoin: miter"/>
     <use xlink:href="#m9ab8457e2b" x="444.827428" y="168.213841" style="fill: #d62728; stroke: #d62728; stroke-linejoin: miter"/>
     <use xlink:href="#m9ab8457e2b" x="482.983601" y="158.754457" style="fill: #d62728; stroke: #d62728; stroke-linejoin: miter"/>
     <use xlink:href="#m9ab8457e2b" x="496.81717" y="151.39046" style="fill: #d62728; stroke: #d62728; stroke-linejoin: miter"/>
     <use xlink:href="#m9ab8457e2b" x="504.880681" y="145.359821" style="fill: #d62728; stroke: #d62728; stroke-linejoin: miter"/>
     <use xlink:href="#m9ab8457e2b" x="513.629686" y="139.782665" style="fill: #d62728; stroke: #d62728; stroke-linejoin: miter"/>
     <use xlink:href="#m9ab8457e2b" x="518.69295" y="134.602225" style="fill: #d62728; stroke: #d62728; stroke-linejoin: miter"/>
     <use xlink:href="#m9ab8457e2b" x="523.727408" y="130.118132" style="fill: #d62728; stroke: #d62728; stroke-linejoin: miter"/>
     <use xlink:href="#m9ab8457e2b" x="532.854128" y="126.4773" style="fill: #d62728; stroke: #d62728; stroke-linejoin: miter"/>
     <use xlink:href="#m9ab8457e2b" x="543.750306" y="122.91141" style="fill: #d62728; stroke: #d62728; stroke-linejoin: miter"/>
     <use xlink:href="#m9ab8457e2b" x="554.476442" y="119.673615" style="fill: #d62728; stroke: #d62728; stroke-linejoin: miter"/>
     <use xlink:href="#m9ab8457e2b" x="568.313964" y="116.971773" style="fill: #d62728; stroke: #d62728; stroke-linejoin: miter"/>
     <use xlink:href="#m9ab8457e2b" x="587.506497" y="114.472134" style="fill: #d62728; stroke: #d62728; stroke-linejoin: miter"/>
     <use xlink:href="#m9ab8457e2b" x="605.655401" y="111.740546" style="fill: #d62728; stroke: #d62728; stroke-linejoin: miter"/>
     <use xlink:href="#m9ab8457e2b" x="624.166095" y="106.520893" style="fill: #d62728; stroke: #d62728; stroke-linejoin: miter"/>
     <use xlink:href="#m9ab8457e2b" x="647.013424" y="103.708644" style="fill: #d62728; stroke: #d62728; stroke-linejoin: miter"/>
     <use xlink:href="#m9ab8457e2b" x="677.38504" y="92.028442" style="fill: #d62728; stroke: #d62728; stroke-linejoin: miter"/>
     <use xlink:href="#m9ab8457e2b" x="747.976287" y="84.812994" style="fill: #d62728; stroke: #d62728; stroke-linejoin: miter"/>
    </g>
   </g>
   <g id="patch_3">
    <path d="M 47.609375 390.536395 
L 47.609375 51.916562 
" style="fill: none; stroke: #000000; stroke-width: 0.8; stroke-linejoin: miter; stroke-linecap: square"/>
   </g>
   <g id="patch_4">
    <path d="M 711.128659 390.536395 
L 711.128659 51.916562 
" style="fill: none; stroke: #000000; stroke-width: 0.8; stroke-linejoin: miter; stroke-linecap: square"/>
   </g>
   <g id="patch_5">
    <path d="M 47.609375 390.536395 
L 711.128659 390.536395 
" style="fill: none; stroke: #000000; stroke-width: 0.8; stroke-linejoin: miter; stroke-linecap: square"/>
   </g>
   <g id="patch_6">
    <path d="M 47.609375 51.916562 
L 711.128659 51.916562 
" style="fill: none; stroke: #000000; stroke-width: 0.8; stroke-linejoin: miter; stroke-linecap: square"/>
   </g>
   <g id="text_15">
    <!-- Latency at percentile p (log axes) — lower is better -->
    <g style="fill: #595959" transform="translate(212.570892 42.440572) scale(0.13 -0.13)">
     <defs>
      <path id="DejaVuSans-78" d="M 3513 3500 
L 2247 1797 
L 3578 0 
L 2900 0 
L 1881 1375 
L 863 0 
L 184 0 
L 1544 1831 
L 300 3500 
L 978 3500 
L 1906 2253 
L 2834 3500 
L 3513 3500 
z
" transform="scale(0.015625)"/>
      <path id="DejaVuSans-2014" d="M 313 1978 
L 6088 1978 
L 6088 1528 
L 313 1528 
L 313 1978 
z
" transform="scale(0.015625)"/>
      <path id="DejaVuSans-77" d="M 269 3500 
L 844 3500 
L 1563 769 
L 2278 3500 
L 2956 3500 
L 3675 769 
L 4391 3500 
L 4966 3500 
L 4050 0 
L 3372 0 
L 2619 2869 
L 1863 0 
L 1184 0 
L 269 3500 
z
" transform="scale(0.015625)"/>
      <path id="DejaVuSans-62" d="M 3116 1747 
Q 3116 2381 2855 2742 
Q 2594 3103 2138 3103 
Q 1681 3103 1420 2742 
Q 1159 2381 1159 1747 
Q 1159 1113 1420 752 
Q 1681 391 2138 391 
Q 2594 391 2855 752 
Q 3116 1113 3116 1747 
z
M 1159 2969 
Q 1341 3281 1617 3432 
Q 1894 3584 2278 3584 
Q 2916 3584 3314 3078 
Q 3713 2572 3713 1747 
Q 3713 922 3314 415 
Q 2916 -91 2278 -91 
Q 1894 -91 1617 61 
Q 1341 213 1159 525 
L 1159 0 
L 581 0 
L 581 4863 
L 1159 4863 
L 1159 2969 
z
" transform="scale(0.015625)"/>
     </defs>
     <use xlink:href="#DejaVuSans-4c"/>
     <use xlink:href="#DejaVuSans-61" transform="translate(55.712891 0)"/>
     <use xlink:href="#DejaVuSans-74" transform="translate(116.992188 0)"/>
     <use xlink:href="#DejaVuSans-65" transform="translate(156.201172 0)"/>
     <use xlink:href="#DejaVuSans-6e" transform="translate(217.724609 0)"/>
     <use xlink:href="#DejaVuSans-63" transform="translate(281.103516 0)"/>
     <use xlink:href="#DejaVuSans-79" transform="translate(336.083984 0)"/>
     <use xlink:href="#DejaVuSans-20" transform="translate(395.263672 0)"/>
     <use xlink:href="#DejaVuSans-61" transform="translate(427.050781 0)"/>
     <use xlink:href="#DejaVuSans-74" transform="translate(488.330078 0)"/>
     <use xlink:href="#DejaVuSans-20" transform="translate(527.539062 0)"/>
     <use xlink:href="#DejaVuSans-70" transform="translate(559.326172 0)"/>
     <use xlink:href="#DejaVuSans-65" transform="translate(622.802734 0)"/>
     <use xlink:href="#DejaVuSans-72" transform="translate(684.326172 0)"/>
     <use xlink:href="#DejaVuSans-63" transform="translate(723.189453 0)"/>
     <use xlink:href="#DejaVuSans-65" transform="translate(778.169922 0)"/>
     <use xlink:href="#DejaVuSans-6e" transform="translate(839.693359 0)"/>
     <use xlink:href="#DejaVuSans-74" transform="translate(903.072266 0)"/>
     <use xlink:href="#DejaVuSans-69" transform="translate(942.28125 0)"/>
     <use xlink:href="#DejaVuSans-6c" transform="translate(970.064453 0)"/>
     <use xlink:href="#DejaVuSans-65" transform="translate(997.847656 0)"/>
     <use xlink:href="#DejaVuSans-20" transform="translate(1059.371094 0)"/>
     <use xlink:href="#DejaVuSans-70" transform="translate(1091.158203 0)"/>
     <use xlink:href="#DejaVuSans-20" transform="translate(1154.634766 0)"/>
     <use xlink:href="#DejaVuSans-28" transform="translate(1186.421875 0)"/>
     <use xlink:href="#DejaVuSans-6c" transform="translate(1225.435547 0)"/>
     <use xlink:href="#DejaVuSans-6f" transform="translate(1253.21875 0)"/>
     <use xlink:href="#DejaVuSans-67" transform="translate(1314.400391 0)"/>
     <use xlink:href="#DejaVuSans-20" transform="translate(1377.876953 0)"/>
     <use xlink:href="#DejaVuSans-61" transform="translate(1409.664062 0)"/>
     <use xlink:href="#DejaVuSans-78" transform="translate(1470.943359 0)"/>
     <use xlink:href="#DejaVuSans-65" transform="translate(1526.998047 0)"/>
     <use xlink:href="#DejaVuSans-73" transform="translate(1588.521484 0)"/>
     <use xlink:href="#DejaVuSans-29" transform="translate(1640.621094 0)"/>
     <use xlink:href="#DejaVuSans-20" transform="translate(1679.634766 0)"/>
     <use xlink:href="#DejaVuSans-2014" transform="translate(1711.421875 0)"/>
     <use xlink:href="#DejaVuSans-20" transform="translate(1811.421875 0)"/>
     <use xlink:href="#DejaVuSans-6c" transform="translate(1843.208984 0)"/>
     <use xlink:href="#DejaVuSans-6f" transform="translate(1870.992188 0)"/>
     <use xlink:href="#DejaVuSans-77" transform="translate(1932.173828 0)"/>
     <use xlink:href="#DejaVuSans-65" transform="translate(2013.960938 0)"/>
     <use xlink:href="#DejaVuSans-72" transform="translate(2075.484375 0)"/>
     <use xlink:href="#DejaVuSans-20" transform="translate(2116.597656 0)"/>
     <use xlink:href="#DejaVuSans-69" transform="translate(2148.384766 0)"/>
     <use xlink:href="#DejaVuSans-73" transform="translate(2176.167969 0)"/>
     <use xlink:href="#DejaVuSans-20" transform="translate(2228.267578 0)"/>
     <use xlink:href="#DejaVuSans-62" transform="translate(2260.054688 0)"/>
     <use xlink:href="#DejaVuSans-65" transform="translate(2323.53125 0)"/>
     <use xlink:href="#DejaVuSans-74" transform="translate(2385.054688 0)"/>
     <use xlink:href="#DejaVuSans-74" transform="translate(2424.263672 0)"/>
     <use xlink:href="#DejaVuSans-65" transform="translate(2463.472656 0)"/>
     <use xlink:href="#DejaVuSans-72" transform="translate(2524.996094 0)"/>
    </g>
   </g>
   <g id="text_16">
    <!-- Tail Latency — Get Hit @ 1,000,000 entries -->
    <g style="fill: #2b2f36" transform="translate(142.303548 23.916562) scale(0.22 -0.22)">
     <defs>
      <path id="DejaVuSans-54" d="M -19 4666 
L 3928 4666 
L 3928 4134 
L 2272 4134 
L 2272 0 
L 1638 0 
L 1638 4134 
L -19 4134 
L -19 4666 
z
" transform="scale(0.015625)"/>
      <path id="DejaVuSans-47" d="M 3809 666 
L 3809 1919 
L 2778 1919 
L 2778 2438 
L 4434 2438 
L 4434 434 
Q 4069 175 3628 42 
Q 3188 -91 2688 -91 
Q 1594 -91 976 548 
Q 359 1188 359 2328 
Q 359 3472 976 4111 
Q 1594 4750 2688 4750 
Q 3144 4750 3555 4637 
Q 3966 4525 4313 4306 
L 4313 3634 
Q 3963 3931 3569 4081 
Q 3175 4231 2741 4231 
Q 1884 4231 1454 3753 
Q 1025 3275 1025 2328 
Q 1025 1384 1454 906 
Q 1884 428 2741 428 
Q 3075 428 3337 486 
Q 3600 544 3809 666 
z
" transform="scale(0.015625)"/>
      <path id="DejaVuSans-48" d="M 628 4666 
L 1259 4666 
L 1259 2753 
L 3553 2753 
L 3553 4666 
L 4184 4666 
L 4184 0 
L 3553 0 
L 3553 2222 
L 1259 2222 
L 1259 0 
L 628 0 
L 628 4666 
z
" transform="scale(0.015625)"/>
      <path id="DejaVuSans-40" d="M 2381 1678 
Q 2381 1231 2603 976 
Q 2825 722 3213 722 
Q 3597 722 3817 978 
Q 4038 1234 4038 1678 
Q 4038 2116 3813 2373 
Q 3588 2631 3206 2631 
Q 2828 2631 2604 2375 
Q 2381 2119 2381 1678 
z
M 4084 744 
Q 3897 503 3655 389 
Q 3413 275 3091 275 
Q 2553 275 2217 664 
Q 1881 1053 1881 1678 
Q 1881 2303 2218 2693 
Q 2556 3084 3091 3084 
Q 3413 3084 3656 2967 
Q 3900 2850 4084 2613 
L 4084 3022 
L 4531 3022 
L 4531 722 
Q 4988 791 5245 1139 
Q 5503 1488 5503 2041 
Q 5503 2375 5404 2669 
Q 5306 2963 5106 3213 
Q 4781 3622 4314 3839 
Q 3847 4056 3297 4056 
Q 2913 4056 2559 3954 
Q 2206 3853 1906 3653 
Q 1416 3334 1139 2817 
Q 863 2300 863 1697 
Q 863 1200 1042 765 
Q 1222 331 1563 0 
Q 1891 -325 2322 -495 
Q 2753 -666 3244 -666 
Q 3647 -666 4036 -530 
Q 4425 -394 4750 -141 
L 5031 -488 
Q 4641 -791 4180 -952 
Q 3719 -1113 3244 -1113 
Q 2666 -1113 2153 -908 
Q 1641 -703 1241 -313 
Q 841 78 631 592 
Q 422 1106 422 1697 
Q 422 2266 634 2781 
Q 847 3297 1241 3688 
Q 1644 4084 2172 4295 
Q 2700 4506 3291 4506 
Q 3953 4506 4520 4234 
Q 5088 3963 5472 3463 
Q 5706 3156 5829 2797 
Q 5953 2438 5953 2053 
Q 5953 1231 5456 756 
Q 4959 281 4084 263 
L 4084 744 
z
" transform="scale(0.015625)"/>
     </defs>
     <use xlink:href="#DejaVuSans-54"/>
     <use xlink:href="#DejaVuSans-61" transform="translate(44.583984 0)"/>
     <use xlink:href="#DejaVuSans-69" transform="translate(105.863281 0)"/>
     <use xlink:href="#DejaVuSans-6c" transform="translate(133.646484 0)"/>
     <use xlink:href="#DejaVuSans-20" transform="translate(161.429688 0)"/>
     <use xlink:href="#DejaVuSans-4c" transform="translate(193.216797 0)"/>
     <use xlink:href="#DejaVuSans-61" transform="translate(248.929688 0)"/>
     <use xlink:href="#DejaVuSans-74" transform="translate(310.208984 0)"/>
     <use xlink:href="#DejaVuSans-65" transform="translate(349.417969 0)"/>
     <use xlink:href="#DejaVuSans-6e" transform="translate(410.941406 0)"/>
     <use xlink:href="#DejaVuSans-63" transform="translate(474.320312 0)"/>
     <use xlink:href="#DejaVuSans-79" transform="translate(529.300781 0)"/>
     <use xlink:href="#DejaVuSans-20" transform="translate(588.480469 0)"/>
     <use xlink:href="#DejaVuSans-2014" transform="translate(620.267578 0)"/>
     <use xlink:href="#DejaVuSans-20" transform="translate(720.267578 0)"/>
     <use xlink:href="#DejaVuSans-47" transform="translate(752.054688 0)"/>
     <use xlink:href="#DejaVuSans-65" transform="translate(829.544922 0)"/>
     <use xlink:href="#DejaVuSans-74" transform="translate(891.068359 0)"/>
     <use xlink:href="#DejaVuSans-20" transform="translate(930.277344 0)"/>
     <use xlink:href="#DejaVuSans-48" transform="translate(962.064453 0)"/>
     <use xlink:href="#DejaVuSans-69" transform="translate(1037.259766 0)"/>
     <use xlink:href="#DejaVuSans-74" transform="translate(1065.042969 0)"/>
     <use xlink:href="#DejaVuSans-20" transform="translate(1104.251953 0)"/>
     <use xlink:href="#DejaVuSans-40" transform="translate(1136.039062 0)"/>
     <use xlink:href="#DejaVuSans-20" transform="translate(1236.039062 0)"/>
     <use xlink:href="#DejaVuSans-31" transform="translate(1267.826172 0)"/>
     <use xlink:href="#DejaVuSans-2c" transform="translate(1331.449219 0)"/>
     <use xlink:href="#DejaVuSans-30" transform="translate(1363.236328 0)"/>
     <use xlink:href="#DejaVuSans-30" transform="translate(1426.859375 0)"/>
     <use xlink:href="#DejaVuSans-30" transform="translate(1490.482422 0)"/>
     <use xlink:href="#DejaVuSans-2c" transform="translate(1554.105469 0)"/>
     <use xlink:href="#DejaVuSans-30" transform="translate(1585.892578 0)"/>
     <use xlink:href="#DejaVuSans-30" transform="translate(1649.515625 0)"/>
     <use xlink:href="#DejaVuSans-30" transform="translate(1713.138672 0)"/>
     <use xlink:href="#DejaVuSans-20" transform="translate(1776.761719 0)"/>
     <use xlink:href="#DejaVuSans-65" transform="translate(1808.548828 0)"/>
     <use xlink:href="#DejaVuSans-6e" transform="translate(1870.072266 0)"/>
     <use xlink:href="#DejaVuSans-74" transform="translate(1933.451172 0)"/>
     <use xlink:href="#DejaVuSans-72" transform="translate(1972.660156 0)"/>
     <use xlink:href="#DejaVuSans-69" transform="translate(2013.773438 0)"/>
     <use xlink:href="#DejaVuSans-65" transform="translate(2041.556641 0)"/>
     <use xlink:href="#DejaVuSans-73" transform="translate(2103.080078 0)"/>
    </g>
   </g>
   <g id="legend_1">
    <g id="patch_7">
     <path d="M 56.009375 131.971562 
L 223.911875 131.971562 
Q 226.311875 131.971562 226.311875 129.571562 
L 226.311875 60.316562 
Q 226.311875 57.916562 223.911875 57.916562 
L 56.009375 57.916562 
Q 53.609375 57.916562 53.609375 60.316562 
L 53.609375 129.571562 
Q 53.609375 131.971562 56.009375 131.971562 
z
" style="fill: #ffffff; opacity: 0.8; stroke: #cccccc; stroke-linejoin: miter"/>
    </g>
    <g id="line2d_17">
     <path d="M 58.409375 67.634687 
L 70.409375 67.634687 
L 82.409375 67.634687 
" style="fill: none; stroke: #1f77b4; stroke-width: 2; stroke-linecap: square"/>
     <g>
      <use xlink:href="#md44d9e3773" x="70.409375" y="67.634687" style="fill: #1f77b4; stroke: #1f77b4"/>
     </g>
    </g>
    <g id="text_17">
     <!-- std::HashMap -->
     <g transform="translate(92.009375 71.834687) scale(0.12 -0.12)">
      <defs>
       <path id="DejaVuSans-64" d="M 2906 2969 
L 2906 4863 
L 3481 4863 
L 3481 0 
L 2906 0 
L 2906 525 
Q 2725 213 2448 61 
Q 2172 -91 1784 -91 
Q 1150 -91 751 415 
Q 353 922 353 1747 
Q 353 2572 751 3078 
Q 1150 3584 1784 3584 
Q 2172 3584 2448 3432 
Q 2725 3281 2906 2969 
z
M 947 1747 
Q 947 1113 1208 752 
Q 1469 391 1925 391 
Q 2381 391 2643 752 
Q 2906 1113 2906 1747 
Q 2906 2381 2643 2742 
Q 2381 3103 1925 3103 
Q 1469 3103 1208 2742 
Q 947 2381 947 1747 
z
" transform="scale(0.015625)"/>
       <path id="DejaVuSans-3a" d="M 750 794 
L 1409 794 
L 1409 0 
L 750 0 
L 750 794 
z
M 750 3309 
L 1409 3309 
L 1409 2516 
L 750 2516 
L 750 3309 
z
" transform="scale(0.015625)"/>
       <path id="DejaVuSans-68" d="M 3513 2113 
L 3513 0 
L 2938 0 
L 2938 2094 
Q 2938 2591 2744 2837 
Q 2550 3084 2163 3084 
Q 1697 3084 1428 2787 
Q 1159 2491 1159 1978 
L 1159 0 
L 581 0 
L 581 4863 
L 1159 4863 
L 1159 2956 
Q 1366 3272 1645 3428 
Q 1925 3584 2291 3584 
Q 2894 3584 3203 3211 
Q 3513 2838 3513 2113 
z
" transform="scale(0.015625)"/>
       <path id="DejaVuSans-4d" d="M 628 4666 
L 1569 4666 
L 2759 1491 
L 3956 4666 
L 4897 4666 
L 4897 0 
L 4281 0 
L 4281 4097 
L 3078 897 
L 2444 897 
L 1241 4097 
L 1241 0 
L 628 0 
L 628 4666 
z
" transform="scale(0.015625)"/>
      </defs>
      <use xlink:href="#DejaVuSans-73"/>
      <use xlink:href="#DejaVuSans-74" transform="translate(52.099609 0)"/>
      <use xlink:href="#DejaVuSans-64" transform="translate(91.308594 0)"/>
      <use xlink:href="#DejaVuSans-3a" transform="translate(154.785156 0)"/>
      <use xlink:href="#DejaVuSans-3a" transform="translate(188.476562 0)"/>
      <use xlink:href="#DejaVuSans-48" transform="translate(222.167969 0)"/>
      <use xlink:href="#DejaVuSans-61" transform="translate(297.363281 0)"/>
      <use xlink:href="#DejaVuSans-73" transform="translate(358.642578 0)"/>
      <use xlink:href="#DejaVuSans-68" transform="translate(410.742188 0)"/>
      <use xlink:href="#DejaVuSans-4d" transform="translate(474.121094 0)"/>
      <use xlink:href="#DejaVuSans-61" transform="translate(560.400391 0)"/>
      <use xlink:href="#DejaVuSans-70" transform="translate(621.679688 0)"/>
     </g>
    </g>
    <g id="line2d_18">
     <path d="M 58.409375 85.248437 
L 70.409375 85.248437 
L 82.409375 85.248437 
" style="fill: none; stroke: #ff7f0e; stroke-width: 2; stroke-linecap: square"/>
     <g>
      <use xlink:href="#m9be1834093" x="70.409375" y="85.248437" style="fill: #ff7f0e; stroke: #ff7f0e; stroke-linejoin: miter"/>
     </g>
    </g>
    <g id="text_18">
     <!-- hashbrown::HashMap -->
     <g transform="translate(92.009375 89.448437) scale(0.12 -0.12)">
      <use xlink:href="#DejaVuSans-68"/>
      <use xlink:href="#DejaVuSans-61" transform="translate(63.378906 0)"/>
      <use xlink:href="#DejaVuSans-73" transform="translate(124.658203 0)"/>
      <use xlink:href="#DejaVuSans-68" transform="translate(176.757812 0)"/>
      <use xlink:href="#DejaVuSans-62" transform="translate(240.136719 0)"/>
      <use xlink:href="#DejaVuSans-72" transform="translate(303.613281 0)"/>
      <use xlink:href="#DejaVuSans-6f" transform="translate(342.476562 0)"/>
      <use xlink:href="#DejaVuSans-77" transform="translate(403.658203 0)"/>
      <use xlink:href="#DejaVuSans-6e" transform="translate(485.445312 0)"/>
      <use xlink:href="#DejaVuSans-3a" transform="translate(548.824219 0)"/>
      <use xlink:href="#DejaVuSans-3a" transform="translate(582.515625 0)"/>
      <use xlink:href="#DejaVuSans-48" transform="translate(616.207031 0)"/>
      <use xlink:href="#DejaVuSans-61" transform="translate(691.402344 0)"/>
      <use xlink:href="#DejaVuSans-73" transform="translate(752.681641 0)"/>
      <use xlink:href="#DejaVuSans-68" transform="translate(804.78125 0)"/>
      <use xlink:href="#DejaVuSans-4d" transform="translate(868.160156 0)"/>
      <use xlink:href="#DejaVuSans-61" transform="translate(954.439453 0)"/>
      <use xlink:href="#DejaVuSans-70" transform="translate(1015.71875 0)"/>
     </g>
    </g>
    <g id="line2d_19">
     <path d="M 58.409375 102.862187 
L 70.409375 102.862187 
L 82.409375 102.862187 
" style="fill: none; stroke: #2ca02c; stroke-width: 2; stroke-linecap: square"/>
     <g>
      <use xlink:href="#m4cd7fd5552" x="70.409375" y="102.862187" style="fill: #2ca02c; stroke: #2ca02c; stroke-linejoin: miter"/>
     </g>
    </g>
    <g id="text_19">
     <!-- ElasticHashMap -->
     <g transform="translate(92.009375 107.062187) scale(0.12 -0.12)">
      <defs>
       <path id="DejaVuSans-45" d="M 628 4666 
L 3578 4666 
L 3578 4134 
L 1259 4134 
L 1259 2753 
L 3481 2753 
L 3481 2222 
L 1259 2222 
L 1259 531 
L 3634 531 
L 3634 0 
L 628 0 
L 628 4666 
z
" transform="scale(0.015625)"/>
      </defs>
      <use xlink:href="#DejaVuSans-45"/>
      <use xlink:href="#DejaVuSans-6c" transform="translate(63.183594 0)"/>
      <use xlink:href="#DejaVuSans-61" transform="translate(90.966797 0)"/>
      <use xlink:href="#DejaVuSans-73" transform="translate(152.246094 0)"/>
      <use xlink:href="#DejaVuSans-74" transform="translate(204.345703 0)"/>
      <use xlink:href="#DejaVuSans-69" transform="translate(243.554688 0)"/>
      <use xlink:href="#DejaVuSans-63" transform="translate(271.337891 0)"/>
      <use xlink:href="#DejaVuSans-48" transform="translate(326.318359 0)"/>
      <use xlink:href="#DejaVuSans-61" transform="translate(401.513672 0)"/>
      <use xlink:href="#DejaVuSans-73" transform="translate(462.792969 0)"/>
      <use xlink:href="#DejaVuSans-68" transform="translate(514.892578 0)"/>
      <use xlink:href="#DejaVuSans-4d" transform="translate(578.271484 0)"/>
      <use xlink:href="#DejaVuSans-61" transform="translate(664.550781 0)"/>
      <use xlink:href="#DejaVuSans-70" transform="translate(725.830078 0)"/>
     </g>
    </g>
    <g id="line2d_20">
     <path d="M 58.409375 120.475937 
L 70.409375 120.475937 
L 82.409375 120.475937 
" style="fill: none; stroke: #d62728; stroke-width: 2; stroke-linecap: square"/>
     <g>
      <use xlink:href="#m9ab8457e2b" x="70.409375" y="120.475937" style="fill: #d62728; stroke: #d62728; stroke-linejoin: miter"/>
     </g>
    </g>
    <g id="text_20">
     <!-- FunnelHashMap -->
     <g transform="translate(92.009375 124.675937) scale(0.12 -0.12)">
      <defs>
       <path id="DejaVuSans-46" d="M 628 4666 
L 3309 4666 
L 3309 4134 
L 1259 4134 
L 1259 2759 
L 3109 2759 
L 3109 2228 
L 1259 2228 
L 1259 0 
L 628 0 
L 628 4666 
z
" transform="scale(0.015625)"/>
       <path id="DejaVuSans-75" d="M 544 1381 
L 544 3500 
L 1119 3500 
L 1119 1403 
Q 1119 906 1312 657 
Q 1506 409 1894 409 
Q 2359 409 2629 706 
Q 2900 1003 2900 1516 
L 2900 3500 
L 3475 3500 
L 3475 0 
L 2900 0 
L 2900 538 
Q 2691 219 2414 64 
Q 2138 -91 1772 -91 
Q 1169 -91 856 284 
Q 544 659 544 1381 
z
M 1991 3584 
L 1991 3584 
z
" transform="scale(0.015625)"/>
      </defs>
      <use xlink:href="#DejaVuSans-46"/>
      <use xlink:href="#DejaVuSans-75" transform="translate(52.019531 0)"/>
      <use xlink:href="#DejaVuSans-6e" transform="translate(115.398438 0)"/>
      <use xlink:href="#DejaVuSans-6e" transform="translate(178.777344 0)"/>
      <use xlink:href="#DejaVuSans-65" transform="translate(242.15625 0)"/>
      <use xlink:href="#DejaVuSans-6c" transform="translate(303.679688 0)"/>
      <use xlink:href="#DejaVuSans-48" transform="translate(331.462891 0)"/>
      <use xlink:href="#DejaVuSans-61" transform="translate(406.658203 0)"/>
      <use xlink:href="#DejaVuSans-73" transform="translate(467.9375 0)"/>
      <use xlink:href="#DejaVuSans-68" transform="translate(520.037109 0)"/>
      <use xlink:href="#DejaVuSans-4d" transform="translate(583.416016 0)"/>
      <use xlink:href="#DejaVuSans-61" transform="translate(669.695312 0)"/>
      <use xlink:href="#DejaVuSans-70" transform="translate(730.974609 0)"/>
     </g>
    </g>
   </g>
  </g>
 </g>
 <defs>
  <clipPath id="pb6e9455ea3">
   <rect x="47.609375" y="51.916562" width="663.519284" height="338.619833"/>
  </clipPath>
 </defs>
</svg>
