<?xml version="1.0" encoding="utf-8" standalone="no"?>
<!DOCTYPE svg PUBLIC "-//W3C//DTD SVG 1.1//EN"
  "http://www.w3.org/Graphics/SVG/1.1/DTD/svg11.dtd">
<svg xmlns:xlink="http://www.w3.org/1999/xlink" width="728.348278pt" height="440.39952pt" viewBox="0 0 728.348278 440.39952" xmlns="http://www.w3.org/2000/svg" version="1.1">
 <metadata>
  <rdf:RDF xmlns:dc="http://purl.org/dc/elements/1.1/" xmlns:cc="http://creativecommons.org/ns#" xmlns:rdf="http://www.w3.org/1999/02/22-rdf-syntax-ns#">
   <cc:Work>
    <dc:type rdf:resource="http://purl.org/dc/dcmitype/StillImage"/>
    <dc:date>2026-04-18T16:23:39.372319</dc:date>
    <dc:format>image/svg+xml</dc:format>
    <dc:creator>
     <cc:Agent>
      <dc:title>Matplotlib v3.10.8, https://matplotlib.org/</dc:title>
     </cc:Agent>
    </dc:creator>
   </cc:Work>
  </rdf:RDF>
 </metadata>
 <defs>
  <style type="text/css">*{stroke-linejoin: round; stroke-linecap: butt}</style>
 </defs>
 <g id="figure_1">
  <g id="patch_1">
   <path d="M 0 440.39952 
L 728.348278 440.39952 
L 728.348278 0 
L 0 0 
z
" style="fill: #ffffff"/>
  </g>
  <g id="axes_1">
   <g id="patch_2">
    <path d="M 47.609375 390.536395 
L 711.128659 390.536395 
L 711.128659 51.916562 
L 47.609375 51.916562 
z
" style="fill: #ffffff"/>
   </g>
   <g id="matplotlib.axis_1">
    <g id="xtick_1">
     <g id="line2d_1"/>
     <g id="text_1">
      <!-- p0 -->
      <g transform="translate(39.982813 403.15452) scale(0.12 -0.12)">
       <defs>
        <path id="DejaVuSans-70" d="M 1159 525 
L 1159 -1331 
L 581 -1331 
L 581 3500 
L 1159 3500 
L 1159 2969 
Q 1341 3281 1617 3432 
Q 1894 3584 2278 3584 
Q 2916 3584 3314 3078 
Q 3713 2572 3713 1747 
Q 3713 922 3314 415 
Q 2916 -91 2278 -91 
Q 1894 -91 1617 61 
Q 1341 213 1159 525 
z
M 3116 1747 
Q 3116 2381 2855 2742 
Q 2594 3103 2138 3103 
Q 1681 3103 1420 2742 
Q 1159 2381 1159 1747 
Q 1159 1113 1420 752 
Q 1681 391 2138 391 
Q 2594 391 2855 752 
Q 3116 1113 3116 1747 
z
" transform="scale(0.015625)"/>
        <path id="DejaVuSans-30" d="M 2034 4250 
Q 1547 4250 1301 3770 
Q 1056 3291 1056 2328 
Q 1056 1369 1301 889 
Q 1547 409 2034 409 
Q 2525 409 2770 889 
Q 3016 1369 3016 2328 
Q 3016 3291 2770 3770 
Q 2525 4250 2034 4250 
z
M 2034 4750 
Q 2819 4750 3233 4129 
Q 3647 3509 3647 2328 
Q 3647 1150 3233 529 
Q 2819 -91 2034 -91 
Q 1250 -91 836 529 
Q 422 1150 422 2328 
Q 422 3509 836 4129 
Q 1250 4750 2034 4750 
z
" transform="scale(0.015625)"/>
       </defs>
       <use xlink:href="#DejaVuSans-70"/>
       <use xlink:href="#DejaVuSans-30" transform="translate(63.476562 0)"/>
      </g>
     </g>
    </g>
    <g id="xtick_2">
     <g id="line2d_2"/>
     <g id="text_2">
      <!-- p50 -->
      <g transform="translate(75.223079 403.15452) scale(0.12 -0.12)">
       <defs>
        <path id="DejaVuSans-35" d="M 691 4666 
L 3169 4666 
L 3169 4134 
L 1269 4134 
L 1269 2991 
Q 1406 3038 1543 3061 
Q 1681 3084 1819 3084 
Q 2600 3084 3056 2656 
Q 3513 2228 3513 1497 
Q 3513 744 3044 326 
Q 2575 -91 1722 -91 
Q 1428 -91 1123 -41 
Q 819 9 494 109 
L 494 744 
Q 775 591 1075 516 
Q 1375 441 1709 441 
Q 2250 441 2565 725 
Q 2881 1009 2881 1497 
Q 2881 1984 2565 2268 
Q 2250 2553 1709 2553 
Q 1456 2553 1204 2497 
Q 953 2441 691 2322 
L 691 4666 
z
" transform="scale(0.015625)"/>
       </defs>
       <use xlink:href="#DejaVuSans-70"/>
       <use xlink:href="#DejaVuSans-35" transform="translate(63.476562 0)"/>
       <use xlink:href="#DejaVuSans-30" transform="translate(127.099609 0)"/>
      </g>
     </g>
    </g>
    <g id="xtick_3">
     <g id="line2d_3"/>
     <g id="text_3">
      <!-- p90 -->
      <g transform="translate(165.912406 403.15452) scale(0.12 -0.12)">
       <defs>
        <path id="DejaVuSans-39" d="M 703 97 
L 703 672 
Q 941 559 1184 500 
Q 1428 441 1663 441 
Q 2288 441 2617 861 
Q 2947 1281 2994 2138 
Q 2813 1869 2534 1725 
Q 2256 1581 1919 1581 
Q 1219 1581 811 2004 
Q 403 2428 403 3163 
Q 403 3881 828 4315 
Q 1253 4750 1959 4750 
Q 2769 4750 3195 4129 
Q 3622 3509 3622 2328 
Q 3622 1225 3098 567 
Q 2575 -91 1691 -91 
Q 1453 -91 1209 -44 
Q 966 3 703 97 
z
M 1959 2075 
Q 2384 2075 2632 2365 
Q 2881 2656 2881 3163 
Q 2881 3666 2632 3958 
Q 2384 4250 1959 4250 
Q 1534 4250 1286 3958 
Q 1038 3666 1038 3163 
Q 1038 2656 1286 2365 
Q 1534 2075 1959 2075 
z
" transform="scale(0.015625)"/>
       </defs>
       <use xlink:href="#DejaVuSans-70"/>
       <use xlink:href="#DejaVuSans-39" transform="translate(63.476562 0)"/>
       <use xlink:href="#DejaVuSans-30" transform="translate(127.099609 0)"/>
      </g>
     </g>
    </g>
    <g id="xtick_4">
     <g id="line2d_4"/>
     <g id="text_4">
      <!-- p99 -->
      <g transform="translate(295.659499 403.15452) scale(0.12 -0.12)">
       <use xlink:href="#DejaVuSans-70"/>
       <use xlink:href="#DejaVuSans-39" transform="translate(63.476562 0)"/>
       <use xlink:href="#DejaVuSans-39" transform="translate(127.099609 0)"/>
      </g>
     </g>
    </g>
    <g id="xtick_5">
     <g id="line2d_5"/>
     <g id="text_5">
      <!-- p99.9 -->
      <g transform="translate(419.682217 403.15452) scale(0.12 -0.12)">
       <defs>
        <path id="DejaVuSans-2e" d="M 684 794 
L 1344 794 
L 1344 0 
L 684 0 
L 684 794 
z
" transform="scale(0.015625)"/>
       </defs>
       <use xlink:href="#DejaVuSans-70"/>
       <use xlink:href="#DejaVuSans-39" transform="translate(63.476562 0)"/>
       <use xlink:href="#DejaVuSans-39" transform="translate(127.099609 0)"/>
       <use xlink:href="#DejaVuSans-2e" transform="translate(190.722656 0)"/>
       <use xlink:href="#DejaVuSans-39" transform="translate(222.509766 0)"/>
      </g>
     </g>
    </g>
    <g id="xtick_6">
     <g id="line2d_6"/>
     <g id="text_6">
      <!-- p99.99 -->
      <g transform="translate(545.61181 403.15452) scale(0.12 -0.12)">
       <use xlink:href="#DejaVuSans-70"/>
       <use xlink:href="#DejaVuSans-39" transform="translate(63.476562 0)"/>
       <use xlink:href="#DejaVuSans-39" transform="translate(127.099609 0)"/>
       <use xlink:href="#DejaVuSans-2e" transform="translate(190.722656 0)"/>
       <use xlink:href="#DejaVuSans-39" transform="translate(222.509766 0)"/>
       <use xlink:href="#DejaVuSans-39" transform="translate(286.132812 0)"/>
      </g>
     </g>
    </g>
    <g id="xtick_7">
     <g id="line2d_7"/>
     <g id="text_7">
      <!-- p99.999 -->
      <g transform="translate(671.541403 403.15452) scale(0.12 -0.12)">
       <use xlink:href="#DejaVuSans-70"/>
       <use xlink:href="#DejaVuSans-39" transform="translate(63.476562 0)"/>
       <use xlink:href="#DejaVuSans-39" transform="translate(127.099609 0)"/>
       <use xlink:href="#DejaVuSans-2e" transform="translate(190.722656 0)"/>
       <use xlink:href="#DejaVuSans-39" transform="translate(222.509766 0)"/>
       <use xlink:href="#DejaVuSans-39" transform="translate(286.132812 0)"/>
       <use xlink:href="#DejaVuSans-39" transform="translate(349.755859 0)"/>
      </g>
     </g>
    </g>
    <g id="text_8">
     <!-- Percentile -->
     <g transform="translate(344.841517 430.287957) scale(0.14 -0.14)">
      <defs>
       <path id="DejaVuSans-50" d="M 1259 4147 
L 1259 2394 
L 2053 2394 
Q 2494 2394 2734 2622 
Q 2975 2850 2975 3272 
Q 2975 3691 2734 3919 
Q 2494 4147 2053 4147 
L 1259 4147 
z
M 628 4666 
L 2053 4666 
Q 2838 4666 3239 4311 
Q 3641 3956 3641 3272 
Q 3641 2581 3239 2228 
Q 2838 1875 2053 1875 
L 1259 1875 
L 1259 0 
L 628 0 
L 628 4666 
z
" transform="scale(0.015625)"/>
       <path id="DejaVuSans-65" d="M 3597 1894 
L 3597 1613 
L 953 1613 
Q 991 1019 1311 708 
Q 1631 397 2203 397 
Q 2534 397 2845 478 
Q 3156 559 3463 722 
L 3463 178 
Q 3153 47 2828 -22 
Q 2503 -91 2169 -91 
Q 1331 -91 842 396 
Q 353 884 353 1716 
Q 353 2575 817 3079 
Q 1281 3584 2069 3584 
Q 2775 3584 3186 3129 
Q 3597 2675 3597 1894 
z
M 3022 2063 
Q 3016 2534 2758 2815 
Q 2500 3097 2075 3097 
Q 1594 3097 1305 2825 
Q 1016 2553 972 2059 
L 3022 2063 
z
" transform="scale(0.015625)"/>
       <path id="DejaVuSans-72" d="M 2631 2963 
Q 2534 3019 2420 3045 
Q 2306 3072 2169 3072 
Q 1681 3072 1420 2755 
Q 1159 2438 1159 1844 
L 1159 0 
L 581 0 
L 581 3500 
L 1159 3500 
L 1159 2956 
Q 1341 3275 1631 3429 
Q 1922 3584 2338 3584 
Q 2397 3584 2469 3576 
Q 2541 3569 2628 3553 
L 2631 2963 
z
" transform="scale(0.015625)"/>
       <path id="DejaVuSans-63" d="M 3122 3366 
L 3122 2828 
Q 2878 2963 2633 3030 
Q 2388 3097 2138 3097 
Q 1578 3097 1268 2742 
Q 959 2388 959 1747 
Q 959 1106 1268 751 
Q 1578 397 2138 397 
Q 2388 397 2633 464 
Q 2878 531 3122 666 
L 3122 134 
Q 2881 22 2623 -34 
Q 2366 -91 2075 -91 
Q 1284 -91 818 406 
Q 353 903 353 1747 
Q 353 2603 823 3093 
Q 1294 3584 2113 3584 
Q 2378 3584 2631 3529 
Q 2884 3475 3122 3366 
z
" transform="scale(0.015625)"/>
       <path id="DejaVuSans-6e" d="M 3513 2113 
L 3513 0 
L 2938 0 
L 2938 2094 
Q 2938 2591 2744 2837 
Q 2550 3084 2163 3084 
Q 1697 3084 1428 2787 
Q 1159 2491 1159 1978 
L 1159 0 
L 581 0 
L 581 3500 
L 1159 3500 
L 1159 2956 
Q 1366 3272 1645 3428 
Q 1925 3584 2291 3584 
Q 2894 3584 3203 3211 
Q 3513 2838 3513 2113 
z
" transform="scale(0.015625)"/>
       <path id="DejaVuSans-74" d="M 1172 4494 
L 1172 3500 
L 2356 3500 
L 2356 3053 
L 1172 3053 
L 1172 1153 
Q 1172 725 1289 603 
Q 1406 481 1766 481 
L 2356 481 
L 2356 0 
L 1766 0 
Q 1100 0 847 248 
Q 594 497 594 1153 
L 594 3053 
L 172 3053 
L 172 3500 
L 594 3500 
L 594 4494 
L 1172 4494 
z
" transform="scale(0.015625)"/>
       <path id="DejaVuSans-69" d="M 603 3500 
L 1178 3500 
L 1178 0 
L 603 0 
L 603 3500 
z
M 603 4863 
L 1178 4863 
L 1178 4134 
L 603 4134 
L 603 4863 
z
" transform="scale(0.015625)"/>
       <path id="DejaVuSans-6c" d="M 603 4863 
L 1178 4863 
L 1178 0 
L 603 0 
L 603 4863 
z
" transform="scale(0.015625)"/>
      </defs>
      <use xlink:href="#DejaVuSans-50"/>
      <use xlink:href="#DejaVuSans-65" transform="translate(56.677734 0)"/>
      <use xlink:href="#DejaVuSans-72" transform="translate(118.201172 0)"/>
      <use xlink:href="#DejaVuSans-63" transform="translate(157.064453 0)"/>
      <use xlink:href="#DejaVuSans-65" transform="translate(212.044922 0)"/>
      <use xlink:href="#DejaVuSans-6e" transform="translate(273.568359 0)"/>
      <use xlink:href="#DejaVuSans-74" transform="translate(336.947266 0)"/>
      <use xlink:href="#DejaVuSans-69" transform="translate(376.15625 0)"/>
      <use xlink:href="#DejaVuSans-6c" transform="translate(403.939453 0)"/>
      <use xlink:href="#DejaVuSans-65" transform="translate(431.722656 0)"/>
     </g>
    </g>
   </g>
   <g id="matplotlib.axis_2">
    <g id="ytick_1">
     <g id="line2d_8"/>
     <g id="text_9">
      <!-- $\mathdefault{10^{0}}$ -->
      <g transform="translate(24.749375 379.323725) scale(0.11 -0.11)">
       <defs>
        <path id="DejaVuSans-31" d="M 794 531 
L 1825 531 
L 1825 4091 
L 703 3866 
L 703 4441 
L 1819 4666 
L 2450 4666 
L 2450 531 
L 3481 531 
L 3481 0 
L 794 0 
L 794 531 
z
" transform="scale(0.015625)"/>
       </defs>
       <use xlink:href="#DejaVuSans-31" transform="translate(0 0.765625)"/>
       <use xlink:href="#DejaVuSans-30" transform="translate(63.623047 0.765625)"/>
       <use xlink:href="#DejaVuSans-30" transform="translate(128.203125 39.046875) scale(0.7)"/>
      </g>
     </g>
    </g>
    <g id="ytick_2">
     <g id="line2d_9"/>
     <g id="text_10">
      <!-- $\mathdefault{10^{1}}$ -->
      <g transform="translate(24.749375 308.139977) scale(0.11 -0.11)">
       <use xlink:href="#DejaVuSans-31" transform="translate(0 0.684375)"/>
       <use xlink:href="#DejaVuSans-30" transform="translate(63.623047 0.684375)"/>
       <use xlink:href="#DejaVuSans-31" transform="translate(128.203125 38.965625) scale(0.7)"/>
      </g>
     </g>
    </g>
    <g id="ytick_3">
     <g id="line2d_10"/>
     <g id="text_11">
      <!-- $\mathdefault{10^{2}}$ -->
      <g transform="translate(24.749375 236.956228) scale(0.11 -0.11)">
       <defs>
        <path id="DejaVuSans-32" d="M 1228 531 
L 3431 531 
L 3431 0 
L 469 0 
L 469 531 
Q 828 903 1448 1529 
Q 2069 2156 2228 2338 
Q 2531 2678 2651 2914 
Q 2772 3150 2772 3378 
Q 2772 3750 2511 3984 
Q 2250 4219 1831 4219 
Q 1534 4219 1204 4116 
Q 875 4013 500 3803 
L 500 4441 
Q 881 4594 1212 4672 
Q 1544 4750 1819 4750 
Q 2544 4750 2975 4387 
Q 3406 4025 3406 3419 
Q 3406 3131 3298 2873 
Q 3191 2616 2906 2266 
Q 2828 2175 2409 1742 
Q 1991 1309 1228 531 
z
" transform="scale(0.015625)"/>
       </defs>
       <use xlink:href="#DejaVuSans-31" transform="translate(0 0.765625)"/>
       <use xlink:href="#DejaVuSans-30" transform="translate(63.623047 0.765625)"/>
       <use xlink:href="#DejaVuSans-32" transform="translate(128.203125 39.046875) scale(0.7)"/>
      </g>
     </g>
    </g>
    <g id="ytick_4">
     <g id="line2d_11"/>
     <g id="text_12">
      <!-- $\mathdefault{10^{3}}$ -->
      <g transform="translate(24.749375 165.77248) scale(0.11 -0.11)">
       <defs>
        <path id="DejaVuSans-33" d="M 2597 2516 
Q 3050 2419 3304 2112 
Q 3559 1806 3559 1356 
Q 3559 666 3084 287 
Q 2609 -91 1734 -91 
Q 1441 -91 1130 -33 
Q 819 25 488 141 
L 488 750 
Q 750 597 1062 519 
Q 1375 441 1716 441 
Q 2309 441 2620 675 
Q 2931 909 2931 1356 
Q 2931 1769 2642 2001 
Q 2353 2234 1838 2234 
L 1294 2234 
L 1294 2753 
L 1863 2753 
Q 2328 2753 2575 2939 
Q 2822 3125 2822 3475 
Q 2822 3834 2567 4026 
Q 2313 4219 1838 4219 
Q 1578 4219 1281 4162 
Q 984 4106 628 3988 
L 628 4550 
Q 988 4650 1302 4700 
Q 1616 4750 1894 4750 
Q 2613 4750 3031 4423 
Q 3450 4097 3450 3541 
Q 3450 3153 3228 2886 
Q 3006 2619 2597 2516 
z
" transform="scale(0.015625)"/>
       </defs>
       <use xlink:href="#DejaVuSans-31" transform="translate(0 0.765625)"/>
       <use xlink:href="#DejaVuSans-30" transform="translate(63.623047 0.765625)"/>
       <use xlink:href="#DejaVuSans-33" transform="translate(128.203125 39.046875) scale(0.7)"/>
      </g>
     </g>
    </g>
    <g id="ytick_5">
     <g id="line2d_12"/>
     <g id="text_13">
      <!-- $\mathdefault{10^{4}}$ -->
      <g transform="translate(24.749375 94.588731) scale(0.11 -0.11)">
       <defs>
        <path id="DejaVuSans-34" d="M 2419 4116 
L 825 1625 
L 2419 1625 
L 2419 4116 
z
M 2253 4666 
L 3047 4666 
L 3047 1625 
L 3713 1625 
L 3713 1100 
L 3047 1100 
L 3047 0 
L 2419 0 
L 2419 1100 
L 313 1100 
L 313 1709 
L 2253 4666 
z
" transform="scale(0.015625)"/>
       </defs>
       <use xlink:href="#DejaVuSans-31" transform="translate(0 0.684375)"/>
       <use xlink:href="#DejaVuSans-30" transform="translate(63.623047 0.684375)"/>
       <use xlink:href="#DejaVuSans-34" transform="translate(128.203125 38.965625) scale(0.7)"/>
      </g>
     </g>
    </g>
    <g id="text_14">
     <!-- Latency (ns, log scale) -->
     <g transform="translate(17.837813 300.048666) rotate(-90) scale(0.14 -0.14)">
      <defs>
       <path id="DejaVuSans-4c" d="M 628 4666 
L 1259 4666 
L 1259 531 
L 3531 531 
L 3531 0 
L 628 0 
L 628 4666 
z
" transform="scale(0.015625)"/>
       <path id="DejaVuSans-61" d="M 2194 1759 
Q 1497 1759 1228 1600 
Q 959 1441 959 1056 
Q 959 750 1161 570 
Q 1363 391 1709 391 
Q 2188 391 2477 730 
Q 2766 1069 2766 1631 
L 2766 1759 
L 2194 1759 
z
M 3341 1997 
L 3341 0 
L 2766 0 
L 2766 531 
Q 2569 213 2275 61 
Q 1981 -91 1556 -91 
Q 1019 -91 701 211 
Q 384 513 384 1019 
Q 384 1609 779 1909 
Q 1175 2209 1959 2209 
L 2766 2209 
L 2766 2266 
Q 2766 2663 2505 2880 
Q 2244 3097 1772 3097 
Q 1472 3097 1187 3025 
Q 903 2953 641 2809 
L 641 3341 
Q 956 3463 1253 3523 
Q 1550 3584 1831 3584 
Q 2591 3584 2966 3190 
Q 3341 2797 3341 1997 
z
" transform="scale(0.015625)"/>
       <path id="DejaVuSans-79" d="M 2059 -325 
Q 1816 -950 1584 -1140 
Q 1353 -1331 966 -1331 
L 506 -1331 
L 506 -850 
L 844 -850 
Q 1081 -850 1212 -737 
Q 1344 -625 1503 -206 
L 1606 56 
L 191 3500 
L 800 3500 
L 1894 763 
L 2988 3500 
L 3597 3500 
L 2059 -325 
z
" transform="scale(0.015625)"/>
       <path id="DejaVuSans-20" transform="scale(0.015625)"/>
       <path id="DejaVuSans-28" d="M 1984 4856 
Q 1566 4138 1362 3434 
Q 1159 2731 1159 2009 
Q 1159 1288 1364 580 
Q 1569 -128 1984 -844 
L 1484 -844 
Q 1016 -109 783 600 
Q 550 1309 550 2009 
Q 550 2706 781 3412 
Q 1013 4119 1484 4856 
L 1984 4856 
z
" transform="scale(0.015625)"/>
       <path id="DejaVuSans-73" d="M 2834 3397 
L 2834 2853 
Q 2591 2978 2328 3040 
Q 2066 3103 1784 3103 
Q 1356 3103 1142 2972 
Q 928 2841 928 2578 
Q 928 2378 1081 2264 
Q 1234 2150 1697 2047 
L 1894 2003 
Q 2506 1872 2764 1633 
Q 3022 1394 3022 966 
Q 3022 478 2636 193 
Q 2250 -91 1575 -91 
Q 1294 -91 989 -36 
Q 684 19 347 128 
L 347 722 
Q 666 556 975 473 
Q 1284 391 1588 391 
Q 1994 391 2212 530 
Q 2431 669 2431 922 
Q 2431 1156 2273 1281 
Q 2116 1406 1581 1522 
L 1381 1569 
Q 847 1681 609 1914 
Q 372 2147 372 2553 
Q 372 3047 722 3315 
Q 1072 3584 1716 3584 
Q 2034 3584 2315 3537 
Q 2597 3491 2834 3397 
z
" transform="scale(0.015625)"/>
       <path id="DejaVuSans-2c" d="M 750 794 
L 1409 794 
L 1409 256 
L 897 -744 
L 494 -744 
L 750 256 
L 750 794 
z
" transform="scale(0.015625)"/>
       <path id="DejaVuSans-6f" d="M 1959 3097 
Q 1497 3097 1228 2736 
Q 959 2375 959 1747 
Q 959 1119 1226 758 
Q 1494 397 1959 397 
Q 2419 397 2687 759 
Q 2956 1122 2956 1747 
Q 2956 2369 2687 2733 
Q 2419 3097 1959 3097 
z
M 1959 3584 
Q 2709 3584 3137 3096 
Q 3566 2609 3566 1747 
Q 3566 888 3137 398 
Q 2709 -91 1959 -91 
Q 1206 -91 779 398 
Q 353 888 353 1747 
Q 353 2609 779 3096 
Q 1206 3584 1959 3584 
z
" transform="scale(0.015625)"/>
       <path id="DejaVuSans-67" d="M 2906 1791 
Q 2906 2416 2648 2759 
Q 2391 3103 1925 3103 
Q 1463 3103 1205 2759 
Q 947 2416 947 1791 
Q 947 1169 1205 825 
Q 1463 481 1925 481 
Q 2391 481 2648 825 
Q 2906 1169 2906 1791 
z
M 3481 434 
Q 3481 -459 3084 -895 
Q 2688 -1331 1869 -1331 
Q 1566 -1331 1297 -1286 
Q 1028 -1241 775 -1147 
L 775 -588 
Q 1028 -725 1275 -790 
Q 1522 -856 1778 -856 
Q 2344 -856 2625 -561 
Q 2906 -266 2906 331 
L 2906 616 
Q 2728 306 2450 153 
Q 2172 0 1784 0 
Q 1141 0 747 490 
Q 353 981 353 1791 
Q 353 2603 747 3093 
Q 1141 3584 1784 3584 
Q 2172 3584 2450 3431 
Q 2728 3278 2906 2969 
L 2906 3500 
L 3481 3500 
L 3481 434 
z
" transform="scale(0.015625)"/>
       <path id="DejaVuSans-29" d="M 513 4856 
L 1013 4856 
Q 1481 4119 1714 3412 
Q 1947 2706 1947 2009 
Q 1947 1309 1714 600 
Q 1481 -109 1013 -844 
L 513 -844 
Q 928 -128 1133 580 
Q 1338 1288 1338 2009 
Q 1338 2731 1133 3434 
Q 928 4138 513 4856 
z
" transform="scale(0.015625)"/>
      </defs>
      <use xlink:href="#DejaVuSans-4c"/>
      <use xlink:href="#DejaVuSans-61" transform="translate(55.712891 0)"/>
      <use xlink:href="#DejaVuSans-74" transform="translate(116.992188 0)"/>
      <use xlink:href="#DejaVuSans-65" transform="translate(156.201172 0)"/>
      <use xlink:href="#DejaVuSans-6e" transform="translate(217.724609 0)"/>
      <use xlink:href="#DejaVuSans-63" transform="translate(281.103516 0)"/>
      <use xlink:href="#DejaVuSans-79" transform="translate(336.083984 0)"/>
      <use xlink:href="#DejaVuSans-20" transform="translate(395.263672 0)"/>
      <use xlink:href="#DejaVuSans-28" transform="translate(427.050781 0)"/>
      <use xlink:href="#DejaVuSans-6e" transform="translate(466.064453 0)"/>
      <use xlink:href="#DejaVuSans-73" transform="translate(529.443359 0)"/>
      <use xlink:href="#DejaVuSans-2c" transform="translate(581.542969 0)"/>
      <use xlink:href="#DejaVuSans-20" transform="translate(613.330078 0)"/>
      <use xlink:href="#DejaVuSans-6c" transform="translate(645.117188 0)"/>
      <use xlink:href="#DejaVuSans-6f" transform="translate(672.900391 0)"/>
      <use xlink:href="#DejaVuSans-67" transform="translate(734.082031 0)"/>
      <use xlink:href="#DejaVuSans-20" transform="translate(797.558594 0)"/>
      <use xlink:href="#DejaVuSans-73" transform="translate(829.345703 0)"/>
      <use xlink:href="#DejaVuSans-63" transform="translate(881.445312 0)"/>
      <use xlink:href="#DejaVuSans-61" transform="translate(936.425781 0)"/>
      <use xlink:href="#DejaVuSans-6c" transform="translate(997.705078 0)"/>
      <use xlink:href="#DejaVuSans-65" transform="translate(1025.488281 0)"/>
      <use xlink:href="#DejaVuSans-29" transform="translate(1087.011719 0)"/>
     </g>
    </g>
   </g>
   <g id="line2d_13">
    <path d="M 47.64077 375.144584 
L 68.062903 375.144584 
L 68.063065 375.144584 
L 174.841717 307.218026 
L 174.84549 303.960836 
L 214.456753 275.633975 
L 214.457842 274.421478 
L 223.106996 260.340584 
L 230.177684 250.15483 
L 264.303966 242.506279 
L 283.743412 236.379697 
L 318.237374 231.268754 
L 373.829204 226.884115 
L 403.230619 223.044805 
L 425.460763 219.630059 
L 431.890871 216.555258 
L 446.273631 213.758802 
L 453.060585 211.194456 
L 466.105915 208.826622 
L 510.420733 206.627316 
L 524.256111 204.574133 
L 530.133978 202.64886 
L 534.742685 200.83649 
L 541.902256 199.124511 
L 548.858144 197.502384 
L 552.248547 195.961145 
L 555.856079 194.493108 
L 561.741261 193.091635 
L 563.84799 191.75095 
L 566.59724 190.465998 
L 569.487538 189.232329 
L 571.295664 188.046008 
L 574.444441 186.903533 
L 577.096622 185.801779 
L 581.324739 184.737942 
L 582.06133 182.714171 
L 585.107934 181.749891 
L 585.896037 180.814782 
L 588.328722 179.907129 
L 591.744825 179.025366 
L 594.45007 178.168057 
L 595.38147 177.333883 
L 597.29177 175.730167 
L 599.269112 174.205559 
L 603.444981 173.470553 
L 604.53916 172.752618 
L 606.793398 172.050977 
L 609.14159 171.364908 
L 610.353431 170.693735 
L 614.153643 169.393582 
L 615.479549 168.763451 
L 616.837409 167.54046 
L 618.228799 166.946642 
L 619.655419 164.137473 
L 621.119097 163.605021 
L 622.621811 162.060573 
L 625.753086 160.114462 
L 627.386489 154.918312 
L 629.068657 152.987023 
L 630.802592 151.524414 
L 632.591582 149.452591 
L 634.439237 147.510938 
L 636.349537 146.889906 
L 638.326878 145.981141 
L 640.376139 145.098329 
L 642.502748 144.809573 
L 644.712774 143.959143 
L 647.01303 142.860448 
L 649.411198 142.325405 
L 651.915986 138.56836 
L 654.537316 137.642874 
L 657.286566 137.190318 
L 660.176864 136.304607 
L 663.223468 134.399934 
L 666.444256 133.589674 
L 669.860359 132.995618 
L 677.384645 131.840693 
L 681.560514 128.107757 
L 686.070797 127.609457 
L 690.973753 126.7964 
L 696.344333 126.004179 
L 702.281235 125.69289 
L 716.442412 125.231754 
L 725.128564 124.32962 
L 729.348278 123.504893 
" clip-path="url(#pb41ce5723c)" style="fill: none; stroke: #1f77b4; stroke-width: 2; stroke-linecap: square"/>
    <defs>
     <path id="m1eeb444208" d="M 0 2 
C 0.530406 2 1.03916 1.789267 1.414214 1.414214 
C 1.789267 1.03916 2 0.530406 2 0 
C 2 -0.530406 1.789267 -1.03916 1.414214 -1.414214 
C 1.03916 -1.789267 0.530406 -2 0 -2 
C -0.530406 -2 -1.03916 -1.789267 -1.414214 -1.414214 
C -1.789267 -1.03916 -2 -0.530406 -2 0 
C -2 0.530406 -1.789267 1.03916 -1.414214 1.414214 
C -1.03916 1.789267 -0.530406 2 0 2 
z
" style="stroke: #1f77b4"/>
    </defs>
    <g clip-path="url(#pb41ce5723c)">
     <use xlink:href="#m1eeb444208" x="47.64077" y="375.144584" style="fill: #1f77b4; stroke: #1f77b4"/>
     <use xlink:href="#m1eeb444208" x="174.84549" y="303.960836" style="fill: #1f77b4; stroke: #1f77b4"/>
     <use xlink:href="#m1eeb444208" x="230.177684" y="250.15483" style="fill: #1f77b4; stroke: #1f77b4"/>
     <use xlink:href="#m1eeb444208" x="373.829204" y="226.884115" style="fill: #1f77b4; stroke: #1f77b4"/>
     <use xlink:href="#m1eeb444208" x="446.273631" y="213.758802" style="fill: #1f77b4; stroke: #1f77b4"/>
     <use xlink:href="#m1eeb444208" x="524.256111" y="204.574133" style="fill: #1f77b4; stroke: #1f77b4"/>
     <use xlink:href="#m1eeb444208" x="548.858144" y="197.502384" style="fill: #1f77b4; stroke: #1f77b4"/>
     <use xlink:href="#m1eeb444208" x="563.84799" y="191.75095" style="fill: #1f77b4; stroke: #1f77b4"/>
     <use xlink:href="#m1eeb444208" x="574.444441" y="186.903533" style="fill: #1f77b4; stroke: #1f77b4"/>
     <use xlink:href="#m1eeb444208" x="585.107934" y="181.749891" style="fill: #1f77b4; stroke: #1f77b4"/>
     <use xlink:href="#m1eeb444208" x="594.45007" y="178.168057" style="fill: #1f77b4; stroke: #1f77b4"/>
     <use xlink:href="#m1eeb444208" x="603.444981" y="173.470553" style="fill: #1f77b4; stroke: #1f77b4"/>
     <use xlink:href="#m1eeb444208" x="610.353431" y="170.693735" style="fill: #1f77b4; stroke: #1f77b4"/>
     <use xlink:href="#m1eeb444208" x="618.228799" y="166.946642" style="fill: #1f77b4; stroke: #1f77b4"/>
     <use xlink:href="#m1eeb444208" x="625.753086" y="160.114462" style="fill: #1f77b4; stroke: #1f77b4"/>
     <use xlink:href="#m1eeb444208" x="632.591582" y="149.452591" style="fill: #1f77b4; stroke: #1f77b4"/>
     <use xlink:href="#m1eeb444208" x="640.376139" y="145.098329" style="fill: #1f77b4; stroke: #1f77b4"/>
     <use xlink:href="#m1eeb444208" x="649.411198" y="142.325405" style="fill: #1f77b4; stroke: #1f77b4"/>
     <use xlink:href="#m1eeb444208" x="660.176864" y="136.304607" style="fill: #1f77b4; stroke: #1f77b4"/>
     <use xlink:href="#m1eeb444208" x="677.384645" y="131.840693" style="fill: #1f77b4; stroke: #1f77b4"/>
     <use xlink:href="#m1eeb444208" x="696.344333" y="126.004179" style="fill: #1f77b4; stroke: #1f77b4"/>
     <use xlink:href="#m1eeb444208" x="735.4021" y="122.321698" style="fill: #1f77b4; stroke: #1f77b4"/>
     <use xlink:href="#m1eeb444208" x="826.091426" y="115.482354" style="fill: #1f77b4; stroke: #1f77b4"/>
    </g>
   </g>
   <g id="line2d_14">
    <path d="M 47.639924 375.144584 
L 70.156909 375.144584 
L 70.156993 375.144584 
L 164.269706 307.218026 
L 164.272387 303.960836 
L 221.399526 275.633975 
L 221.401988 274.421478 
L 235.019982 260.340584 
L 238.567746 250.15483 
L 268.268304 242.506279 
L 298.207996 236.379697 
L 321.414964 231.268754 
L 321.422229 230.975721 
L 382.062951 226.884115 
L 382.084267 226.629671 
L 414.266393 223.044805 
L 437.189256 219.630059 
L 437.245973 219.42866 
L 444.56796 216.555258 
L 454.970885 213.758802 
L 470.434975 211.194456 
L 479.394497 208.826622 
L 518.933877 206.627316 
L 551.38163 204.574133 
L 567.735631 202.64886 
L 575.754929 200.83649 
L 579.171033 199.124511 
L 595.38147 197.502384 
L 607.955263 195.961145 
L 619.655419 194.493108 
L 625.753086 193.091635 
L 629.068657 191.75095 
L 632.591582 190.465998 
L 634.439237 189.232329 
L 636.349537 188.046008 
L 638.326878 176.521627 
L 640.376139 150.127888 
L 644.712774 145.981141 
L 649.411198 145.389807 
L 651.915986 144.240028 
L 654.537316 142.591769 
L 660.176864 142.061316 
L 663.223468 140.522475 
L 666.444256 140.273287 
L 669.860359 140.026091 
L 673.497004 138.102154 
L 677.384645 137.871661 
L 681.560514 137.415768 
L 686.070797 137.190318 
L 690.973753 134.195369 
L 696.344333 130.910158 
L 702.281235 127.445126 
L 708.918126 121.096519 
L 716.442412 118.033467 
L 725.128564 111.714622 
L 729.348278 110.190963 
" clip-path="url(#pb41ce5723c)" style="fill: none; stroke: #ff7f0e; stroke-width: 2; stroke-linecap: square"/>
    <defs>
     <path id="m11e7296390" d="M -0 2 
L 2 -2 
L -2 -2 
z
" style="stroke: #ff7f0e; stroke-linejoin: miter"/>
    </defs>
    <g clip-path="url(#pb41ce5723c)">
     <use xlink:href="#m11e7296390" x="47.639924" y="375.144584" style="fill: #ff7f0e; stroke: #ff7f0e; stroke-linejoin: miter"/>
     <use xlink:href="#m11e7296390" x="164.269706" y="307.218026" style="fill: #ff7f0e; stroke: #ff7f0e; stroke-linejoin: miter"/>
     <use xlink:href="#m11e7296390" x="221.401988" y="274.421478" style="fill: #ff7f0e; stroke: #ff7f0e; stroke-linejoin: miter"/>
     <use xlink:href="#m11e7296390" x="268.268304" y="242.506279" style="fill: #ff7f0e; stroke: #ff7f0e; stroke-linejoin: miter"/>
     <use xlink:href="#m11e7296390" x="321.422229" y="230.975721" style="fill: #ff7f0e; stroke: #ff7f0e; stroke-linejoin: miter"/>
     <use xlink:href="#m11e7296390" x="414.266393" y="223.044805" style="fill: #ff7f0e; stroke: #ff7f0e; stroke-linejoin: miter"/>
     <use xlink:href="#m11e7296390" x="444.56796" y="216.555258" style="fill: #ff7f0e; stroke: #ff7f0e; stroke-linejoin: miter"/>
     <use xlink:href="#m11e7296390" x="479.394497" y="208.826622" style="fill: #ff7f0e; stroke: #ff7f0e; stroke-linejoin: miter"/>
     <use xlink:href="#m11e7296390" x="567.735631" y="202.64886" style="fill: #ff7f0e; stroke: #ff7f0e; stroke-linejoin: miter"/>
     <use xlink:href="#m11e7296390" x="595.38147" y="197.502384" style="fill: #ff7f0e; stroke: #ff7f0e; stroke-linejoin: miter"/>
     <use xlink:href="#m11e7296390" x="625.753086" y="193.091635" style="fill: #ff7f0e; stroke: #ff7f0e; stroke-linejoin: miter"/>
     <use xlink:href="#m11e7296390" x="634.439237" y="189.232329" style="fill: #ff7f0e; stroke: #ff7f0e; stroke-linejoin: miter"/>
     <use xlink:href="#m11e7296390" x="640.376139" y="150.127888" style="fill: #ff7f0e; stroke: #ff7f0e; stroke-linejoin: miter"/>
     <use xlink:href="#m11e7296390" x="651.915986" y="144.240028" style="fill: #ff7f0e; stroke: #ff7f0e; stroke-linejoin: miter"/>
     <use xlink:href="#m11e7296390" x="663.223468" y="140.522475" style="fill: #ff7f0e; stroke: #ff7f0e; stroke-linejoin: miter"/>
     <use xlink:href="#m11e7296390" x="673.497004" y="138.102154" style="fill: #ff7f0e; stroke: #ff7f0e; stroke-linejoin: miter"/>
     <use xlink:href="#m11e7296390" x="686.070797" y="137.190318" style="fill: #ff7f0e; stroke: #ff7f0e; stroke-linejoin: miter"/>
     <use xlink:href="#m11e7296390" x="702.281235" y="127.445126" style="fill: #ff7f0e; stroke: #ff7f0e; stroke-linejoin: miter"/>
     <use xlink:href="#m11e7296390" x="725.128564" y="111.714622" style="fill: #ff7f0e; stroke: #ff7f0e; stroke-linejoin: miter"/>
     <use xlink:href="#m11e7296390" x="787.033659" y="93.365971" style="fill: #ff7f0e; stroke: #ff7f0e; stroke-linejoin: miter"/>
    </g>
   </g>
   <g id="line2d_15">
    <path d="M 47.609995 375.144584 
L 47.616588 375.144584 
L 48.269295 307.218026 
L 53.606032 275.633975 
L 53.606094 274.421478 
L 72.237015 260.340584 
L 72.237626 259.595615 
L 92.04409 250.15483 
L 92.045206 249.61717 
L 111.145369 242.506279 
L 111.146239 242.085664 
L 128.358334 236.379697 
L 128.359043 236.034277 
L 148.989351 231.268754 
L 148.990714 230.975721 
L 172.805296 226.884115 
L 172.808414 226.629671 
L 196.91408 223.044805 
L 196.915675 222.81997 
L 222.38069 219.630059 
L 222.381943 219.42866 
L 247.141299 216.555258 
L 247.143244 216.372869 
L 272.514497 213.758802 
L 299.502748 211.194456 
L 299.507672 211.041032 
L 325.39504 208.826622 
L 325.402836 208.684486 
L 352.664043 206.627316 
L 352.689345 206.494919 
L 380.569772 204.574133 
L 454.815655 199.124511 
L 475.235757 197.502384 
L 489.620098 195.961145 
L 520.40392 191.75095 
L 526.700523 190.465998 
L 539.762184 184.737942 
L 541.539885 183.709499 
L 543.749911 182.714171 
L 545.272935 181.749891 
L 546.442841 180.814782 
L 548.041486 179.907129 
L 548.858144 179.025366 
L 550.52785 178.168057 
L 552.248547 176.521627 
L 553.574454 175.730167 
L 554.023448 174.958465 
L 555.856079 173.470553 
L 557.270759 172.752618 
L 558.234003 172.050977 
L 559.214001 169.393582 
L 560.211345 168.763451 
L 562.260605 166.364015 
L 563.313878 165.792166 
L 563.84799 164.679256 
L 564.387214 164.137473 
L 564.931648 163.081585 
L 565.481393 162.566864 
L 566.036554 160.589625 
L 566.59724 157.407344 
L 567.735631 156.555205 
L 568.313569 152.24707 
L 568.897496 151.524414 
L 569.487538 149.788395 
L 570.083823 148.79173 
L 571.295664 148.466523 
L 572.534141 146.281104 
L 573.16374 145.68406 
L 573.800452 143.404915 
L 575.095876 143.131483 
L 575.754929 142.860448 
L 577.096622 142.591769 
L 577.779642 141.539812 
L 579.171033 141.026959 
L 579.879827 140.522475 
L 580.597652 140.273287 
L 582.807678 138.804126 
L 585.107934 138.102154 
L 588.328722 137.871661 
L 590.871188 137.190318 
L 591.744825 136.087089 
L 592.632221 135.443568 
L 594.45007 135.021877 
L 595.38147 134.195369 
L 599.269112 133.790257 
L 601.318372 132.995618 
L 603.444981 132.605829 
L 604.53916 132.220894 
L 610.353431 131.652332 
L 611.591908 130.727365 
L 614.153643 130.006815 
L 619.655419 129.302677 
L 622.621811 128.614221 
L 625.753086 128.275658 
L 627.386489 127.774666 
L 629.068657 127.609457 
L 630.802592 127.281664 
L 632.591582 126.7964 
L 634.439237 126.477071 
L 640.376139 125.079558 
L 654.537316 124.181791 
L 660.176864 123.023936 
L 663.223468 122.183145 
L 666.444256 121.499541 
L 669.860359 120.567201 
L 686.070797 120.046794 
L 690.973753 118.033467 
L 702.281235 116.964264 
L 708.918126 114.712882 
L 716.442412 114.281632 
L 725.128564 113.436771 
L 729.348278 112.021073 
L 729.348278 112.021073 
" clip-path="url(#pb41ce5723c)" style="fill: none; stroke: #2ca02c; stroke-width: 2; stroke-linecap: square"/>
    <defs>
     <path id="ma8cf6f4379" d="M -2 2 
L 2 2 
L 2 -2 
L -2 -2 
z
" style="stroke: #2ca02c; stroke-linejoin: miter"/>
    </defs>
    <g clip-path="url(#pb41ce5723c)">
     <use xlink:href="#ma8cf6f4379" x="47.609995" y="375.144584" style="fill: #2ca02c; stroke: #2ca02c; stroke-linejoin: miter"/>
     <use xlink:href="#ma8cf6f4379" x="92.04409" y="250.15483" style="fill: #2ca02c; stroke: #2ca02c; stroke-linejoin: miter"/>
     <use xlink:href="#ma8cf6f4379" x="148.990714" y="230.975721" style="fill: #2ca02c; stroke: #2ca02c; stroke-linejoin: miter"/>
     <use xlink:href="#ma8cf6f4379" x="247.141299" y="216.555258" style="fill: #2ca02c; stroke: #2ca02c; stroke-linejoin: miter"/>
     <use xlink:href="#ma8cf6f4379" x="352.664043" y="206.627316" style="fill: #2ca02c; stroke: #2ca02c; stroke-linejoin: miter"/>
     <use xlink:href="#ma8cf6f4379" x="489.620098" y="195.961145" style="fill: #2ca02c; stroke: #2ca02c; stroke-linejoin: miter"/>
     <use xlink:href="#ma8cf6f4379" x="535.06376" y="186.903533" style="fill: #2ca02c; stroke: #2ca02c; stroke-linejoin: miter"/>
     <use xlink:href="#ma8cf6f4379" x="548.041486" y="179.907129" style="fill: #2ca02c; stroke: #2ca02c; stroke-linejoin: miter"/>
     <use xlink:href="#ma8cf6f4379" x="554.932313" y="174.205559" style="fill: #2ca02c; stroke: #2ca02c; stroke-linejoin: miter"/>
     <use xlink:href="#ma8cf6f4379" x="560.716715" y="168.145908" style="fill: #2ca02c; stroke: #2ca02c; stroke-linejoin: miter"/>
     <use xlink:href="#ma8cf6f4379" x="564.931648" y="163.081585" style="fill: #2ca02c; stroke: #2ca02c; stroke-linejoin: miter"/>
     <use xlink:href="#ma8cf6f4379" x="568.897496" y="151.524414" style="fill: #2ca02c; stroke: #2ca02c; stroke-linejoin: miter"/>
     <use xlink:href="#ma8cf6f4379" x="575.095876" y="143.131483" style="fill: #2ca02c; stroke: #2ca02c; stroke-linejoin: miter"/>
     <use xlink:href="#ma8cf6f4379" x="580.597652" y="140.273287" style="fill: #2ca02c; stroke: #2ca02c; stroke-linejoin: miter"/>
     <use xlink:href="#ma8cf6f4379" x="588.328722" y="137.871661" style="fill: #2ca02c; stroke: #2ca02c; stroke-linejoin: miter"/>
     <use xlink:href="#ma8cf6f4379" x="597.29177" y="133.99215" style="fill: #2ca02c; stroke: #2ca02c; stroke-linejoin: miter"/>
     <use xlink:href="#ma8cf6f4379" x="609.14159" y="131.840693" style="fill: #2ca02c; stroke: #2ca02c; stroke-linejoin: miter"/>
     <use xlink:href="#ma8cf6f4379" x="619.655419" y="129.302677" style="fill: #2ca02c; stroke: #2ca02c; stroke-linejoin: miter"/>
     <use xlink:href="#ma8cf6f4379" x="632.591582" y="126.7964" style="fill: #2ca02c; stroke: #2ca02c; stroke-linejoin: miter"/>
     <use xlink:href="#ma8cf6f4379" x="647.01303" y="124.627416" style="fill: #2ca02c; stroke: #2ca02c; stroke-linejoin: miter"/>
     <use xlink:href="#ma8cf6f4379" x="669.860359" y="120.567201" style="fill: #2ca02c; stroke: #2ca02c; stroke-linejoin: miter"/>
     <use xlink:href="#ma8cf6f4379" x="725.128564" y="113.436771" style="fill: #2ca02c; stroke: #2ca02c; stroke-linejoin: miter"/>
    </g>
   </g>
   <g id="line2d_16">
    <path d="M 47.613883 375.144584 
L 47.642349 375.144584 
L 53.842491 307.218026 
L 53.842554 303.960836 
L 101.585276 275.633975 
L 101.586451 274.421478 
L 159.105588 260.340584 
L 159.106811 259.595615 
L 197.272521 250.15483 
L 197.274928 249.61717 
L 212.233947 242.506279 
L 212.236039 242.085664 
L 222.213169 236.379697 
L 278.789717 231.268754 
L 278.793126 230.975721 
L 328.88439 226.884115 
L 373.29781 223.044805 
L 431.942608 219.630059 
L 474.133126 216.555258 
L 496.491174 213.758802 
L 510.213301 211.194456 
L 516.334649 208.826622 
L 522.425719 206.627316 
L 529.839842 204.574133 
L 534.106085 202.64886 
L 538.721988 200.83649 
L 541.179942 199.124511 
L 543.750024 197.502384 
L 544.888415 195.961145 
L 546.442953 194.493108 
L 547.637665 193.091635 
L 549.271068 191.75095 
L 550.953236 190.465998 
L 554.02356 189.232329 
L 555.392416 188.046008 
L 557.270871 186.903533 
L 558.234116 185.801779 
L 558.721984 184.737942 
L 560.211457 183.709499 
L 561.741373 182.714171 
L 562.784893 181.749891 
L 563.848103 180.814782 
L 564.93176 179.907129 
L 566.036667 179.025366 
L 567.163674 178.168057 
L 568.313682 177.333883 
L 570.686599 176.521627 
L 571.295777 175.730167 
L 573.163852 174.205559 
L 574.444554 173.470553 
L 575.755042 172.050977 
L 577.779755 171.364908 
L 578.471156 170.693735 
L 579.87994 170.036824 
L 580.597764 168.763451 
L 582.061443 168.145908 
L 584.330814 166.364015 
L 585.108047 164.137473 
L 585.89615 162.060573 
L 586.695432 159.646491 
L 587.506215 158.731281 
L 589.163642 157.842387 
L 590.011003 149.788395 
L 590.871301 149.452591 
L 591.744938 148.466523 
L 592.632333 147.826195 
L 593.533928 147.198862 
L 594.450183 146.584006 
L 595.381583 146.281104 
L 597.291883 145.68406 
L 598.271881 145.389807 
L 599.269224 145.098329 
L 601.318485 144.809573 
L 603.445093 144.523489 
L 604.539272 144.240028 
L 606.793511 143.959143 
L 609.141703 143.404915 
L 610.353544 142.325405 
L 611.592021 142.061316 
L 612.858332 141.539812 
L 614.153755 141.282322 
L 616.837522 140.522475 
L 618.228912 140.026091 
L 619.655531 138.102154 
L 622.621924 137.642874 
L 624.165814 137.190318 
L 627.386601 135.65659 
L 629.068769 135.021877 
L 630.802705 134.399934 
L 632.591694 133.390384 
L 634.43935 133.192371 
L 636.34965 132.80011 
L 638.326991 132.605829 
L 640.376251 131.840693 
L 642.50286 129.652741 
L 644.712887 129.302677 
L 647.013143 129.12912 
L 649.411311 128.784903 
L 651.916098 127.445126 
L 654.537429 126.318636 
L 657.286679 126.004179 
L 663.22358 124.478159 
L 666.444368 124.034665 
L 669.860471 123.597443 
L 673.497117 122.882207 
L 677.384758 122.460876 
L 681.560627 120.698684 
L 686.070909 120.046794 
L 690.973865 119.282249 
L 696.344446 118.536157 
L 702.281347 115.593859 
L 708.918238 113.962097 
L 716.442525 109.435915 
L 725.128676 106.553983 
L 729.348278 104.329185 
" clip-path="url(#pb41ce5723c)" style="fill: none; stroke: #d62728; stroke-width: 2; stroke-linecap: square"/>
    <defs>
     <path id="me42b347d26" d="M -0 2.828427 
L 2.828427 0 
L 0 -2.828427 
L -2.828427 -0 
z
" style="stroke: #d62728; stroke-linejoin: miter"/>
    </defs>
    <g clip-path="url(#pb41ce5723c)">
     <use xlink:href="#me42b347d26" x="47.613883" y="375.144584" style="fill: #d62728; stroke: #d62728; stroke-linejoin: miter"/>
     <use xlink:href="#me42b347d26" x="159.105588" y="260.340584" style="fill: #d62728; stroke: #d62728; stroke-linejoin: miter"/>
     <use xlink:href="#me42b347d26" x="222.213169" y="236.379697" style="fill: #d62728; stroke: #d62728; stroke-linejoin: miter"/>
     <use xlink:href="#me42b347d26" x="474.133126" y="216.555258" style="fill: #d62728; stroke: #d62728; stroke-linejoin: miter"/>
     <use xlink:href="#me42b347d26" x="534.106085" y="202.64886" style="fill: #d62728; stroke: #d62728; stroke-linejoin: miter"/>
     <use xlink:href="#me42b347d26" x="547.637665" y="193.091635" style="fill: #d62728; stroke: #d62728; stroke-linejoin: miter"/>
     <use xlink:href="#me42b347d26" x="558.234116" y="185.801779" style="fill: #d62728; stroke: #d62728; stroke-linejoin: miter"/>
     <use xlink:href="#me42b347d26" x="564.93176" y="179.907129" style="fill: #d62728; stroke: #d62728; stroke-linejoin: miter"/>
     <use xlink:href="#me42b347d26" x="573.163852" y="174.205559" style="fill: #d62728; stroke: #d62728; stroke-linejoin: miter"/>
     <use xlink:href="#me42b347d26" x="580.597764" y="168.763451" style="fill: #d62728; stroke: #d62728; stroke-linejoin: miter"/>
     <use xlink:href="#me42b347d26" x="587.506215" y="158.731281" style="fill: #d62728; stroke: #d62728; stroke-linejoin: miter"/>
     <use xlink:href="#me42b347d26" x="593.533928" y="147.198862" style="fill: #d62728; stroke: #d62728; stroke-linejoin: miter"/>
     <use xlink:href="#me42b347d26" x="601.318485" y="144.809573" style="fill: #d62728; stroke: #d62728; stroke-linejoin: miter"/>
     <use xlink:href="#me42b347d26" x="611.592021" y="142.061316" style="fill: #d62728; stroke: #d62728; stroke-linejoin: miter"/>
     <use xlink:href="#me42b347d26" x="622.621924" y="137.642874" style="fill: #d62728; stroke: #d62728; stroke-linejoin: miter"/>
     <use xlink:href="#me42b347d26" x="634.43935" y="133.192371" style="fill: #d62728; stroke: #d62728; stroke-linejoin: miter"/>
     <use xlink:href="#me42b347d26" x="647.013143" y="129.12912" style="fill: #d62728; stroke: #d62728; stroke-linejoin: miter"/>
     <use xlink:href="#me42b347d26" x="666.444368" y="124.034665" style="fill: #d62728; stroke: #d62728; stroke-linejoin: miter"/>
     <use xlink:href="#me42b347d26" x="690.973865" y="119.282249" style="fill: #d62728; stroke: #d62728; stroke-linejoin: miter"/>
     <use xlink:href="#me42b347d26" x="735.402213" y="101.137228" style="fill: #d62728; stroke: #d62728; stroke-linejoin: miter"/>
    </g>
   </g>
   <g id="patch_3">
    <path d="M 47.609375 390.536395 
L 47.609375 51.916562 
" style="fill: none; stroke: #000000; stroke-width: 0.8; stroke-linejoin: miter; stroke-linecap: square"/>
   </g>
   <g id="patch_4">
    <path d="M 711.128659 390.536395 
L 711.128659 51.916562 
" style="fill: none; stroke: #000000; stroke-width: 0.8; stroke-linejoin: miter; stroke-linecap: square"/>
   </g>
   <g id="patch_5">
    <path d="M 47.609375 390.536395 
L 711.128659 390.536395 
" style="fill: none; stroke: #000000; stroke-width: 0.8; stroke-linejoin: miter; stroke-linecap: square"/>
   </g>
   <g id="patch_6">
    <path d="M 47.609375 51.916562 
L 711.128659 51.916562 
" style="fill: none; stroke: #000000; stroke-width: 0.8; stroke-linejoin: miter; stroke-linecap: square"/>
   </g>
   <g id="text_15">
    <!-- Latency at percentile p (log axes) — lower is better -->
    <g style="fill: #595959" transform="translate(212.570892 42.440572) scale(0.13 -0.13)">
     <defs>
      <path id="DejaVuSans-78" d="M 3513 3500 
L 2247 1797 
L 3578 0 
L 2900 0 
L 1881 1375 
L 863 0 
L 184 0 
L 1544 1831 
L 300 3500 
L 978 3500 
L 1906 2253 
L 2834 3500 
L 3513 3500 
z
" transform="scale(0.015625)"/>
      <path id="DejaVuSans-2014" d="M 313 1978 
L 6088 1978 
L 6088 1528 
L 313 1528 
L 313 1978 
z
" transform="scale(0.015625)"/>
      <path id="DejaVuSans-77" d="M 269 3500 
L 844 3500 
L 1563 769 
L 2278 3500 
L 2956 3500 
L 3675 769 
L 4391 3500 
L 4966 3500 
L 4050 0 
L 3372 0 
L 2619 2869 
L 1863 0 
L 1184 0 
L 269 3500 
z
" transform="scale(0.015625)"/>
      <path id="DejaVuSans-62" d="M 3116 1747 
Q 3116 2381 2855 2742 
Q 2594 3103 2138 3103 
Q 1681 3103 1420 2742 
Q 1159 2381 1159 1747 
Q 1159 1113 1420 752 
Q 1681 391 2138 391 
Q 2594 391 2855 752 
Q 3116 1113 3116 1747 
z
M 1159 2969 
Q 1341 3281 1617 3432 
Q 1894 3584 2278 3584 
Q 2916 3584 3314 3078 
Q 3713 2572 3713 1747 
Q 3713 922 3314 415 
Q 2916 -91 2278 -91 
Q 1894 -91 1617 61 
Q 1341 213 1159 525 
L 1159 0 
L 581 0 
L 581 4863 
L 1159 4863 
L 1159 2969 
z
" transform="scale(0.015625)"/>
     </defs>
     <use xlink:href="#DejaVuSans-4c"/>
     <use xlink:href="#DejaVuSans-61" transform="translate(55.712891 0)"/>
     <use xlink:href="#DejaVuSans-74" transform="translate(116.992188 0)"/>
     <use xlink:href="#DejaVuSans-65" transform="translate(156.201172 0)"/>
     <use xlink:href="#DejaVuSans-6e" transform="translate(217.724609 0)"/>
     <use xlink:href="#DejaVuSans-63" transform="translate(281.103516 0)"/>
     <use xlink:href="#DejaVuSans-79" transform="translate(336.083984 0)"/>
     <use xlink:href="#DejaVuSans-20" transform="translate(395.263672 0)"/>
     <use xlink:href="#DejaVuSans-61" transform="translate(427.050781 0)"/>
     <use xlink:href="#DejaVuSans-74" transform="translate(488.330078 0)"/>
     <use xlink:href="#DejaVuSans-20" transform="translate(527.539062 0)"/>
     <use xlink:href="#DejaVuSans-70" transform="translate(559.326172 0)"/>
     <use xlink:href="#DejaVuSans-65" transform="translate(622.802734 0)"/>
     <use xlink:href="#DejaVuSans-72" transform="translate(684.326172 0)"/>
     <use xlink:href="#DejaVuSans-63" transform="translate(723.189453 0)"/>
     <use xlink:href="#DejaVuSans-65" transform="translate(778.169922 0)"/>
     <use xlink:href="#DejaVuSans-6e" transform="translate(839.693359 0)"/>
     <use xlink:href="#DejaVuSans-74" transform="translate(903.072266 0)"/>
     <use xlink:href="#DejaVuSans-69" transform="translate(942.28125 0)"/>
     <use xlink:href="#DejaVuSans-6c" transform="translate(970.064453 0)"/>
     <use xlink:href="#DejaVuSans-65" transform="translate(997.847656 0)"/>
     <use xlink:href="#DejaVuSans-20" transform="translate(1059.371094 0)"/>
     <use xlink:href="#DejaVuSans-70" transform="translate(1091.158203 0)"/>
     <use xlink:href="#DejaVuSans-20" transform="translate(1154.634766 0)"/>
     <use xlink:href="#DejaVuSans-28" transform="translate(1186.421875 0)"/>
     <use xlink:href="#DejaVuSans-6c" transform="translate(1225.435547 0)"/>
     <use xlink:href="#DejaVuSans-6f" transform="translate(1253.21875 0)"/>
     <use xlink:href="#DejaVuSans-67" transform="translate(1314.400391 0)"/>
     <use xlink:href="#DejaVuSans-20" transform="translate(1377.876953 0)"/>
     <use xlink:href="#DejaVuSans-61" transform="translate(1409.664062 0)"/>
     <use xlink:href="#DejaVuSans-78" transform="translate(1470.943359 0)"/>
     <use xlink:href="#DejaVuSans-65" transform="translate(1526.998047 0)"/>
     <use xlink:href="#DejaVuSans-73" transform="translate(1588.521484 0)"/>
     <use xlink:href="#DejaVuSans-29" transform="translate(1640.621094 0)"/>
     <use xlink:href="#DejaVuSans-20" transform="translate(1679.634766 0)"/>
     <use xlink:href="#DejaVuSans-2014" transform="translate(1711.421875 0)"/>
     <use xlink:href="#DejaVuSans-20" transform="translate(1811.421875 0)"/>
     <use xlink:href="#DejaVuSans-6c" transform="translate(1843.208984 0)"/>
     <use xlink:href="#DejaVuSans-6f" transform="translate(1870.992188 0)"/>
     <use xlink:href="#DejaVuSans-77" transform="translate(1932.173828 0)"/>
     <use xlink:href="#DejaVuSans-65" transform="translate(2013.960938 0)"/>
     <use xlink:href="#DejaVuSans-72" transform="translate(2075.484375 0)"/>
     <use xlink:href="#DejaVuSans-20" transform="translate(2116.597656 0)"/>
     <use xlink:href="#DejaVuSans-69" transform="translate(2148.384766 0)"/>
     <use xlink:href="#DejaVuSans-73" transform="translate(2176.167969 0)"/>
     <use xlink:href="#DejaVuSans-20" transform="translate(2228.267578 0)"/>
     <use xlink:href="#DejaVuSans-62" transform="translate(2260.054688 0)"/>
     <use xlink:href="#DejaVuSans-65" transform="translate(2323.53125 0)"/>
     <use xlink:href="#DejaVuSans-74" transform="translate(2385.054688 0)"/>
     <use xlink:href="#DejaVuSans-74" transform="translate(2424.263672 0)"/>
     <use xlink:href="#DejaVuSans-65" transform="translate(2463.472656 0)"/>
     <use xlink:href="#DejaVuSans-72" transform="translate(2524.996094 0)"/>
    </g>
   </g>
   <g id="text_16">
    <!-- Tail Latency — Insert @ 1,000,000 entries -->
    <g style="fill: #2b2f36" transform="translate(149.494798 23.916562) scale(0.22 -0.22)">
     <defs>
      <path id="DejaVuSans-54" d="M -19 4666 
L 3928 4666 
L 3928 4134 
L 2272 4134 
L 2272 0 
L 1638 0 
L 1638 4134 
L -19 4134 
L -19 4666 
z
" transform="scale(0.015625)"/>
      <path id="DejaVuSans-49" d="M 628 4666 
L 1259 4666 
L 1259 0 
L 628 0 
L 628 4666 
z
" transform="scale(0.015625)"/>
      <path id="DejaVuSans-40" d="M 2381 1678 
Q 2381 1231 2603 976 
Q 2825 722 3213 722 
Q 3597 722 3817 978 
Q 4038 1234 4038 1678 
Q 4038 2116 3813 2373 
Q 3588 2631 3206 2631 
Q 2828 2631 2604 2375 
Q 2381 2119 2381 1678 
z
M 4084 744 
Q 3897 503 3655 389 
Q 3413 275 3091 275 
Q 2553 275 2217 664 
Q 1881 1053 1881 1678 
Q 1881 2303 2218 2693 
Q 2556 3084 3091 3084 
Q 3413 3084 3656 2967 
Q 3900 2850 4084 2613 
L 4084 3022 
L 4531 3022 
L 4531 722 
Q 4988 791 5245 1139 
Q 5503 1488 5503 2041 
Q 5503 2375 5404 2669 
Q 5306 2963 5106 3213 
Q 4781 3622 4314 3839 
Q 3847 4056 3297 4056 
Q 2913 4056 2559 3954 
Q 2206 3853 1906 3653 
Q 1416 3334 1139 2817 
Q 863 2300 863 1697 
Q 863 1200 1042 765 
Q 1222 331 1563 0 
Q 1891 -325 2322 -495 
Q 2753 -666 3244 -666 
Q 3647 -666 4036 -530 
Q 4425 -394 4750 -141 
L 5031 -488 
Q 4641 -791 4180 -952 
Q 3719 -1113 3244 -1113 
Q 2666 -1113 2153 -908 
Q 1641 -703 1241 -313 
Q 841 78 631 592 
Q 422 1106 422 1697 
Q 422 2266 634 2781 
Q 847 3297 1241 3688 
Q 1644 4084 2172 4295 
Q 2700 4506 3291 4506 
Q 3953 4506 4520 4234 
Q 5088 3963 5472 3463 
Q 5706 3156 5829 2797 
Q 5953 2438 5953 2053 
Q 5953 1231 5456 756 
Q 4959 281 4084 263 
L 4084 744 
z
" transform="scale(0.015625)"/>
     </defs>
     <use xlink:href="#DejaVuSans-54"/>
     <use xlink:href="#DejaVuSans-61" transform="translate(44.583984 0)"/>
     <use xlink:href="#DejaVuSans-69" transform="translate(105.863281 0)"/>
     <use xlink:href="#DejaVuSans-6c" transform="translate(133.646484 0)"/>
     <use xlink:href="#DejaVuSans-20" transform="translate(161.429688 0)"/>
     <use xlink:href="#DejaVuSans-4c" transform="translate(193.216797 0)"/>
     <use xlink:href="#DejaVuSans-61" transform="translate(248.929688 0)"/>
     <use xlink:href="#DejaVuSans-74" transform="translate(310.208984 0)"/>
     <use xlink:href="#DejaVuSans-65" transform="translate(349.417969 0)"/>
     <use xlink:href="#DejaVuSans-6e" transform="translate(410.941406 0)"/>
     <use xlink:href="#DejaVuSans-63" transform="translate(474.320312 0)"/>
     <use xlink:href="#DejaVuSans-79" transform="translate(529.300781 0)"/>
     <use xlink:href="#DejaVuSans-20" transform="translate(588.480469 0)"/>
     <use xlink:href="#DejaVuSans-2014" transform="translate(620.267578 0)"/>
     <use xlink:href="#DejaVuSans-20" transform="translate(720.267578 0)"/>
     <use xlink:href="#DejaVuSans-49" transform="translate(752.054688 0)"/>
     <use xlink:href="#DejaVuSans-6e" transform="translate(781.546875 0)"/>
     <use xlink:href="#DejaVuSans-73" transform="translate(844.925781 0)"/>
     <use xlink:href="#DejaVuSans-65" transform="translate(897.025391 0)"/>
     <use xlink:href="#DejaVuSans-72" transform="translate(958.548828 0)"/>
     <use xlink:href="#DejaVuSans-74" transform="translate(999.662109 0)"/>
     <use xlink:href="#DejaVuSans-20" transform="translate(1038.871094 0)"/>
     <use xlink:href="#DejaVuSans-40" transform="translate(1070.658203 0)"/>
     <use xlink:href="#DejaVuSans-20" transform="translate(1170.658203 0)"/>
     <use xlink:href="#DejaVuSans-31" transform="translate(1202.445312 0)"/>
     <use xlink:href="#DejaVuSans-2c" transform="translate(1266.068359 0)"/>
     <use xlink:href="#DejaVuSans-30" transform="translate(1297.855469 0)"/>
     <use xlink:href="#DejaVuSans-30" transform="translate(1361.478516 0)"/>
     <use xlink:href="#DejaVuSans-30" transform="translate(1425.101562 0)"/>
     <use xlink:href="#DejaVuSans-2c" transform="translate(1488.724609 0)"/>
     <use xlink:href="#DejaVuSans-30" transform="translate(1520.511719 0)"/>
     <use xlink:href="#DejaVuSans-30" transform="translate(1584.134766 0)"/>
     <use xlink:href="#DejaVuSans-30" transform="translate(1647.757812 0)"/>
     <use xlink:href="#DejaVuSans-20" transform="translate(1711.380859 0)"/>
     <use xlink:href="#DejaVuSans-65" transform="translate(1743.167969 0)"/>
     <use xlink:href="#DejaVuSans-6e" transform="translate(1804.691406 0)"/>
     <use xlink:href="#DejaVuSans-74" transform="translate(1868.070312 0)"/>
     <use xlink:href="#DejaVuSans-72" transform="translate(1907.279297 0)"/>
     <use xlink:href="#DejaVuSans-69" transform="translate(1948.392578 0)"/>
     <use xlink:href="#DejaVuSans-65" transform="translate(1976.175781 0)"/>
     <use xlink:href="#DejaVuSans-73" transform="translate(2037.699219 0)"/>
    </g>
   </g>
   <g id="legend_1">
    <g id="patch_7">
     <path d="M 56.009375 131.971562 
L 223.911875 131.971562 
Q 226.311875 131.971562 226.311875 129.571562 
L 226.311875 60.316562 
Q 226.311875 57.916562 223.911875 57.916562 
L 56.009375 57.916562 
Q 53.609375 57.916562 53.609375 60.316562 
L 53.609375 129.571562 
Q 53.609375 131.971562 56.009375 131.971562 
z
" style="fill: #ffffff; opacity: 0.8; stroke: #cccccc; stroke-linejoin: miter"/>
    </g>
    <g id="line2d_17">
     <path d="M 58.409375 67.634687 
L 70.409375 67.634687 
L 82.409375 67.634687 
" style="fill: none; stroke: #1f77b4; stroke-width: 2; stroke-linecap: square"/>
     <g>
      <use xlink:href="#m1eeb444208" x="70.409375" y="67.634687" style="fill: #1f77b4; stroke: #1f77b4"/>
     </g>
    </g>
    <g id="text_17">
     <!-- std::HashMap -->
     <g transform="translate(92.009375 71.834687) scale(0.12 -0.12)">
      <defs>
       <path id="DejaVuSans-64" d="M 2906 2969 
L 2906 4863 
L 3481 4863 
L 3481 0 
L 2906 0 
L 2906 525 
Q 2725 213 2448 61 
Q 2172 -91 1784 -91 
Q 1150 -91 751 415 
Q 353 922 353 1747 
Q 353 2572 751 3078 
Q 1150 3584 1784 3584 
Q 2172 3584 2448 3432 
Q 2725 3281 2906 2969 
z
M 947 1747 
Q 947 1113 1208 752 
Q 1469 391 1925 391 
Q 2381 391 2643 752 
Q 2906 1113 2906 1747 
Q 2906 2381 2643 2742 
Q 2381 3103 1925 3103 
Q 1469 3103 1208 2742 
Q 947 2381 947 1747 
z
" transform="scale(0.015625)"/>
       <path id="DejaVuSans-3a" d="M 750 794 
L 1409 794 
L 1409 0 
L 750 0 
L 750 794 
z
M 750 3309 
L 1409 3309 
L 1409 2516 
L 750 2516 
L 750 3309 
z
" transform="scale(0.015625)"/>
       <path id="DejaVuSans-48" d="M 628 4666 
L 1259 4666 
L 1259 2753 
L 3553 2753 
L 3553 4666 
L 4184 4666 
L 4184 0 
L 3553 0 
L 3553 2222 
L 1259 2222 
L 1259 0 
L 628 0 
L 628 4666 
z
" transform="scale(0.015625)"/>
       <path id="DejaVuSans-68" d="M 3513 2113 
L 3513 0 
L 2938 0 
L 2938 2094 
Q 2938 2591 2744 2837 
Q 2550 3084 2163 3084 
Q 1697 3084 1428 2787 
Q 1159 2491 1159 1978 
L 1159 0 
L 581 0 
L 581 4863 
L 1159 4863 
L 1159 2956 
Q 1366 3272 1645 3428 
Q 1925 3584 2291 3584 
Q 2894 3584 3203 3211 
Q 3513 2838 3513 2113 
z
" transform="scale(0.015625)"/>
       <path id="DejaVuSans-4d" d="M 628 4666 
L 1569 4666 
L 2759 1491 
L 3956 4666 
L 4897 4666 
L 4897 0 
L 4281 0 
L 4281 4097 
L 3078 897 
L 2444 897 
L 1241 4097 
L 1241 0 
L 628 0 
L 628 4666 
z
" transform="scale(0.015625)"/>
      </defs>
      <use xlink:href="#DejaVuSans-73"/>
      <use xlink:href="#DejaVuSans-74" transform="translate(52.099609 0)"/>
      <use xlink:href="#DejaVuSans-64" transform="translate(91.308594 0)"/>
      <use xlink:href="#DejaVuSans-3a" transform="translate(154.785156 0)"/>
      <use xlink:href="#DejaVuSans-3a" transform="translate(188.476562 0)"/>
      <use xlink:href="#DejaVuSans-48" transform="translate(222.167969 0)"/>
      <use xlink:href="#DejaVuSans-61" transform="translate(297.363281 0)"/>
      <use xlink:href="#DejaVuSans-73" transform="translate(358.642578 0)"/>
      <use xlink:href="#DejaVuSans-68" transform="translate(410.742188 0)"/>
      <use xlink:href="#DejaVuSans-4d" transform="translate(474.121094 0)"/>
      <use xlink:href="#DejaVuSans-61" transform="translate(560.400391 0)"/>
      <use xlink:href="#DejaVuSans-70" transform="translate(621.679688 0)"/>
     </g>
    </g>
    <g id="line2d_18">
     <path d="M 58.409375 85.248437 
L 70.409375 85.248437 
L 82.409375 85.248437 
" style="fill: none; stroke: #ff7f0e; stroke-width: 2; stroke-linecap: square"/>
     <g>
      <use xlink:href="#m11e7296390" x="70.409375" y="85.248437" style="fill: #ff7f0e; stroke: #ff7f0e; stroke-linejoin: miter"/>
     </g>
    </g>
    <g id="text_18">
     <!-- hashbrown::HashMap -->
     <g transform="translate(92.009375 89.448437) scale(0.12 -0.12)">
      <use xlink:href="#DejaVuSans-68"/>
      <use xlink:href="#DejaVuSans-61" transform="translate(63.378906 0)"/>
      <use xlink:href="#DejaVuSans-73" transform="translate(124.658203 0)"/>
      <use xlink:href="#DejaVuSans-68" transform="translate(176.757812 0)"/>
      <use xlink:href="#DejaVuSans-62" transform="translate(240.136719 0)"/>
      <use xlink:href="#DejaVuSans-72" transform="translate(303.613281 0)"/>
      <use xlink:href="#DejaVuSans-6f" transform="translate(342.476562 0)"/>
      <use xlink:href="#DejaVuSans-77" transform="translate(403.658203 0)"/>
      <use xlink:href="#DejaVuSans-6e" transform="translate(485.445312 0)"/>
      <use xlink:href="#DejaVuSans-3a" transform="translate(548.824219 0)"/>
      <use xlink:href="#DejaVuSans-3a" transform="translate(582.515625 0)"/>
      <use xlink:href="#DejaVuSans-48" transform="translate(616.207031 0)"/>
      <use xlink:href="#DejaVuSans-61" transform="translate(691.402344 0)"/>
      <use xlink:href="#DejaVuSans-73" transform="translate(752.681641 0)"/>
      <use xlink:href="#DejaVuSans-68" transform="translate(804.78125 0)"/>
      <use xlink:href="#DejaVuSans-4d" transform="translate(868.160156 0)"/>
      <use xlink:href="#DejaVuSans-61" transform="translate(954.439453 0)"/>
      <use xlink:href="#DejaVuSans-70" transform="translate(1015.71875 0)"/>
     </g>
    </g>
    <g id="line2d_19">
     <path d="M 58.409375 102.862187 
L 70.409375 102.862187 
L 82.409375 102.862187 
" style="fill: none; stroke: #2ca02c; stroke-width: 2; stroke-linecap: square"/>
     <g>
      <use xlink:href="#ma8cf6f4379" x="70.409375" y="102.862187" style="fill: #2ca02c; stroke: #2ca02c; stroke-linejoin: miter"/>
     </g>
    </g>
    <g id="text_19">
     <!-- ElasticHashMap -->
     <g transform="translate(92.009375 107.062187) scale(0.12 -0.12)">
      <defs>
       <path id="DejaVuSans-45" d="M 628 4666 
L 3578 4666 
L 3578 4134 
L 1259 4134 
L 1259 2753 
L 3481 2753 
L 3481 2222 
L 1259 2222 
L 1259 531 
L 3634 531 
L 3634 0 
L 628 0 
L 628 4666 
z
" transform="scale(0.015625)"/>
      </defs>
      <use xlink:href="#DejaVuSans-45"/>
      <use xlink:href="#DejaVuSans-6c" transform="translate(63.183594 0)"/>
      <use xlink:href="#DejaVuSans-61" transform="translate(90.966797 0)"/>
      <use xlink:href="#DejaVuSans-73" transform="translate(152.246094 0)"/>
      <use xlink:href="#DejaVuSans-74" transform="translate(204.345703 0)"/>
      <use xlink:href="#DejaVuSans-69" transform="translate(243.554688 0)"/>
      <use xlink:href="#DejaVuSans-63" transform="translate(271.337891 0)"/>
      <use xlink:href="#DejaVuSans-48" transform="translate(326.318359 0)"/>
      <use xlink:href="#DejaVuSans-61" transform="translate(401.513672 0)"/>
      <use xlink:href="#DejaVuSans-73" transform="translate(462.792969 0)"/>
      <use xlink:href="#DejaVuSans-68" transform="translate(514.892578 0)"/>
      <use xlink:href="#DejaVuSans-4d" transform="translate(578.271484 0)"/>
      <use xlink:href="#DejaVuSans-61" transform="translate(664.550781 0)"/>
      <use xlink:href="#DejaVuSans-70" transform="translate(725.830078 0)"/>
     </g>
    </g>
    <g id="line2d_20">
     <path d="M 58.409375 120.475937 
L 70.409375 120.475937 
L 82.409375 120.475937 
" style="fill: none; stroke: #d62728; stroke-width: 2; stroke-linecap: square"/>
     <g>
      <use xlink:href="#me42b347d26" x="70.409375" y="120.475937" style="fill: #d62728; stroke: #d62728; stroke-linejoin: miter"/>
     </g>
    </g>
    <g id="text_20">
     <!-- FunnelHashMap -->
     <g transform="translate(92.009375 124.675937) scale(0.12 -0.12)">
      <defs>
       <path id="DejaVuSans-46" d="M 628 4666 
L 3309 4666 
L 3309 4134 
L 1259 4134 
L 1259 2759 
L 3109 2759 
L 3109 2228 
L 1259 2228 
L 1259 0 
L 628 0 
L 628 4666 
z
" transform="scale(0.015625)"/>
       <path id="DejaVuSans-75" d="M 544 1381 
L 544 3500 
L 1119 3500 
L 1119 1403 
Q 1119 906 1312 657 
Q 1506 409 1894 409 
Q 2359 409 2629 706 
Q 2900 1003 2900 1516 
L 2900 3500 
L 3475 3500 
L 3475 0 
L 2900 0 
L 2900 538 
Q 2691 219 2414 64 
Q 2138 -91 1772 -91 
Q 1169 -91 856 284 
Q 544 659 544 1381 
z
M 1991 3584 
L 1991 3584 
z
" transform="scale(0.015625)"/>
      </defs>
      <use xlink:href="#DejaVuSans-46"/>
      <use xlink:href="#DejaVuSans-75" transform="translate(52.019531 0)"/>
      <use xlink:href="#DejaVuSans-6e" transform="translate(115.398438 0)"/>
      <use xlink:href="#DejaVuSans-6e" transform="translate(178.777344 0)"/>
      <use xlink:href="#DejaVuSans-65" transform="translate(242.15625 0)"/>
      <use xlink:href="#DejaVuSans-6c" transform="translate(303.679688 0)"/>
      <use xlink:href="#DejaVuSans-48" transform="translate(331.462891 0)"/>
      <use xlink:href="#DejaVuSans-61" transform="translate(406.658203 0)"/>
      <use xlink:href="#DejaVuSans-73" transform="translate(467.9375 0)"/>
      <use xlink:href="#DejaVuSans-68" transform="translate(520.037109 0)"/>
      <use xlink:href="#DejaVuSans-4d" transform="translate(583.416016 0)"/>
      <use xlink:href="#DejaVuSans-61" transform="translate(669.695312 0)"/>
      <use xlink:href="#DejaVuSans-70" transform="translate(730.974609 0)"/>
     </g>
    </g>
   </g>
  </g>
 </g>
 <defs>
  <clipPath id="pb41ce5723c">
   <rect x="47.609375" y="51.916562" width="663.519284" height="338.619833"/>
  </clipPath>
 </defs>
</svg>
