<?xml version="1.0" encoding="utf-8" standalone="no"?>
<!DOCTYPE svg PUBLIC "-//W3C//DTD SVG 1.1//EN"
  "http://www.w3.org/Graphics/SVG/1.1/DTD/svg11.dtd">
<svg xmlns:xlink="http://www.w3.org/1999/xlink" width="728.348278pt" height="440.39952pt" viewBox="0 0 728.348278 440.39952" xmlns="http://www.w3.org/2000/svg" version="1.1">
 <metadata>
  <rdf:RDF xmlns:dc="http://purl.org/dc/elements/1.1/" xmlns:cc="http://creativecommons.org/ns#" xmlns:rdf="http://www.w3.org/1999/02/22-rdf-syntax-ns#">
   <cc:Work>
    <dc:type rdf:resource="http://purl.org/dc/dcmitype/StillImage"/>
    <dc:date>2026-04-18T16:23:39.211137</dc:date>
    <dc:format>image/svg+xml</dc:format>
    <dc:creator>
     <cc:Agent>
      <dc:title>Matplotlib v3.10.8, https://matplotlib.org/</dc:title>
     </cc:Agent>
    </dc:creator>
   </cc:Work>
  </rdf:RDF>
 </metadata>
 <defs>
  <style type="text/css">*{stroke-linejoin: round; stroke-linecap: butt}</style>
 </defs>
 <g id="figure_1">
  <g id="patch_1">
   <path d="M 0 440.39952 
L 728.348278 440.39952 
L 728.348278 0 
L 0 0 
z
" style="fill: #ffffff"/>
  </g>
  <g id="axes_1">
   <g id="patch_2">
    <path d="M 47.609375 390.536395 
L 711.128659 390.536395 
L 711.128659 51.916562 
L 47.609375 51.916562 
z
" style="fill: #ffffff"/>
   </g>
   <g id="matplotlib.axis_1">
    <g id="xtick_1">
     <g id="line2d_1"/>
     <g id="text_1">
      <!-- p0 -->
      <g transform="translate(39.982813 403.15452) scale(0.12 -0.12)">
       <defs>
        <path id="DejaVuSans-70" d="M 1159 525 
L 1159 -1331 
L 581 -1331 
L 581 3500 
L 1159 3500 
L 1159 2969 
Q 1341 3281 1617 3432 
Q 1894 3584 2278 3584 
Q 2916 3584 3314 3078 
Q 3713 2572 3713 1747 
Q 3713 922 3314 415 
Q 2916 -91 2278 -91 
Q 1894 -91 1617 61 
Q 1341 213 1159 525 
z
M 3116 1747 
Q 3116 2381 2855 2742 
Q 2594 3103 2138 3103 
Q 1681 3103 1420 2742 
Q 1159 2381 1159 1747 
Q 1159 1113 1420 752 
Q 1681 391 2138 391 
Q 2594 391 2855 752 
Q 3116 1113 3116 1747 
z
" transform="scale(0.015625)"/>
        <path id="DejaVuSans-30" d="M 2034 4250 
Q 1547 4250 1301 3770 
Q 1056 3291 1056 2328 
Q 1056 1369 1301 889 
Q 1547 409 2034 409 
Q 2525 409 2770 889 
Q 3016 1369 3016 2328 
Q 3016 3291 2770 3770 
Q 2525 4250 2034 4250 
z
M 2034 4750 
Q 2819 4750 3233 4129 
Q 3647 3509 3647 2328 
Q 3647 1150 3233 529 
Q 2819 -91 2034 -91 
Q 1250 -91 836 529 
Q 422 1150 422 2328 
Q 422 3509 836 4129 
Q 1250 4750 2034 4750 
z
" transform="scale(0.015625)"/>
       </defs>
       <use xlink:href="#DejaVuSans-70"/>
       <use xlink:href="#DejaVuSans-30" transform="translate(63.476562 0)"/>
      </g>
     </g>
    </g>
    <g id="xtick_2">
     <g id="line2d_2"/>
     <g id="text_2">
      <!-- p50 -->
      <g transform="translate(75.223079 403.15452) scale(0.12 -0.12)">
       <defs>
        <path id="DejaVuSans-35" d="M 691 4666 
L 3169 4666 
L 3169 4134 
L 1269 4134 
L 1269 2991 
Q 1406 3038 1543 3061 
Q 1681 3084 1819 3084 
Q 2600 3084 3056 2656 
Q 3513 2228 3513 1497 
Q 3513 744 3044 326 
Q 2575 -91 1722 -91 
Q 1428 -91 1123 -41 
Q 819 9 494 109 
L 494 744 
Q 775 591 1075 516 
Q 1375 441 1709 441 
Q 2250 441 2565 725 
Q 2881 1009 2881 1497 
Q 2881 1984 2565 2268 
Q 2250 2553 1709 2553 
Q 1456 2553 1204 2497 
Q 953 2441 691 2322 
L 691 4666 
z
" transform="scale(0.015625)"/>
       </defs>
       <use xlink:href="#DejaVuSans-70"/>
       <use xlink:href="#DejaVuSans-35" transform="translate(63.476562 0)"/>
       <use xlink:href="#DejaVuSans-30" transform="translate(127.099609 0)"/>
      </g>
     </g>
    </g>
    <g id="xtick_3">
     <g id="line2d_3"/>
     <g id="text_3">
      <!-- p90 -->
      <g transform="translate(165.912406 403.15452) scale(0.12 -0.12)">
       <defs>
        <path id="DejaVuSans-39" d="M 703 97 
L 703 672 
Q 941 559 1184 500 
Q 1428 441 1663 441 
Q 2288 441 2617 861 
Q 2947 1281 2994 2138 
Q 2813 1869 2534 1725 
Q 2256 1581 1919 1581 
Q 1219 1581 811 2004 
Q 403 2428 403 3163 
Q 403 3881 828 4315 
Q 1253 4750 1959 4750 
Q 2769 4750 3195 4129 
Q 3622 3509 3622 2328 
Q 3622 1225 3098 567 
Q 2575 -91 1691 -91 
Q 1453 -91 1209 -44 
Q 966 3 703 97 
z
M 1959 2075 
Q 2384 2075 2632 2365 
Q 2881 2656 2881 3163 
Q 2881 3666 2632 3958 
Q 2384 4250 1959 4250 
Q 1534 4250 1286 3958 
Q 1038 3666 1038 3163 
Q 1038 2656 1286 2365 
Q 1534 2075 1959 2075 
z
" transform="scale(0.015625)"/>
       </defs>
       <use xlink:href="#DejaVuSans-70"/>
       <use xlink:href="#DejaVuSans-39" transform="translate(63.476562 0)"/>
       <use xlink:href="#DejaVuSans-30" transform="translate(127.099609 0)"/>
      </g>
     </g>
    </g>
    <g id="xtick_4">
     <g id="line2d_4"/>
     <g id="text_4">
      <!-- p99 -->
      <g transform="translate(295.659499 403.15452) scale(0.12 -0.12)">
       <use xlink:href="#DejaVuSans-70"/>
       <use xlink:href="#DejaVuSans-39" transform="translate(63.476562 0)"/>
       <use xlink:href="#DejaVuSans-39" transform="translate(127.099609 0)"/>
      </g>
     </g>
    </g>
    <g id="xtick_5">
     <g id="line2d_5"/>
     <g id="text_5">
      <!-- p99.9 -->
      <g transform="translate(419.682217 403.15452) scale(0.12 -0.12)">
       <defs>
        <path id="DejaVuSans-2e" d="M 684 794 
L 1344 794 
L 1344 0 
L 684 0 
L 684 794 
z
" transform="scale(0.015625)"/>
       </defs>
       <use xlink:href="#DejaVuSans-70"/>
       <use xlink:href="#DejaVuSans-39" transform="translate(63.476562 0)"/>
       <use xlink:href="#DejaVuSans-39" transform="translate(127.099609 0)"/>
       <use xlink:href="#DejaVuSans-2e" transform="translate(190.722656 0)"/>
       <use xlink:href="#DejaVuSans-39" transform="translate(222.509766 0)"/>
      </g>
     </g>
    </g>
    <g id="xtick_6">
     <g id="line2d_6"/>
     <g id="text_6">
      <!-- p99.99 -->
      <g transform="translate(545.61181 403.15452) scale(0.12 -0.12)">
       <use xlink:href="#DejaVuSans-70"/>
       <use xlink:href="#DejaVuSans-39" transform="translate(63.476562 0)"/>
       <use xlink:href="#DejaVuSans-39" transform="translate(127.099609 0)"/>
       <use xlink:href="#DejaVuSans-2e" transform="translate(190.722656 0)"/>
       <use xlink:href="#DejaVuSans-39" transform="translate(222.509766 0)"/>
       <use xlink:href="#DejaVuSans-39" transform="translate(286.132812 0)"/>
      </g>
     </g>
    </g>
    <g id="xtick_7">
     <g id="line2d_7"/>
     <g id="text_7">
      <!-- p99.999 -->
      <g transform="translate(671.541403 403.15452) scale(0.12 -0.12)">
       <use xlink:href="#DejaVuSans-70"/>
       <use xlink:href="#DejaVuSans-39" transform="translate(63.476562 0)"/>
       <use xlink:href="#DejaVuSans-39" transform="translate(127.099609 0)"/>
       <use xlink:href="#DejaVuSans-2e" transform="translate(190.722656 0)"/>
       <use xlink:href="#DejaVuSans-39" transform="translate(222.509766 0)"/>
       <use xlink:href="#DejaVuSans-39" transform="translate(286.132812 0)"/>
       <use xlink:href="#DejaVuSans-39" transform="translate(349.755859 0)"/>
      </g>
     </g>
    </g>
    <g id="text_8">
     <!-- Percentile -->
     <g transform="translate(344.841517 430.287957) scale(0.14 -0.14)">
      <defs>
       <path id="DejaVuSans-50" d="M 1259 4147 
L 1259 2394 
L 2053 2394 
Q 2494 2394 2734 2622 
Q 2975 2850 2975 3272 
Q 2975 3691 2734 3919 
Q 2494 4147 2053 4147 
L 1259 4147 
z
M 628 4666 
L 2053 4666 
Q 2838 4666 3239 4311 
Q 3641 3956 3641 3272 
Q 3641 2581 3239 2228 
Q 2838 1875 2053 1875 
L 1259 1875 
L 1259 0 
L 628 0 
L 628 4666 
z
" transform="scale(0.015625)"/>
       <path id="DejaVuSans-65" d="M 3597 1894 
L 3597 1613 
L 953 1613 
Q 991 1019 1311 708 
Q 1631 397 2203 397 
Q 2534 397 2845 478 
Q 3156 559 3463 722 
L 3463 178 
Q 3153 47 2828 -22 
Q 2503 -91 2169 -91 
Q 1331 -91 842 396 
Q 353 884 353 1716 
Q 353 2575 817 3079 
Q 1281 3584 2069 3584 
Q 2775 3584 3186 3129 
Q 3597 2675 3597 1894 
z
M 3022 2063 
Q 3016 2534 2758 2815 
Q 2500 3097 2075 3097 
Q 1594 3097 1305 2825 
Q 1016 2553 972 2059 
L 3022 2063 
z
" transform="scale(0.015625)"/>
       <path id="DejaVuSans-72" d="M 2631 2963 
Q 2534 3019 2420 3045 
Q 2306 3072 2169 3072 
Q 1681 3072 1420 2755 
Q 1159 2438 1159 1844 
L 1159 0 
L 581 0 
L 581 3500 
L 1159 3500 
L 1159 2956 
Q 1341 3275 1631 3429 
Q 1922 3584 2338 3584 
Q 2397 3584 2469 3576 
Q 2541 3569 2628 3553 
L 2631 2963 
z
" transform="scale(0.015625)"/>
       <path id="DejaVuSans-63" d="M 3122 3366 
L 3122 2828 
Q 2878 2963 2633 3030 
Q 2388 3097 2138 3097 
Q 1578 3097 1268 2742 
Q 959 2388 959 1747 
Q 959 1106 1268 751 
Q 1578 397 2138 397 
Q 2388 397 2633 464 
Q 2878 531 3122 666 
L 3122 134 
Q 2881 22 2623 -34 
Q 2366 -91 2075 -91 
Q 1284 -91 818 406 
Q 353 903 353 1747 
Q 353 2603 823 3093 
Q 1294 3584 2113 3584 
Q 2378 3584 2631 3529 
Q 2884 3475 3122 3366 
z
" transform="scale(0.015625)"/>
       <path id="DejaVuSans-6e" d="M 3513 2113 
L 3513 0 
L 2938 0 
L 2938 2094 
Q 2938 2591 2744 2837 
Q 2550 3084 2163 3084 
Q 1697 3084 1428 2787 
Q 1159 2491 1159 1978 
L 1159 0 
L 581 0 
L 581 3500 
L 1159 3500 
L 1159 2956 
Q 1366 3272 1645 3428 
Q 1925 3584 2291 3584 
Q 2894 3584 3203 3211 
Q 3513 2838 3513 2113 
z
" transform="scale(0.015625)"/>
       <path id="DejaVuSans-74" d="M 1172 4494 
L 1172 3500 
L 2356 3500 
L 2356 3053 
L 1172 3053 
L 1172 1153 
Q 1172 725 1289 603 
Q 1406 481 1766 481 
L 2356 481 
L 2356 0 
L 1766 0 
Q 1100 0 847 248 
Q 594 497 594 1153 
L 594 3053 
L 172 3053 
L 172 3500 
L 594 3500 
L 594 4494 
L 1172 4494 
z
" transform="scale(0.015625)"/>
       <path id="DejaVuSans-69" d="M 603 3500 
L 1178 3500 
L 1178 0 
L 603 0 
L 603 3500 
z
M 603 4863 
L 1178 4863 
L 1178 4134 
L 603 4134 
L 603 4863 
z
" transform="scale(0.015625)"/>
       <path id="DejaVuSans-6c" d="M 603 4863 
L 1178 4863 
L 1178 0 
L 603 0 
L 603 4863 
z
" transform="scale(0.015625)"/>
      </defs>
      <use xlink:href="#DejaVuSans-50"/>
      <use xlink:href="#DejaVuSans-65" transform="translate(56.677734 0)"/>
      <use xlink:href="#DejaVuSans-72" transform="translate(118.201172 0)"/>
      <use xlink:href="#DejaVuSans-63" transform="translate(157.064453 0)"/>
      <use xlink:href="#DejaVuSans-65" transform="translate(212.044922 0)"/>
      <use xlink:href="#DejaVuSans-6e" transform="translate(273.568359 0)"/>
      <use xlink:href="#DejaVuSans-74" transform="translate(336.947266 0)"/>
      <use xlink:href="#DejaVuSans-69" transform="translate(376.15625 0)"/>
      <use xlink:href="#DejaVuSans-6c" transform="translate(403.939453 0)"/>
      <use xlink:href="#DejaVuSans-65" transform="translate(431.722656 0)"/>
     </g>
    </g>
   </g>
   <g id="matplotlib.axis_2">
    <g id="ytick_1">
     <g id="line2d_8"/>
     <g id="text_9">
      <!-- $\mathdefault{10^{0}}$ -->
      <g transform="translate(24.749375 379.323725) scale(0.11 -0.11)">
       <defs>
        <path id="DejaVuSans-31" d="M 794 531 
L 1825 531 
L 1825 4091 
L 703 3866 
L 703 4441 
L 1819 4666 
L 2450 4666 
L 2450 531 
L 3481 531 
L 3481 0 
L 794 0 
L 794 531 
z
" transform="scale(0.015625)"/>
       </defs>
       <use xlink:href="#DejaVuSans-31" transform="translate(0 0.765625)"/>
       <use xlink:href="#DejaVuSans-30" transform="translate(63.623047 0.765625)"/>
       <use xlink:href="#DejaVuSans-30" transform="translate(128.203125 39.046875) scale(0.7)"/>
      </g>
     </g>
    </g>
    <g id="ytick_2">
     <g id="line2d_9"/>
     <g id="text_10">
      <!-- $\mathdefault{10^{1}}$ -->
      <g transform="translate(24.749375 302.536305) scale(0.11 -0.11)">
       <use xlink:href="#DejaVuSans-31" transform="translate(0 0.684375)"/>
       <use xlink:href="#DejaVuSans-30" transform="translate(63.623047 0.684375)"/>
       <use xlink:href="#DejaVuSans-31" transform="translate(128.203125 38.965625) scale(0.7)"/>
      </g>
     </g>
    </g>
    <g id="ytick_3">
     <g id="line2d_10"/>
     <g id="text_11">
      <!-- $\mathdefault{10^{2}}$ -->
      <g transform="translate(24.749375 225.748885) scale(0.11 -0.11)">
       <defs>
        <path id="DejaVuSans-32" d="M 1228 531 
L 3431 531 
L 3431 0 
L 469 0 
L 469 531 
Q 828 903 1448 1529 
Q 2069 2156 2228 2338 
Q 2531 2678 2651 2914 
Q 2772 3150 2772 3378 
Q 2772 3750 2511 3984 
Q 2250 4219 1831 4219 
Q 1534 4219 1204 4116 
Q 875 4013 500 3803 
L 500 4441 
Q 881 4594 1212 4672 
Q 1544 4750 1819 4750 
Q 2544 4750 2975 4387 
Q 3406 4025 3406 3419 
Q 3406 3131 3298 2873 
Q 3191 2616 2906 2266 
Q 2828 2175 2409 1742 
Q 1991 1309 1228 531 
z
" transform="scale(0.015625)"/>
       </defs>
       <use xlink:href="#DejaVuSans-31" transform="translate(0 0.765625)"/>
       <use xlink:href="#DejaVuSans-30" transform="translate(63.623047 0.765625)"/>
       <use xlink:href="#DejaVuSans-32" transform="translate(128.203125 39.046875) scale(0.7)"/>
      </g>
     </g>
    </g>
    <g id="ytick_4">
     <g id="line2d_11"/>
     <g id="text_12">
      <!-- $\mathdefault{10^{3}}$ -->
      <g transform="translate(24.749375 148.961464) scale(0.11 -0.11)">
       <defs>
        <path id="DejaVuSans-33" d="M 2597 2516 
Q 3050 2419 3304 2112 
Q 3559 1806 3559 1356 
Q 3559 666 3084 287 
Q 2609 -91 1734 -91 
Q 1441 -91 1130 -33 
Q 819 25 488 141 
L 488 750 
Q 750 597 1062 519 
Q 1375 441 1716 441 
Q 2309 441 2620 675 
Q 2931 909 2931 1356 
Q 2931 1769 2642 2001 
Q 2353 2234 1838 2234 
L 1294 2234 
L 1294 2753 
L 1863 2753 
Q 2328 2753 2575 2939 
Q 2822 3125 2822 3475 
Q 2822 3834 2567 4026 
Q 2313 4219 1838 4219 
Q 1578 4219 1281 4162 
Q 984 4106 628 3988 
L 628 4550 
Q 988 4650 1302 4700 
Q 1616 4750 1894 4750 
Q 2613 4750 3031 4423 
Q 3450 4097 3450 3541 
Q 3450 3153 3228 2886 
Q 3006 2619 2597 2516 
z
" transform="scale(0.015625)"/>
       </defs>
       <use xlink:href="#DejaVuSans-31" transform="translate(0 0.765625)"/>
       <use xlink:href="#DejaVuSans-30" transform="translate(63.623047 0.765625)"/>
       <use xlink:href="#DejaVuSans-33" transform="translate(128.203125 39.046875) scale(0.7)"/>
      </g>
     </g>
    </g>
    <g id="ytick_5">
     <g id="line2d_12"/>
     <g id="text_13">
      <!-- $\mathdefault{10^{4}}$ -->
      <g transform="translate(24.749375 72.174044) scale(0.11 -0.11)">
       <defs>
        <path id="DejaVuSans-34" d="M 2419 4116 
L 825 1625 
L 2419 1625 
L 2419 4116 
z
M 2253 4666 
L 3047 4666 
L 3047 1625 
L 3713 1625 
L 3713 1100 
L 3047 1100 
L 3047 0 
L 2419 0 
L 2419 1100 
L 313 1100 
L 313 1709 
L 2253 4666 
z
" transform="scale(0.015625)"/>
       </defs>
       <use xlink:href="#DejaVuSans-31" transform="translate(0 0.684375)"/>
       <use xlink:href="#DejaVuSans-30" transform="translate(63.623047 0.684375)"/>
       <use xlink:href="#DejaVuSans-34" transform="translate(128.203125 38.965625) scale(0.7)"/>
      </g>
     </g>
    </g>
    <g id="text_14">
     <!-- Latency (ns, log scale) -->
     <g transform="translate(17.837813 300.048666) rotate(-90) scale(0.14 -0.14)">
      <defs>
       <path id="DejaVuSans-4c" d="M 628 4666 
L 1259 4666 
L 1259 531 
L 3531 531 
L 3531 0 
L 628 0 
L 628 4666 
z
" transform="scale(0.015625)"/>
       <path id="DejaVuSans-61" d="M 2194 1759 
Q 1497 1759 1228 1600 
Q 959 1441 959 1056 
Q 959 750 1161 570 
Q 1363 391 1709 391 
Q 2188 391 2477 730 
Q 2766 1069 2766 1631 
L 2766 1759 
L 2194 1759 
z
M 3341 1997 
L 3341 0 
L 2766 0 
L 2766 531 
Q 2569 213 2275 61 
Q 1981 -91 1556 -91 
Q 1019 -91 701 211 
Q 384 513 384 1019 
Q 384 1609 779 1909 
Q 1175 2209 1959 2209 
L 2766 2209 
L 2766 2266 
Q 2766 2663 2505 2880 
Q 2244 3097 1772 3097 
Q 1472 3097 1187 3025 
Q 903 2953 641 2809 
L 641 3341 
Q 956 3463 1253 3523 
Q 1550 3584 1831 3584 
Q 2591 3584 2966 3190 
Q 3341 2797 3341 1997 
z
" transform="scale(0.015625)"/>
       <path id="DejaVuSans-79" d="M 2059 -325 
Q 1816 -950 1584 -1140 
Q 1353 -1331 966 -1331 
L 506 -1331 
L 506 -850 
L 844 -850 
Q 1081 -850 1212 -737 
Q 1344 -625 1503 -206 
L 1606 56 
L 191 3500 
L 800 3500 
L 1894 763 
L 2988 3500 
L 3597 3500 
L 2059 -325 
z
" transform="scale(0.015625)"/>
       <path id="DejaVuSans-20" transform="scale(0.015625)"/>
       <path id="DejaVuSans-28" d="M 1984 4856 
Q 1566 4138 1362 3434 
Q 1159 2731 1159 2009 
Q 1159 1288 1364 580 
Q 1569 -128 1984 -844 
L 1484 -844 
Q 1016 -109 783 600 
Q 550 1309 550 2009 
Q 550 2706 781 3412 
Q 1013 4119 1484 4856 
L 1984 4856 
z
" transform="scale(0.015625)"/>
       <path id="DejaVuSans-73" d="M 2834 3397 
L 2834 2853 
Q 2591 2978 2328 3040 
Q 2066 3103 1784 3103 
Q 1356 3103 1142 2972 
Q 928 2841 928 2578 
Q 928 2378 1081 2264 
Q 1234 2150 1697 2047 
L 1894 2003 
Q 2506 1872 2764 1633 
Q 3022 1394 3022 966 
Q 3022 478 2636 193 
Q 2250 -91 1575 -91 
Q 1294 -91 989 -36 
Q 684 19 347 128 
L 347 722 
Q 666 556 975 473 
Q 1284 391 1588 391 
Q 1994 391 2212 530 
Q 2431 669 2431 922 
Q 2431 1156 2273 1281 
Q 2116 1406 1581 1522 
L 1381 1569 
Q 847 1681 609 1914 
Q 372 2147 372 2553 
Q 372 3047 722 3315 
Q 1072 3584 1716 3584 
Q 2034 3584 2315 3537 
Q 2597 3491 2834 3397 
z
" transform="scale(0.015625)"/>
       <path id="DejaVuSans-2c" d="M 750 794 
L 1409 794 
L 1409 256 
L 897 -744 
L 494 -744 
L 750 256 
L 750 794 
z
" transform="scale(0.015625)"/>
       <path id="DejaVuSans-6f" d="M 1959 3097 
Q 1497 3097 1228 2736 
Q 959 2375 959 1747 
Q 959 1119 1226 758 
Q 1494 397 1959 397 
Q 2419 397 2687 759 
Q 2956 1122 2956 1747 
Q 2956 2369 2687 2733 
Q 2419 3097 1959 3097 
z
M 1959 3584 
Q 2709 3584 3137 3096 
Q 3566 2609 3566 1747 
Q 3566 888 3137 398 
Q 2709 -91 1959 -91 
Q 1206 -91 779 398 
Q 353 888 353 1747 
Q 353 2609 779 3096 
Q 1206 3584 1959 3584 
z
" transform="scale(0.015625)"/>
       <path id="DejaVuSans-67" d="M 2906 1791 
Q 2906 2416 2648 2759 
Q 2391 3103 1925 3103 
Q 1463 3103 1205 2759 
Q 947 2416 947 1791 
Q 947 1169 1205 825 
Q 1463 481 1925 481 
Q 2391 481 2648 825 
Q 2906 1169 2906 1791 
z
M 3481 434 
Q 3481 -459 3084 -895 
Q 2688 -1331 1869 -1331 
Q 1566 -1331 1297 -1286 
Q 1028 -1241 775 -1147 
L 775 -588 
Q 1028 -725 1275 -790 
Q 1522 -856 1778 -856 
Q 2344 -856 2625 -561 
Q 2906 -266 2906 331 
L 2906 616 
Q 2728 306 2450 153 
Q 2172 0 1784 0 
Q 1141 0 747 490 
Q 353 981 353 1791 
Q 353 2603 747 3093 
Q 1141 3584 1784 3584 
Q 2172 3584 2450 3431 
Q 2728 3278 2906 2969 
L 2906 3500 
L 3481 3500 
L 3481 434 
z
" transform="scale(0.015625)"/>
       <path id="DejaVuSans-29" d="M 513 4856 
L 1013 4856 
Q 1481 4119 1714 3412 
Q 1947 2706 1947 2009 
Q 1947 1309 1714 600 
Q 1481 -109 1013 -844 
L 513 -844 
Q 928 -128 1133 580 
Q 1338 1288 1338 2009 
Q 1338 2731 1133 3434 
Q 928 4138 513 4856 
z
" transform="scale(0.015625)"/>
      </defs>
      <use xlink:href="#DejaVuSans-4c"/>
      <use xlink:href="#DejaVuSans-61" transform="translate(55.712891 0)"/>
      <use xlink:href="#DejaVuSans-74" transform="translate(116.992188 0)"/>
      <use xlink:href="#DejaVuSans-65" transform="translate(156.201172 0)"/>
      <use xlink:href="#DejaVuSans-6e" transform="translate(217.724609 0)"/>
      <use xlink:href="#DejaVuSans-63" transform="translate(281.103516 0)"/>
      <use xlink:href="#DejaVuSans-79" transform="translate(336.083984 0)"/>
      <use xlink:href="#DejaVuSans-20" transform="translate(395.263672 0)"/>
      <use xlink:href="#DejaVuSans-28" transform="translate(427.050781 0)"/>
      <use xlink:href="#DejaVuSans-6e" transform="translate(466.064453 0)"/>
      <use xlink:href="#DejaVuSans-73" transform="translate(529.443359 0)"/>
      <use xlink:href="#DejaVuSans-2c" transform="translate(581.542969 0)"/>
      <use xlink:href="#DejaVuSans-20" transform="translate(613.330078 0)"/>
      <use xlink:href="#DejaVuSans-6c" transform="translate(645.117188 0)"/>
      <use xlink:href="#DejaVuSans-6f" transform="translate(672.900391 0)"/>
      <use xlink:href="#DejaVuSans-67" transform="translate(734.082031 0)"/>
      <use xlink:href="#DejaVuSans-20" transform="translate(797.558594 0)"/>
      <use xlink:href="#DejaVuSans-73" transform="translate(829.345703 0)"/>
      <use xlink:href="#DejaVuSans-63" transform="translate(881.445312 0)"/>
      <use xlink:href="#DejaVuSans-61" transform="translate(936.425781 0)"/>
      <use xlink:href="#DejaVuSans-6c" transform="translate(997.705078 0)"/>
      <use xlink:href="#DejaVuSans-65" transform="translate(1025.488281 0)"/>
      <use xlink:href="#DejaVuSans-29" transform="translate(1087.011719 0)"/>
     </g>
    </g>
   </g>
   <g id="line2d_13">
    <path d="M 47.611798 375.144584 
L 47.631581 375.144584 
L 52.057619 301.870764 
L 52.05768 298.357164 
L 74.394751 267.800377 
L 74.395476 266.492431 
L 162.198788 251.303073 
L 162.204817 250.499459 
L 171.418947 240.315484 
L 172.571188 232.064829 
L 215.177916 225.455955 
L 247.82231 219.942672 
L 247.824278 219.626572 
L 252.039822 215.212869 
L 263.581307 211.071324 
L 291.643134 207.387765 
L 291.647417 207.170512 
L 307.431165 204.070912 
L 328.9344 201.054316 
L 347.380105 198.288101 
L 347.391623 198.1226 
L 359.959656 195.733869 
L 390.681994 193.36143 
L 390.706833 193.218611 
L 445.677684 191.146618 
L 461.29808 189.069785 
L 474.35218 187.114743 
L 515.874884 185.267996 
L 537.364354 183.518173 
L 546.838608 181.855605 
L 560.211683 180.272003 
L 574.444779 178.760204 
L 579.880166 177.313978 
L 582.061668 175.927873 
L 585.108272 174.597089 
L 588.32906 173.317379 
L 589.163867 172.084967 
L 590.871526 170.896481 
L 591.745163 169.748898 
L 592.632559 166.525624 
L 593.534153 165.516902 
L 594.450408 162.661824 
L 595.381809 127.30323 
L 596.328864 126.988806 
L 597.292108 125.162085 
L 599.26945 124.574757 
L 600.284764 123.150158 
L 601.31871 122.872398 
L 603.445319 122.596932 
L 604.539498 121.236272 
L 605.655345 120.713662 
L 606.793736 120.199116 
L 609.141928 119.692389 
L 610.353769 118.458266 
L 611.592246 117.502832 
L 616.837747 117.26819 
L 618.229138 116.803802 
L 619.655757 116.57401 
L 622.622149 115.893986 
L 624.166039 115.670359 
L 627.386827 115.44822 
L 632.59192 115.227552 
L 634.439575 114.790549 
L 636.349875 114.574176 
L 640.376477 114.145597 
L 642.503086 113.097644 
L 644.713112 112.484324 
L 647.013368 112.282365 
L 649.411536 112.081622 
L 651.916324 111.683725 
L 660.177202 111.095641 
L 663.223806 110.901896 
L 666.444594 110.70927 
L 669.860697 110.517749 
L 673.497342 108.841834 
L 677.384983 108.480575 
L 681.560853 108.123189 
L 686.071135 107.246127 
L 696.344671 106.90166 
L 702.281573 101.972784 
L 708.918464 101.825306 
L 716.44275 100.385326 
L 725.128902 100.104644 
L 729.348278 99.269671 
" clip-path="url(#pbed0b4dc07)" style="fill: none; stroke: #1f77b4; stroke-width: 2; stroke-linecap: square"/>
    <defs>
     <path id="mdffb4fe411" d="M 0 2 
C 0.530406 2 1.03916 1.789267 1.414214 1.414214 
C 1.789267 1.03916 2 0.530406 2 0 
C 2 -0.530406 1.789267 -1.03916 1.414214 -1.414214 
C 1.03916 -1.789267 0.530406 -2 0 -2 
C -0.530406 -2 -1.03916 -1.789267 -1.414214 -1.414214 
C -1.789267 -1.03916 -2 -0.530406 -2 0 
C -2 0.530406 -1.789267 1.03916 -1.414214 1.414214 
C -1.03916 1.789267 -0.530406 2 0 2 
z
" style="stroke: #1f77b4"/>
    </defs>
    <g clip-path="url(#pbed0b4dc07)">
     <use xlink:href="#mdffb4fe411" x="47.611798" y="375.144584" style="fill: #1f77b4; stroke: #1f77b4"/>
     <use xlink:href="#mdffb4fe411" x="74.394751" y="267.800377" style="fill: #1f77b4; stroke: #1f77b4"/>
     <use xlink:href="#mdffb4fe411" x="171.418947" y="240.315484" style="fill: #1f77b4; stroke: #1f77b4"/>
     <use xlink:href="#mdffb4fe411" x="247.824278" y="219.626572" style="fill: #1f77b4; stroke: #1f77b4"/>
     <use xlink:href="#mdffb4fe411" x="291.647417" y="207.170512" style="fill: #1f77b4; stroke: #1f77b4"/>
     <use xlink:href="#mdffb4fe411" x="347.391623" y="198.1226" style="fill: #1f77b4; stroke: #1f77b4"/>
     <use xlink:href="#mdffb4fe411" x="445.677684" y="191.146618" style="fill: #1f77b4; stroke: #1f77b4"/>
     <use xlink:href="#mdffb4fe411" x="537.364354" y="183.518173" style="fill: #1f77b4; stroke: #1f77b4"/>
     <use xlink:href="#mdffb4fe411" x="579.880166" y="177.313978" style="fill: #1f77b4; stroke: #1f77b4"/>
     <use xlink:href="#mdffb4fe411" x="589.163867" y="172.084967" style="fill: #1f77b4; stroke: #1f77b4"/>
     <use xlink:href="#mdffb4fe411" x="593.534153" y="165.516902" style="fill: #1f77b4; stroke: #1f77b4"/>
     <use xlink:href="#mdffb4fe411" x="597.292108" y="125.162085" style="fill: #1f77b4; stroke: #1f77b4"/>
     <use xlink:href="#mdffb4fe411" x="603.445319" y="122.596932" style="fill: #1f77b4; stroke: #1f77b4"/>
     <use xlink:href="#mdffb4fe411" x="609.141928" y="119.692389" style="fill: #1f77b4; stroke: #1f77b4"/>
     <use xlink:href="#mdffb4fe411" x="618.229138" y="116.803802" style="fill: #1f77b4; stroke: #1f77b4"/>
     <use xlink:href="#mdffb4fe411" x="627.386827" y="115.44822" style="fill: #1f77b4; stroke: #1f77b4"/>
     <use xlink:href="#mdffb4fe411" x="640.376477" y="114.145597" style="fill: #1f77b4; stroke: #1f77b4"/>
     <use xlink:href="#mdffb4fe411" x="649.411536" y="112.081622" style="fill: #1f77b4; stroke: #1f77b4"/>
     <use xlink:href="#mdffb4fe411" x="666.444594" y="110.70927" style="fill: #1f77b4; stroke: #1f77b4"/>
     <use xlink:href="#mdffb4fe411" x="681.560853" y="108.123189" style="fill: #1f77b4; stroke: #1f77b4"/>
     <use xlink:href="#mdffb4fe411" x="708.918464" y="101.825306" style="fill: #1f77b4; stroke: #1f77b4"/>
     <use xlink:href="#mdffb4fe411" x="747.976231" y="96.766194" style="fill: #1f77b4; stroke: #1f77b4"/>
     <use xlink:href="#mdffb4fe411" x="955.839026" y="80.330624" style="fill: #1f77b4; stroke: #1f77b4"/>
    </g>
   </g>
   <g id="line2d_14">
    <path d="M 47.614278 375.144584 
L 47.640206 375.144584 
L 54.583704 301.870764 
L 54.583831 298.357164 
L 90.791185 267.800377 
L 90.791913 266.492431 
L 164.602536 251.303073 
L 164.607928 250.499459 
L 169.5001 240.315484 
L 173.895191 232.064829 
L 222.907227 225.455955 
L 222.909756 225.083344 
L 235.620932 219.942672 
L 235.622517 219.626572 
L 241.04288 215.212869 
L 258.118341 211.071324 
L 288.852555 207.387765 
L 288.864784 207.170512 
L 303.491461 204.070912 
L 322.286498 201.054316 
L 340.852139 198.288101 
L 354.52896 195.733869 
L 390.089163 193.36143 
L 420.950875 191.146618 
L 431.94289 189.069785 
L 446.809407 187.114743 
L 471.363361 185.267996 
L 479.755715 183.518173 
L 484.933569 181.855605 
L 500.530087 178.760204 
L 503.392846 177.313978 
L 505.448905 175.927873 
L 508.984113 174.597089 
L 511.259038 173.317379 
L 513.850228 172.084967 
L 515.191921 170.896481 
L 517.032034 168.639495 
L 518.452658 167.565813 
L 519.420037 166.525624 
L 522.169287 164.537797 
L 525.601401 162.661824 
L 526.700917 161.761982 
L 527.539868 160.885785 
L 529.256197 160.03202 
L 530.134372 159.199569 
L 532.545369 158.387392 
L 536.038503 156.820074 
L 537.36441 156.0632 
L 538.03925 155.323123 
L 539.41367 154.599114 
L 541.180224 153.89049 
L 544.12722 153.196611 
L 546.443235 152.516876 
L 547.637947 151.850719 
L 549.687207 151.197609 
L 550.953517 150.557045 
L 551.813816 149.928553 
L 553.574848 149.311688 
L 554.023842 148.706026 
L 555.856473 148.111167 
L 556.795636 147.526734 
L 557.271153 146.952368 
L 558.234398 146.387726 
L 561.741655 145.832486 
L 562.260999 145.286339 
L 564.387608 144.220167 
L 566.036949 143.699596 
L 566.597635 142.682218 
L 567.163955 142.184936 
L 568.313964 140.736092 
L 573.800846 139.347582 
L 577.780037 138.897302 
L 579.171427 138.014581 
L 579.880222 137.154624 
L 581.325133 136.316287 
L 583.564439 135.904891 
L 584.331096 131.685841 
L 585.108328 129.931414 
L 585.896431 127.620647 
L 587.506497 126.677319 
L 588.329116 125.759942 
L 590.011284 125.162085 
L 590.871583 124.574757 
L 594.450464 123.430251 
L 595.381865 122.596932 
L 596.32892 120.973943 
L 606.793793 118.216829 
L 607.955657 117.977128 
L 610.353826 116.57401 
L 614.154037 115.893986 
L 615.479944 115.44822 
L 619.655813 114.790549 
L 627.386883 114.145597 
L 629.069051 113.722456 
L 634.439632 113.304617 
L 638.327273 112.687513 
L 640.376533 112.484324 
L 642.503142 111.683725 
L 649.411592 111.486542 
L 651.91638 110.901896 
L 660.177258 109.949701 
L 663.223862 109.023942 
L 669.860753 108.123189 
L 681.560909 105.889109 
L 686.071191 105.230761 
L 696.344728 105.068185 
L 716.442807 104.585159 
L 725.128958 100.810829 
L 729.348278 100.5208 
L 729.348278 100.5208 
" clip-path="url(#pbed0b4dc07)" style="fill: none; stroke: #ff7f0e; stroke-width: 2; stroke-linecap: square"/>
    <defs>
     <path id="m4cc4a68e8e" d="M -0 2 
L 2 -2 
L -2 -2 
z
" style="stroke: #ff7f0e; stroke-linejoin: miter"/>
    </defs>
    <g clip-path="url(#pbed0b4dc07)">
     <use xlink:href="#m4cc4a68e8e" x="47.614278" y="375.144584" style="fill: #ff7f0e; stroke: #ff7f0e; stroke-linejoin: miter"/>
     <use xlink:href="#m4cc4a68e8e" x="164.607928" y="250.499459" style="fill: #ff7f0e; stroke: #ff7f0e; stroke-linejoin: miter"/>
     <use xlink:href="#m4cc4a68e8e" x="241.04288" y="215.212869" style="fill: #ff7f0e; stroke: #ff7f0e; stroke-linejoin: miter"/>
     <use xlink:href="#m4cc4a68e8e" x="354.52896" y="195.733869" style="fill: #ff7f0e; stroke: #ff7f0e; stroke-linejoin: miter"/>
     <use xlink:href="#m4cc4a68e8e" x="484.933569" y="181.855605" style="fill: #ff7f0e; stroke: #ff7f0e; stroke-linejoin: miter"/>
     <use xlink:href="#m4cc4a68e8e" x="513.850228" y="172.084967" style="fill: #ff7f0e; stroke: #ff7f0e; stroke-linejoin: miter"/>
     <use xlink:href="#m4cc4a68e8e" x="522.169287" y="164.537797" style="fill: #ff7f0e; stroke: #ff7f0e; stroke-linejoin: miter"/>
     <use xlink:href="#m4cc4a68e8e" x="532.545369" y="158.387392" style="fill: #ff7f0e; stroke: #ff7f0e; stroke-linejoin: miter"/>
     <use xlink:href="#m4cc4a68e8e" x="544.12722" y="153.196611" style="fill: #ff7f0e; stroke: #ff7f0e; stroke-linejoin: miter"/>
     <use xlink:href="#m4cc4a68e8e" x="554.023842" y="148.706026" style="fill: #ff7f0e; stroke: #ff7f0e; stroke-linejoin: miter"/>
     <use xlink:href="#m4cc4a68e8e" x="563.314272" y="144.748992" style="fill: #ff7f0e; stroke: #ff7f0e; stroke-linejoin: miter"/>
     <use xlink:href="#m4cc4a68e8e" x="571.911895" y="139.804025" style="fill: #ff7f0e; stroke: #ff7f0e; stroke-linejoin: miter"/>
     <use xlink:href="#m4cc4a68e8e" x="583.564439" y="135.904891" style="fill: #ff7f0e; stroke: #ff7f0e; stroke-linejoin: miter"/>
     <use xlink:href="#m4cc4a68e8e" x="590.871583" y="124.574757" style="fill: #ff7f0e; stroke: #ff7f0e; stroke-linejoin: miter"/>
     <use xlink:href="#m4cc4a68e8e" x="598.272162" y="120.455397" style="fill: #ff7f0e; stroke: #ff7f0e; stroke-linejoin: miter"/>
     <use xlink:href="#m4cc4a68e8e" x="607.955657" y="117.977128" style="fill: #ff7f0e; stroke: #ff7f0e; stroke-linejoin: miter"/>
     <use xlink:href="#m4cc4a68e8e" x="619.655813" y="114.790549" style="fill: #ff7f0e; stroke: #ff7f0e; stroke-linejoin: miter"/>
     <use xlink:href="#m4cc4a68e8e" x="640.376533" y="112.484324" style="fill: #ff7f0e; stroke: #ff7f0e; stroke-linejoin: miter"/>
     <use xlink:href="#m4cc4a68e8e" x="669.860753" y="108.123189" style="fill: #ff7f0e; stroke: #ff7f0e; stroke-linejoin: miter"/>
     <use xlink:href="#m4cc4a68e8e" x="716.442807" y="104.585159" style="fill: #ff7f0e; stroke: #ff7f0e; stroke-linejoin: miter"/>
     <use xlink:href="#m4cc4a68e8e" x="955.839026" y="88.816537" style="fill: #ff7f0e; stroke: #ff7f0e; stroke-linejoin: miter"/>
    </g>
   </g>
   <g id="line2d_15">
    <path d="M 47.609431 375.144584 
L 47.61146 375.144584 
L 47.636372 301.870764 
L 49.302476 266.492431 
L 58.382702 251.303073 
L 58.382838 250.499459 
L 77.224627 240.315484 
L 77.225485 239.735498 
L 92.897581 232.064829 
L 92.898462 231.611103 
L 100.872256 225.455955 
L 100.872546 225.083344 
L 106.469973 219.942672 
L 106.470293 219.626572 
L 112.174454 215.212869 
L 118.891304 211.071324 
L 118.891704 210.82879 
L 134.016502 207.387765 
L 134.017808 207.170512 
L 158.853325 204.070912 
L 158.857789 203.874166 
L 187.228546 201.054316 
L 187.231903 200.87454 
L 207.245446 198.288101 
L 207.247362 198.1226 
L 229.423477 193.36143 
L 229.424896 193.218611 
L 240.726227 191.146618 
L 257.88025 189.069785 
L 284.222321 187.114743 
L 284.22983 186.996276 
L 317.095945 185.267996 
L 347.322611 183.411798 
L 367.217265 181.855605 
L 406.884211 177.313978 
L 440.697948 174.597089 
L 453.665258 173.317379 
L 462.885522 172.084967 
L 476.247417 168.639495 
L 479.155619 167.565813 
L 483.75551 165.516902 
L 485.732851 164.537797 
L 487.228314 163.586621 
L 488.341406 162.661824 
L 489.90872 161.761982 
L 491.076605 160.885785 
L 492.420076 160.03202 
L 495.366057 158.387392 
L 496.329302 157.594526 
L 498.474597 156.820074 
L 501.409176 155.323123 
L 502.482512 154.599114 
L 506.215562 152.516876 
L 506.797479 151.850719 
L 508.179122 151.197609 
L 509.187171 150.557045 
L 513.410003 148.706026 
L 514.517081 148.111167 
L 515.191921 147.526734 
L 516.334931 146.952368 
L 517.737869 146.387726 
L 518.213386 145.832486 
L 519.664499 145.286339 
L 520.404315 144.748992 
L 521.913738 144.220167 
L 522.683888 143.699596 
L 523.991336 143.187028 
L 525.601401 142.682218 
L 526.700917 141.69496 
L 527.822317 141.21208 
L 528.106188 140.736092 
L 529.547404 140.266802 
L 530.430165 139.804025 
L 531.932879 139.347582 
L 532.854128 138.897302 
L 533.164589 138.453021 
L 533.790689 138.014581 
L 534.74308 137.154624 
L 536.697557 135.904891 
L 537.029997 135.498508 
L 538.379725 134.700305 
L 539.41367 134.308255 
L 539.762578 133.92076 
L 541.180224 132.784582 
L 541.540279 130.972956 
L 541.90265 130.274993 
L 542.634458 129.591338 
L 543.003958 127.941114 
L 543.750306 127.30323 
L 544.12722 125.759942 
L 544.888697 124.574757 
L 545.273329 124.284927 
L 546.443235 123.997594 
L 547.637947 122.323724 
L 548.04188 122.052735 
L 548.858538 120.973943 
L 549.271349 120.713662 
L 549.687207 120.199116 
L 550.106156 119.441884 
L 550.528244 118.946449 
L 552.248941 117.977128 
L 552.687453 116.803802 
L 553.129404 116.57401 
L 556.324098 115.670359 
L 556.795636 114.574176 
L 558.234398 113.933355 
L 559.710861 113.512882 
L 560.211739 113.304617 
L 560.71711 112.891948 
L 562.260999 112.282365 
L 564.932042 111.88208 
L 571.296059 110.70927 
L 577.780037 109.949701 
L 579.880222 109.576308 
L 580.598046 109.391167 
L 582.808072 109.207049 
L 583.564439 109.023942 
L 587.506497 108.480575 
L 588.329116 108.301403 
L 593.534209 107.594188 
L 594.450464 107.246127 
L 597.292165 106.90166 
L 600.284821 106.730752 
L 601.318766 106.391542 
L 603.445375 106.223222 
L 605.655401 105.55831 
L 611.592303 105.230761 
L 612.858613 104.266985 
L 618.229194 103.639602 
L 624.166095 103.330281 
L 625.75348 102.120917 
L 627.386883 101.825306 
L 640.376533 100.668391 
L 644.713168 98.735612 
L 647.013424 98.203358 
L 649.411592 97.924016 
L 654.537711 97.147685 
L 669.860753 96.389017 
L 673.497399 96.139915 
L 677.38504 94.564587 
L 681.560909 94.3287 
L 686.071191 92.499368 
L 690.974147 92.3883 
L 696.344728 92.057296 
L 702.281629 91.404985 
L 708.91852 88.916307 
L 716.442807 87.354724 
L 725.128958 84.963466 
L 729.348278 84.854551 
L 729.348278 84.854551 
" clip-path="url(#pbed0b4dc07)" style="fill: none; stroke: #2ca02c; stroke-width: 2; stroke-linecap: square"/>
    <defs>
     <path id="m0be288269a" d="M -2 2 
L 2 2 
L 2 -2 
L -2 -2 
z
" style="stroke: #2ca02c; stroke-linejoin: miter"/>
    </defs>
    <g clip-path="url(#pbed0b4dc07)">
     <use xlink:href="#m0be288269a" x="47.609431" y="375.144584" style="fill: #2ca02c; stroke: #2ca02c; stroke-linejoin: miter"/>
     <use xlink:href="#m0be288269a" x="92.898462" y="231.611103" style="fill: #2ca02c; stroke: #2ca02c; stroke-linejoin: miter"/>
     <use xlink:href="#m0be288269a" x="158.853325" y="204.070912" style="fill: #2ca02c; stroke: #2ca02c; stroke-linejoin: miter"/>
     <use xlink:href="#m0be288269a" x="257.88025" y="189.069785" style="fill: #2ca02c; stroke: #2ca02c; stroke-linejoin: miter"/>
     <use xlink:href="#m0be288269a" x="423.917268" y="175.927873" style="fill: #2ca02c; stroke: #2ca02c; stroke-linejoin: miter"/>
     <use xlink:href="#m0be288269a" x="485.732851" y="164.537797" style="fill: #2ca02c; stroke: #2ca02c; stroke-linejoin: miter"/>
     <use xlink:href="#m0be288269a" x="500.009143" y="156.0632" style="fill: #2ca02c; stroke: #2ca02c; stroke-linejoin: miter"/>
     <use xlink:href="#m0be288269a" x="511.895751" y="149.311688" style="fill: #2ca02c; stroke: #2ca02c; stroke-linejoin: miter"/>
     <use xlink:href="#m0be288269a" x="522.683888" y="143.699596" style="fill: #2ca02c; stroke: #2ca02c; stroke-linejoin: miter"/>
     <use xlink:href="#m0be288269a" x="532.854128" y="138.897302" style="fill: #2ca02c; stroke: #2ca02c; stroke-linejoin: miter"/>
     <use xlink:href="#m0be288269a" x="539.41367" y="134.308255" style="fill: #2ca02c; stroke: #2ca02c; stroke-linejoin: miter"/>
     <use xlink:href="#m0be288269a" x="544.12722" y="125.759942" style="fill: #2ca02c; stroke: #2ca02c; stroke-linejoin: miter"/>
     <use xlink:href="#m0be288269a" x="549.271349" y="120.713662" style="fill: #2ca02c; stroke: #2ca02c; stroke-linejoin: miter"/>
     <use xlink:href="#m0be288269a" x="554.476442" y="116.119124" style="fill: #2ca02c; stroke: #2ca02c; stroke-linejoin: miter"/>
     <use xlink:href="#m0be288269a" x="560.71711" y="112.891948" style="fill: #2ca02c; stroke: #2ca02c; stroke-linejoin: miter"/>
     <use xlink:href="#m0be288269a" x="570.68688" y="110.901896" style="fill: #2ca02c; stroke: #2ca02c; stroke-linejoin: miter"/>
     <use xlink:href="#m0be288269a" x="583.564439" y="109.023942" style="fill: #2ca02c; stroke: #2ca02c; stroke-linejoin: miter"/>
     <use xlink:href="#m0be288269a" x="600.284821" y="106.730752" style="fill: #2ca02c; stroke: #2ca02c; stroke-linejoin: miter"/>
     <use xlink:href="#m0be288269a" x="621.119491" y="103.484583" style="fill: #2ca02c; stroke: #2ca02c; stroke-linejoin: miter"/>
     <use xlink:href="#m0be288269a" x="644.713168" y="98.735612" style="fill: #2ca02c; stroke: #2ca02c; stroke-linejoin: miter"/>
     <use xlink:href="#m0be288269a" x="681.560909" y="94.3287" style="fill: #2ca02c; stroke: #2ca02c; stroke-linejoin: miter"/>
     <use xlink:href="#m0be288269a" x="764.186725" y="83.403025" style="fill: #2ca02c; stroke: #2ca02c; stroke-linejoin: miter"/>
    </g>
   </g>
   <g id="line2d_16">
    <path d="M 47.610727 375.144584 
L 47.624591 375.144584 
L 48.581788 301.870764 
L 65.519752 267.800377 
L 65.520216 266.492431 
L 106.819221 251.303073 
L 106.821477 250.499459 
L 127.06393 240.315484 
L 127.065546 239.735498 
L 135.122008 232.064829 
L 135.122274 231.611103 
L 138.676941 225.455955 
L 148.780153 219.942672 
L 148.780493 219.626572 
L 171.541186 215.212869 
L 171.541694 214.938395 
L 191.795363 211.071324 
L 191.79682 210.82879 
L 223.945968 207.387765 
L 223.951121 207.170512 
L 266.882728 204.070912 
L 266.888248 203.874166 
L 293.41364 201.054316 
L 308.72094 198.288101 
L 308.726739 198.1226 
L 321.611665 195.733869 
L 346.704605 193.36143 
L 374.795214 191.146618 
L 399.392872 189.069785 
L 430.716596 187.114743 
L 456.467523 185.267996 
L 471.990454 183.518173 
L 480.606563 181.855605 
L 497.972061 178.760204 
L 504.69237 177.313978 
L 508.580011 175.927873 
L 513.629517 173.317379 
L 516.334762 172.084967 
L 517.501438 170.896481 
L 518.452489 169.748898 
L 521.659174 167.565813 
L 522.942793 166.525624 
L 524.790449 165.516902 
L 527.258658 164.537797 
L 528.106019 163.586621 
L 530.429996 161.761982 
L 533.164419 160.885785 
L 535.063985 160.03202 
L 537.029828 158.387392 
L 538.722101 157.594526 
L 539.762409 156.0632 
L 540.113491 155.323123 
L 541.54011 153.89049 
L 543.003789 153.196611 
L 544.127051 151.850719 
L 546.443066 151.197609 
L 548.041711 150.557045 
L 548.858369 149.928553 
L 550.953348 149.311688 
L 552.248772 148.111167 
L 554.023673 146.952368 
L 555.856304 146.387726 
L 557.750548 145.286339 
L 563.848216 144.220167 
L 564.387439 143.699596 
L 565.481618 143.187028 
L 567.735857 141.21208 
L 568.313795 140.266802 
L 568.897721 139.804025 
L 570.084048 138.014581 
L 572.534367 136.316287 
L 573.163965 135.498508 
L 573.800677 133.159023 
L 575.096101 130.274993 
L 575.755155 128.264691 
L 576.422008 127.620647 
L 577.096848 127.30323 
L 579.171258 125.759942 
L 580.597877 124.867128 
L 581.324964 124.574757 
L 582.807903 123.430251 
L 585.108159 122.596932 
L 586.695545 122.323724 
L 587.506328 121.783931 
L 588.328947 121.517276 
L 590.011115 121.236272 
L 591.74505 120.455397 
L 596.328751 119.692389 
L 597.291996 118.946449 
L 599.269337 118.458266 
L 601.318597 118.216829 
L 607.955488 116.803802 
L 612.858444 115.893986 
L 614.153868 115.008335 
L 616.837634 114.790549 
L 618.229025 114.359198 
L 624.165926 113.512882 
L 630.802817 112.687513 
L 636.349762 112.282365 
L 638.327104 112.081622 
L 642.502973 111.88208 
L 644.712999 110.901896 
L 647.013255 110.70927 
L 651.916211 109.391167 
L 654.537542 109.207049 
L 657.286792 108.123189 
L 660.177089 107.594188 
L 663.223693 107.246127 
L 666.444481 105.068185 
L 669.860584 104.906398 
L 673.49723 104.266985 
L 681.56074 104.109029 
L 686.071022 103.795344 
L 690.973978 101.825306 
L 696.344559 101.532293 
L 702.28146 100.24469 
L 708.918351 100.104644 
L 716.442638 99.413103 
L 725.128789 98.071611 
L 729.348278 97.639714 
L 729.348278 97.639714 
" clip-path="url(#pbed0b4dc07)" style="fill: none; stroke: #d62728; stroke-width: 2; stroke-linecap: square"/>
    <defs>
     <path id="m00a517723c" d="M -0 2.828427 
L 2.828427 0 
L 0 -2.828427 
L -2.828427 -0 
z
" style="stroke: #d62728; stroke-linejoin: miter"/>
    </defs>
    <g clip-path="url(#pbed0b4dc07)">
     <use xlink:href="#m00a517723c" x="47.610727" y="375.144584" style="fill: #d62728; stroke: #d62728; stroke-linejoin: miter"/>
     <use xlink:href="#m00a517723c" x="127.06393" y="240.315484" style="fill: #d62728; stroke: #d62728; stroke-linejoin: miter"/>
     <use xlink:href="#m00a517723c" x="171.541186" y="215.212869" style="fill: #d62728; stroke: #d62728; stroke-linejoin: miter"/>
     <use xlink:href="#m00a517723c" x="266.888248" y="203.874166" style="fill: #d62728; stroke: #d62728; stroke-linejoin: miter"/>
     <use xlink:href="#m00a517723c" x="399.392872" y="189.069785" style="fill: #d62728; stroke: #d62728; stroke-linejoin: miter"/>
     <use xlink:href="#m00a517723c" x="504.69237" y="177.313978" style="fill: #d62728; stroke: #d62728; stroke-linejoin: miter"/>
     <use xlink:href="#m00a517723c" x="520.15646" y="168.639495" style="fill: #d62728; stroke: #d62728; stroke-linejoin: miter"/>
     <use xlink:href="#m00a517723c" x="530.429996" y="161.761982" style="fill: #d62728; stroke: #d62728; stroke-linejoin: miter"/>
     <use xlink:href="#m00a517723c" x="540.113491" y="155.323123" style="fill: #d62728; stroke: #d62728; stroke-linejoin: miter"/>
     <use xlink:href="#m00a517723c" x="548.858369" y="149.928553" style="fill: #d62728; stroke: #d62728; stroke-linejoin: miter"/>
     <use xlink:href="#m00a517723c" x="560.716941" y="144.748992" style="fill: #d62728; stroke: #d62728; stroke-linejoin: miter"/>
     <use xlink:href="#m00a517723c" x="568.897721" y="139.804025" style="fill: #d62728; stroke: #d62728; stroke-linejoin: miter"/>
     <use xlink:href="#m00a517723c" x="574.444667" y="131.685841" style="fill: #d62728; stroke: #d62728; stroke-linejoin: miter"/>
     <use xlink:href="#m00a517723c" x="581.324964" y="124.574757" style="fill: #d62728; stroke: #d62728; stroke-linejoin: miter"/>
     <use xlink:href="#m00a517723c" x="587.506328" y="121.783931" style="fill: #d62728; stroke: #d62728; stroke-linejoin: miter"/>
     <use xlink:href="#m00a517723c" x="599.269337" y="118.458266" style="fill: #d62728; stroke: #d62728; stroke-linejoin: miter"/>
     <use xlink:href="#m00a517723c" x="609.141815" y="116.57401" style="fill: #d62728; stroke: #d62728; stroke-linejoin: miter"/>
     <use xlink:href="#m00a517723c" x="619.655644" y="114.145597" style="fill: #d62728; stroke: #d62728; stroke-linejoin: miter"/>
     <use xlink:href="#m00a517723c" x="636.349762" y="112.282365" style="fill: #d62728; stroke: #d62728; stroke-linejoin: miter"/>
     <use xlink:href="#m00a517723c" x="657.286792" y="108.123189" style="fill: #d62728; stroke: #d62728; stroke-linejoin: miter"/>
     <use xlink:href="#m00a517723c" x="686.071022" y="103.795344" style="fill: #d62728; stroke: #d62728; stroke-linejoin: miter"/>
     <use xlink:href="#m00a517723c" x="735.402325" y="97.020036" style="fill: #d62728; stroke: #d62728; stroke-linejoin: miter"/>
    </g>
   </g>
   <g id="patch_3">
    <path d="M 47.609375 390.536395 
L 47.609375 51.916562 
" style="fill: none; stroke: #000000; stroke-width: 0.8; stroke-linejoin: miter; stroke-linecap: square"/>
   </g>
   <g id="patch_4">
    <path d="M 711.128659 390.536395 
L 711.128659 51.916562 
" style="fill: none; stroke: #000000; stroke-width: 0.8; stroke-linejoin: miter; stroke-linecap: square"/>
   </g>
   <g id="patch_5">
    <path d="M 47.609375 390.536395 
L 711.128659 390.536395 
" style="fill: none; stroke: #000000; stroke-width: 0.8; stroke-linejoin: miter; stroke-linecap: square"/>
   </g>
   <g id="patch_6">
    <path d="M 47.609375 51.916562 
L 711.128659 51.916562 
" style="fill: none; stroke: #000000; stroke-width: 0.8; stroke-linejoin: miter; stroke-linecap: square"/>
   </g>
   <g id="text_15">
    <!-- Latency at percentile p (log axes) — lower is better -->
    <g style="fill: #595959" transform="translate(212.570892 42.440572) scale(0.13 -0.13)">
     <defs>
      <path id="DejaVuSans-78" d="M 3513 3500 
L 2247 1797 
L 3578 0 
L 2900 0 
L 1881 1375 
L 863 0 
L 184 0 
L 1544 1831 
L 300 3500 
L 978 3500 
L 1906 2253 
L 2834 3500 
L 3513 3500 
z
" transform="scale(0.015625)"/>
      <path id="DejaVuSans-2014" d="M 313 1978 
L 6088 1978 
L 6088 1528 
L 313 1528 
L 313 1978 
z
" transform="scale(0.015625)"/>
      <path id="DejaVuSans-77" d="M 269 3500 
L 844 3500 
L 1563 769 
L 2278 3500 
L 2956 3500 
L 3675 769 
L 4391 3500 
L 4966 3500 
L 4050 0 
L 3372 0 
L 2619 2869 
L 1863 0 
L 1184 0 
L 269 3500 
z
" transform="scale(0.015625)"/>
      <path id="DejaVuSans-62" d="M 3116 1747 
Q 3116 2381 2855 2742 
Q 2594 3103 2138 3103 
Q 1681 3103 1420 2742 
Q 1159 2381 1159 1747 
Q 1159 1113 1420 752 
Q 1681 391 2138 391 
Q 2594 391 2855 752 
Q 3116 1113 3116 1747 
z
M 1159 2969 
Q 1341 3281 1617 3432 
Q 1894 3584 2278 3584 
Q 2916 3584 3314 3078 
Q 3713 2572 3713 1747 
Q 3713 922 3314 415 
Q 2916 -91 2278 -91 
Q 1894 -91 1617 61 
Q 1341 213 1159 525 
L 1159 0 
L 581 0 
L 581 4863 
L 1159 4863 
L 1159 2969 
z
" transform="scale(0.015625)"/>
     </defs>
     <use xlink:href="#DejaVuSans-4c"/>
     <use xlink:href="#DejaVuSans-61" transform="translate(55.712891 0)"/>
     <use xlink:href="#DejaVuSans-74" transform="translate(116.992188 0)"/>
     <use xlink:href="#DejaVuSans-65" transform="translate(156.201172 0)"/>
     <use xlink:href="#DejaVuSans-6e" transform="translate(217.724609 0)"/>
     <use xlink:href="#DejaVuSans-63" transform="translate(281.103516 0)"/>
     <use xlink:href="#DejaVuSans-79" transform="translate(336.083984 0)"/>
     <use xlink:href="#DejaVuSans-20" transform="translate(395.263672 0)"/>
     <use xlink:href="#DejaVuSans-61" transform="translate(427.050781 0)"/>
     <use xlink:href="#DejaVuSans-74" transform="translate(488.330078 0)"/>
     <use xlink:href="#DejaVuSans-20" transform="translate(527.539062 0)"/>
     <use xlink:href="#DejaVuSans-70" transform="translate(559.326172 0)"/>
     <use xlink:href="#DejaVuSans-65" transform="translate(622.802734 0)"/>
     <use xlink:href="#DejaVuSans-72" transform="translate(684.326172 0)"/>
     <use xlink:href="#DejaVuSans-63" transform="translate(723.189453 0)"/>
     <use xlink:href="#DejaVuSans-65" transform="translate(778.169922 0)"/>
     <use xlink:href="#DejaVuSans-6e" transform="translate(839.693359 0)"/>
     <use xlink:href="#DejaVuSans-74" transform="translate(903.072266 0)"/>
     <use xlink:href="#DejaVuSans-69" transform="translate(942.28125 0)"/>
     <use xlink:href="#DejaVuSans-6c" transform="translate(970.064453 0)"/>
     <use xlink:href="#DejaVuSans-65" transform="translate(997.847656 0)"/>
     <use xlink:href="#DejaVuSans-20" transform="translate(1059.371094 0)"/>
     <use xlink:href="#DejaVuSans-70" transform="translate(1091.158203 0)"/>
     <use xlink:href="#DejaVuSans-20" transform="translate(1154.634766 0)"/>
     <use xlink:href="#DejaVuSans-28" transform="translate(1186.421875 0)"/>
     <use xlink:href="#DejaVuSans-6c" transform="translate(1225.435547 0)"/>
     <use xlink:href="#DejaVuSans-6f" transform="translate(1253.21875 0)"/>
     <use xlink:href="#DejaVuSans-67" transform="translate(1314.400391 0)"/>
     <use xlink:href="#DejaVuSans-20" transform="translate(1377.876953 0)"/>
     <use xlink:href="#DejaVuSans-61" transform="translate(1409.664062 0)"/>
     <use xlink:href="#DejaVuSans-78" transform="translate(1470.943359 0)"/>
     <use xlink:href="#DejaVuSans-65" transform="translate(1526.998047 0)"/>
     <use xlink:href="#DejaVuSans-73" transform="translate(1588.521484 0)"/>
     <use xlink:href="#DejaVuSans-29" transform="translate(1640.621094 0)"/>
     <use xlink:href="#DejaVuSans-20" transform="translate(1679.634766 0)"/>
     <use xlink:href="#DejaVuSans-2014" transform="translate(1711.421875 0)"/>
     <use xlink:href="#DejaVuSans-20" transform="translate(1811.421875 0)"/>
     <use xlink:href="#DejaVuSans-6c" transform="translate(1843.208984 0)"/>
     <use xlink:href="#DejaVuSans-6f" transform="translate(1870.992188 0)"/>
     <use xlink:href="#DejaVuSans-77" transform="translate(1932.173828 0)"/>
     <use xlink:href="#DejaVuSans-65" transform="translate(2013.960938 0)"/>
     <use xlink:href="#DejaVuSans-72" transform="translate(2075.484375 0)"/>
     <use xlink:href="#DejaVuSans-20" transform="translate(2116.597656 0)"/>
     <use xlink:href="#DejaVuSans-69" transform="translate(2148.384766 0)"/>
     <use xlink:href="#DejaVuSans-73" transform="translate(2176.167969 0)"/>
     <use xlink:href="#DejaVuSans-20" transform="translate(2228.267578 0)"/>
     <use xlink:href="#DejaVuSans-62" transform="translate(2260.054688 0)"/>
     <use xlink:href="#DejaVuSans-65" transform="translate(2323.53125 0)"/>
     <use xlink:href="#DejaVuSans-74" transform="translate(2385.054688 0)"/>
     <use xlink:href="#DejaVuSans-74" transform="translate(2424.263672 0)"/>
     <use xlink:href="#DejaVuSans-65" transform="translate(2463.472656 0)"/>
     <use xlink:href="#DejaVuSans-72" transform="translate(2524.996094 0)"/>
    </g>
   </g>
   <g id="text_16">
    <!-- Tail Latency — Get Miss @ 1,000,000 entries -->
    <g style="fill: #2b2f36" transform="translate(133.936673 23.916562) scale(0.22 -0.22)">
     <defs>
      <path id="DejaVuSans-54" d="M -19 4666 
L 3928 4666 
L 3928 4134 
L 2272 4134 
L 2272 0 
L 1638 0 
L 1638 4134 
L -19 4134 
L -19 4666 
z
" transform="scale(0.015625)"/>
      <path id="DejaVuSans-47" d="M 3809 666 
L 3809 1919 
L 2778 1919 
L 2778 2438 
L 4434 2438 
L 4434 434 
Q 4069 175 3628 42 
Q 3188 -91 2688 -91 
Q 1594 -91 976 548 
Q 359 1188 359 2328 
Q 359 3472 976 4111 
Q 1594 4750 2688 4750 
Q 3144 4750 3555 4637 
Q 3966 4525 4313 4306 
L 4313 3634 
Q 3963 3931 3569 4081 
Q 3175 4231 2741 4231 
Q 1884 4231 1454 3753 
Q 1025 3275 1025 2328 
Q 1025 1384 1454 906 
Q 1884 428 2741 428 
Q 3075 428 3337 486 
Q 3600 544 3809 666 
z
" transform="scale(0.015625)"/>
      <path id="DejaVuSans-4d" d="M 628 4666 
L 1569 4666 
L 2759 1491 
L 3956 4666 
L 4897 4666 
L 4897 0 
L 4281 0 
L 4281 4097 
L 3078 897 
L 2444 897 
L 1241 4097 
L 1241 0 
L 628 0 
L 628 4666 
z
" transform="scale(0.015625)"/>
      <path id="DejaVuSans-40" d="M 2381 1678 
Q 2381 1231 2603 976 
Q 2825 722 3213 722 
Q 3597 722 3817 978 
Q 4038 1234 4038 1678 
Q 4038 2116 3813 2373 
Q 3588 2631 3206 2631 
Q 2828 2631 2604 2375 
Q 2381 2119 2381 1678 
z
M 4084 744 
Q 3897 503 3655 389 
Q 3413 275 3091 275 
Q 2553 275 2217 664 
Q 1881 1053 1881 1678 
Q 1881 2303 2218 2693 
Q 2556 3084 3091 3084 
Q 3413 3084 3656 2967 
Q 3900 2850 4084 2613 
L 4084 3022 
L 4531 3022 
L 4531 722 
Q 4988 791 5245 1139 
Q 5503 1488 5503 2041 
Q 5503 2375 5404 2669 
Q 5306 2963 5106 3213 
Q 4781 3622 4314 3839 
Q 3847 4056 3297 4056 
Q 2913 4056 2559 3954 
Q 2206 3853 1906 3653 
Q 1416 3334 1139 2817 
Q 863 2300 863 1697 
Q 863 1200 1042 765 
Q 1222 331 1563 0 
Q 1891 -325 2322 -495 
Q 2753 -666 3244 -666 
Q 3647 -666 4036 -530 
Q 4425 -394 4750 -141 
L 5031 -488 
Q 4641 -791 4180 -952 
Q 3719 -1113 3244 -1113 
Q 2666 -1113 2153 -908 
Q 1641 -703 1241 -313 
Q 841 78 631 592 
Q 422 1106 422 1697 
Q 422 2266 634 2781 
Q 847 3297 1241 3688 
Q 1644 4084 2172 4295 
Q 2700 4506 3291 4506 
Q 3953 4506 4520 4234 
Q 5088 3963 5472 3463 
Q 5706 3156 5829 2797 
Q 5953 2438 5953 2053 
Q 5953 1231 5456 756 
Q 4959 281 4084 263 
L 4084 744 
z
" transform="scale(0.015625)"/>
     </defs>
     <use xlink:href="#DejaVuSans-54"/>
     <use xlink:href="#DejaVuSans-61" transform="translate(44.583984 0)"/>
     <use xlink:href="#DejaVuSans-69" transform="translate(105.863281 0)"/>
     <use xlink:href="#DejaVuSans-6c" transform="translate(133.646484 0)"/>
     <use xlink:href="#DejaVuSans-20" transform="translate(161.429688 0)"/>
     <use xlink:href="#DejaVuSans-4c" transform="translate(193.216797 0)"/>
     <use xlink:href="#DejaVuSans-61" transform="translate(248.929688 0)"/>
     <use xlink:href="#DejaVuSans-74" transform="translate(310.208984 0)"/>
     <use xlink:href="#DejaVuSans-65" transform="translate(349.417969 0)"/>
     <use xlink:href="#DejaVuSans-6e" transform="translate(410.941406 0)"/>
     <use xlink:href="#DejaVuSans-63" transform="translate(474.320312 0)"/>
     <use xlink:href="#DejaVuSans-79" transform="translate(529.300781 0)"/>
     <use xlink:href="#DejaVuSans-20" transform="translate(588.480469 0)"/>
     <use xlink:href="#DejaVuSans-2014" transform="translate(620.267578 0)"/>
     <use xlink:href="#DejaVuSans-20" transform="translate(720.267578 0)"/>
     <use xlink:href="#DejaVuSans-47" transform="translate(752.054688 0)"/>
     <use xlink:href="#DejaVuSans-65" transform="translate(829.544922 0)"/>
     <use xlink:href="#DejaVuSans-74" transform="translate(891.068359 0)"/>
     <use xlink:href="#DejaVuSans-20" transform="translate(930.277344 0)"/>
     <use xlink:href="#DejaVuSans-4d" transform="translate(962.064453 0)"/>
     <use xlink:href="#DejaVuSans-69" transform="translate(1048.34375 0)"/>
     <use xlink:href="#DejaVuSans-73" transform="translate(1076.126953 0)"/>
     <use xlink:href="#DejaVuSans-73" transform="translate(1128.226562 0)"/>
     <use xlink:href="#DejaVuSans-20" transform="translate(1180.326172 0)"/>
     <use xlink:href="#DejaVuSans-40" transform="translate(1212.113281 0)"/>
     <use xlink:href="#DejaVuSans-20" transform="translate(1312.113281 0)"/>
     <use xlink:href="#DejaVuSans-31" transform="translate(1343.900391 0)"/>
     <use xlink:href="#DejaVuSans-2c" transform="translate(1407.523438 0)"/>
     <use xlink:href="#DejaVuSans-30" transform="translate(1439.310547 0)"/>
     <use xlink:href="#DejaVuSans-30" transform="translate(1502.933594 0)"/>
     <use xlink:href="#DejaVuSans-30" transform="translate(1566.556641 0)"/>
     <use xlink:href="#DejaVuSans-2c" transform="translate(1630.179688 0)"/>
     <use xlink:href="#DejaVuSans-30" transform="translate(1661.966797 0)"/>
     <use xlink:href="#DejaVuSans-30" transform="translate(1725.589844 0)"/>
     <use xlink:href="#DejaVuSans-30" transform="translate(1789.212891 0)"/>
     <use xlink:href="#DejaVuSans-20" transform="translate(1852.835938 0)"/>
     <use xlink:href="#DejaVuSans-65" transform="translate(1884.623047 0)"/>
     <use xlink:href="#DejaVuSans-6e" transform="translate(1946.146484 0)"/>
     <use xlink:href="#DejaVuSans-74" transform="translate(2009.525391 0)"/>
     <use xlink:href="#DejaVuSans-72" transform="translate(2048.734375 0)"/>
     <use xlink:href="#DejaVuSans-69" transform="translate(2089.847656 0)"/>
     <use xlink:href="#DejaVuSans-65" transform="translate(2117.630859 0)"/>
     <use xlink:href="#DejaVuSans-73" transform="translate(2179.154297 0)"/>
    </g>
   </g>
   <g id="legend_1">
    <g id="patch_7">
     <path d="M 56.009375 131.971562 
L 223.911875 131.971562 
Q 226.311875 131.971562 226.311875 129.571562 
L 226.311875 60.316562 
Q 226.311875 57.916562 223.911875 57.916562 
L 56.009375 57.916562 
Q 53.609375 57.916562 53.609375 60.316562 
L 53.609375 129.571562 
Q 53.609375 131.971562 56.009375 131.971562 
z
" style="fill: #ffffff; opacity: 0.8; stroke: #cccccc; stroke-linejoin: miter"/>
    </g>
    <g id="line2d_17">
     <path d="M 58.409375 67.634687 
L 70.409375 67.634687 
L 82.409375 67.634687 
" style="fill: none; stroke: #1f77b4; stroke-width: 2; stroke-linecap: square"/>
     <g>
      <use xlink:href="#mdffb4fe411" x="70.409375" y="67.634687" style="fill: #1f77b4; stroke: #1f77b4"/>
     </g>
    </g>
    <g id="text_17">
     <!-- std::HashMap -->
     <g transform="translate(92.009375 71.834687) scale(0.12 -0.12)">
      <defs>
       <path id="DejaVuSans-64" d="M 2906 2969 
L 2906 4863 
L 3481 4863 
L 3481 0 
L 2906 0 
L 2906 525 
Q 2725 213 2448 61 
Q 2172 -91 1784 -91 
Q 1150 -91 751 415 
Q 353 922 353 1747 
Q 353 2572 751 3078 
Q 1150 3584 1784 3584 
Q 2172 3584 2448 3432 
Q 2725 3281 2906 2969 
z
M 947 1747 
Q 947 1113 1208 752 
Q 1469 391 1925 391 
Q 2381 391 2643 752 
Q 2906 1113 2906 1747 
Q 2906 2381 2643 2742 
Q 2381 3103 1925 3103 
Q 1469 3103 1208 2742 
Q 947 2381 947 1747 
z
" transform="scale(0.015625)"/>
       <path id="DejaVuSans-3a" d="M 750 794 
L 1409 794 
L 1409 0 
L 750 0 
L 750 794 
z
M 750 3309 
L 1409 3309 
L 1409 2516 
L 750 2516 
L 750 3309 
z
" transform="scale(0.015625)"/>
       <path id="DejaVuSans-48" d="M 628 4666 
L 1259 4666 
L 1259 2753 
L 3553 2753 
L 3553 4666 
L 4184 4666 
L 4184 0 
L 3553 0 
L 3553 2222 
L 1259 2222 
L 1259 0 
L 628 0 
L 628 4666 
z
" transform="scale(0.015625)"/>
       <path id="DejaVuSans-68" d="M 3513 2113 
L 3513 0 
L 2938 0 
L 2938 2094 
Q 2938 2591 2744 2837 
Q 2550 3084 2163 3084 
Q 1697 3084 1428 2787 
Q 1159 2491 1159 1978 
L 1159 0 
L 581 0 
L 581 4863 
L 1159 4863 
L 1159 2956 
Q 1366 3272 1645 3428 
Q 1925 3584 2291 3584 
Q 2894 3584 3203 3211 
Q 3513 2838 3513 2113 
z
" transform="scale(0.015625)"/>
      </defs>
      <use xlink:href="#DejaVuSans-73"/>
      <use xlink:href="#DejaVuSans-74" transform="translate(52.099609 0)"/>
      <use xlink:href="#DejaVuSans-64" transform="translate(91.308594 0)"/>
      <use xlink:href="#DejaVuSans-3a" transform="translate(154.785156 0)"/>
      <use xlink:href="#DejaVuSans-3a" transform="translate(188.476562 0)"/>
      <use xlink:href="#DejaVuSans-48" transform="translate(222.167969 0)"/>
      <use xlink:href="#DejaVuSans-61" transform="translate(297.363281 0)"/>
      <use xlink:href="#DejaVuSans-73" transform="translate(358.642578 0)"/>
      <use xlink:href="#DejaVuSans-68" transform="translate(410.742188 0)"/>
      <use xlink:href="#DejaVuSans-4d" transform="translate(474.121094 0)"/>
      <use xlink:href="#DejaVuSans-61" transform="translate(560.400391 0)"/>
      <use xlink:href="#DejaVuSans-70" transform="translate(621.679688 0)"/>
     </g>
    </g>
    <g id="line2d_18">
     <path d="M 58.409375 85.248437 
L 70.409375 85.248437 
L 82.409375 85.248437 
" style="fill: none; stroke: #ff7f0e; stroke-width: 2; stroke-linecap: square"/>
     <g>
      <use xlink:href="#m4cc4a68e8e" x="70.409375" y="85.248437" style="fill: #ff7f0e; stroke: #ff7f0e; stroke-linejoin: miter"/>
     </g>
    </g>
    <g id="text_18">
     <!-- hashbrown::HashMap -->
     <g transform="translate(92.009375 89.448437) scale(0.12 -0.12)">
      <use xlink:href="#DejaVuSans-68"/>
      <use xlink:href="#DejaVuSans-61" transform="translate(63.378906 0)"/>
      <use xlink:href="#DejaVuSans-73" transform="translate(124.658203 0)"/>
      <use xlink:href="#DejaVuSans-68" transform="translate(176.757812 0)"/>
      <use xlink:href="#DejaVuSans-62" transform="translate(240.136719 0)"/>
      <use xlink:href="#DejaVuSans-72" transform="translate(303.613281 0)"/>
      <use xlink:href="#DejaVuSans-6f" transform="translate(342.476562 0)"/>
      <use xlink:href="#DejaVuSans-77" transform="translate(403.658203 0)"/>
      <use xlink:href="#DejaVuSans-6e" transform="translate(485.445312 0)"/>
      <use xlink:href="#DejaVuSans-3a" transform="translate(548.824219 0)"/>
      <use xlink:href="#DejaVuSans-3a" transform="translate(582.515625 0)"/>
      <use xlink:href="#DejaVuSans-48" transform="translate(616.207031 0)"/>
      <use xlink:href="#DejaVuSans-61" transform="translate(691.402344 0)"/>
      <use xlink:href="#DejaVuSans-73" transform="translate(752.681641 0)"/>
      <use xlink:href="#DejaVuSans-68" transform="translate(804.78125 0)"/>
      <use xlink:href="#DejaVuSans-4d" transform="translate(868.160156 0)"/>
      <use xlink:href="#DejaVuSans-61" transform="translate(954.439453 0)"/>
      <use xlink:href="#DejaVuSans-70" transform="translate(1015.71875 0)"/>
     </g>
    </g>
    <g id="line2d_19">
     <path d="M 58.409375 102.862187 
L 70.409375 102.862187 
L 82.409375 102.862187 
" style="fill: none; stroke: #2ca02c; stroke-width: 2; stroke-linecap: square"/>
     <g>
      <use xlink:href="#m0be288269a" x="70.409375" y="102.862187" style="fill: #2ca02c; stroke: #2ca02c; stroke-linejoin: miter"/>
     </g>
    </g>
    <g id="text_19">
     <!-- ElasticHashMap -->
     <g transform="translate(92.009375 107.062187) scale(0.12 -0.12)">
      <defs>
       <path id="DejaVuSans-45" d="M 628 4666 
L 3578 4666 
L 3578 4134 
L 1259 4134 
L 1259 2753 
L 3481 2753 
L 3481 2222 
L 1259 2222 
L 1259 531 
L 3634 531 
L 3634 0 
L 628 0 
L 628 4666 
z
" transform="scale(0.015625)"/>
      </defs>
      <use xlink:href="#DejaVuSans-45"/>
      <use xlink:href="#DejaVuSans-6c" transform="translate(63.183594 0)"/>
      <use xlink:href="#DejaVuSans-61" transform="translate(90.966797 0)"/>
      <use xlink:href="#DejaVuSans-73" transform="translate(152.246094 0)"/>
      <use xlink:href="#DejaVuSans-74" transform="translate(204.345703 0)"/>
      <use xlink:href="#DejaVuSans-69" transform="translate(243.554688 0)"/>
      <use xlink:href="#DejaVuSans-63" transform="translate(271.337891 0)"/>
      <use xlink:href="#DejaVuSans-48" transform="translate(326.318359 0)"/>
      <use xlink:href="#DejaVuSans-61" transform="translate(401.513672 0)"/>
      <use xlink:href="#DejaVuSans-73" transform="translate(462.792969 0)"/>
      <use xlink:href="#DejaVuSans-68" transform="translate(514.892578 0)"/>
      <use xlink:href="#DejaVuSans-4d" transform="translate(578.271484 0)"/>
      <use xlink:href="#DejaVuSans-61" transform="translate(664.550781 0)"/>
      <use xlink:href="#DejaVuSans-70" transform="translate(725.830078 0)"/>
     </g>
    </g>
    <g id="line2d_20">
     <path d="M 58.409375 120.475937 
L 70.409375 120.475937 
L 82.409375 120.475937 
" style="fill: none; stroke: #d62728; stroke-width: 2; stroke-linecap: square"/>
     <g>
      <use xlink:href="#m00a517723c" x="70.409375" y="120.475937" style="fill: #d62728; stroke: #d62728; stroke-linejoin: miter"/>
     </g>
    </g>
    <g id="text_20">
     <!-- FunnelHashMap -->
     <g transform="translate(92.009375 124.675937) scale(0.12 -0.12)">
      <defs>
       <path id="DejaVuSans-46" d="M 628 4666 
L 3309 4666 
L 3309 4134 
L 1259 4134 
L 1259 2759 
L 3109 2759 
L 3109 2228 
L 1259 2228 
L 1259 0 
L 628 0 
L 628 4666 
z
" transform="scale(0.015625)"/>
       <path id="DejaVuSans-75" d="M 544 1381 
L 544 3500 
L 1119 3500 
L 1119 1403 
Q 1119 906 1312 657 
Q 1506 409 1894 409 
Q 2359 409 2629 706 
Q 2900 1003 2900 1516 
L 2900 3500 
L 3475 3500 
L 3475 0 
L 2900 0 
L 2900 538 
Q 2691 219 2414 64 
Q 2138 -91 1772 -91 
Q 1169 -91 856 284 
Q 544 659 544 1381 
z
M 1991 3584 
L 1991 3584 
z
" transform="scale(0.015625)"/>
      </defs>
      <use xlink:href="#DejaVuSans-46"/>
      <use xlink:href="#DejaVuSans-75" transform="translate(52.019531 0)"/>
      <use xlink:href="#DejaVuSans-6e" transform="translate(115.398438 0)"/>
      <use xlink:href="#DejaVuSans-6e" transform="translate(178.777344 0)"/>
      <use xlink:href="#DejaVuSans-65" transform="translate(242.15625 0)"/>
      <use xlink:href="#DejaVuSans-6c" transform="translate(303.679688 0)"/>
      <use xlink:href="#DejaVuSans-48" transform="translate(331.462891 0)"/>
      <use xlink:href="#DejaVuSans-61" transform="translate(406.658203 0)"/>
      <use xlink:href="#DejaVuSans-73" transform="translate(467.9375 0)"/>
      <use xlink:href="#DejaVuSans-68" transform="translate(520.037109 0)"/>
      <use xlink:href="#DejaVuSans-4d" transform="translate(583.416016 0)"/>
      <use xlink:href="#DejaVuSans-61" transform="translate(669.695312 0)"/>
      <use xlink:href="#DejaVuSans-70" transform="translate(730.974609 0)"/>
     </g>
    </g>
   </g>
  </g>
 </g>
 <defs>
  <clipPath id="pbed0b4dc07">
   <rect x="47.609375" y="51.916562" width="663.519284" height="338.619833"/>
  </clipPath>
 </defs>
</svg>
