<?xml version="1.0" encoding="utf-8" standalone="no"?>
<!DOCTYPE svg PUBLIC "-//W3C//DTD SVG 1.1//EN"
  "http://www.w3.org/Graphics/SVG/1.1/DTD/svg11.dtd">
<svg xmlns:xlink="http://www.w3.org/1999/xlink" width="728.348278pt" height="440.39952pt" viewBox="0 0 728.348278 440.39952" xmlns="http://www.w3.org/2000/svg" version="1.1">
 <metadata>
  <rdf:RDF xmlns:dc="http://purl.org/dc/elements/1.1/" xmlns:cc="http://creativecommons.org/ns#" xmlns:rdf="http://www.w3.org/1999/02/22-rdf-syntax-ns#">
   <cc:Work>
    <dc:type rdf:resource="http://purl.org/dc/dcmitype/StillImage"/>
    <dc:date>2026-05-11T20:57:29.927964</dc:date>
    <dc:format>image/svg+xml</dc:format>
    <dc:creator>
     <cc:Agent>
      <dc:title>Matplotlib v3.10.8, https://matplotlib.org/</dc:title>
     </cc:Agent>
    </dc:creator>
   </cc:Work>
  </rdf:RDF>
 </metadata>
 <defs>
  <style type="text/css">*{stroke-linejoin: round; stroke-linecap: butt}</style>
 </defs>
 <g id="figure_1">
  <g id="patch_1">
   <path d="M 0 440.39952 
L 728.348278 440.39952 
L 728.348278 0 
L 0 0 
z
" style="fill: #ffffff"/>
  </g>
  <g id="axes_1">
   <g id="patch_2">
    <path d="M 47.609375 390.536395 
L 711.128659 390.536395 
L 711.128659 51.916562 
L 47.609375 51.916562 
z
" style="fill: #ffffff"/>
   </g>
   <g id="matplotlib.axis_1">
    <g id="xtick_1">
     <g id="line2d_1"/>
     <g id="text_1">
      <!-- p0 -->
      <g transform="translate(39.982813 403.15452) scale(0.12 -0.12)">
       <defs>
        <path id="DejaVuSans-70" d="M 1159 525 
L 1159 -1331 
L 581 -1331 
L 581 3500 
L 1159 3500 
L 1159 2969 
Q 1341 3281 1617 3432 
Q 1894 3584 2278 3584 
Q 2916 3584 3314 3078 
Q 3713 2572 3713 1747 
Q 3713 922 3314 415 
Q 2916 -91 2278 -91 
Q 1894 -91 1617 61 
Q 1341 213 1159 525 
z
M 3116 1747 
Q 3116 2381 2855 2742 
Q 2594 3103 2138 3103 
Q 1681 3103 1420 2742 
Q 1159 2381 1159 1747 
Q 1159 1113 1420 752 
Q 1681 391 2138 391 
Q 2594 391 2855 752 
Q 3116 1113 3116 1747 
z
" transform="scale(0.015625)"/>
        <path id="DejaVuSans-30" d="M 2034 4250 
Q 1547 4250 1301 3770 
Q 1056 3291 1056 2328 
Q 1056 1369 1301 889 
Q 1547 409 2034 409 
Q 2525 409 2770 889 
Q 3016 1369 3016 2328 
Q 3016 3291 2770 3770 
Q 2525 4250 2034 4250 
z
M 2034 4750 
Q 2819 4750 3233 4129 
Q 3647 3509 3647 2328 
Q 3647 1150 3233 529 
Q 2819 -91 2034 -91 
Q 1250 -91 836 529 
Q 422 1150 422 2328 
Q 422 3509 836 4129 
Q 1250 4750 2034 4750 
z
" transform="scale(0.015625)"/>
       </defs>
       <use xlink:href="#DejaVuSans-70"/>
       <use xlink:href="#DejaVuSans-30" transform="translate(63.476562 0)"/>
      </g>
     </g>
    </g>
    <g id="xtick_2">
     <g id="line2d_2"/>
     <g id="text_2">
      <!-- p50 -->
      <g transform="translate(75.223079 403.15452) scale(0.12 -0.12)">
       <defs>
        <path id="DejaVuSans-35" d="M 691 4666 
L 3169 4666 
L 3169 4134 
L 1269 4134 
L 1269 2991 
Q 1406 3038 1543 3061 
Q 1681 3084 1819 3084 
Q 2600 3084 3056 2656 
Q 3513 2228 3513 1497 
Q 3513 744 3044 326 
Q 2575 -91 1722 -91 
Q 1428 -91 1123 -41 
Q 819 9 494 109 
L 494 744 
Q 775 591 1075 516 
Q 1375 441 1709 441 
Q 2250 441 2565 725 
Q 2881 1009 2881 1497 
Q 2881 1984 2565 2268 
Q 2250 2553 1709 2553 
Q 1456 2553 1204 2497 
Q 953 2441 691 2322 
L 691 4666 
z
" transform="scale(0.015625)"/>
       </defs>
       <use xlink:href="#DejaVuSans-70"/>
       <use xlink:href="#DejaVuSans-35" transform="translate(63.476562 0)"/>
       <use xlink:href="#DejaVuSans-30" transform="translate(127.099609 0)"/>
      </g>
     </g>
    </g>
    <g id="xtick_3">
     <g id="line2d_3"/>
     <g id="text_3">
      <!-- p90 -->
      <g transform="translate(165.912406 403.15452) scale(0.12 -0.12)">
       <defs>
        <path id="DejaVuSans-39" d="M 703 97 
L 703 672 
Q 941 559 1184 500 
Q 1428 441 1663 441 
Q 2288 441 2617 861 
Q 2947 1281 2994 2138 
Q 2813 1869 2534 1725 
Q 2256 1581 1919 1581 
Q 1219 1581 811 2004 
Q 403 2428 403 3163 
Q 403 3881 828 4315 
Q 1253 4750 1959 4750 
Q 2769 4750 3195 4129 
Q 3622 3509 3622 2328 
Q 3622 1225 3098 567 
Q 2575 -91 1691 -91 
Q 1453 -91 1209 -44 
Q 966 3 703 97 
z
M 1959 2075 
Q 2384 2075 2632 2365 
Q 2881 2656 2881 3163 
Q 2881 3666 2632 3958 
Q 2384 4250 1959 4250 
Q 1534 4250 1286 3958 
Q 1038 3666 1038 3163 
Q 1038 2656 1286 2365 
Q 1534 2075 1959 2075 
z
" transform="scale(0.015625)"/>
       </defs>
       <use xlink:href="#DejaVuSans-70"/>
       <use xlink:href="#DejaVuSans-39" transform="translate(63.476562 0)"/>
       <use xlink:href="#DejaVuSans-30" transform="translate(127.099609 0)"/>
      </g>
     </g>
    </g>
    <g id="xtick_4">
     <g id="line2d_4"/>
     <g id="text_4">
      <!-- p99 -->
      <g transform="translate(295.659499 403.15452) scale(0.12 -0.12)">
       <use xlink:href="#DejaVuSans-70"/>
       <use xlink:href="#DejaVuSans-39" transform="translate(63.476562 0)"/>
       <use xlink:href="#DejaVuSans-39" transform="translate(127.099609 0)"/>
      </g>
     </g>
    </g>
    <g id="xtick_5">
     <g id="line2d_5"/>
     <g id="text_5">
      <!-- p99.9 -->
      <g transform="translate(419.682217 403.15452) scale(0.12 -0.12)">
       <defs>
        <path id="DejaVuSans-2e" d="M 684 794 
L 1344 794 
L 1344 0 
L 684 0 
L 684 794 
z
" transform="scale(0.015625)"/>
       </defs>
       <use xlink:href="#DejaVuSans-70"/>
       <use xlink:href="#DejaVuSans-39" transform="translate(63.476562 0)"/>
       <use xlink:href="#DejaVuSans-39" transform="translate(127.099609 0)"/>
       <use xlink:href="#DejaVuSans-2e" transform="translate(190.722656 0)"/>
       <use xlink:href="#DejaVuSans-39" transform="translate(222.509766 0)"/>
      </g>
     </g>
    </g>
    <g id="xtick_6">
     <g id="line2d_6"/>
     <g id="text_6">
      <!-- p99.99 -->
      <g transform="translate(545.61181 403.15452) scale(0.12 -0.12)">
       <use xlink:href="#DejaVuSans-70"/>
       <use xlink:href="#DejaVuSans-39" transform="translate(63.476562 0)"/>
       <use xlink:href="#DejaVuSans-39" transform="translate(127.099609 0)"/>
       <use xlink:href="#DejaVuSans-2e" transform="translate(190.722656 0)"/>
       <use xlink:href="#DejaVuSans-39" transform="translate(222.509766 0)"/>
       <use xlink:href="#DejaVuSans-39" transform="translate(286.132812 0)"/>
      </g>
     </g>
    </g>
    <g id="xtick_7">
     <g id="line2d_7"/>
     <g id="text_7">
      <!-- p99.999 -->
      <g transform="translate(671.541403 403.15452) scale(0.12 -0.12)">
       <use xlink:href="#DejaVuSans-70"/>
       <use xlink:href="#DejaVuSans-39" transform="translate(63.476562 0)"/>
       <use xlink:href="#DejaVuSans-39" transform="translate(127.099609 0)"/>
       <use xlink:href="#DejaVuSans-2e" transform="translate(190.722656 0)"/>
       <use xlink:href="#DejaVuSans-39" transform="translate(222.509766 0)"/>
       <use xlink:href="#DejaVuSans-39" transform="translate(286.132812 0)"/>
       <use xlink:href="#DejaVuSans-39" transform="translate(349.755859 0)"/>
      </g>
     </g>
    </g>
    <g id="text_8">
     <!-- Percentile -->
     <g transform="translate(344.841517 430.287957) scale(0.14 -0.14)">
      <defs>
       <path id="DejaVuSans-50" d="M 1259 4147 
L 1259 2394 
L 2053 2394 
Q 2494 2394 2734 2622 
Q 2975 2850 2975 3272 
Q 2975 3691 2734 3919 
Q 2494 4147 2053 4147 
L 1259 4147 
z
M 628 4666 
L 2053 4666 
Q 2838 4666 3239 4311 
Q 3641 3956 3641 3272 
Q 3641 2581 3239 2228 
Q 2838 1875 2053 1875 
L 1259 1875 
L 1259 0 
L 628 0 
L 628 4666 
z
" transform="scale(0.015625)"/>
       <path id="DejaVuSans-65" d="M 3597 1894 
L 3597 1613 
L 953 1613 
Q 991 1019 1311 708 
Q 1631 397 2203 397 
Q 2534 397 2845 478 
Q 3156 559 3463 722 
L 3463 178 
Q 3153 47 2828 -22 
Q 2503 -91 2169 -91 
Q 1331 -91 842 396 
Q 353 884 353 1716 
Q 353 2575 817 3079 
Q 1281 3584 2069 3584 
Q 2775 3584 3186 3129 
Q 3597 2675 3597 1894 
z
M 3022 2063 
Q 3016 2534 2758 2815 
Q 2500 3097 2075 3097 
Q 1594 3097 1305 2825 
Q 1016 2553 972 2059 
L 3022 2063 
z
" transform="scale(0.015625)"/>
       <path id="DejaVuSans-72" d="M 2631 2963 
Q 2534 3019 2420 3045 
Q 2306 3072 2169 3072 
Q 1681 3072 1420 2755 
Q 1159 2438 1159 1844 
L 1159 0 
L 581 0 
L 581 3500 
L 1159 3500 
L 1159 2956 
Q 1341 3275 1631 3429 
Q 1922 3584 2338 3584 
Q 2397 3584 2469 3576 
Q 2541 3569 2628 3553 
L 2631 2963 
z
" transform="scale(0.015625)"/>
       <path id="DejaVuSans-63" d="M 3122 3366 
L 3122 2828 
Q 2878 2963 2633 3030 
Q 2388 3097 2138 3097 
Q 1578 3097 1268 2742 
Q 959 2388 959 1747 
Q 959 1106 1268 751 
Q 1578 397 2138 397 
Q 2388 397 2633 464 
Q 2878 531 3122 666 
L 3122 134 
Q 2881 22 2623 -34 
Q 2366 -91 2075 -91 
Q 1284 -91 818 406 
Q 353 903 353 1747 
Q 353 2603 823 3093 
Q 1294 3584 2113 3584 
Q 2378 3584 2631 3529 
Q 2884 3475 3122 3366 
z
" transform="scale(0.015625)"/>
       <path id="DejaVuSans-6e" d="M 3513 2113 
L 3513 0 
L 2938 0 
L 2938 2094 
Q 2938 2591 2744 2837 
Q 2550 3084 2163 3084 
Q 1697 3084 1428 2787 
Q 1159 2491 1159 1978 
L 1159 0 
L 581 0 
L 581 3500 
L 1159 3500 
L 1159 2956 
Q 1366 3272 1645 3428 
Q 1925 3584 2291 3584 
Q 2894 3584 3203 3211 
Q 3513 2838 3513 2113 
z
" transform="scale(0.015625)"/>
       <path id="DejaVuSans-74" d="M 1172 4494 
L 1172 3500 
L 2356 3500 
L 2356 3053 
L 1172 3053 
L 1172 1153 
Q 1172 725 1289 603 
Q 1406 481 1766 481 
L 2356 481 
L 2356 0 
L 1766 0 
Q 1100 0 847 248 
Q 594 497 594 1153 
L 594 3053 
L 172 3053 
L 172 3500 
L 594 3500 
L 594 4494 
L 1172 4494 
z
" transform="scale(0.015625)"/>
       <path id="DejaVuSans-69" d="M 603 3500 
L 1178 3500 
L 1178 0 
L 603 0 
L 603 3500 
z
M 603 4863 
L 1178 4863 
L 1178 4134 
L 603 4134 
L 603 4863 
z
" transform="scale(0.015625)"/>
       <path id="DejaVuSans-6c" d="M 603 4863 
L 1178 4863 
L 1178 0 
L 603 0 
L 603 4863 
z
" transform="scale(0.015625)"/>
      </defs>
      <use xlink:href="#DejaVuSans-50"/>
      <use xlink:href="#DejaVuSans-65" transform="translate(56.677734 0)"/>
      <use xlink:href="#DejaVuSans-72" transform="translate(118.201172 0)"/>
      <use xlink:href="#DejaVuSans-63" transform="translate(157.064453 0)"/>
      <use xlink:href="#DejaVuSans-65" transform="translate(212.044922 0)"/>
      <use xlink:href="#DejaVuSans-6e" transform="translate(273.568359 0)"/>
      <use xlink:href="#DejaVuSans-74" transform="translate(336.947266 0)"/>
      <use xlink:href="#DejaVuSans-69" transform="translate(376.15625 0)"/>
      <use xlink:href="#DejaVuSans-6c" transform="translate(403.939453 0)"/>
      <use xlink:href="#DejaVuSans-65" transform="translate(431.722656 0)"/>
     </g>
    </g>
   </g>
   <g id="matplotlib.axis_2">
    <g id="ytick_1">
     <g id="line2d_8"/>
     <g id="text_9">
      <!-- $\mathdefault{10^{0}}$ -->
      <g transform="translate(24.749375 379.323725) scale(0.11 -0.11)">
       <defs>
        <path id="DejaVuSans-31" d="M 794 531 
L 1825 531 
L 1825 4091 
L 703 3866 
L 703 4441 
L 1819 4666 
L 2450 4666 
L 2450 531 
L 3481 531 
L 3481 0 
L 794 0 
L 794 531 
z
" transform="scale(0.015625)"/>
       </defs>
       <use xlink:href="#DejaVuSans-31" transform="translate(0 0.765625)"/>
       <use xlink:href="#DejaVuSans-30" transform="translate(63.623047 0.765625)"/>
       <use xlink:href="#DejaVuSans-30" transform="translate(128.203125 39.046875) scale(0.7)"/>
      </g>
     </g>
    </g>
    <g id="ytick_2">
     <g id="line2d_9"/>
     <g id="text_10">
      <!-- $\mathdefault{10^{1}}$ -->
      <g transform="translate(24.749375 307.649749) scale(0.11 -0.11)">
       <use xlink:href="#DejaVuSans-31" transform="translate(0 0.684375)"/>
       <use xlink:href="#DejaVuSans-30" transform="translate(63.623047 0.684375)"/>
       <use xlink:href="#DejaVuSans-31" transform="translate(128.203125 38.965625) scale(0.7)"/>
      </g>
     </g>
    </g>
    <g id="ytick_3">
     <g id="line2d_10"/>
     <g id="text_11">
      <!-- $\mathdefault{10^{2}}$ -->
      <g transform="translate(24.749375 235.975773) scale(0.11 -0.11)">
       <defs>
        <path id="DejaVuSans-32" d="M 1228 531 
L 3431 531 
L 3431 0 
L 469 0 
L 469 531 
Q 828 903 1448 1529 
Q 2069 2156 2228 2338 
Q 2531 2678 2651 2914 
Q 2772 3150 2772 3378 
Q 2772 3750 2511 3984 
Q 2250 4219 1831 4219 
Q 1534 4219 1204 4116 
Q 875 4013 500 3803 
L 500 4441 
Q 881 4594 1212 4672 
Q 1544 4750 1819 4750 
Q 2544 4750 2975 4387 
Q 3406 4025 3406 3419 
Q 3406 3131 3298 2873 
Q 3191 2616 2906 2266 
Q 2828 2175 2409 1742 
Q 1991 1309 1228 531 
z
" transform="scale(0.015625)"/>
       </defs>
       <use xlink:href="#DejaVuSans-31" transform="translate(0 0.765625)"/>
       <use xlink:href="#DejaVuSans-30" transform="translate(63.623047 0.765625)"/>
       <use xlink:href="#DejaVuSans-32" transform="translate(128.203125 39.046875) scale(0.7)"/>
      </g>
     </g>
    </g>
    <g id="ytick_4">
     <g id="line2d_11"/>
     <g id="text_12">
      <!-- $\mathdefault{10^{3}}$ -->
      <g transform="translate(24.749375 164.301797) scale(0.11 -0.11)">
       <defs>
        <path id="DejaVuSans-33" d="M 2597 2516 
Q 3050 2419 3304 2112 
Q 3559 1806 3559 1356 
Q 3559 666 3084 287 
Q 2609 -91 1734 -91 
Q 1441 -91 1130 -33 
Q 819 25 488 141 
L 488 750 
Q 750 597 1062 519 
Q 1375 441 1716 441 
Q 2309 441 2620 675 
Q 2931 909 2931 1356 
Q 2931 1769 2642 2001 
Q 2353 2234 1838 2234 
L 1294 2234 
L 1294 2753 
L 1863 2753 
Q 2328 2753 2575 2939 
Q 2822 3125 2822 3475 
Q 2822 3834 2567 4026 
Q 2313 4219 1838 4219 
Q 1578 4219 1281 4162 
Q 984 4106 628 3988 
L 628 4550 
Q 988 4650 1302 4700 
Q 1616 4750 1894 4750 
Q 2613 4750 3031 4423 
Q 3450 4097 3450 3541 
Q 3450 3153 3228 2886 
Q 3006 2619 2597 2516 
z
" transform="scale(0.015625)"/>
       </defs>
       <use xlink:href="#DejaVuSans-31" transform="translate(0 0.765625)"/>
       <use xlink:href="#DejaVuSans-30" transform="translate(63.623047 0.765625)"/>
       <use xlink:href="#DejaVuSans-33" transform="translate(128.203125 39.046875) scale(0.7)"/>
      </g>
     </g>
    </g>
    <g id="ytick_5">
     <g id="line2d_12"/>
     <g id="text_13">
      <!-- $\mathdefault{10^{4}}$ -->
      <g transform="translate(24.749375 92.627821) scale(0.11 -0.11)">
       <defs>
        <path id="DejaVuSans-34" d="M 2419 4116 
L 825 1625 
L 2419 1625 
L 2419 4116 
z
M 2253 4666 
L 3047 4666 
L 3047 1625 
L 3713 1625 
L 3713 1100 
L 3047 1100 
L 3047 0 
L 2419 0 
L 2419 1100 
L 313 1100 
L 313 1709 
L 2253 4666 
z
" transform="scale(0.015625)"/>
       </defs>
       <use xlink:href="#DejaVuSans-31" transform="translate(0 0.684375)"/>
       <use xlink:href="#DejaVuSans-30" transform="translate(63.623047 0.684375)"/>
       <use xlink:href="#DejaVuSans-34" transform="translate(128.203125 38.965625) scale(0.7)"/>
      </g>
     </g>
    </g>
    <g id="text_14">
     <!-- Latency (ns, log scale) -->
     <g transform="translate(17.837813 300.048666) rotate(-90) scale(0.14 -0.14)">
      <defs>
       <path id="DejaVuSans-4c" d="M 628 4666 
L 1259 4666 
L 1259 531 
L 3531 531 
L 3531 0 
L 628 0 
L 628 4666 
z
" transform="scale(0.015625)"/>
       <path id="DejaVuSans-61" d="M 2194 1759 
Q 1497 1759 1228 1600 
Q 959 1441 959 1056 
Q 959 750 1161 570 
Q 1363 391 1709 391 
Q 2188 391 2477 730 
Q 2766 1069 2766 1631 
L 2766 1759 
L 2194 1759 
z
M 3341 1997 
L 3341 0 
L 2766 0 
L 2766 531 
Q 2569 213 2275 61 
Q 1981 -91 1556 -91 
Q 1019 -91 701 211 
Q 384 513 384 1019 
Q 384 1609 779 1909 
Q 1175 2209 1959 2209 
L 2766 2209 
L 2766 2266 
Q 2766 2663 2505 2880 
Q 2244 3097 1772 3097 
Q 1472 3097 1187 3025 
Q 903 2953 641 2809 
L 641 3341 
Q 956 3463 1253 3523 
Q 1550 3584 1831 3584 
Q 2591 3584 2966 3190 
Q 3341 2797 3341 1997 
z
" transform="scale(0.015625)"/>
       <path id="DejaVuSans-79" d="M 2059 -325 
Q 1816 -950 1584 -1140 
Q 1353 -1331 966 -1331 
L 506 -1331 
L 506 -850 
L 844 -850 
Q 1081 -850 1212 -737 
Q 1344 -625 1503 -206 
L 1606 56 
L 191 3500 
L 800 3500 
L 1894 763 
L 2988 3500 
L 3597 3500 
L 2059 -325 
z
" transform="scale(0.015625)"/>
       <path id="DejaVuSans-20" transform="scale(0.015625)"/>
       <path id="DejaVuSans-28" d="M 1984 4856 
Q 1566 4138 1362 3434 
Q 1159 2731 1159 2009 
Q 1159 1288 1364 580 
Q 1569 -128 1984 -844 
L 1484 -844 
Q 1016 -109 783 600 
Q 550 1309 550 2009 
Q 550 2706 781 3412 
Q 1013 4119 1484 4856 
L 1984 4856 
z
" transform="scale(0.015625)"/>
       <path id="DejaVuSans-73" d="M 2834 3397 
L 2834 2853 
Q 2591 2978 2328 3040 
Q 2066 3103 1784 3103 
Q 1356 3103 1142 2972 
Q 928 2841 928 2578 
Q 928 2378 1081 2264 
Q 1234 2150 1697 2047 
L 1894 2003 
Q 2506 1872 2764 1633 
Q 3022 1394 3022 966 
Q 3022 478 2636 193 
Q 2250 -91 1575 -91 
Q 1294 -91 989 -36 
Q 684 19 347 128 
L 347 722 
Q 666 556 975 473 
Q 1284 391 1588 391 
Q 1994 391 2212 530 
Q 2431 669 2431 922 
Q 2431 1156 2273 1281 
Q 2116 1406 1581 1522 
L 1381 1569 
Q 847 1681 609 1914 
Q 372 2147 372 2553 
Q 372 3047 722 3315 
Q 1072 3584 1716 3584 
Q 2034 3584 2315 3537 
Q 2597 3491 2834 3397 
z
" transform="scale(0.015625)"/>
       <path id="DejaVuSans-2c" d="M 750 794 
L 1409 794 
L 1409 256 
L 897 -744 
L 494 -744 
L 750 256 
L 750 794 
z
" transform="scale(0.015625)"/>
       <path id="DejaVuSans-6f" d="M 1959 3097 
Q 1497 3097 1228 2736 
Q 959 2375 959 1747 
Q 959 1119 1226 758 
Q 1494 397 1959 397 
Q 2419 397 2687 759 
Q 2956 1122 2956 1747 
Q 2956 2369 2687 2733 
Q 2419 3097 1959 3097 
z
M 1959 3584 
Q 2709 3584 3137 3096 
Q 3566 2609 3566 1747 
Q 3566 888 3137 398 
Q 2709 -91 1959 -91 
Q 1206 -91 779 398 
Q 353 888 353 1747 
Q 353 2609 779 3096 
Q 1206 3584 1959 3584 
z
" transform="scale(0.015625)"/>
       <path id="DejaVuSans-67" d="M 2906 1791 
Q 2906 2416 2648 2759 
Q 2391 3103 1925 3103 
Q 1463 3103 1205 2759 
Q 947 2416 947 1791 
Q 947 1169 1205 825 
Q 1463 481 1925 481 
Q 2391 481 2648 825 
Q 2906 1169 2906 1791 
z
M 3481 434 
Q 3481 -459 3084 -895 
Q 2688 -1331 1869 -1331 
Q 1566 -1331 1297 -1286 
Q 1028 -1241 775 -1147 
L 775 -588 
Q 1028 -725 1275 -790 
Q 1522 -856 1778 -856 
Q 2344 -856 2625 -561 
Q 2906 -266 2906 331 
L 2906 616 
Q 2728 306 2450 153 
Q 2172 0 1784 0 
Q 1141 0 747 490 
Q 353 981 353 1791 
Q 353 2603 747 3093 
Q 1141 3584 1784 3584 
Q 2172 3584 2450 3431 
Q 2728 3278 2906 2969 
L 2906 3500 
L 3481 3500 
L 3481 434 
z
" transform="scale(0.015625)"/>
       <path id="DejaVuSans-29" d="M 513 4856 
L 1013 4856 
Q 1481 4119 1714 3412 
Q 1947 2706 1947 2009 
Q 1947 1309 1714 600 
Q 1481 -109 1013 -844 
L 513 -844 
Q 928 -128 1133 580 
Q 1338 1288 1338 2009 
Q 1338 2731 1133 3434 
Q 928 4138 513 4856 
z
" transform="scale(0.015625)"/>
      </defs>
      <use xlink:href="#DejaVuSans-4c"/>
      <use xlink:href="#DejaVuSans-61" transform="translate(55.712891 0)"/>
      <use xlink:href="#DejaVuSans-74" transform="translate(116.992188 0)"/>
      <use xlink:href="#DejaVuSans-65" transform="translate(156.201172 0)"/>
      <use xlink:href="#DejaVuSans-6e" transform="translate(217.724609 0)"/>
      <use xlink:href="#DejaVuSans-63" transform="translate(281.103516 0)"/>
      <use xlink:href="#DejaVuSans-79" transform="translate(336.083984 0)"/>
      <use xlink:href="#DejaVuSans-20" transform="translate(395.263672 0)"/>
      <use xlink:href="#DejaVuSans-28" transform="translate(427.050781 0)"/>
      <use xlink:href="#DejaVuSans-6e" transform="translate(466.064453 0)"/>
      <use xlink:href="#DejaVuSans-73" transform="translate(529.443359 0)"/>
      <use xlink:href="#DejaVuSans-2c" transform="translate(581.542969 0)"/>
      <use xlink:href="#DejaVuSans-20" transform="translate(613.330078 0)"/>
      <use xlink:href="#DejaVuSans-6c" transform="translate(645.117188 0)"/>
      <use xlink:href="#DejaVuSans-6f" transform="translate(672.900391 0)"/>
      <use xlink:href="#DejaVuSans-67" transform="translate(734.082031 0)"/>
      <use xlink:href="#DejaVuSans-20" transform="translate(797.558594 0)"/>
      <use xlink:href="#DejaVuSans-73" transform="translate(829.345703 0)"/>
      <use xlink:href="#DejaVuSans-63" transform="translate(881.445312 0)"/>
      <use xlink:href="#DejaVuSans-61" transform="translate(936.425781 0)"/>
      <use xlink:href="#DejaVuSans-6c" transform="translate(997.705078 0)"/>
      <use xlink:href="#DejaVuSans-65" transform="translate(1025.488281 0)"/>
      <use xlink:href="#DejaVuSans-29" transform="translate(1087.011719 0)"/>
     </g>
    </g>
   </g>
   <g id="line2d_13">
    <path d="M 47.609488 375.144584 
L 47.759067 375.144584 
L 48.227232 218.356277 
L 48.460093 218.154803 
L 49.294931 215.096875 
L 49.295163 212.479568 
L 50.99296 212.312664 
L 50.993439 209.910886 
L 52.511163 209.757169 
L 52.511593 207.53811 
L 54.195913 207.395649 
L 54.196293 205.333464 
L 56.977445 205.200724 
L 56.978243 203.27469 
L 60.846035 203.150428 
L 60.846819 201.343676 
L 67.142638 201.226875 
L 67.145587 199.525489 
L 81.133366 199.415302 
L 81.138066 197.807667 
L 99.766917 197.703387 
L 99.769619 196.179709 
L 118.190396 196.080734 
L 118.192959 194.632677 
L 131.020618 194.538493 
L 131.021113 193.158905 
L 137.892822 193.069071 
L 137.893381 191.751768 
L 141.713769 191.665899 
L 141.714368 190.405499 
L 146.492606 190.32326 
L 146.495212 189.115051 
L 153.084915 189.036147 
L 153.087113 187.875977 
L 162.96956 187.800149 
L 162.975671 186.684344 
L 181.626944 186.61136 
L 181.631199 185.536652 
L 210.37836 185.466307 
L 210.381397 184.429776 
L 249.929339 184.361886 
L 249.935468 183.360912 
L 295.447572 183.295311 
L 295.452154 182.327535 
L 335.419941 182.264074 
L 360.422186 181.265909 
L 391.055685 179.360757 
L 426.202483 177.565514 
L 445.875689 176.705284 
L 462.174378 175.868188 
L 472.412598 175.053016 
L 479.997441 174.258648 
L 486.001705 173.484048 
L 489.476816 172.728257 
L 491.520766 171.990383 
L 493.027499 171.269596 
L 494.106709 170.565122 
L 494.732809 169.202273 
L 494.890427 168.54259 
L 496.006275 167.263741 
L 496.167501 166.035365 
L 496.653965 157.640697 
L 496.817058 137.146726 
L 496.980624 134.632305 
L 497.144666 127.587718 
L 497.639677 126.724206 
L 498.64294 126.385399 
L 500.00903 125.065885 
L 500.879966 124.744565 
L 501.232145 124.26872 
L 501.409064 123.800039 
L 501.586539 123.645367 
L 503.026833 123.338311 
L 503.761026 123.034253 
L 505.06934 122.733138 
L 507.188677 122.139506 
L 507.582723 121.865091 
L 508.179009 121.846882 
L 509.595382 121.413041 
L 510.006686 121.269761 
L 511.470365 121.127137 
L 511.6826 120.985163 
L 512.109484 120.843835 
L 514.071524 120.423658 
L 514.741018 120.28485 
L 516.566229 120.009078 
L 517.975013 119.735727 
L 518.934159 119.33015 
L 520.652981 119.062671 
L 521.405978 118.797472 
L 523.464598 118.534512 
L 523.727295 118.403861 
L 525.059472 118.144192 
L 526.979069 117.758706 
L 529.256084 117.504342 
L 530.727406 116.753489 
L 531.932767 116.491846 
L 538.379612 115.289278 
L 539.762466 115.171538 
L 540.113547 114.937384 
L 540.822342 114.704979 
L 544.506559 114.017997 
L 544.888584 113.90496 
L 558.234285 112.579593 
L 560.211626 112.256885 
L 568.313851 111.621335 
L 569.487819 111.412337 
L 577.096904 110.691698 
L 578.471325 110.488829 
L 581.32502 110.287274 
L 582.061612 109.888036 
L 582.80796 109.690322 
L 586.695601 109.29862 
L 591.745107 108.624784 
L 593.534097 108.340403 
L 596.328807 107.965226 
L 597.292052 107.686781 
L 598.27205 107.594517 
L 599.269393 107.228171 
L 603.445262 106.866086 
L 605.655289 105.630964 
L 614.153924 105.031308 
L 615.479831 104.609946 
L 618.229081 104.526354 
L 622.622093 103.459603 
L 624.165983 102.899991 
L 625.753368 102.820861 
L 630.802874 101.429883 
L 636.349819 100.979702 
L 640.37642 100.316407 
L 642.503029 100.243573 
L 644.713056 99.810109 
L 647.013312 99.524451 
L 649.41148 99.382599 
L 651.916267 98.682876 
L 657.286848 98.202263 
L 660.177146 97.262744 
L 666.444537 97.130812 
L 669.860641 96.095017 
L 673.497286 95.464723 
L 677.384927 95.278096 
L 681.560796 94.406589 
L 686.071078 93.281282 
L 690.974034 91.749061 
L 696.344615 91.693735 
L 702.281516 91.037385 
L 708.918407 90.767938 
L 725.128845 89.661062 
L 729.348278 89.639813 
L 729.348278 89.639813 
" clip-path="url(#p524750d38d)" style="fill: none; stroke: #1f77b4; stroke-width: 2; stroke-linecap: square"/>
    <defs>
     <path id="mf20a3a6afa" d="M 0 2 
C 0.530406 2 1.03916 1.789267 1.414214 1.414214 
C 1.789267 1.03916 2 0.530406 2 0 
C 2 -0.530406 1.789267 -1.03916 1.414214 -1.414214 
C 1.03916 -1.789267 0.530406 -2 0 -2 
C -0.530406 -2 -1.03916 -1.789267 -1.414214 -1.414214 
C -1.789267 -1.03916 -2 -0.530406 -2 0 
C -2 0.530406 -1.789267 1.03916 -1.414214 1.414214 
C -1.03916 1.789267 -0.530406 2 0 2 
z
" style="stroke: #1f77b4"/>
    </defs>
    <g clip-path="url(#p524750d38d)">
     <use xlink:href="#mf20a3a6afa" x="47.609488" y="375.144584" style="fill: #1f77b4; stroke: #1f77b4"/>
     <use xlink:href="#mf20a3a6afa" x="48.460093" y="218.154803" style="fill: #1f77b4; stroke: #1f77b4"/>
     <use xlink:href="#mf20a3a6afa" x="60.846819" y="201.343676" style="fill: #1f77b4; stroke: #1f77b4"/>
     <use xlink:href="#mf20a3a6afa" x="137.893381" y="191.751768" style="fill: #1f77b4; stroke: #1f77b4"/>
     <use xlink:href="#mf20a3a6afa" x="210.381397" y="184.429776" style="fill: #1f77b4; stroke: #1f77b4"/>
     <use xlink:href="#mf20a3a6afa" x="462.174378" y="175.868188" style="fill: #1f77b4; stroke: #1f77b4"/>
     <use xlink:href="#mf20a3a6afa" x="496.006275" y="167.263741" style="fill: #1f77b4; stroke: #1f77b4"/>
     <use xlink:href="#mf20a3a6afa" x="498.64294" y="126.385399" style="fill: #1f77b4; stroke: #1f77b4"/>
     <use xlink:href="#mf20a3a6afa" x="502.4824" y="123.49146" style="fill: #1f77b4; stroke: #1f77b4"/>
     <use xlink:href="#mf20a3a6afa" x="508.179009" y="121.846882" style="fill: #1f77b4; stroke: #1f77b4"/>
     <use xlink:href="#mf20a3a6afa" x="516.104354" y="120.146658" style="fill: #1f77b4; stroke: #1f77b4"/>
     <use xlink:href="#mf20a3a6afa" x="524.522816" y="118.273756" style="fill: #1f77b4; stroke: #1f77b4"/>
     <use xlink:href="#mf20a3a6afa" x="532.545256" y="116.369477" style="fill: #1f77b4; stroke: #1f77b4"/>
     <use xlink:href="#mf20a3a6afa" x="540.822342" y="114.704979" style="fill: #1f77b4; stroke: #1f77b4"/>
     <use xlink:href="#mf20a3a6afa" x="550.528131" y="113.34585" style="fill: #1f77b4; stroke: #1f77b4"/>
     <use xlink:href="#mf20a3a6afa" x="565.481675" y="111.831746" style="fill: #1f77b4; stroke: #1f77b4"/>
     <use xlink:href="#mf20a3a6afa" x="582.061612" y="109.888036" style="fill: #1f77b4; stroke: #1f77b4"/>
     <use xlink:href="#mf20a3a6afa" x="596.328807" y="107.965226" style="fill: #1f77b4; stroke: #1f77b4"/>
     <use xlink:href="#mf20a3a6afa" x="611.59219" y="105.201463" style="fill: #1f77b4; stroke: #1f77b4"/>
     <use xlink:href="#mf20a3a6afa" x="638.32716" y="100.609461" style="fill: #1f77b4; stroke: #1f77b4"/>
     <use xlink:href="#mf20a3a6afa" x="673.497286" y="95.464723" style="fill: #1f77b4; stroke: #1f77b4"/>
     <use xlink:href="#mf20a3a6afa" x="764.186612" y="87.174005" style="fill: #1f77b4; stroke: #1f77b4"/>
    </g>
   </g>
   <g id="line2d_14">
    <path d="M 47.6096 375.144584 
L 47.760875 375.144584 
L 48.13735 221.546193 
L 48.342546 218.154803 
L 48.879197 215.096875 
L 49.965378 212.312664 
L 49.965496 209.910886 
L 50.937231 209.757169 
L 52.021428 207.395649 
L 52.021672 205.333464 
L 53.89381 205.200724 
L 53.894692 203.27469 
L 56.604223 203.150428 
L 56.604884 201.343676 
L 60.438824 201.226875 
L 60.440593 199.525489 
L 68.141892 199.415302 
L 68.143271 197.807667 
L 76.802279 197.703387 
L 76.803887 196.179709 
L 84.236418 196.080734 
L 84.237498 194.632677 
L 89.164922 194.538493 
L 89.165747 193.158905 
L 92.672937 193.069071 
L 92.674066 191.751768 
L 95.970735 191.665899 
L 95.971532 190.405499 
L 100.553133 190.32326 
L 100.554863 189.115051 
L 106.962554 189.036147 
L 106.966108 187.875977 
L 117.491807 187.800149 
L 117.497261 186.684344 
L 134.831844 186.61136 
L 134.836878 185.536652 
L 161.924089 185.466307 
L 161.932231 184.429776 
L 200.954439 184.361886 
L 200.968146 183.360912 
L 248.546948 183.295311 
L 248.550935 182.327535 
L 290.906818 182.264074 
L 317.426312 181.265909 
L 333.479056 180.29876 
L 333.497056 179.418561 
L 350.117039 179.360757 
L 368.341674 178.450195 
L 368.358383 177.620076 
L 391.582962 177.565514 
L 416.577771 176.705284 
L 416.617106 175.919852 
L 436.737675 175.868188 
L 452.611704 175.053016 
L 473.051548 173.484048 
L 480.606451 172.728257 
L 484.275771 171.990383 
L 487.642869 170.565122 
L 488.341124 169.876239 
L 489.190614 169.202273 
L 489.76414 168.54259 
L 490.053107 167.896598 
L 490.635525 167.263741 
L 490.929007 166.035365 
L 491.076323 163.715121 
L 491.224026 163.161111 
L 491.372117 135.298162 
L 491.520597 128.296201 
L 491.669471 127.587718 
L 492.118464 126.554341 
L 492.571065 126.385399 
L 493.02733 125.554171 
L 493.641488 124.90481 
L 494.41872 124.426528 
L 496.980455 122.733138 
L 498.138907 122.434907 
L 498.642771 122.139506 
L 504.131571 120.563088 
L 507.188508 120.146658 
L 507.385187 120.009078 
L 507.780616 119.872102 
L 511.258756 119.464756 
L 512.97291 119.196123 
L 517.031752 118.797472 
L 519.419755 118.273756 
L 519.664218 118.144192 
L 523.991054 117.758706 
L 524.256223 117.631264 
L 532.545087 116.753489 
L 534.423542 116.491846 
L 536.697275 116.126173 
L 539.762297 115.645196 
L 540.113378 115.407466 
L 541.902368 115.171538 
L 546.05028 114.937384 
L 552.687171 114.359593 
L 553.129122 114.245311 
L 558.234116 113.792331 
L 558.721984 113.56829 
L 559.710579 113.34585 
L 565.481506 112.68791 
L 566.036667 112.471651 
L 568.897609 112.150055 
L 571.911613 111.621335 
L 572.534254 111.204732 
L 573.800565 110.998503 
L 577.096735 110.793631 
L 581.324851 110.387888 
L 584.330814 109.591933 
L 586.695432 109.396084 
L 587.506215 109.008045 
L 590.011003 108.815825 
L 593.533928 108.529701 
L 597.291883 108.246184 
L 609.141703 107.228171 
L 618.228912 106.956213 
L 624.165814 106.508165 
L 634.43935 106.330736 
L 636.34965 105.544588 
L 638.326991 105.116269 
L 642.50286 103.702552 
L 644.712887 103.540376 
L 647.013143 102.899991 
L 651.916098 102.350261 
L 654.537429 102.272515 
L 657.286679 102.040435 
L 660.176976 101.657439 
L 663.22358 101.50555 
L 666.444368 100.979702 
L 669.860471 100.905301 
L 673.497117 100.316407 
L 677.384758 100.170908 
L 681.560627 99.453444 
L 686.070909 99.24139 
L 696.344446 96.479413 
L 702.281347 95.464723 
L 708.918238 93.573494 
L 716.442525 89.921056 
L 725.128676 88.944424 
L 729.348278 87.830477 
L 729.348278 87.830477 
" clip-path="url(#p524750d38d)" style="fill: none; stroke: #ff7f0e; stroke-width: 2; stroke-linecap: square"/>
    <defs>
     <path id="m34ed816d2f" d="M -0 2 
L 2 -2 
L -2 -2 
z
" style="stroke: #ff7f0e; stroke-linejoin: miter"/>
    </defs>
    <g clip-path="url(#p524750d38d)">
     <use xlink:href="#m34ed816d2f" x="47.6096" y="375.144584" style="fill: #ff7f0e; stroke: #ff7f0e; stroke-linejoin: miter"/>
     <use xlink:href="#m34ed816d2f" x="48.13735" y="221.546193" style="fill: #ff7f0e; stroke: #ff7f0e; stroke-linejoin: miter"/>
     <use xlink:href="#m34ed816d2f" x="60.438824" y="201.226875" style="fill: #ff7f0e; stroke: #ff7f0e; stroke-linejoin: miter"/>
     <use xlink:href="#m34ed816d2f" x="95.970735" y="191.665899" style="fill: #ff7f0e; stroke: #ff7f0e; stroke-linejoin: miter"/>
     <use xlink:href="#m34ed816d2f" x="200.954439" y="184.361886" style="fill: #ff7f0e; stroke: #ff7f0e; stroke-linejoin: miter"/>
     <use xlink:href="#m34ed816d2f" x="416.577771" y="176.705284" style="fill: #ff7f0e; stroke: #ff7f0e; stroke-linejoin: miter"/>
     <use xlink:href="#m34ed816d2f" x="489.76414" y="168.54259" style="fill: #ff7f0e; stroke: #ff7f0e; stroke-linejoin: miter"/>
     <use xlink:href="#m34ed816d2f" x="492.571065" y="126.385399" style="fill: #ff7f0e; stroke: #ff7f0e; stroke-linejoin: miter"/>
     <use xlink:href="#m34ed816d2f" x="496.653796" y="123.034253" style="fill: #ff7f0e; stroke: #ff7f0e; stroke-linejoin: miter"/>
     <use xlink:href="#m34ed816d2f" x="502.844601" y="120.985163" style="fill: #ff7f0e; stroke: #ff7f0e; stroke-linejoin: miter"/>
     <use xlink:href="#m34ed816d2f" x="512.109315" y="119.33015" style="fill: #ff7f0e; stroke: #ff7f0e; stroke-linejoin: miter"/>
     <use xlink:href="#m34ed816d2f" x="524.256223" y="117.631264" style="fill: #ff7f0e; stroke: #ff7f0e; stroke-linejoin: miter"/>
     <use xlink:href="#m34ed816d2f" x="536.697275" y="116.126173" style="fill: #ff7f0e; stroke: #ff7f0e; stroke-linejoin: miter"/>
     <use xlink:href="#m34ed816d2f" x="549.686925" y="114.589424" style="fill: #ff7f0e; stroke: #ff7f0e; stroke-linejoin: miter"/>
     <use xlink:href="#m34ed816d2f" x="563.31399" y="112.905682" style="fill: #ff7f0e; stroke: #ff7f0e; stroke-linejoin: miter"/>
     <use xlink:href="#m34ed816d2f" x="576.421895" y="110.895898" style="fill: #ff7f0e; stroke: #ff7f0e; stroke-linejoin: miter"/>
     <use xlink:href="#m34ed816d2f" x="588.328834" y="108.911787" style="fill: #ff7f0e; stroke: #ff7f0e; stroke-linejoin: miter"/>
     <use xlink:href="#m34ed816d2f" x="607.955376" y="107.319354" style="fill: #ff7f0e; stroke: #ff7f0e; stroke-linejoin: miter"/>
     <use xlink:href="#m34ed816d2f" x="640.376251" y="104.442986" style="fill: #ff7f0e; stroke: #ff7f0e; stroke-linejoin: miter"/>
     <use xlink:href="#m34ed816d2f" x="673.497117" y="100.316407" style="fill: #ff7f0e; stroke: #ff7f0e; stroke-linejoin: miter"/>
     <use xlink:href="#m34ed816d2f" x="764.186443" y="86.139653" style="fill: #ff7f0e; stroke: #ff7f0e; stroke-linejoin: miter"/>
    </g>
   </g>
   <g id="line2d_15">
    <path d="M 47.609544 375.144584 
L 47.678896 375.144584 
L 47.678952 303.470608 
L 47.820514 300.50383 
L 48.007076 234.732299 
L 48.224783 225.352776 
L 48.533594 221.546193 
L 48.533766 218.356277 
L 49.743132 218.154803 
L 49.743717 215.279442 
L 53.380636 215.096875 
L 53.381697 212.479568 
L 58.812596 212.312664 
L 58.812939 209.910886 
L 61.644119 209.757169 
L 61.644625 207.53811 
L 64.915466 207.395649 
L 64.916768 205.333464 
L 70.436366 205.200724 
L 70.43738 203.27469 
L 75.98767 203.150428 
L 75.988975 201.343676 
L 81.987232 201.226875 
L 81.988166 199.525489 
L 91.832581 199.415302 
L 91.834187 197.807667 
L 100.387957 197.703387 
L 100.389826 196.179709 
L 107.471778 196.080734 
L 107.473082 194.632677 
L 113.863236 194.538493 
L 113.864514 193.158905 
L 119.655777 193.069071 
L 119.657396 191.751768 
L 125.638592 191.665899 
L 125.640618 190.405499 
L 133.370371 190.32326 
L 133.37321 189.115051 
L 142.034024 189.036147 
L 142.036734 187.875977 
L 152.976178 187.800149 
L 152.979833 186.684344 
L 166.232135 186.61136 
L 178.8441 185.466307 
L 178.846414 184.429776 
L 189.291937 184.361886 
L 189.29333 183.360912 
L 195.992238 183.295311 
L 195.994591 182.327535 
L 201.477766 182.264074 
L 201.478631 181.327365 
L 207.237616 181.265909 
L 207.239531 180.358334 
L 213.155049 180.29876 
L 213.156113 179.418561 
L 219.532479 179.360757 
L 226.500723 178.450195 
L 226.503419 177.620076 
L 233.392942 177.565514 
L 233.399036 176.758357 
L 240.223429 176.705284 
L 246.694197 175.868188 
L 246.696126 175.103344 
L 252.894461 175.053016 
L 252.896614 174.307706 
L 258.869654 174.258648 
L 265.057957 173.484048 
L 265.060629 172.77496 
L 271.298793 172.728257 
L 277.739398 171.990383 
L 277.742744 171.314159 
L 284.353706 171.269596 
L 284.357469 170.608687 
L 291.267392 170.565122 
L 311.569439 168.54259 
L 311.575539 167.936582 
L 318.066213 167.896598 
L 325.512325 167.263741 
L 325.520137 166.681899 
L 332.189267 166.643494 
L 346.534179 165.438889 
L 375.511597 163.161111 
L 375.530573 162.650532 
L 383.008787 162.616789 
L 411.289582 160.529969 
L 411.325393 160.060464 
L 417.810244 160.029414 
L 431.531041 159.051822 
L 447.011325 157.640697 
L 461.734441 156.290779 
L 480.4842 153.754814 
L 482.096036 153.351535 
L 484.275884 152.953415 
L 489.47676 151.409979 
L 491.224139 150.300637 
L 491.372229 149.961922 
L 492.419906 149.939472 
L 493.487433 148.53531 
L 493.641601 148.193949 
L 493.951209 147.85629 
L 494.106653 147.191766 
L 494.732753 145.903821 
L 494.890371 144.97167 
L 495.048431 136.208724 
L 495.206936 135.750113 
L 495.365888 130.523865 
L 495.685144 129.576224 
L 495.845452 129.390109 
L 496.329133 127.763333 
L 496.653909 127.413089 
L 497.474134 127.066742 
L 497.805596 126.554341 
L 499.664334 125.554171 
L 500.008974 125.227798 
L 500.704642 124.90481 
L 501.586483 124.744565 
L 501.764519 124.58514 
L 503.946022 124.111707 
L 504.131684 123.955483 
L 507.18862 123.034253 
L 507.582667 122.733138 
L 508.580011 122.583665 
L 508.781615 122.434907 
L 509.800602 122.139506 
L 510.213413 121.99285 
L 513.850059 121.269761 
L 514.516912 121.127137 
L 515.191752 120.843835 
L 517.7377 120.563088 
L 518.452489 120.423658 
L 518.692781 120.009078 
L 519.419868 119.735727 
L 521.913569 119.464756 
L 525.329672 118.929789 
L 529.547235 118.015166 
L 530.72735 117.758706 
L 532.853959 117.504342 
L 539.762409 116.491846 
L 540.466774 116.247587 
L 541.180055 116.126173 
L 542.634289 116.00523 
L 543.750137 115.645196 
L 544.888528 115.407466 
L 547.236719 115.171538 
L 547.637778 114.937384 
L 555.392529 114.245311 
L 559.214226 114.017997 
L 560.21157 113.792331 
L 566.03678 113.456871 
L 566.597465 113.373568 
L 569.487763 113.235223 
L 570.686711 113.015142 
L 571.911726 112.905682 
L 575.096101 112.68791 
L 575.755155 112.579593 
L 579.880053 112.256885 
L 580.597877 112.150055 
L 581.324964 111.726363 
L 588.328947 111.308361 
L 590.871414 110.895898 
L 591.74505 110.71715 
L 596.328751 110.590098 
L 600.284652 110.387888 
L 601.318597 110.186983 
L 604.539385 109.987367 
L 605.655232 109.789022 
L 609.141815 109.493855 
L 610.353656 108.529701 
L 611.592134 108.340403 
L 618.229025 108.058597 
L 624.165926 107.228171 
L 625.753311 106.866086 
L 627.386714 106.686611 
L 629.068882 105.891538 
L 630.802817 105.544588 
L 632.591807 105.458452 
L 634.439463 105.031308 
L 636.349762 104.946578 
L 638.327104 104.526354 
L 644.712999 104.029461 
L 647.013255 103.621358 
L 649.411423 103.540376 
L 651.916211 103.298685 
L 654.537542 102.040435 
L 657.286792 101.581402 
L 663.223693 100.75703 
L 666.444481 100.609461 
L 673.49723 99.953927 
L 677.384871 99.171025 
L 681.56074 96.999437 
L 686.071022 95.589765 
L 690.973978 94.226182 
L 702.28146 92.449059 
L 708.918351 91.091555 
L 716.442638 90.714328 
L 725.128789 89.661062 
L 729.348278 89.576273 
L 729.348278 89.576273 
" clip-path="url(#p524750d38d)" style="fill: none; stroke: #2ca02c; stroke-width: 2; stroke-linecap: square"/>
    <defs>
     <path id="m695b17d429" d="M -2 2 
L 2 2 
L 2 -2 
L -2 -2 
z
" style="stroke: #2ca02c; stroke-linejoin: miter"/>
    </defs>
    <g clip-path="url(#p524750d38d)">
     <use xlink:href="#m695b17d429" x="47.609544" y="375.144584" style="fill: #2ca02c; stroke: #2ca02c; stroke-linejoin: miter"/>
     <use xlink:href="#m695b17d429" x="53.380636" y="215.096875" style="fill: #2ca02c; stroke: #2ca02c; stroke-linejoin: miter"/>
     <use xlink:href="#m695b17d429" x="91.834187" y="197.807667" style="fill: #2ca02c; stroke: #2ca02c; stroke-linejoin: miter"/>
     <use xlink:href="#m695b17d429" x="152.976178" y="187.800149" style="fill: #2ca02c; stroke: #2ca02c; stroke-linejoin: miter"/>
     <use xlink:href="#m695b17d429" x="219.532479" y="179.360757" style="fill: #2ca02c; stroke: #2ca02c; stroke-linejoin: miter"/>
     <use xlink:href="#m695b17d429" x="277.742744" y="171.314159" style="fill: #2ca02c; stroke: #2ca02c; stroke-linejoin: miter"/>
     <use xlink:href="#m695b17d429" x="361.344096" y="164.27917" style="fill: #2ca02c; stroke: #2ca02c; stroke-linejoin: miter"/>
     <use xlink:href="#m695b17d429" x="447.011325" y="157.640697" style="fill: #2ca02c; stroke: #2ca02c; stroke-linejoin: miter"/>
     <use xlink:href="#m695b17d429" x="489.47676" y="151.409979" style="fill: #2ca02c; stroke: #2ca02c; stroke-linejoin: miter"/>
     <use xlink:href="#m695b17d429" x="494.890371" y="144.97167" style="fill: #2ca02c; stroke: #2ca02c; stroke-linejoin: miter"/>
     <use xlink:href="#m695b17d429" x="498.13902" y="126.385399" style="fill: #2ca02c; stroke: #2ca02c; stroke-linejoin: miter"/>
     <use xlink:href="#m695b17d429" x="504.131684" y="123.955483" style="fill: #2ca02c; stroke: #2ca02c; stroke-linejoin: miter"/>
     <use xlink:href="#m695b17d429" x="512.324089" y="121.701596" style="fill: #2ca02c; stroke: #2ca02c; stroke-linejoin: miter"/>
     <use xlink:href="#m695b17d429" x="524.52276" y="119.062671" style="fill: #2ca02c; stroke: #2ca02c; stroke-linejoin: miter"/>
     <use xlink:href="#m695b17d429" x="536.038334" y="117.001766" style="fill: #2ca02c; stroke: #2ca02c; stroke-linejoin: miter"/>
     <use xlink:href="#m695b17d429" x="550.105987" y="114.704979" style="fill: #2ca02c; stroke: #2ca02c; stroke-linejoin: miter"/>
     <use xlink:href="#m695b17d429" x="570.084048" y="113.124988" style="fill: #2ca02c; stroke: #2ca02c; stroke-linejoin: miter"/>
     <use xlink:href="#m695b17d429" x="590.871414" y="110.895898" style="fill: #2ca02c; stroke: #2ca02c; stroke-linejoin: miter"/>
     <use xlink:href="#m695b17d429" x="618.229025" y="108.058597" style="fill: #2ca02c; stroke: #2ca02c; stroke-linejoin: miter"/>
     <use xlink:href="#m695b17d429" x="647.013255" y="103.621358" style="fill: #2ca02c; stroke: #2ca02c; stroke-linejoin: miter"/>
     <use xlink:href="#m695b17d429" x="716.442638" y="90.714328" style="fill: #2ca02c; stroke: #2ca02c; stroke-linejoin: miter"/>
    </g>
   </g>
   <g id="line2d_16">
    <path d="M 47.609488 375.144584 
L 47.728622 375.144584 
L 48.086295 234.732299 
L 48.307733 225.352776 
L 48.695359 221.546193 
L 48.695531 218.356277 
L 49.836498 218.154803 
L 49.836791 215.279442 
L 52.828823 215.096875 
L 52.829132 212.479568 
L 57.543835 212.312664 
L 57.544642 209.910886 
L 60.602778 209.757169 
L 60.603416 207.53811 
L 65.778683 207.395649 
L 65.780161 205.333464 
L 75.69235 205.200724 
L 75.694298 203.27469 
L 87.109749 203.150428 
L 87.11168 201.343676 
L 98.007065 201.226875 
L 98.009959 199.525489 
L 114.549571 199.415302 
L 114.553638 197.807667 
L 130.485503 197.703387 
L 130.487465 196.179709 
L 141.815826 196.080734 
L 141.817026 194.632677 
L 150.157559 194.538493 
L 150.15895 193.158905 
L 158.203578 193.069071 
L 158.205182 191.751768 
L 167.637058 191.665899 
L 167.639429 190.405499 
L 179.85513 190.32326 
L 179.859842 189.115051 
L 191.760371 189.036147 
L 191.765464 187.875977 
L 205.950973 187.800149 
L 205.955653 186.684344 
L 221.915471 186.61136 
L 221.924169 185.536652 
L 235.865279 185.466307 
L 235.866871 184.429776 
L 247.780832 184.361886 
L 247.784765 183.360912 
L 258.752412 183.295311 
L 258.75719 182.327535 
L 270.90314 182.264074 
L 283.810627 181.265909 
L 283.814354 180.358334 
L 296.548646 180.29876 
L 296.553319 179.418561 
L 309.869098 179.360757 
L 347.483677 176.705284 
L 380.798704 174.258648 
L 392.652958 173.484048 
L 392.678682 172.77496 
L 404.612871 172.728257 
L 435.789739 170.565122 
L 449.777392 169.202273 
L 459.416605 167.896598 
L 469.723792 166.643494 
L 472.94458 166.035365 
L 477.276938 165.438889 
L 485.732625 163.715121 
L 492.874887 161.555894 
L 494.732697 161.038705 
L 498.306418 159.53678 
L 499.492745 158.574304 
L 500.529862 157.640697 
L 500.879854 156.734279 
L 501.586426 155.85351 
L 502.122232 154.577391 
L 502.301972 152.953415 
L 502.482287 152.560322 
L 502.663181 151.409979 
L 502.844658 135.074623 
L 503.026721 134.852679 
L 503.209374 133.131889 
L 503.392621 132.923328 
L 503.576466 129.576224 
L 504.317904 127.413089 
L 504.504798 127.239433 
L 505.069227 126.895003 
L 506.022693 126.217368 
L 507.385243 125.884003 
L 507.582611 125.718651 
L 508.178896 125.554171 
L 511.258813 125.065885 
L 513.190949 124.426528 
L 516.798481 123.49146 
L 517.501381 123.034253 
L 517.974901 122.883331 
L 519.419812 122.733138 
L 519.664274 122.583665 
L 520.652869 122.286856 
L 522.425775 121.846882 
L 524.522703 121.556984 
L 525.87405 121.269761 
L 526.148252 121.127137 
L 527.539642 120.703145 
L 528.105963 120.28485 
L 531.932654 119.599946 
L 532.853903 119.196123 
L 535.063929 118.665714 
L 547.236663 117.631264 
L 553.129178 116.753489 
L 556.323873 116.369477 
L 557.270928 116.247587 
L 557.750492 116.00523 
L 566.597409 115.171538 
L 568.313738 114.820965 
L 570.686655 114.589424 
L 573.800621 114.474296 
L 575.755098 113.90496 
L 582.807847 113.235223 
L 584.330871 112.905682 
L 585.108103 112.796606 
L 593.533984 112.364083 
L 596.328695 111.831746 
L 599.269281 111.621335 
L 602.371814 111.101446 
L 610.3536 110.287274 
L 612.858388 109.888036 
L 614.153812 109.789022 
L 615.479719 109.29862 
L 618.228968 109.104602 
L 619.655588 108.815825 
L 622.62198 108.529701 
L 625.753255 108.152249 
L 632.591751 107.965226 
L 634.439406 107.872134 
L 640.376308 106.776219 
L 644.712943 106.419324 
L 647.013199 105.630964 
L 649.411367 105.372553 
L 651.916155 104.946578 
L 654.537485 104.276916 
L 657.286735 104.194212 
L 660.177033 103.947411 
L 666.444425 103.702552 
L 669.860528 103.218536 
L 673.497173 101.886671 
L 677.384814 101.354399 
L 681.560683 101.054281 
L 686.070966 100.535939 
L 690.973922 97.796135 
L 696.344502 97.528297 
L 702.281404 95.278096 
L 708.918295 94.106489 
L 716.442581 92.307794 
L 725.128733 91.860008 
L 729.348278 91.791716 
L 729.348278 91.791716 
" clip-path="url(#p524750d38d)" style="fill: none; stroke: #d62728; stroke-width: 2; stroke-linecap: square"/>
    <defs>
     <path id="me0c0f75efe" d="M -0 2.828427 
L 2.828427 0 
L 0 -2.828427 
L -2.828427 -0 
z
" style="stroke: #d62728; stroke-linejoin: miter"/>
    </defs>
    <g clip-path="url(#p524750d38d)">
     <use xlink:href="#me0c0f75efe" x="47.609488" y="375.144584" style="fill: #d62728; stroke: #d62728; stroke-linejoin: miter"/>
     <use xlink:href="#me0c0f75efe" x="48.695531" y="218.356277" style="fill: #d62728; stroke: #d62728; stroke-linejoin: miter"/>
     <use xlink:href="#me0c0f75efe" x="87.109749" y="203.150428" style="fill: #d62728; stroke: #d62728; stroke-linejoin: miter"/>
     <use xlink:href="#me0c0f75efe" x="158.205182" y="191.751768" style="fill: #d62728; stroke: #d62728; stroke-linejoin: miter"/>
     <use xlink:href="#me0c0f75efe" x="247.780832" y="184.361886" style="fill: #d62728; stroke: #d62728; stroke-linejoin: miter"/>
     <use xlink:href="#me0c0f75efe" x="358.664391" y="175.868188" style="fill: #d62728; stroke: #d62728; stroke-linejoin: miter"/>
     <use xlink:href="#me0c0f75efe" x="464.610847" y="167.263741" style="fill: #d62728; stroke: #d62728; stroke-linejoin: miter"/>
     <use xlink:href="#me0c0f75efe" x="497.474077" y="160.029414" style="fill: #d62728; stroke: #d62728; stroke-linejoin: miter"/>
     <use xlink:href="#me0c0f75efe" x="502.301972" y="152.953415" style="fill: #d62728; stroke: #d62728; stroke-linejoin: miter"/>
     <use xlink:href="#me0c0f75efe" x="505.069227" y="126.895003" style="fill: #d62728; stroke: #d62728; stroke-linejoin: miter"/>
     <use xlink:href="#me0c0f75efe" x="512.755824" y="124.58514" style="fill: #d62728; stroke: #d62728; stroke-linejoin: miter"/>
     <use xlink:href="#me0c0f75efe" x="519.664274" y="122.583665" style="fill: #d62728; stroke: #d62728; stroke-linejoin: miter"/>
     <use xlink:href="#me0c0f75efe" x="527.539642" y="120.703145" style="fill: #d62728; stroke: #d62728; stroke-linejoin: miter"/>
     <use xlink:href="#me0c0f75efe" x="535.063929" y="118.665714" style="fill: #d62728; stroke: #d62728; stroke-linejoin: miter"/>
     <use xlink:href="#me0c0f75efe" x="551.81359" y="117.001766" style="fill: #d62728; stroke: #d62728; stroke-linejoin: miter"/>
     <use xlink:href="#me0c0f75efe" x="566.036723" y="115.289278" style="fill: #d62728; stroke: #d62728; stroke-linejoin: miter"/>
     <use xlink:href="#me0c0f75efe" x="582.807847" y="113.235223" style="fill: #d62728; stroke: #d62728; stroke-linejoin: miter"/>
     <use xlink:href="#me0c0f75efe" x="602.371814" y="111.101446" style="fill: #d62728; stroke: #d62728; stroke-linejoin: miter"/>
     <use xlink:href="#me0c0f75efe" x="621.119266" y="108.720158" style="fill: #d62728; stroke: #d62728; stroke-linejoin: miter"/>
     <use xlink:href="#me0c0f75efe" x="651.916155" y="104.946578" style="fill: #d62728; stroke: #d62728; stroke-linejoin: miter"/>
     <use xlink:href="#me0c0f75efe" x="702.281404" y="95.278096" style="fill: #d62728; stroke: #d62728; stroke-linejoin: miter"/>
    </g>
   </g>
   <g id="patch_3">
    <path d="M 47.609375 390.536395 
L 47.609375 51.916562 
" style="fill: none; stroke: #000000; stroke-width: 0.8; stroke-linejoin: miter; stroke-linecap: square"/>
   </g>
   <g id="patch_4">
    <path d="M 711.128659 390.536395 
L 711.128659 51.916562 
" style="fill: none; stroke: #000000; stroke-width: 0.8; stroke-linejoin: miter; stroke-linecap: square"/>
   </g>
   <g id="patch_5">
    <path d="M 47.609375 390.536395 
L 711.128659 390.536395 
" style="fill: none; stroke: #000000; stroke-width: 0.8; stroke-linejoin: miter; stroke-linecap: square"/>
   </g>
   <g id="patch_6">
    <path d="M 47.609375 51.916562 
L 711.128659 51.916562 
" style="fill: none; stroke: #000000; stroke-width: 0.8; stroke-linejoin: miter; stroke-linecap: square"/>
   </g>
   <g id="text_15">
    <!-- Latency at percentile p (log axes) — lower is better -->
    <g style="fill: #595959" transform="translate(212.570892 42.440572) scale(0.13 -0.13)">
     <defs>
      <path id="DejaVuSans-78" d="M 3513 3500 
L 2247 1797 
L 3578 0 
L 2900 0 
L 1881 1375 
L 863 0 
L 184 0 
L 1544 1831 
L 300 3500 
L 978 3500 
L 1906 2253 
L 2834 3500 
L 3513 3500 
z
" transform="scale(0.015625)"/>
      <path id="DejaVuSans-2014" d="M 313 1978 
L 6088 1978 
L 6088 1528 
L 313 1528 
L 313 1978 
z
" transform="scale(0.015625)"/>
      <path id="DejaVuSans-77" d="M 269 3500 
L 844 3500 
L 1563 769 
L 2278 3500 
L 2956 3500 
L 3675 769 
L 4391 3500 
L 4966 3500 
L 4050 0 
L 3372 0 
L 2619 2869 
L 1863 0 
L 1184 0 
L 269 3500 
z
" transform="scale(0.015625)"/>
      <path id="DejaVuSans-62" d="M 3116 1747 
Q 3116 2381 2855 2742 
Q 2594 3103 2138 3103 
Q 1681 3103 1420 2742 
Q 1159 2381 1159 1747 
Q 1159 1113 1420 752 
Q 1681 391 2138 391 
Q 2594 391 2855 752 
Q 3116 1113 3116 1747 
z
M 1159 2969 
Q 1341 3281 1617 3432 
Q 1894 3584 2278 3584 
Q 2916 3584 3314 3078 
Q 3713 2572 3713 1747 
Q 3713 922 3314 415 
Q 2916 -91 2278 -91 
Q 1894 -91 1617 61 
Q 1341 213 1159 525 
L 1159 0 
L 581 0 
L 581 4863 
L 1159 4863 
L 1159 2969 
z
" transform="scale(0.015625)"/>
     </defs>
     <use xlink:href="#DejaVuSans-4c"/>
     <use xlink:href="#DejaVuSans-61" transform="translate(55.712891 0)"/>
     <use xlink:href="#DejaVuSans-74" transform="translate(116.992188 0)"/>
     <use xlink:href="#DejaVuSans-65" transform="translate(156.201172 0)"/>
     <use xlink:href="#DejaVuSans-6e" transform="translate(217.724609 0)"/>
     <use xlink:href="#DejaVuSans-63" transform="translate(281.103516 0)"/>
     <use xlink:href="#DejaVuSans-79" transform="translate(336.083984 0)"/>
     <use xlink:href="#DejaVuSans-20" transform="translate(395.263672 0)"/>
     <use xlink:href="#DejaVuSans-61" transform="translate(427.050781 0)"/>
     <use xlink:href="#DejaVuSans-74" transform="translate(488.330078 0)"/>
     <use xlink:href="#DejaVuSans-20" transform="translate(527.539062 0)"/>
     <use xlink:href="#DejaVuSans-70" transform="translate(559.326172 0)"/>
     <use xlink:href="#DejaVuSans-65" transform="translate(622.802734 0)"/>
     <use xlink:href="#DejaVuSans-72" transform="translate(684.326172 0)"/>
     <use xlink:href="#DejaVuSans-63" transform="translate(723.189453 0)"/>
     <use xlink:href="#DejaVuSans-65" transform="translate(778.169922 0)"/>
     <use xlink:href="#DejaVuSans-6e" transform="translate(839.693359 0)"/>
     <use xlink:href="#DejaVuSans-74" transform="translate(903.072266 0)"/>
     <use xlink:href="#DejaVuSans-69" transform="translate(942.28125 0)"/>
     <use xlink:href="#DejaVuSans-6c" transform="translate(970.064453 0)"/>
     <use xlink:href="#DejaVuSans-65" transform="translate(997.847656 0)"/>
     <use xlink:href="#DejaVuSans-20" transform="translate(1059.371094 0)"/>
     <use xlink:href="#DejaVuSans-70" transform="translate(1091.158203 0)"/>
     <use xlink:href="#DejaVuSans-20" transform="translate(1154.634766 0)"/>
     <use xlink:href="#DejaVuSans-28" transform="translate(1186.421875 0)"/>
     <use xlink:href="#DejaVuSans-6c" transform="translate(1225.435547 0)"/>
     <use xlink:href="#DejaVuSans-6f" transform="translate(1253.21875 0)"/>
     <use xlink:href="#DejaVuSans-67" transform="translate(1314.400391 0)"/>
     <use xlink:href="#DejaVuSans-20" transform="translate(1377.876953 0)"/>
     <use xlink:href="#DejaVuSans-61" transform="translate(1409.664062 0)"/>
     <use xlink:href="#DejaVuSans-78" transform="translate(1470.943359 0)"/>
     <use xlink:href="#DejaVuSans-65" transform="translate(1526.998047 0)"/>
     <use xlink:href="#DejaVuSans-73" transform="translate(1588.521484 0)"/>
     <use xlink:href="#DejaVuSans-29" transform="translate(1640.621094 0)"/>
     <use xlink:href="#DejaVuSans-20" transform="translate(1679.634766 0)"/>
     <use xlink:href="#DejaVuSans-2014" transform="translate(1711.421875 0)"/>
     <use xlink:href="#DejaVuSans-20" transform="translate(1811.421875 0)"/>
     <use xlink:href="#DejaVuSans-6c" transform="translate(1843.208984 0)"/>
     <use xlink:href="#DejaVuSans-6f" transform="translate(1870.992188 0)"/>
     <use xlink:href="#DejaVuSans-77" transform="translate(1932.173828 0)"/>
     <use xlink:href="#DejaVuSans-65" transform="translate(2013.960938 0)"/>
     <use xlink:href="#DejaVuSans-72" transform="translate(2075.484375 0)"/>
     <use xlink:href="#DejaVuSans-20" transform="translate(2116.597656 0)"/>
     <use xlink:href="#DejaVuSans-69" transform="translate(2148.384766 0)"/>
     <use xlink:href="#DejaVuSans-73" transform="translate(2176.167969 0)"/>
     <use xlink:href="#DejaVuSans-20" transform="translate(2228.267578 0)"/>
     <use xlink:href="#DejaVuSans-62" transform="translate(2260.054688 0)"/>
     <use xlink:href="#DejaVuSans-65" transform="translate(2323.53125 0)"/>
     <use xlink:href="#DejaVuSans-74" transform="translate(2385.054688 0)"/>
     <use xlink:href="#DejaVuSans-74" transform="translate(2424.263672 0)"/>
     <use xlink:href="#DejaVuSans-65" transform="translate(2463.472656 0)"/>
     <use xlink:href="#DejaVuSans-72" transform="translate(2524.996094 0)"/>
    </g>
   </g>
   <g id="text_16">
    <!-- Tail Latency — Get Hit @ 10M entries -->
    <g style="fill: #2b2f36" transform="translate(174.798236 23.916562) scale(0.22 -0.22)">
     <defs>
      <path id="DejaVuSans-54" d="M -19 4666 
L 3928 4666 
L 3928 4134 
L 2272 4134 
L 2272 0 
L 1638 0 
L 1638 4134 
L -19 4134 
L -19 4666 
z
" transform="scale(0.015625)"/>
      <path id="DejaVuSans-47" d="M 3809 666 
L 3809 1919 
L 2778 1919 
L 2778 2438 
L 4434 2438 
L 4434 434 
Q 4069 175 3628 42 
Q 3188 -91 2688 -91 
Q 1594 -91 976 548 
Q 359 1188 359 2328 
Q 359 3472 976 4111 
Q 1594 4750 2688 4750 
Q 3144 4750 3555 4637 
Q 3966 4525 4313 4306 
L 4313 3634 
Q 3963 3931 3569 4081 
Q 3175 4231 2741 4231 
Q 1884 4231 1454 3753 
Q 1025 3275 1025 2328 
Q 1025 1384 1454 906 
Q 1884 428 2741 428 
Q 3075 428 3337 486 
Q 3600 544 3809 666 
z
" transform="scale(0.015625)"/>
      <path id="DejaVuSans-48" d="M 628 4666 
L 1259 4666 
L 1259 2753 
L 3553 2753 
L 3553 4666 
L 4184 4666 
L 4184 0 
L 3553 0 
L 3553 2222 
L 1259 2222 
L 1259 0 
L 628 0 
L 628 4666 
z
" transform="scale(0.015625)"/>
      <path id="DejaVuSans-40" d="M 2381 1678 
Q 2381 1231 2603 976 
Q 2825 722 3213 722 
Q 3597 722 3817 978 
Q 4038 1234 4038 1678 
Q 4038 2116 3813 2373 
Q 3588 2631 3206 2631 
Q 2828 2631 2604 2375 
Q 2381 2119 2381 1678 
z
M 4084 744 
Q 3897 503 3655 389 
Q 3413 275 3091 275 
Q 2553 275 2217 664 
Q 1881 1053 1881 1678 
Q 1881 2303 2218 2693 
Q 2556 3084 3091 3084 
Q 3413 3084 3656 2967 
Q 3900 2850 4084 2613 
L 4084 3022 
L 4531 3022 
L 4531 722 
Q 4988 791 5245 1139 
Q 5503 1488 5503 2041 
Q 5503 2375 5404 2669 
Q 5306 2963 5106 3213 
Q 4781 3622 4314 3839 
Q 3847 4056 3297 4056 
Q 2913 4056 2559 3954 
Q 2206 3853 1906 3653 
Q 1416 3334 1139 2817 
Q 863 2300 863 1697 
Q 863 1200 1042 765 
Q 1222 331 1563 0 
Q 1891 -325 2322 -495 
Q 2753 -666 3244 -666 
Q 3647 -666 4036 -530 
Q 4425 -394 4750 -141 
L 5031 -488 
Q 4641 -791 4180 -952 
Q 3719 -1113 3244 -1113 
Q 2666 -1113 2153 -908 
Q 1641 -703 1241 -313 
Q 841 78 631 592 
Q 422 1106 422 1697 
Q 422 2266 634 2781 
Q 847 3297 1241 3688 
Q 1644 4084 2172 4295 
Q 2700 4506 3291 4506 
Q 3953 4506 4520 4234 
Q 5088 3963 5472 3463 
Q 5706 3156 5829 2797 
Q 5953 2438 5953 2053 
Q 5953 1231 5456 756 
Q 4959 281 4084 263 
L 4084 744 
z
" transform="scale(0.015625)"/>
      <path id="DejaVuSans-4d" d="M 628 4666 
L 1569 4666 
L 2759 1491 
L 3956 4666 
L 4897 4666 
L 4897 0 
L 4281 0 
L 4281 4097 
L 3078 897 
L 2444 897 
L 1241 4097 
L 1241 0 
L 628 0 
L 628 4666 
z
" transform="scale(0.015625)"/>
     </defs>
     <use xlink:href="#DejaVuSans-54"/>
     <use xlink:href="#DejaVuSans-61" transform="translate(44.583984 0)"/>
     <use xlink:href="#DejaVuSans-69" transform="translate(105.863281 0)"/>
     <use xlink:href="#DejaVuSans-6c" transform="translate(133.646484 0)"/>
     <use xlink:href="#DejaVuSans-20" transform="translate(161.429688 0)"/>
     <use xlink:href="#DejaVuSans-4c" transform="translate(193.216797 0)"/>
     <use xlink:href="#DejaVuSans-61" transform="translate(248.929688 0)"/>
     <use xlink:href="#DejaVuSans-74" transform="translate(310.208984 0)"/>
     <use xlink:href="#DejaVuSans-65" transform="translate(349.417969 0)"/>
     <use xlink:href="#DejaVuSans-6e" transform="translate(410.941406 0)"/>
     <use xlink:href="#DejaVuSans-63" transform="translate(474.320312 0)"/>
     <use xlink:href="#DejaVuSans-79" transform="translate(529.300781 0)"/>
     <use xlink:href="#DejaVuSans-20" transform="translate(588.480469 0)"/>
     <use xlink:href="#DejaVuSans-2014" transform="translate(620.267578 0)"/>
     <use xlink:href="#DejaVuSans-20" transform="translate(720.267578 0)"/>
     <use xlink:href="#DejaVuSans-47" transform="translate(752.054688 0)"/>
     <use xlink:href="#DejaVuSans-65" transform="translate(829.544922 0)"/>
     <use xlink:href="#DejaVuSans-74" transform="translate(891.068359 0)"/>
     <use xlink:href="#DejaVuSans-20" transform="translate(930.277344 0)"/>
     <use xlink:href="#DejaVuSans-48" transform="translate(962.064453 0)"/>
     <use xlink:href="#DejaVuSans-69" transform="translate(1037.259766 0)"/>
     <use xlink:href="#DejaVuSans-74" transform="translate(1065.042969 0)"/>
     <use xlink:href="#DejaVuSans-20" transform="translate(1104.251953 0)"/>
     <use xlink:href="#DejaVuSans-40" transform="translate(1136.039062 0)"/>
     <use xlink:href="#DejaVuSans-20" transform="translate(1236.039062 0)"/>
     <use xlink:href="#DejaVuSans-31" transform="translate(1267.826172 0)"/>
     <use xlink:href="#DejaVuSans-30" transform="translate(1331.449219 0)"/>
     <use xlink:href="#DejaVuSans-4d" transform="translate(1395.072266 0)"/>
     <use xlink:href="#DejaVuSans-20" transform="translate(1481.351562 0)"/>
     <use xlink:href="#DejaVuSans-65" transform="translate(1513.138672 0)"/>
     <use xlink:href="#DejaVuSans-6e" transform="translate(1574.662109 0)"/>
     <use xlink:href="#DejaVuSans-74" transform="translate(1638.041016 0)"/>
     <use xlink:href="#DejaVuSans-72" transform="translate(1677.25 0)"/>
     <use xlink:href="#DejaVuSans-69" transform="translate(1718.363281 0)"/>
     <use xlink:href="#DejaVuSans-65" transform="translate(1746.146484 0)"/>
     <use xlink:href="#DejaVuSans-73" transform="translate(1807.669922 0)"/>
    </g>
   </g>
   <g id="legend_1">
    <g id="patch_7">
     <path d="M 56.009375 131.971562 
L 223.911875 131.971562 
Q 226.311875 131.971562 226.311875 129.571562 
L 226.311875 60.316562 
Q 226.311875 57.916562 223.911875 57.916562 
L 56.009375 57.916562 
Q 53.609375 57.916562 53.609375 60.316562 
L 53.609375 129.571562 
Q 53.609375 131.971562 56.009375 131.971562 
z
" style="fill: #ffffff; opacity: 0.8; stroke: #cccccc; stroke-linejoin: miter"/>
    </g>
    <g id="line2d_17">
     <path d="M 58.409375 67.634687 
L 70.409375 67.634687 
L 82.409375 67.634687 
" style="fill: none; stroke: #1f77b4; stroke-width: 2; stroke-linecap: square"/>
     <g>
      <use xlink:href="#mf20a3a6afa" x="70.409375" y="67.634687" style="fill: #1f77b4; stroke: #1f77b4"/>
     </g>
    </g>
    <g id="text_17">
     <!-- std::HashMap -->
     <g transform="translate(92.009375 71.834687) scale(0.12 -0.12)">
      <defs>
       <path id="DejaVuSans-64" d="M 2906 2969 
L 2906 4863 
L 3481 4863 
L 3481 0 
L 2906 0 
L 2906 525 
Q 2725 213 2448 61 
Q 2172 -91 1784 -91 
Q 1150 -91 751 415 
Q 353 922 353 1747 
Q 353 2572 751 3078 
Q 1150 3584 1784 3584 
Q 2172 3584 2448 3432 
Q 2725 3281 2906 2969 
z
M 947 1747 
Q 947 1113 1208 752 
Q 1469 391 1925 391 
Q 2381 391 2643 752 
Q 2906 1113 2906 1747 
Q 2906 2381 2643 2742 
Q 2381 3103 1925 3103 
Q 1469 3103 1208 2742 
Q 947 2381 947 1747 
z
" transform="scale(0.015625)"/>
       <path id="DejaVuSans-3a" d="M 750 794 
L 1409 794 
L 1409 0 
L 750 0 
L 750 794 
z
M 750 3309 
L 1409 3309 
L 1409 2516 
L 750 2516 
L 750 3309 
z
" transform="scale(0.015625)"/>
       <path id="DejaVuSans-68" d="M 3513 2113 
L 3513 0 
L 2938 0 
L 2938 2094 
Q 2938 2591 2744 2837 
Q 2550 3084 2163 3084 
Q 1697 3084 1428 2787 
Q 1159 2491 1159 1978 
L 1159 0 
L 581 0 
L 581 4863 
L 1159 4863 
L 1159 2956 
Q 1366 3272 1645 3428 
Q 1925 3584 2291 3584 
Q 2894 3584 3203 3211 
Q 3513 2838 3513 2113 
z
" transform="scale(0.015625)"/>
      </defs>
      <use xlink:href="#DejaVuSans-73"/>
      <use xlink:href="#DejaVuSans-74" transform="translate(52.099609 0)"/>
      <use xlink:href="#DejaVuSans-64" transform="translate(91.308594 0)"/>
      <use xlink:href="#DejaVuSans-3a" transform="translate(154.785156 0)"/>
      <use xlink:href="#DejaVuSans-3a" transform="translate(188.476562 0)"/>
      <use xlink:href="#DejaVuSans-48" transform="translate(222.167969 0)"/>
      <use xlink:href="#DejaVuSans-61" transform="translate(297.363281 0)"/>
      <use xlink:href="#DejaVuSans-73" transform="translate(358.642578 0)"/>
      <use xlink:href="#DejaVuSans-68" transform="translate(410.742188 0)"/>
      <use xlink:href="#DejaVuSans-4d" transform="translate(474.121094 0)"/>
      <use xlink:href="#DejaVuSans-61" transform="translate(560.400391 0)"/>
      <use xlink:href="#DejaVuSans-70" transform="translate(621.679688 0)"/>
     </g>
    </g>
    <g id="line2d_18">
     <path d="M 58.409375 85.248437 
L 70.409375 85.248437 
L 82.409375 85.248437 
" style="fill: none; stroke: #ff7f0e; stroke-width: 2; stroke-linecap: square"/>
     <g>
      <use xlink:href="#m34ed816d2f" x="70.409375" y="85.248437" style="fill: #ff7f0e; stroke: #ff7f0e; stroke-linejoin: miter"/>
     </g>
    </g>
    <g id="text_18">
     <!-- hashbrown::HashMap -->
     <g transform="translate(92.009375 89.448437) scale(0.12 -0.12)">
      <use xlink:href="#DejaVuSans-68"/>
      <use xlink:href="#DejaVuSans-61" transform="translate(63.378906 0)"/>
      <use xlink:href="#DejaVuSans-73" transform="translate(124.658203 0)"/>
      <use xlink:href="#DejaVuSans-68" transform="translate(176.757812 0)"/>
      <use xlink:href="#DejaVuSans-62" transform="translate(240.136719 0)"/>
      <use xlink:href="#DejaVuSans-72" transform="translate(303.613281 0)"/>
      <use xlink:href="#DejaVuSans-6f" transform="translate(342.476562 0)"/>
      <use xlink:href="#DejaVuSans-77" transform="translate(403.658203 0)"/>
      <use xlink:href="#DejaVuSans-6e" transform="translate(485.445312 0)"/>
      <use xlink:href="#DejaVuSans-3a" transform="translate(548.824219 0)"/>
      <use xlink:href="#DejaVuSans-3a" transform="translate(582.515625 0)"/>
      <use xlink:href="#DejaVuSans-48" transform="translate(616.207031 0)"/>
      <use xlink:href="#DejaVuSans-61" transform="translate(691.402344 0)"/>
      <use xlink:href="#DejaVuSans-73" transform="translate(752.681641 0)"/>
      <use xlink:href="#DejaVuSans-68" transform="translate(804.78125 0)"/>
      <use xlink:href="#DejaVuSans-4d" transform="translate(868.160156 0)"/>
      <use xlink:href="#DejaVuSans-61" transform="translate(954.439453 0)"/>
      <use xlink:href="#DejaVuSans-70" transform="translate(1015.71875 0)"/>
     </g>
    </g>
    <g id="line2d_19">
     <path d="M 58.409375 102.862187 
L 70.409375 102.862187 
L 82.409375 102.862187 
" style="fill: none; stroke: #2ca02c; stroke-width: 2; stroke-linecap: square"/>
     <g>
      <use xlink:href="#m695b17d429" x="70.409375" y="102.862187" style="fill: #2ca02c; stroke: #2ca02c; stroke-linejoin: miter"/>
     </g>
    </g>
    <g id="text_19">
     <!-- ElasticHashMap -->
     <g transform="translate(92.009375 107.062187) scale(0.12 -0.12)">
      <defs>
       <path id="DejaVuSans-45" d="M 628 4666 
L 3578 4666 
L 3578 4134 
L 1259 4134 
L 1259 2753 
L 3481 2753 
L 3481 2222 
L 1259 2222 
L 1259 531 
L 3634 531 
L 3634 0 
L 628 0 
L 628 4666 
z
" transform="scale(0.015625)"/>
      </defs>
      <use xlink:href="#DejaVuSans-45"/>
      <use xlink:href="#DejaVuSans-6c" transform="translate(63.183594 0)"/>
      <use xlink:href="#DejaVuSans-61" transform="translate(90.966797 0)"/>
      <use xlink:href="#DejaVuSans-73" transform="translate(152.246094 0)"/>
      <use xlink:href="#DejaVuSans-74" transform="translate(204.345703 0)"/>
      <use xlink:href="#DejaVuSans-69" transform="translate(243.554688 0)"/>
      <use xlink:href="#DejaVuSans-63" transform="translate(271.337891 0)"/>
      <use xlink:href="#DejaVuSans-48" transform="translate(326.318359 0)"/>
      <use xlink:href="#DejaVuSans-61" transform="translate(401.513672 0)"/>
      <use xlink:href="#DejaVuSans-73" transform="translate(462.792969 0)"/>
      <use xlink:href="#DejaVuSans-68" transform="translate(514.892578 0)"/>
      <use xlink:href="#DejaVuSans-4d" transform="translate(578.271484 0)"/>
      <use xlink:href="#DejaVuSans-61" transform="translate(664.550781 0)"/>
      <use xlink:href="#DejaVuSans-70" transform="translate(725.830078 0)"/>
     </g>
    </g>
    <g id="line2d_20">
     <path d="M 58.409375 120.475937 
L 70.409375 120.475937 
L 82.409375 120.475937 
" style="fill: none; stroke: #d62728; stroke-width: 2; stroke-linecap: square"/>
     <g>
      <use xlink:href="#me0c0f75efe" x="70.409375" y="120.475937" style="fill: #d62728; stroke: #d62728; stroke-linejoin: miter"/>
     </g>
    </g>
    <g id="text_20">
     <!-- FunnelHashMap -->
     <g transform="translate(92.009375 124.675937) scale(0.12 -0.12)">
      <defs>
       <path id="DejaVuSans-46" d="M 628 4666 
L 3309 4666 
L 3309 4134 
L 1259 4134 
L 1259 2759 
L 3109 2759 
L 3109 2228 
L 1259 2228 
L 1259 0 
L 628 0 
L 628 4666 
z
" transform="scale(0.015625)"/>
       <path id="DejaVuSans-75" d="M 544 1381 
L 544 3500 
L 1119 3500 
L 1119 1403 
Q 1119 906 1312 657 
Q 1506 409 1894 409 
Q 2359 409 2629 706 
Q 2900 1003 2900 1516 
L 2900 3500 
L 3475 3500 
L 3475 0 
L 2900 0 
L 2900 538 
Q 2691 219 2414 64 
Q 2138 -91 1772 -91 
Q 1169 -91 856 284 
Q 544 659 544 1381 
z
M 1991 3584 
L 1991 3584 
z
" transform="scale(0.015625)"/>
      </defs>
      <use xlink:href="#DejaVuSans-46"/>
      <use xlink:href="#DejaVuSans-75" transform="translate(52.019531 0)"/>
      <use xlink:href="#DejaVuSans-6e" transform="translate(115.398438 0)"/>
      <use xlink:href="#DejaVuSans-6e" transform="translate(178.777344 0)"/>
      <use xlink:href="#DejaVuSans-65" transform="translate(242.15625 0)"/>
      <use xlink:href="#DejaVuSans-6c" transform="translate(303.679688 0)"/>
      <use xlink:href="#DejaVuSans-48" transform="translate(331.462891 0)"/>
      <use xlink:href="#DejaVuSans-61" transform="translate(406.658203 0)"/>
      <use xlink:href="#DejaVuSans-73" transform="translate(467.9375 0)"/>
      <use xlink:href="#DejaVuSans-68" transform="translate(520.037109 0)"/>
      <use xlink:href="#DejaVuSans-4d" transform="translate(583.416016 0)"/>
      <use xlink:href="#DejaVuSans-61" transform="translate(669.695312 0)"/>
      <use xlink:href="#DejaVuSans-70" transform="translate(730.974609 0)"/>
     </g>
    </g>
   </g>
  </g>
 </g>
 <defs>
  <clipPath id="p524750d38d">
   <rect x="47.609375" y="51.916562" width="663.519284" height="338.619833"/>
  </clipPath>
 </defs>
</svg>
