<?xml version="1.0" encoding="utf-8" standalone="no"?>
<!DOCTYPE svg PUBLIC "-//W3C//DTD SVG 1.1//EN"
  "http://www.w3.org/Graphics/SVG/1.1/DTD/svg11.dtd">
<svg xmlns:xlink="http://www.w3.org/1999/xlink" width="728.348278pt" height="440.39952pt" viewBox="0 0 728.348278 440.39952" xmlns="http://www.w3.org/2000/svg" version="1.1">
 <metadata>
  <rdf:RDF xmlns:dc="http://purl.org/dc/elements/1.1/" xmlns:cc="http://creativecommons.org/ns#" xmlns:rdf="http://www.w3.org/1999/02/22-rdf-syntax-ns#">
   <cc:Work>
    <dc:type rdf:resource="http://purl.org/dc/dcmitype/StillImage"/>
    <dc:date>2026-05-11T04:44:10.757332</dc:date>
    <dc:format>image/svg+xml</dc:format>
    <dc:creator>
     <cc:Agent>
      <dc:title>Matplotlib v3.10.8, https://matplotlib.org/</dc:title>
     </cc:Agent>
    </dc:creator>
   </cc:Work>
  </rdf:RDF>
 </metadata>
 <defs>
  <style type="text/css">*{stroke-linejoin: round; stroke-linecap: butt}</style>
 </defs>
 <g id="figure_1">
  <g id="patch_1">
   <path d="M 0 440.39952 
L 728.348278 440.39952 
L 728.348278 0 
L 0 0 
z
" style="fill: #ffffff"/>
  </g>
  <g id="axes_1">
   <g id="patch_2">
    <path d="M 47.609375 390.536395 
L 711.128659 390.536395 
L 711.128659 51.916562 
L 47.609375 51.916562 
z
" style="fill: #ffffff"/>
   </g>
   <g id="matplotlib.axis_1">
    <g id="xtick_1">
     <g id="line2d_1"/>
     <g id="text_1">
      <!-- p0 -->
      <g transform="translate(39.982813 403.15452) scale(0.12 -0.12)">
       <defs>
        <path id="DejaVuSans-70" d="M 1159 525 
L 1159 -1331 
L 581 -1331 
L 581 3500 
L 1159 3500 
L 1159 2969 
Q 1341 3281 1617 3432 
Q 1894 3584 2278 3584 
Q 2916 3584 3314 3078 
Q 3713 2572 3713 1747 
Q 3713 922 3314 415 
Q 2916 -91 2278 -91 
Q 1894 -91 1617 61 
Q 1341 213 1159 525 
z
M 3116 1747 
Q 3116 2381 2855 2742 
Q 2594 3103 2138 3103 
Q 1681 3103 1420 2742 
Q 1159 2381 1159 1747 
Q 1159 1113 1420 752 
Q 1681 391 2138 391 
Q 2594 391 2855 752 
Q 3116 1113 3116 1747 
z
" transform="scale(0.015625)"/>
        <path id="DejaVuSans-30" d="M 2034 4250 
Q 1547 4250 1301 3770 
Q 1056 3291 1056 2328 
Q 1056 1369 1301 889 
Q 1547 409 2034 409 
Q 2525 409 2770 889 
Q 3016 1369 3016 2328 
Q 3016 3291 2770 3770 
Q 2525 4250 2034 4250 
z
M 2034 4750 
Q 2819 4750 3233 4129 
Q 3647 3509 3647 2328 
Q 3647 1150 3233 529 
Q 2819 -91 2034 -91 
Q 1250 -91 836 529 
Q 422 1150 422 2328 
Q 422 3509 836 4129 
Q 1250 4750 2034 4750 
z
" transform="scale(0.015625)"/>
       </defs>
       <use xlink:href="#DejaVuSans-70"/>
       <use xlink:href="#DejaVuSans-30" transform="translate(63.476562 0)"/>
      </g>
     </g>
    </g>
    <g id="xtick_2">
     <g id="line2d_2"/>
     <g id="text_2">
      <!-- p50 -->
      <g transform="translate(75.223079 403.15452) scale(0.12 -0.12)">
       <defs>
        <path id="DejaVuSans-35" d="M 691 4666 
L 3169 4666 
L 3169 4134 
L 1269 4134 
L 1269 2991 
Q 1406 3038 1543 3061 
Q 1681 3084 1819 3084 
Q 2600 3084 3056 2656 
Q 3513 2228 3513 1497 
Q 3513 744 3044 326 
Q 2575 -91 1722 -91 
Q 1428 -91 1123 -41 
Q 819 9 494 109 
L 494 744 
Q 775 591 1075 516 
Q 1375 441 1709 441 
Q 2250 441 2565 725 
Q 2881 1009 2881 1497 
Q 2881 1984 2565 2268 
Q 2250 2553 1709 2553 
Q 1456 2553 1204 2497 
Q 953 2441 691 2322 
L 691 4666 
z
" transform="scale(0.015625)"/>
       </defs>
       <use xlink:href="#DejaVuSans-70"/>
       <use xlink:href="#DejaVuSans-35" transform="translate(63.476562 0)"/>
       <use xlink:href="#DejaVuSans-30" transform="translate(127.099609 0)"/>
      </g>
     </g>
    </g>
    <g id="xtick_3">
     <g id="line2d_3"/>
     <g id="text_3">
      <!-- p90 -->
      <g transform="translate(165.912406 403.15452) scale(0.12 -0.12)">
       <defs>
        <path id="DejaVuSans-39" d="M 703 97 
L 703 672 
Q 941 559 1184 500 
Q 1428 441 1663 441 
Q 2288 441 2617 861 
Q 2947 1281 2994 2138 
Q 2813 1869 2534 1725 
Q 2256 1581 1919 1581 
Q 1219 1581 811 2004 
Q 403 2428 403 3163 
Q 403 3881 828 4315 
Q 1253 4750 1959 4750 
Q 2769 4750 3195 4129 
Q 3622 3509 3622 2328 
Q 3622 1225 3098 567 
Q 2575 -91 1691 -91 
Q 1453 -91 1209 -44 
Q 966 3 703 97 
z
M 1959 2075 
Q 2384 2075 2632 2365 
Q 2881 2656 2881 3163 
Q 2881 3666 2632 3958 
Q 2384 4250 1959 4250 
Q 1534 4250 1286 3958 
Q 1038 3666 1038 3163 
Q 1038 2656 1286 2365 
Q 1534 2075 1959 2075 
z
" transform="scale(0.015625)"/>
       </defs>
       <use xlink:href="#DejaVuSans-70"/>
       <use xlink:href="#DejaVuSans-39" transform="translate(63.476562 0)"/>
       <use xlink:href="#DejaVuSans-30" transform="translate(127.099609 0)"/>
      </g>
     </g>
    </g>
    <g id="xtick_4">
     <g id="line2d_4"/>
     <g id="text_4">
      <!-- p99 -->
      <g transform="translate(295.659499 403.15452) scale(0.12 -0.12)">
       <use xlink:href="#DejaVuSans-70"/>
       <use xlink:href="#DejaVuSans-39" transform="translate(63.476562 0)"/>
       <use xlink:href="#DejaVuSans-39" transform="translate(127.099609 0)"/>
      </g>
     </g>
    </g>
    <g id="xtick_5">
     <g id="line2d_5"/>
     <g id="text_5">
      <!-- p99.9 -->
      <g transform="translate(419.682217 403.15452) scale(0.12 -0.12)">
       <defs>
        <path id="DejaVuSans-2e" d="M 684 794 
L 1344 794 
L 1344 0 
L 684 0 
L 684 794 
z
" transform="scale(0.015625)"/>
       </defs>
       <use xlink:href="#DejaVuSans-70"/>
       <use xlink:href="#DejaVuSans-39" transform="translate(63.476562 0)"/>
       <use xlink:href="#DejaVuSans-39" transform="translate(127.099609 0)"/>
       <use xlink:href="#DejaVuSans-2e" transform="translate(190.722656 0)"/>
       <use xlink:href="#DejaVuSans-39" transform="translate(222.509766 0)"/>
      </g>
     </g>
    </g>
    <g id="xtick_6">
     <g id="line2d_6"/>
     <g id="text_6">
      <!-- p99.99 -->
      <g transform="translate(545.61181 403.15452) scale(0.12 -0.12)">
       <use xlink:href="#DejaVuSans-70"/>
       <use xlink:href="#DejaVuSans-39" transform="translate(63.476562 0)"/>
       <use xlink:href="#DejaVuSans-39" transform="translate(127.099609 0)"/>
       <use xlink:href="#DejaVuSans-2e" transform="translate(190.722656 0)"/>
       <use xlink:href="#DejaVuSans-39" transform="translate(222.509766 0)"/>
       <use xlink:href="#DejaVuSans-39" transform="translate(286.132812 0)"/>
      </g>
     </g>
    </g>
    <g id="xtick_7">
     <g id="line2d_7"/>
     <g id="text_7">
      <!-- p99.999 -->
      <g transform="translate(671.541403 403.15452) scale(0.12 -0.12)">
       <use xlink:href="#DejaVuSans-70"/>
       <use xlink:href="#DejaVuSans-39" transform="translate(63.476562 0)"/>
       <use xlink:href="#DejaVuSans-39" transform="translate(127.099609 0)"/>
       <use xlink:href="#DejaVuSans-2e" transform="translate(190.722656 0)"/>
       <use xlink:href="#DejaVuSans-39" transform="translate(222.509766 0)"/>
       <use xlink:href="#DejaVuSans-39" transform="translate(286.132812 0)"/>
       <use xlink:href="#DejaVuSans-39" transform="translate(349.755859 0)"/>
      </g>
     </g>
    </g>
    <g id="text_8">
     <!-- Percentile -->
     <g transform="translate(344.841517 430.287957) scale(0.14 -0.14)">
      <defs>
       <path id="DejaVuSans-50" d="M 1259 4147 
L 1259 2394 
L 2053 2394 
Q 2494 2394 2734 2622 
Q 2975 2850 2975 3272 
Q 2975 3691 2734 3919 
Q 2494 4147 2053 4147 
L 1259 4147 
z
M 628 4666 
L 2053 4666 
Q 2838 4666 3239 4311 
Q 3641 3956 3641 3272 
Q 3641 2581 3239 2228 
Q 2838 1875 2053 1875 
L 1259 1875 
L 1259 0 
L 628 0 
L 628 4666 
z
" transform="scale(0.015625)"/>
       <path id="DejaVuSans-65" d="M 3597 1894 
L 3597 1613 
L 953 1613 
Q 991 1019 1311 708 
Q 1631 397 2203 397 
Q 2534 397 2845 478 
Q 3156 559 3463 722 
L 3463 178 
Q 3153 47 2828 -22 
Q 2503 -91 2169 -91 
Q 1331 -91 842 396 
Q 353 884 353 1716 
Q 353 2575 817 3079 
Q 1281 3584 2069 3584 
Q 2775 3584 3186 3129 
Q 3597 2675 3597 1894 
z
M 3022 2063 
Q 3016 2534 2758 2815 
Q 2500 3097 2075 3097 
Q 1594 3097 1305 2825 
Q 1016 2553 972 2059 
L 3022 2063 
z
" transform="scale(0.015625)"/>
       <path id="DejaVuSans-72" d="M 2631 2963 
Q 2534 3019 2420 3045 
Q 2306 3072 2169 3072 
Q 1681 3072 1420 2755 
Q 1159 2438 1159 1844 
L 1159 0 
L 581 0 
L 581 3500 
L 1159 3500 
L 1159 2956 
Q 1341 3275 1631 3429 
Q 1922 3584 2338 3584 
Q 2397 3584 2469 3576 
Q 2541 3569 2628 3553 
L 2631 2963 
z
" transform="scale(0.015625)"/>
       <path id="DejaVuSans-63" d="M 3122 3366 
L 3122 2828 
Q 2878 2963 2633 3030 
Q 2388 3097 2138 3097 
Q 1578 3097 1268 2742 
Q 959 2388 959 1747 
Q 959 1106 1268 751 
Q 1578 397 2138 397 
Q 2388 397 2633 464 
Q 2878 531 3122 666 
L 3122 134 
Q 2881 22 2623 -34 
Q 2366 -91 2075 -91 
Q 1284 -91 818 406 
Q 353 903 353 1747 
Q 353 2603 823 3093 
Q 1294 3584 2113 3584 
Q 2378 3584 2631 3529 
Q 2884 3475 3122 3366 
z
" transform="scale(0.015625)"/>
       <path id="DejaVuSans-6e" d="M 3513 2113 
L 3513 0 
L 2938 0 
L 2938 2094 
Q 2938 2591 2744 2837 
Q 2550 3084 2163 3084 
Q 1697 3084 1428 2787 
Q 1159 2491 1159 1978 
L 1159 0 
L 581 0 
L 581 3500 
L 1159 3500 
L 1159 2956 
Q 1366 3272 1645 3428 
Q 1925 3584 2291 3584 
Q 2894 3584 3203 3211 
Q 3513 2838 3513 2113 
z
" transform="scale(0.015625)"/>
       <path id="DejaVuSans-74" d="M 1172 4494 
L 1172 3500 
L 2356 3500 
L 2356 3053 
L 1172 3053 
L 1172 1153 
Q 1172 725 1289 603 
Q 1406 481 1766 481 
L 2356 481 
L 2356 0 
L 1766 0 
Q 1100 0 847 248 
Q 594 497 594 1153 
L 594 3053 
L 172 3053 
L 172 3500 
L 594 3500 
L 594 4494 
L 1172 4494 
z
" transform="scale(0.015625)"/>
       <path id="DejaVuSans-69" d="M 603 3500 
L 1178 3500 
L 1178 0 
L 603 0 
L 603 3500 
z
M 603 4863 
L 1178 4863 
L 1178 4134 
L 603 4134 
L 603 4863 
z
" transform="scale(0.015625)"/>
       <path id="DejaVuSans-6c" d="M 603 4863 
L 1178 4863 
L 1178 0 
L 603 0 
L 603 4863 
z
" transform="scale(0.015625)"/>
      </defs>
      <use xlink:href="#DejaVuSans-50"/>
      <use xlink:href="#DejaVuSans-65" transform="translate(56.677734 0)"/>
      <use xlink:href="#DejaVuSans-72" transform="translate(118.201172 0)"/>
      <use xlink:href="#DejaVuSans-63" transform="translate(157.064453 0)"/>
      <use xlink:href="#DejaVuSans-65" transform="translate(212.044922 0)"/>
      <use xlink:href="#DejaVuSans-6e" transform="translate(273.568359 0)"/>
      <use xlink:href="#DejaVuSans-74" transform="translate(336.947266 0)"/>
      <use xlink:href="#DejaVuSans-69" transform="translate(376.15625 0)"/>
      <use xlink:href="#DejaVuSans-6c" transform="translate(403.939453 0)"/>
      <use xlink:href="#DejaVuSans-65" transform="translate(431.722656 0)"/>
     </g>
    </g>
   </g>
   <g id="matplotlib.axis_2">
    <g id="ytick_1">
     <g id="line2d_8"/>
     <g id="text_9">
      <!-- $\mathdefault{10^{0}}$ -->
      <g transform="translate(24.749375 379.323725) scale(0.11 -0.11)">
       <defs>
        <path id="DejaVuSans-31" d="M 794 531 
L 1825 531 
L 1825 4091 
L 703 3866 
L 703 4441 
L 1819 4666 
L 2450 4666 
L 2450 531 
L 3481 531 
L 3481 0 
L 794 0 
L 794 531 
z
" transform="scale(0.015625)"/>
       </defs>
       <use xlink:href="#DejaVuSans-31" transform="translate(0 0.765625)"/>
       <use xlink:href="#DejaVuSans-30" transform="translate(63.623047 0.765625)"/>
       <use xlink:href="#DejaVuSans-30" transform="translate(128.203125 39.046875) scale(0.7)"/>
      </g>
     </g>
    </g>
    <g id="ytick_2">
     <g id="line2d_9"/>
     <g id="text_10">
      <!-- $\mathdefault{10^{1}}$ -->
      <g transform="translate(24.749375 307.60882) scale(0.11 -0.11)">
       <use xlink:href="#DejaVuSans-31" transform="translate(0 0.684375)"/>
       <use xlink:href="#DejaVuSans-30" transform="translate(63.623047 0.684375)"/>
       <use xlink:href="#DejaVuSans-31" transform="translate(128.203125 38.965625) scale(0.7)"/>
      </g>
     </g>
    </g>
    <g id="ytick_3">
     <g id="line2d_10"/>
     <g id="text_11">
      <!-- $\mathdefault{10^{2}}$ -->
      <g transform="translate(24.749375 235.893915) scale(0.11 -0.11)">
       <defs>
        <path id="DejaVuSans-32" d="M 1228 531 
L 3431 531 
L 3431 0 
L 469 0 
L 469 531 
Q 828 903 1448 1529 
Q 2069 2156 2228 2338 
Q 2531 2678 2651 2914 
Q 2772 3150 2772 3378 
Q 2772 3750 2511 3984 
Q 2250 4219 1831 4219 
Q 1534 4219 1204 4116 
Q 875 4013 500 3803 
L 500 4441 
Q 881 4594 1212 4672 
Q 1544 4750 1819 4750 
Q 2544 4750 2975 4387 
Q 3406 4025 3406 3419 
Q 3406 3131 3298 2873 
Q 3191 2616 2906 2266 
Q 2828 2175 2409 1742 
Q 1991 1309 1228 531 
z
" transform="scale(0.015625)"/>
       </defs>
       <use xlink:href="#DejaVuSans-31" transform="translate(0 0.765625)"/>
       <use xlink:href="#DejaVuSans-30" transform="translate(63.623047 0.765625)"/>
       <use xlink:href="#DejaVuSans-32" transform="translate(128.203125 39.046875) scale(0.7)"/>
      </g>
     </g>
    </g>
    <g id="ytick_4">
     <g id="line2d_11"/>
     <g id="text_12">
      <!-- $\mathdefault{10^{3}}$ -->
      <g transform="translate(24.749375 164.17901) scale(0.11 -0.11)">
       <defs>
        <path id="DejaVuSans-33" d="M 2597 2516 
Q 3050 2419 3304 2112 
Q 3559 1806 3559 1356 
Q 3559 666 3084 287 
Q 2609 -91 1734 -91 
Q 1441 -91 1130 -33 
Q 819 25 488 141 
L 488 750 
Q 750 597 1062 519 
Q 1375 441 1716 441 
Q 2309 441 2620 675 
Q 2931 909 2931 1356 
Q 2931 1769 2642 2001 
Q 2353 2234 1838 2234 
L 1294 2234 
L 1294 2753 
L 1863 2753 
Q 2328 2753 2575 2939 
Q 2822 3125 2822 3475 
Q 2822 3834 2567 4026 
Q 2313 4219 1838 4219 
Q 1578 4219 1281 4162 
Q 984 4106 628 3988 
L 628 4550 
Q 988 4650 1302 4700 
Q 1616 4750 1894 4750 
Q 2613 4750 3031 4423 
Q 3450 4097 3450 3541 
Q 3450 3153 3228 2886 
Q 3006 2619 2597 2516 
z
" transform="scale(0.015625)"/>
       </defs>
       <use xlink:href="#DejaVuSans-31" transform="translate(0 0.765625)"/>
       <use xlink:href="#DejaVuSans-30" transform="translate(63.623047 0.765625)"/>
       <use xlink:href="#DejaVuSans-33" transform="translate(128.203125 39.046875) scale(0.7)"/>
      </g>
     </g>
    </g>
    <g id="ytick_5">
     <g id="line2d_12"/>
     <g id="text_13">
      <!-- $\mathdefault{10^{4}}$ -->
      <g transform="translate(24.749375 92.464105) scale(0.11 -0.11)">
       <defs>
        <path id="DejaVuSans-34" d="M 2419 4116 
L 825 1625 
L 2419 1625 
L 2419 4116 
z
M 2253 4666 
L 3047 4666 
L 3047 1625 
L 3713 1625 
L 3713 1100 
L 3047 1100 
L 3047 0 
L 2419 0 
L 2419 1100 
L 313 1100 
L 313 1709 
L 2253 4666 
z
" transform="scale(0.015625)"/>
       </defs>
       <use xlink:href="#DejaVuSans-31" transform="translate(0 0.684375)"/>
       <use xlink:href="#DejaVuSans-30" transform="translate(63.623047 0.684375)"/>
       <use xlink:href="#DejaVuSans-34" transform="translate(128.203125 38.965625) scale(0.7)"/>
      </g>
     </g>
    </g>
    <g id="text_14">
     <!-- Latency (ns, log scale) -->
     <g transform="translate(17.837813 300.048666) rotate(-90) scale(0.14 -0.14)">
      <defs>
       <path id="DejaVuSans-4c" d="M 628 4666 
L 1259 4666 
L 1259 531 
L 3531 531 
L 3531 0 
L 628 0 
L 628 4666 
z
" transform="scale(0.015625)"/>
       <path id="DejaVuSans-61" d="M 2194 1759 
Q 1497 1759 1228 1600 
Q 959 1441 959 1056 
Q 959 750 1161 570 
Q 1363 391 1709 391 
Q 2188 391 2477 730 
Q 2766 1069 2766 1631 
L 2766 1759 
L 2194 1759 
z
M 3341 1997 
L 3341 0 
L 2766 0 
L 2766 531 
Q 2569 213 2275 61 
Q 1981 -91 1556 -91 
Q 1019 -91 701 211 
Q 384 513 384 1019 
Q 384 1609 779 1909 
Q 1175 2209 1959 2209 
L 2766 2209 
L 2766 2266 
Q 2766 2663 2505 2880 
Q 2244 3097 1772 3097 
Q 1472 3097 1187 3025 
Q 903 2953 641 2809 
L 641 3341 
Q 956 3463 1253 3523 
Q 1550 3584 1831 3584 
Q 2591 3584 2966 3190 
Q 3341 2797 3341 1997 
z
" transform="scale(0.015625)"/>
       <path id="DejaVuSans-79" d="M 2059 -325 
Q 1816 -950 1584 -1140 
Q 1353 -1331 966 -1331 
L 506 -1331 
L 506 -850 
L 844 -850 
Q 1081 -850 1212 -737 
Q 1344 -625 1503 -206 
L 1606 56 
L 191 3500 
L 800 3500 
L 1894 763 
L 2988 3500 
L 3597 3500 
L 2059 -325 
z
" transform="scale(0.015625)"/>
       <path id="DejaVuSans-20" transform="scale(0.015625)"/>
       <path id="DejaVuSans-28" d="M 1984 4856 
Q 1566 4138 1362 3434 
Q 1159 2731 1159 2009 
Q 1159 1288 1364 580 
Q 1569 -128 1984 -844 
L 1484 -844 
Q 1016 -109 783 600 
Q 550 1309 550 2009 
Q 550 2706 781 3412 
Q 1013 4119 1484 4856 
L 1984 4856 
z
" transform="scale(0.015625)"/>
       <path id="DejaVuSans-73" d="M 2834 3397 
L 2834 2853 
Q 2591 2978 2328 3040 
Q 2066 3103 1784 3103 
Q 1356 3103 1142 2972 
Q 928 2841 928 2578 
Q 928 2378 1081 2264 
Q 1234 2150 1697 2047 
L 1894 2003 
Q 2506 1872 2764 1633 
Q 3022 1394 3022 966 
Q 3022 478 2636 193 
Q 2250 -91 1575 -91 
Q 1294 -91 989 -36 
Q 684 19 347 128 
L 347 722 
Q 666 556 975 473 
Q 1284 391 1588 391 
Q 1994 391 2212 530 
Q 2431 669 2431 922 
Q 2431 1156 2273 1281 
Q 2116 1406 1581 1522 
L 1381 1569 
Q 847 1681 609 1914 
Q 372 2147 372 2553 
Q 372 3047 722 3315 
Q 1072 3584 1716 3584 
Q 2034 3584 2315 3537 
Q 2597 3491 2834 3397 
z
" transform="scale(0.015625)"/>
       <path id="DejaVuSans-2c" d="M 750 794 
L 1409 794 
L 1409 256 
L 897 -744 
L 494 -744 
L 750 256 
L 750 794 
z
" transform="scale(0.015625)"/>
       <path id="DejaVuSans-6f" d="M 1959 3097 
Q 1497 3097 1228 2736 
Q 959 2375 959 1747 
Q 959 1119 1226 758 
Q 1494 397 1959 397 
Q 2419 397 2687 759 
Q 2956 1122 2956 1747 
Q 2956 2369 2687 2733 
Q 2419 3097 1959 3097 
z
M 1959 3584 
Q 2709 3584 3137 3096 
Q 3566 2609 3566 1747 
Q 3566 888 3137 398 
Q 2709 -91 1959 -91 
Q 1206 -91 779 398 
Q 353 888 353 1747 
Q 353 2609 779 3096 
Q 1206 3584 1959 3584 
z
" transform="scale(0.015625)"/>
       <path id="DejaVuSans-67" d="M 2906 1791 
Q 2906 2416 2648 2759 
Q 2391 3103 1925 3103 
Q 1463 3103 1205 2759 
Q 947 2416 947 1791 
Q 947 1169 1205 825 
Q 1463 481 1925 481 
Q 2391 481 2648 825 
Q 2906 1169 2906 1791 
z
M 3481 434 
Q 3481 -459 3084 -895 
Q 2688 -1331 1869 -1331 
Q 1566 -1331 1297 -1286 
Q 1028 -1241 775 -1147 
L 775 -588 
Q 1028 -725 1275 -790 
Q 1522 -856 1778 -856 
Q 2344 -856 2625 -561 
Q 2906 -266 2906 331 
L 2906 616 
Q 2728 306 2450 153 
Q 2172 0 1784 0 
Q 1141 0 747 490 
Q 353 981 353 1791 
Q 353 2603 747 3093 
Q 1141 3584 1784 3584 
Q 2172 3584 2450 3431 
Q 2728 3278 2906 2969 
L 2906 3500 
L 3481 3500 
L 3481 434 
z
" transform="scale(0.015625)"/>
       <path id="DejaVuSans-29" d="M 513 4856 
L 1013 4856 
Q 1481 4119 1714 3412 
Q 1947 2706 1947 2009 
Q 1947 1309 1714 600 
Q 1481 -109 1013 -844 
L 513 -844 
Q 928 -128 1133 580 
Q 1338 1288 1338 2009 
Q 1338 2731 1133 3434 
Q 928 4138 513 4856 
z
" transform="scale(0.015625)"/>
      </defs>
      <use xlink:href="#DejaVuSans-4c"/>
      <use xlink:href="#DejaVuSans-61" transform="translate(55.712891 0)"/>
      <use xlink:href="#DejaVuSans-74" transform="translate(116.992188 0)"/>
      <use xlink:href="#DejaVuSans-65" transform="translate(156.201172 0)"/>
      <use xlink:href="#DejaVuSans-6e" transform="translate(217.724609 0)"/>
      <use xlink:href="#DejaVuSans-63" transform="translate(281.103516 0)"/>
      <use xlink:href="#DejaVuSans-79" transform="translate(336.083984 0)"/>
      <use xlink:href="#DejaVuSans-20" transform="translate(395.263672 0)"/>
      <use xlink:href="#DejaVuSans-28" transform="translate(427.050781 0)"/>
      <use xlink:href="#DejaVuSans-6e" transform="translate(466.064453 0)"/>
      <use xlink:href="#DejaVuSans-73" transform="translate(529.443359 0)"/>
      <use xlink:href="#DejaVuSans-2c" transform="translate(581.542969 0)"/>
      <use xlink:href="#DejaVuSans-20" transform="translate(613.330078 0)"/>
      <use xlink:href="#DejaVuSans-6c" transform="translate(645.117188 0)"/>
      <use xlink:href="#DejaVuSans-6f" transform="translate(672.900391 0)"/>
      <use xlink:href="#DejaVuSans-67" transform="translate(734.082031 0)"/>
      <use xlink:href="#DejaVuSans-20" transform="translate(797.558594 0)"/>
      <use xlink:href="#DejaVuSans-73" transform="translate(829.345703 0)"/>
      <use xlink:href="#DejaVuSans-63" transform="translate(881.445312 0)"/>
      <use xlink:href="#DejaVuSans-61" transform="translate(936.425781 0)"/>
      <use xlink:href="#DejaVuSans-6c" transform="translate(997.705078 0)"/>
      <use xlink:href="#DejaVuSans-65" transform="translate(1025.488281 0)"/>
      <use xlink:href="#DejaVuSans-29" transform="translate(1087.011719 0)"/>
     </g>
    </g>
   </g>
   <g id="line2d_13">
    <path d="M 47.609431 375.144584 
L 47.750084 375.144584 
L 47.750254 300.461207 
L 47.960788 297.751204 
L 48.203367 218.065155 
L 48.381661 217.864862 
L 48.382861 215.00548 
L 49.025194 214.823874 
L 49.027447 212.219679 
L 50.436254 212.05357 
L 50.439394 209.662725 
L 51.762475 209.509676 
L 51.765508 207.299857 
L 53.204801 207.157964 
L 53.209966 205.103678 
L 55.488744 204.971425 
L 55.497299 203.052211 
L 58.539579 202.928373 
L 58.549978 201.12756 
L 63.140898 201.011128 
L 63.163766 199.314953 
L 73.16063 199.205093 
L 73.195136 197.60206 
L 85.960805 197.498069 
L 85.99554 195.97848 
L 98.671097 195.879763 
L 98.696344 194.435359 
L 107.429626 194.341406 
L 107.445593 192.965097 
L 112.533283 192.87547 
L 112.54452 191.561124 
L 115.796492 191.475442 
L 115.811235 190.217718 
L 119.647941 190.135649 
L 119.667168 188.92987 
L 124.959506 188.851121 
L 124.990644 187.693166 
L 132.988118 187.617479 
L 133.033006 186.503699 
L 147.913109 186.430844 
L 147.992361 185.357992 
L 171.469627 185.287766 
L 171.575304 184.25294 
L 206.013831 184.185159 
L 206.147987 183.185756 
L 249.261236 183.120256 
L 249.41082 182.153931 
L 293.070026 182.090563 
L 293.149149 181.155195 
L 325.770771 181.093825 
L 325.79432 180.187494 
L 345.891277 180.127999 
L 345.958612 179.248955 
L 361.937455 179.191225 
L 362.01206 178.337874 
L 378.652145 178.281806 
L 378.692279 177.452688 
L 398.701528 177.39819 
L 398.730167 176.591966 
L 421.420158 176.538952 
L 421.463025 175.754392 
L 440.517135 175.702784 
L 440.758198 174.938755 
L 456.069917 174.888479 
L 456.149226 174.143933 
L 469.021422 174.094924 
L 469.121242 173.368891 
L 476.021005 173.321085 
L 476.134041 172.612668 
L 481.346435 172.566009 
L 484.801338 171.828805 
L 489.476816 170.404768 
L 489.908607 169.716444 
L 491.076493 168.383818 
L 491.818907 167.738295 
L 492.269097 167.105879 
L 492.571234 165.282214 
L 493.027499 163.559449 
L 493.180412 160.884382 
L 493.333741 131.749503 
L 493.487489 129.989547 
L 493.641657 129.611593 
L 493.951265 128.323744 
L 494.106709 127.965361 
L 494.732809 127.611055 
L 495.845509 127.087041 
L 496.006275 126.571697 
L 496.980624 126.401793 
L 497.144666 126.232811 
L 499.321845 125.731298 
L 500.704699 125.401387 
L 501.943176 125.074934 
L 502.122345 124.933179 
L 502.4824 124.912981 
L 502.84477 124.751867 
L 506.602726 123.958563 
L 508.379181 123.646815 
L 509.187058 123.492103 
L 509.595382 123.184965 
L 510.421015 123.032525 
L 511.048277 122.729865 
L 513.191062 122.430117 
L 513.409891 122.29988 
L 514.741018 122.133227 
L 515.418563 121.985837 
L 517.031921 121.839141 
L 517.266218 121.693132 
L 520.156516 121.403153 
L 521.405978 121.115848 
L 525.601288 120.54907 
L 525.874162 120.42645 
L 527.822204 120.269502 
L 528.966374 119.992421 
L 534.423711 119.310316 
L 534.742967 119.175669 
L 536.697444 118.791772 
L 538.039137 118.775187 
L 540.822342 118.37979 
L 541.540167 118.118953 
L 546.443123 117.731748 
L 548.041767 117.349298 
L 548.448617 117.11263 
L 549.271237 116.971487 
L 549.687094 116.722136 
L 555.856361 116.214068 
L 557.750604 116.092138 
L 558.722154 115.729187 
L 561.741543 115.25174 
L 562.260887 115.133513 
L 563.848272 114.898397 
L 564.931929 114.694116 
L 568.897778 114.549017 
L 569.487819 114.203514 
L 570.084105 114.089192 
L 579.171314 113.300481 
L 582.061612 113.078756 
L 582.80796 112.968482 
L 584.330983 112.858597 
L 587.506384 112.749099 
L 588.329004 112.531251 
L 590.011172 112.207309 
L 595.381752 111.780561 
L 596.328807 111.674782 
L 598.27205 111.047541 
L 601.318654 110.63629 
L 603.445262 110.129747 
L 604.539441 109.829729 
L 607.955545 109.532573 
L 612.858501 109.238226 
L 615.479831 108.466634 
L 618.229081 108.276687 
L 619.6557 107.713697 
L 624.165983 107.160703 
L 634.439519 106.527714 
L 636.349819 106.349198 
L 640.37642 105.558301 
L 644.713056 105.29907 
L 647.013312 104.871755 
L 649.41148 104.808161 
L 654.537598 104.786992 
L 657.286848 104.450224 
L 663.223749 104.200017 
L 666.444537 103.951805 
L 669.860641 103.461235 
L 677.384927 103.13843 
L 690.974034 101.649202 
L 702.281516 97.566346 
L 708.918407 96.64039 
L 716.442694 95.804545 
L 725.128845 89.598586 
L 729.348278 88.912805 
L 729.348278 88.912805 
" clip-path="url(#p8ea24caf5e)" style="fill: none; stroke: #1f77b4; stroke-width: 2; stroke-linecap: square"/>
    <defs>
     <path id="mf7b03e0951" d="M 0 2 
C 0.530406 2 1.03916 1.789267 1.414214 1.414214 
C 1.789267 1.03916 2 0.530406 2 0 
C 2 -0.530406 1.789267 -1.03916 1.414214 -1.414214 
C 1.03916 -1.789267 0.530406 -2 0 -2 
C -0.530406 -2 -1.03916 -1.789267 -1.414214 -1.414214 
C -1.789267 -1.03916 -2 -0.530406 -2 0 
C -2 0.530406 -1.789267 1.03916 -1.414214 1.414214 
C -1.03916 1.789267 -0.530406 2 0 2 
z
" style="stroke: #1f77b4"/>
    </defs>
    <g clip-path="url(#p8ea24caf5e)">
     <use xlink:href="#mf7b03e0951" x="47.609431" y="375.144584" style="fill: #1f77b4; stroke: #1f77b4"/>
     <use xlink:href="#mf7b03e0951" x="48.079134" y="225.267238" style="fill: #1f77b4; stroke: #1f77b4"/>
     <use xlink:href="#mf7b03e0951" x="53.204801" y="207.157964" style="fill: #1f77b4; stroke: #1f77b4"/>
     <use xlink:href="#mf7b03e0951" x="98.696344" y="194.435359" style="fill: #1f77b4; stroke: #1f77b4"/>
     <use xlink:href="#mf7b03e0951" x="147.913109" y="186.430844" style="fill: #1f77b4; stroke: #1f77b4"/>
     <use xlink:href="#mf7b03e0951" x="345.958612" y="179.248955" style="fill: #1f77b4; stroke: #1f77b4"/>
     <use xlink:href="#mf7b03e0951" x="469.021422" y="174.094924" style="fill: #1f77b4; stroke: #1f77b4"/>
     <use xlink:href="#mf7b03e0951" x="492.419963" y="165.878316" style="fill: #1f77b4; stroke: #1f77b4"/>
     <use xlink:href="#mf7b03e0951" x="494.732809" y="127.611055" style="fill: #1f77b4; stroke: #1f77b4"/>
     <use xlink:href="#mf7b03e0951" x="501.409064" y="125.237732" style="fill: #1f77b4; stroke: #1f77b4"/>
     <use xlink:href="#mf7b03e0951" x="509.595382" y="123.184965" style="fill: #1f77b4; stroke: #1f77b4"/>
     <use xlink:href="#mf7b03e0951" x="520.652981" y="121.259169" style="fill: #1f77b4; stroke: #1f77b4"/>
     <use xlink:href="#mf7b03e0951" x="532.238179" y="119.581368" style="fill: #1f77b4; stroke: #1f77b4"/>
     <use xlink:href="#mf7b03e0951" x="543.750193" y="117.989349" style="fill: #1f77b4; stroke: #1f77b4"/>
     <use xlink:href="#mf7b03e0951" x="557.750604" y="116.092138" style="fill: #1f77b4; stroke: #1f77b4"/>
     <use xlink:href="#mf7b03e0951" x="568.897778" y="114.549017" style="fill: #1f77b4; stroke: #1f77b4"/>
     <use xlink:href="#mf7b03e0951" x="587.506384" y="112.749099" style="fill: #1f77b4; stroke: #1f77b4"/>
     <use xlink:href="#mf7b03e0951" x="601.318654" y="110.63629" style="fill: #1f77b4; stroke: #1f77b4"/>
     <use xlink:href="#mf7b03e0951" x="621.119379" y="107.528273" style="fill: #1f77b4; stroke: #1f77b4"/>
     <use xlink:href="#mf7b03e0951" x="649.41148" y="104.808161" style="fill: #1f77b4; stroke: #1f77b4"/>
     <use xlink:href="#mf7b03e0951" x="708.918407" y="96.64039" style="fill: #1f77b4; stroke: #1f77b4"/>
    </g>
   </g>
   <g id="line2d_14">
    <path d="M 47.609488 375.144584 
L 47.730203 375.144584 
L 48.064079 215.00548 
L 48.235779 214.823874 
L 48.236634 212.219679 
L 48.579724 212.05357 
L 48.580527 209.662725 
L 48.918283 209.509676 
L 48.918572 207.299857 
L 49.263937 207.157964 
L 49.264866 205.103678 
L 49.71692 204.971425 
L 49.718616 203.052211 
L 50.309491 202.928373 
L 50.311855 201.12756 
L 51.245078 201.011128 
L 51.250728 199.314953 
L 53.016436 199.205093 
L 53.022391 197.60206 
L 55.21516 197.498069 
L 55.223416 195.97848 
L 57.704692 195.879763 
L 57.711635 194.435359 
L 60.25795 194.341406 
L 60.268248 192.965097 
L 62.982135 192.87547 
L 62.991759 191.561124 
L 65.909032 191.475442 
L 65.920338 190.217718 
L 69.575823 190.135649 
L 69.593383 188.92987 
L 74.763028 188.851121 
L 74.793966 187.693166 
L 83.522627 187.617479 
L 83.572529 186.503699 
L 98.586038 186.430844 
L 98.671738 185.357992 
L 123.121751 185.287766 
L 123.229895 184.25294 
L 160.211253 184.185159 
L 160.351923 183.185756 
L 207.515046 183.120256 
L 207.657651 182.153931 
L 252.746088 182.090563 
L 252.857869 181.155195 
L 282.769352 181.093825 
L 282.842575 180.187494 
L 300.752613 180.127999 
L 300.818096 179.248955 
L 317.318244 179.191225 
L 317.37907 178.337874 
L 335.840572 178.281806 
L 335.962691 177.452688 
L 358.608197 177.39819 
L 358.692593 176.591966 
L 383.64082 176.538952 
L 383.662741 175.754392 
L 408.461968 175.702784 
L 408.598323 174.938755 
L 428.43858 174.888479 
L 428.487136 174.143933 
L 442.226588 174.094924 
L 442.288612 173.368891 
L 454.046081 173.321085 
L 464.703202 172.566009 
L 464.795653 171.874373 
L 470.948863 171.828805 
L 474.133238 171.108649 
L 478.443671 169.716444 
L 479.51474 169.043004 
L 479.997385 168.383818 
L 480.118695 167.738295 
L 480.729193 166.48605 
L 480.975257 164.697307 
L 481.470631 163.559449 
L 481.595158 160.884382 
L 481.845041 128.869172 
L 482.348155 127.611055 
L 482.601407 127.087041 
L 483.496861 126.571697 
L 485.198569 125.897573 
L 485.464993 125.731298 
L 487.642982 125.237732 
L 487.781942 125.074934 
L 493.027443 123.802299 
L 493.180356 123.666208 
L 493.951209 123.646815 
L 497.474134 122.880827 
L 497.639621 122.729865 
L 498.13902 122.579631 
L 498.306474 122.281319 
L 498.981314 121.985837 
L 499.151294 121.839141 
L 500.355735 121.693132 
L 500.704642 121.403153 
L 502.302028 120.990981 
L 503.026777 120.973184 
L 505.639425 120.54907 
L 507.385299 120.269502 
L 508.379125 120.009667 
L 509.800602 119.992421 
L 512.973023 119.310316 
L 515.418507 118.90811 
L 515.646177 118.775187 
L 520.652925 118.118953 
L 526.423851 117.47626 
L 527.539699 117.222851 
L 530.134203 116.846562 
L 530.72735 116.598205 
L 531.93271 116.244625 
L 533.79052 116.092138 
L 534.106198 115.970684 
L 535.711676 115.729187 
L 537.029828 115.489549 
L 539.762409 115.015733 
L 541.54011 114.781501 
L 541.902481 114.665042 
L 543.003789 114.433423 
L 543.375727 114.318256 
L 546.443066 113.748725 
L 546.838496 113.636058 
L 550.528075 113.189421 
L 550.953348 113.106385 
L 553.129234 112.968482 
L 558.722097 112.422895 
L 560.716941 111.886701 
L 561.226885 111.569361 
L 564.387439 111.151208 
L 568.313795 110.458061 
L 569.487763 110.331376 
L 572.534367 109.730361 
L 573.163965 109.434148 
L 574.444667 109.140725 
L 577.096848 108.850041 
L 579.880053 108.466634 
L 584.330927 108.08789 
L 587.506328 107.343946 
L 592.632446 106.707259 
L 594.450295 106.349198 
L 595.381696 105.907334 
L 599.269337 105.732328 
L 605.655232 105.29907 
L 606.793624 104.702458 
L 607.955488 104.534075 
L 609.141815 104.11706 
L 614.153868 103.787421 
L 615.479775 103.38022 
L 616.837634 103.299415 
L 618.229025 102.189616 
L 622.622037 101.802651 
L 624.165926 101.287761 
L 625.753311 100.374533 
L 629.068882 99.362614 
L 630.802817 99.291576 
L 634.439463 98.9388 
L 636.349762 98.816267 
L 638.327104 98.520677 
L 640.376364 98.468804 
L 642.502973 98.108092 
L 644.712999 97.903831 
L 649.411423 97.298966 
L 651.916211 97.099927 
L 654.537542 96.445502 
L 660.177089 96.059347 
L 663.223693 94.928804 
L 666.444481 94.867184 
L 669.860584 94.606648 
L 673.49723 94.002084 
L 681.56074 93.942268 
L 686.071022 91.917955 
L 696.344559 91.750412 
L 702.28146 91.198358 
L 708.918351 90.281756 
L 716.442638 89.702718 
L 725.128789 87.39157 
L 729.348278 87.292513 
L 729.348278 87.292513 
" clip-path="url(#p8ea24caf5e)" style="fill: none; stroke: #ff7f0e; stroke-width: 2; stroke-linecap: square"/>
    <defs>
     <path id="mcbc4a66deb" d="M -0 2 
L 2 -2 
L -2 -2 
z
" style="stroke: #ff7f0e; stroke-linejoin: miter"/>
    </defs>
    <g clip-path="url(#p8ea24caf5e)">
     <use xlink:href="#mcbc4a66deb" x="47.609488" y="375.144584" style="fill: #ff7f0e; stroke: #ff7f0e; stroke-linejoin: miter"/>
     <use xlink:href="#mcbc4a66deb" x="48.235779" y="214.823874" style="fill: #ff7f0e; stroke: #ff7f0e; stroke-linejoin: miter"/>
     <use xlink:href="#mcbc4a66deb" x="53.022391" y="197.60206" style="fill: #ff7f0e; stroke: #ff7f0e; stroke-linejoin: miter"/>
     <use xlink:href="#mcbc4a66deb" x="83.522627" y="187.617479" style="fill: #ff7f0e; stroke: #ff7f0e; stroke-linejoin: miter"/>
     <use xlink:href="#mcbc4a66deb" x="300.818096" y="179.248955" style="fill: #ff7f0e; stroke: #ff7f0e; stroke-linejoin: miter"/>
     <use xlink:href="#mcbc4a66deb" x="454.046081" y="173.321085" style="fill: #ff7f0e; stroke: #ff7f0e; stroke-linejoin: miter"/>
     <use xlink:href="#mcbc4a66deb" x="481.470631" y="163.559449" style="fill: #ff7f0e; stroke: #ff7f0e; stroke-linejoin: miter"/>
     <use xlink:href="#mcbc4a66deb" x="485.198569" y="125.897573" style="fill: #ff7f0e; stroke: #ff7f0e; stroke-linejoin: miter"/>
     <use xlink:href="#mcbc4a66deb" x="493.951209" y="123.646815" style="fill: #ff7f0e; stroke: #ff7f0e; stroke-linejoin: miter"/>
     <use xlink:href="#mcbc4a66deb" x="501.232089" y="121.259169" style="fill: #ff7f0e; stroke: #ff7f0e; stroke-linejoin: miter"/>
     <use xlink:href="#mcbc4a66deb" x="511.682544" y="119.581368" style="fill: #ff7f0e; stroke: #ff7f0e; stroke-linejoin: miter"/>
     <use xlink:href="#mcbc4a66deb" x="524.790449" y="117.731748" style="fill: #ff7f0e; stroke: #ff7f0e; stroke-linejoin: miter"/>
     <use xlink:href="#mcbc4a66deb" x="534.106198" y="115.970684" style="fill: #ff7f0e; stroke: #ff7f0e; stroke-linejoin: miter"/>
     <use xlink:href="#mcbc4a66deb" x="545.27316" y="114.089192" style="fill: #ff7f0e; stroke: #ff7f0e; stroke-linejoin: miter"/>
     <use xlink:href="#mcbc4a66deb" x="559.214226" y="112.314915" style="fill: #ff7f0e; stroke: #ff7f0e; stroke-linejoin: miter"/>
     <use xlink:href="#mcbc4a66deb" x="568.897721" y="110.432683" style="fill: #ff7f0e; stroke: #ff7f0e; stroke-linejoin: miter"/>
     <use xlink:href="#mcbc4a66deb" x="581.324964" y="108.371516" style="fill: #ff7f0e; stroke: #ff7f0e; stroke-linejoin: miter"/>
     <use xlink:href="#mcbc4a66deb" x="597.291996" y="105.819708" style="fill: #ff7f0e; stroke: #ff7f0e; stroke-linejoin: miter"/>
     <use xlink:href="#mcbc4a66deb" x="621.119322" y="101.956861" style="fill: #ff7f0e; stroke: #ff7f0e; stroke-linejoin: miter"/>
     <use xlink:href="#mcbc4a66deb" x="651.916211" y="97.099927" style="fill: #ff7f0e; stroke: #ff7f0e; stroke-linejoin: miter"/>
     <use xlink:href="#mcbc4a66deb" x="725.128789" y="87.39157" style="fill: #ff7f0e; stroke: #ff7f0e; stroke-linejoin: miter"/>
    </g>
   </g>
   <g id="line2d_15">
    <path d="M 47.609431 375.144584 
L 47.633554 375.144584 
L 47.822212 218.065155 
L 47.93868 217.864862 
L 47.939644 215.00548 
L 48.363558 214.823874 
L 48.364758 212.219679 
L 49.184036 212.05357 
L 49.185137 209.662725 
L 49.632112 209.509676 
L 49.633163 207.299857 
L 50.039166 207.157964 
L 50.040637 205.103678 
L 50.677505 204.971425 
L 50.67935 203.052211 
L 51.36392 202.928373 
L 51.365486 201.12756 
L 52.035146 201.011128 
L 52.038315 199.314953 
L 53.177698 199.205093 
L 53.181617 197.60206 
L 54.600842 197.498069 
L 54.608242 195.97848 
L 56.935115 195.879763 
L 56.945754 194.435359 
L 60.898359 194.341406 
L 60.918836 192.965097 
L 67.795701 192.87547 
L 67.819168 191.561124 
L 74.920919 191.475442 
L 74.939861 190.217718 
L 80.716966 190.135649 
L 80.739888 188.92987 
L 88.024809 188.851121 
L 88.061533 187.693166 
L 98.980192 187.617479 
L 99.019608 186.503699 
L 109.885678 186.430844 
L 109.938453 185.357992 
L 123.593375 185.287766 
L 123.657869 184.25294 
L 141.813914 184.185159 
L 141.869419 183.185756 
L 155.163871 183.120256 
L 155.198085 182.153931 
L 162.508517 182.090563 
L 162.531036 181.155195 
L 168.128471 181.093825 
L 168.152873 180.187494 
L 173.707047 180.127999 
L 173.736103 179.248955 
L 179.86621 179.191225 
L 179.902749 178.337874 
L 186.564111 178.281806 
L 186.599952 177.452688 
L 193.593509 177.39819 
L 193.634114 176.591966 
L 201.010944 176.538952 
L 201.042678 175.754392 
L 208.010729 175.702784 
L 208.03889 174.938755 
L 213.937815 174.888479 
L 213.963705 174.143933 
L 219.557328 174.094924 
L 219.582358 173.368891 
L 225.014726 173.321085 
L 225.048869 172.612668 
L 230.611036 172.566009 
L 230.657452 171.874373 
L 236.447502 171.828805 
L 236.484501 171.153174 
L 242.588467 171.108649 
L 242.638701 170.448298 
L 248.698586 170.404768 
L 248.742574 169.759022 
L 255.089678 169.716444 
L 255.12999 169.08467 
L 261.448537 169.043004 
L 261.496174 168.424611 
L 267.921513 168.383818 
L 267.949632 167.77825 
L 274.248965 167.738295 
L 274.299313 167.145031 
L 280.661413 167.105879 
L 280.700195 166.52443 
L 287.288613 166.48605 
L 287.32827 165.915954 
L 293.808184 165.878316 
L 293.8438 165.319138 
L 300.57652 165.282214 
L 300.596597 164.733543 
L 307.515963 164.697307 
L 307.572754 164.158756 
L 314.678939 164.123182 
L 314.704728 163.594385 
L 321.991835 163.559449 
L 322.021198 163.040059 
L 328.94242 163.005739 
L 329.008879 162.495426 
L 335.802881 162.461701 
L 335.849788 161.960154 
L 343.005241 161.927003 
L 343.026557 161.433926 
L 349.996219 161.40133 
L 350.056569 160.916441 
L 357.178598 160.884382 
L 357.233438 160.407414 
L 364.312712 160.375874 
L 364.328267 159.906573 
L 371.326074 159.875536 
L 371.396575 159.413658 
L 378.371777 159.383109 
L 385.08357 158.898346 
L 385.10606 158.450632 
L 392.115336 158.421013 
L 392.19181 157.980061 
L 398.586889 157.950885 
L 398.672677 157.516493 
L 404.899682 157.487748 
L 404.931652 157.059724 
L 411.110699 157.031397 
L 411.146396 156.609557 
L 417.489457 156.581636 
L 417.609475 156.165804 
L 423.648816 156.138278 
L 423.693413 155.728284 
L 429.764318 155.701142 
L 429.96343 155.296826 
L 435.12993 155.270057 
L 439.859254 154.844858 
L 439.978258 154.451437 
L 444.37449 154.425385 
L 444.438925 154.037195 
L 449.353604 154.011487 
L 459.584948 152.801805 
L 459.669365 152.433216 
L 461.734272 152.408798 
L 464.518586 152.020689 
L 471.467083 150.514878 
L 472.51839 150.149532 
L 472.624608 149.810869 
L 474.023973 149.788422 
L 477.276826 148.729553 
L 479.514571 147.041043 
L 479.876167 146.410589 
L 480.240098 146.390463 
L 480.606394 145.753195 
L 480.851922 144.214839 
L 480.975088 143.91608 
L 481.34621 141.623891 
L 481.594989 128.869172 
L 481.719792 128.144037 
L 482.601238 126.742532 
L 482.983263 126.571697 
L 483.367895 125.731298 
L 484.145128 125.401387 
L 485.464824 124.912981 
L 488.060726 124.432117 
L 488.200723 124.293252 
L 488.764212 124.273464 
L 489.908382 124.115616 
L 490.053051 123.978152 
L 490.782019 123.958563 
L 491.520541 123.666208 
L 492.722687 123.646815 
L 496.491118 123.051539 
L 498.474259 123.032525 
L 501.408838 122.880827 
L 501.586314 122.748695 
L 504.317791 122.729865 
L 504.504685 122.59837 
L 506.6025 122.579631 
L 513.190836 121.839141 
L 516.334593 121.547805 
L 516.566003 121.421198 
L 517.501269 121.403153 
L 519.419699 121.115848 
L 522.942624 120.6898 
L 525.329503 120.286902 
L 527.258489 120.269502 
L 528.10585 120.130653 
L 532.85379 119.8548 
L 535.386731 119.581368 
L 543.00362 119.041602 
L 543.375558 118.90811 
L 546.838326 118.511032 
L 549.686869 118.249098 
L 550.105818 118.118953 
L 553.57451 117.860282 
L 554.023504 117.731748 
L 557.270815 117.47626 
L 560.716772 117.096916 
L 562.784837 116.846562 
L 563.848046 116.722136 
L 567.735688 116.474765 
L 570.083879 115.970684 
L 572.534198 115.729187 
L 573.163796 115.609138 
L 575.754986 115.370417 
L 577.779699 114.898397 
L 579.879884 114.781501 
L 582.061386 114.318256 
L 585.10799 113.975289 
L 586.695375 113.411939 
L 590.871245 113.078756 
L 592.632277 112.749099 
L 596.328582 112.019887 
L 598.271824 111.886701 
L 601.318428 111.151208 
L 602.371701 110.738595 
L 604.539216 110.53432 
L 606.793454 110.029419 
L 607.955319 109.829729 
L 610.353487 109.730361 
L 611.591965 109.140725 
L 612.858275 109.043528 
L 614.153699 108.562044 
L 622.621868 107.900232 
L 627.386545 107.806825 
L 634.439294 106.887845 
L 636.349593 106.260322 
L 644.71283 105.558301 
L 647.013086 104.95675 
L 649.411254 103.542462 
L 651.916042 103.38022 
L 657.286623 102.739572 
L 660.17692 102.581448 
L 663.223524 102.034253 
L 666.444312 101.956861 
L 669.860415 100.669795 
L 673.497061 99.738241 
L 681.560571 99.505176 
L 686.070853 99.079432 
L 690.973809 98.868722 
L 696.34439 96.836504 
L 702.281291 96.187534 
L 708.918182 96.059347 
L 716.442469 95.426209 
L 725.12862 95.363597 
L 729.348278 94.730818 
L 729.348278 94.730818 
" clip-path="url(#p8ea24caf5e)" style="fill: none; stroke: #2ca02c; stroke-width: 2; stroke-linecap: square"/>
    <defs>
     <path id="m8c88b56696" d="M -2 2 
L 2 2 
L 2 -2 
L -2 -2 
z
" style="stroke: #2ca02c; stroke-linejoin: miter"/>
    </defs>
    <g clip-path="url(#p8ea24caf5e)">
     <use xlink:href="#m8c88b56696" x="47.609431" y="375.144584" style="fill: #2ca02c; stroke: #2ca02c; stroke-linejoin: miter"/>
     <use xlink:href="#m8c88b56696" x="48.363558" y="214.823874" style="fill: #2ca02c; stroke: #2ca02c; stroke-linejoin: miter"/>
     <use xlink:href="#m8c88b56696" x="54.608242" y="195.97848" style="fill: #2ca02c; stroke: #2ca02c; stroke-linejoin: miter"/>
     <use xlink:href="#m8c88b56696" x="123.593375" y="185.287766" style="fill: #2ca02c; stroke: #2ca02c; stroke-linejoin: miter"/>
     <use xlink:href="#m8c88b56696" x="193.634114" y="176.591966" style="fill: #2ca02c; stroke: #2ca02c; stroke-linejoin: miter"/>
     <use xlink:href="#m8c88b56696" x="248.698586" y="170.404768" style="fill: #2ca02c; stroke: #2ca02c; stroke-linejoin: miter"/>
     <use xlink:href="#m8c88b56696" x="300.596597" y="164.733543" style="fill: #2ca02c; stroke: #2ca02c; stroke-linejoin: miter"/>
     <use xlink:href="#m8c88b56696" x="364.312712" y="160.375874" style="fill: #2ca02c; stroke: #2ca02c; stroke-linejoin: miter"/>
     <use xlink:href="#m8c88b56696" x="423.648816" y="156.138278" style="fill: #2ca02c; stroke: #2ca02c; stroke-linejoin: miter"/>
     <use xlink:href="#m8c88b56696" x="468.130685" y="151.258684" style="fill: #2ca02c; stroke: #2ca02c; stroke-linejoin: miter"/>
     <use xlink:href="#m8c88b56696" x="480.484031" y="146.070199" style="fill: #2ca02c; stroke: #2ca02c; stroke-linejoin: miter"/>
     <use xlink:href="#m8c88b56696" x="483.239393" y="125.897573" style="fill: #2ca02c; stroke: #2ca02c; stroke-linejoin: miter"/>
     <use xlink:href="#m8c88b56696" x="492.722687" y="123.646815" style="fill: #2ca02c; stroke: #2ca02c; stroke-linejoin: miter"/>
     <use xlink:href="#m8c88b56696" x="513.190836" y="121.839141" style="fill: #2ca02c; stroke: #2ca02c; stroke-linejoin: miter"/>
     <use xlink:href="#m8c88b56696" x="532.85379" y="119.8548" style="fill: #2ca02c; stroke: #2ca02c; stroke-linejoin: miter"/>
     <use xlink:href="#m8c88b56696" x="556.32376" y="117.603742" style="fill: #2ca02c; stroke: #2ca02c; stroke-linejoin: miter"/>
     <use xlink:href="#m8c88b56696" x="575.754986" y="115.370417" style="fill: #2ca02c; stroke: #2ca02c; stroke-linejoin: miter"/>
     <use xlink:href="#m8c88b56696" x="594.450126" y="112.422895" style="fill: #2ca02c; stroke: #2ca02c; stroke-linejoin: miter"/>
     <use xlink:href="#m8c88b56696" x="615.479606" y="108.466634" style="fill: #2ca02c; stroke: #2ca02c; stroke-linejoin: miter"/>
     <use xlink:href="#m8c88b56696" x="663.223524" y="102.034253" style="fill: #2ca02c; stroke: #2ca02c; stroke-linejoin: miter"/>
     <use xlink:href="#m8c88b56696" x="826.091483" y="86.018026" style="fill: #2ca02c; stroke: #2ca02c; stroke-linejoin: miter"/>
    </g>
   </g>
   <g id="line2d_16">
    <path d="M 47.609431 375.144584 
L 47.717047 375.144584 
L 48.132628 225.267238 
L 48.262964 225.015047 
L 48.263591 221.458481 
L 48.532448 221.235216 
L 48.534109 218.065155 
L 49.56159 217.864862 
L 49.567249 215.00548 
L 52.92632 214.823874 
L 52.936848 212.219679 
L 58.490344 212.05357 
L 58.49636 209.662725 
L 61.68062 209.509676 
L 61.689011 207.299857 
L 65.973059 207.157964 
L 65.988673 205.103678 
L 73.894137 204.971425 
L 73.913546 203.052211 
L 82.917581 202.928373 
L 82.939728 201.12756 
L 92.687401 201.011128 
L 92.730933 199.314953 
L 110.066054 199.205093 
L 110.109602 197.60206 
L 127.522864 197.498069 
L 127.553822 195.97848 
L 140.057227 195.879763 
L 140.078451 194.435359 
L 148.9818 194.341406 
L 149.001896 192.965097 
L 156.912962 192.87547 
L 156.938842 191.561124 
L 165.158305 191.475442 
L 165.1978 190.217718 
L 175.648541 190.135649 
L 175.690103 188.92987 
L 186.594203 188.851121 
L 186.646008 187.693166 
L 200.626642 187.617479 
L 200.677761 186.503699 
L 217.627198 186.430844 
L 217.677887 185.357992 
L 232.601913 185.287766 
L 232.662026 184.25294 
L 245.260257 184.185159 
L 245.297877 183.185756 
L 256.571082 183.120256 
L 256.612468 182.153931 
L 268.557844 182.090563 
L 268.597662 181.155195 
L 280.90889 181.093825 
L 280.972644 180.187494 
L 293.246005 180.127999 
L 293.312139 179.248955 
L 306.353281 179.191225 
L 306.386653 178.337874 
L 318.907615 178.281806 
L 318.970182 177.452688 
L 331.342619 177.39819 
L 331.394625 176.591966 
L 343.229686 176.538952 
L 343.272496 175.754392 
L 354.008304 175.702784 
L 354.073109 174.938755 
L 365.238117 174.888479 
L 365.269747 174.143933 
L 377.441584 174.094924 
L 377.520173 173.368891 
L 389.066276 173.321085 
L 389.162887 172.612668 
L 401.219332 172.566009 
L 401.369234 171.874373 
L 411.397139 171.828805 
L 411.433018 171.153174 
L 421.206312 171.108649 
L 430.565246 170.404768 
L 430.615669 169.759022 
L 437.87394 169.716444 
L 437.931351 169.08467 
L 443.925721 169.043004 
L 464.795709 167.105879 
L 470.845812 166.48605 
L 471.155703 165.915954 
L 476.247305 165.878316 
L 476.360796 165.319138 
L 481.098749 165.282214 
L 481.222456 164.733543 
L 484.406831 164.697307 
L 486.679793 164.123182 
L 488.060952 163.559449 
L 488.341293 163.040059 
L 490.489524 163.005739 
L 490.635694 162.495426 
L 491.818907 162.461701 
L 492.875 161.927003 
L 494.732809 161.40133 
L 497.972118 159.875536 
L 499.66439 159.383109 
L 500.182144 158.898346 
L 500.355791 158.421013 
L 500.704699 157.950885 
L 501.586539 157.487748 
L 501.764575 156.581636 
L 502.122345 156.138278 
L 502.302085 154.425385 
L 502.663294 154.011487 
L 503.026833 153.199835 
L 503.209487 152.408798 
L 503.392734 129.989547 
L 503.576579 129.799996 
L 503.761026 128.323744 
L 503.946078 127.965361 
L 504.50491 127.435402 
L 504.880568 127.260734 
L 505.06934 126.935849 
L 505.639481 126.91431 
L 506.408755 126.232811 
L 507.188677 125.897573 
L 507.582723 125.565906 
L 508.580067 125.074934 
L 508.781672 124.77196 
L 509.187058 124.751867 
L 509.595382 124.591581 
L 519.419924 122.729865 
L 520.652981 122.579631 
L 520.902864 122.430117 
L 522.683776 121.985837 
L 523.20312 121.693132 
L 525.329729 121.403153 
L 528.106076 120.973184 
L 531.932767 120.130653 
L 536.038391 119.310316 
L 536.366954 118.90811 
L 537.700707 118.64283 
L 538.039137 118.37979 
L 539.762466 118.118953 
L 541.540167 117.731748 
L 541.902537 117.603742 
L 546.838552 116.722136 
L 547.236776 116.474765 
L 550.528131 115.970684 
L 550.953405 115.609138 
L 551.381912 115.489549 
L 552.248828 115.370417 
L 552.68734 115.015733 
L 556.795523 114.433423 
L 557.27104 114.089192 
L 557.750604 113.890134 
L 559.214283 113.776955 
L 559.710748 113.523797 
L 562.785062 113.300481 
L 564.387496 112.858597 
L 565.481675 112.749099 
L 566.036836 112.422895 
L 567.735913 112.100072 
L 570.084105 111.913293 
L 570.686768 111.674782 
L 575.755211 111.151208 
L 577.096904 110.841237 
L 579.171314 110.331376 
L 583.564326 109.929414 
L 584.330983 109.829729 
L 587.506384 109.140725 
L 588.329004 108.657747 
L 591.745107 108.182145 
L 592.632502 107.713697 
L 593.534097 107.55139 
L 594.450352 107.528273 
L 595.381752 107.18355 
L 596.328807 107.160703 
L 599.269393 106.617357 
L 600.284708 106.527714 
L 601.318654 106.260322 
L 605.655289 105.995207 
L 611.59219 105.645193 
L 612.858501 105.558301 
L 614.153924 105.213137 
L 615.479831 105.12744 
L 618.229081 104.11706 
L 619.6557 103.461235 
L 622.622093 102.898503 
L 624.165983 102.189616 
L 629.068938 101.57276 
L 630.802874 99.433813 
L 632.591863 99.009037 
L 636.349819 97.298966 
L 638.32716 96.967937 
L 640.37642 96.380809 
L 644.713056 96.203595 
L 647.013312 95.551811 
L 654.537598 94.484792 
L 657.286848 94.424043 
L 663.223749 93.882567 
L 666.444537 93.82298 
L 669.860641 93.058547 
L 673.497286 92.94259 
L 677.384927 92.597286 
L 690.974034 92.058265 
L 696.344615 90.655919 
L 702.281516 90.334933 
L 708.918407 88.425435 
L 716.442694 88.225844 
L 725.128845 88.176146 
L 729.348278 88.031251 
L 729.348278 88.031251 
" clip-path="url(#p8ea24caf5e)" style="fill: none; stroke: #d62728; stroke-width: 2; stroke-linecap: square"/>
    <defs>
     <path id="m131ce8e057" d="M -0 2.828427 
L 2.828427 0 
L 0 -2.828427 
L -2.828427 -0 
z
" style="stroke: #d62728; stroke-linejoin: miter"/>
    </defs>
    <g clip-path="url(#p8ea24caf5e)">
     <use xlink:href="#m131ce8e057" x="47.609431" y="375.144584" style="fill: #d62728; stroke: #d62728; stroke-linejoin: miter"/>
     <use xlink:href="#m131ce8e057" x="48.262964" y="225.015047" style="fill: #d62728; stroke: #d62728; stroke-linejoin: miter"/>
     <use xlink:href="#m131ce8e057" x="73.913546" y="203.052211" style="fill: #d62728; stroke: #d62728; stroke-linejoin: miter"/>
     <use xlink:href="#m131ce8e057" x="165.158305" y="191.475442" style="fill: #d62728; stroke: #d62728; stroke-linejoin: miter"/>
     <use xlink:href="#m131ce8e057" x="256.612468" y="182.153931" style="fill: #d62728; stroke: #d62728; stroke-linejoin: miter"/>
     <use xlink:href="#m131ce8e057" x="354.008304" y="175.702784" style="fill: #d62728; stroke: #d62728; stroke-linejoin: miter"/>
     <use xlink:href="#m131ce8e057" x="437.87394" y="169.716444" style="fill: #d62728; stroke: #d62728; stroke-linejoin: miter"/>
     <use xlink:href="#m131ce8e057" x="488.341293" y="163.040059" style="fill: #d62728; stroke: #d62728; stroke-linejoin: miter"/>
     <use xlink:href="#m131ce8e057" x="502.122345" y="156.138278" style="fill: #d62728; stroke: #d62728; stroke-linejoin: miter"/>
     <use xlink:href="#m131ce8e057" x="506.408755" y="126.232811" style="fill: #d62728; stroke: #d62728; stroke-linejoin: miter"/>
     <use xlink:href="#m131ce8e057" x="515.646234" y="123.492103" style="fill: #d62728; stroke: #d62728; stroke-linejoin: miter"/>
     <use xlink:href="#m131ce8e057" x="523.991223" y="121.547805" style="fill: #d62728; stroke: #d62728; stroke-linejoin: miter"/>
     <use xlink:href="#m131ce8e057" x="535.064042" y="119.445547" style="fill: #d62728; stroke: #d62728; stroke-linejoin: miter"/>
     <use xlink:href="#m131ce8e057" x="544.506559" y="117.096916" style="fill: #d62728; stroke: #d62728; stroke-linejoin: miter"/>
     <use xlink:href="#m131ce8e057" x="554.932595" y="114.665042" style="fill: #d62728; stroke: #d62728; stroke-linejoin: miter"/>
     <use xlink:href="#m131ce8e057" x="567.163843" y="112.207309" style="fill: #d62728; stroke: #d62728; stroke-linejoin: miter"/>
     <use xlink:href="#m131ce8e057" x="580.597933" y="110.230398" style="fill: #d62728; stroke: #d62728; stroke-linejoin: miter"/>
     <use xlink:href="#m131ce8e057" x="596.328807" y="107.160703" style="fill: #d62728; stroke: #d62728; stroke-linejoin: miter"/>
     <use xlink:href="#m131ce8e057" x="615.479831" y="105.12744" style="fill: #d62728; stroke: #d62728; stroke-linejoin: miter"/>
     <use xlink:href="#m131ce8e057" x="644.713056" y="96.203595" style="fill: #d62728; stroke: #d62728; stroke-linejoin: miter"/>
     <use xlink:href="#m131ce8e057" x="716.442694" y="88.225844" style="fill: #d62728; stroke: #d62728; stroke-linejoin: miter"/>
    </g>
   </g>
   <g id="patch_3">
    <path d="M 47.609375 390.536395 
L 47.609375 51.916562 
" style="fill: none; stroke: #000000; stroke-width: 0.8; stroke-linejoin: miter; stroke-linecap: square"/>
   </g>
   <g id="patch_4">
    <path d="M 711.128659 390.536395 
L 711.128659 51.916562 
" style="fill: none; stroke: #000000; stroke-width: 0.8; stroke-linejoin: miter; stroke-linecap: square"/>
   </g>
   <g id="patch_5">
    <path d="M 47.609375 390.536395 
L 711.128659 390.536395 
" style="fill: none; stroke: #000000; stroke-width: 0.8; stroke-linejoin: miter; stroke-linecap: square"/>
   </g>
   <g id="patch_6">
    <path d="M 47.609375 51.916562 
L 711.128659 51.916562 
" style="fill: none; stroke: #000000; stroke-width: 0.8; stroke-linejoin: miter; stroke-linecap: square"/>
   </g>
   <g id="text_15">
    <!-- Latency at percentile p (log axes) — lower is better -->
    <g style="fill: #595959" transform="translate(212.570892 42.440572) scale(0.13 -0.13)">
     <defs>
      <path id="DejaVuSans-78" d="M 3513 3500 
L 2247 1797 
L 3578 0 
L 2900 0 
L 1881 1375 
L 863 0 
L 184 0 
L 1544 1831 
L 300 3500 
L 978 3500 
L 1906 2253 
L 2834 3500 
L 3513 3500 
z
" transform="scale(0.015625)"/>
      <path id="DejaVuSans-2014" d="M 313 1978 
L 6088 1978 
L 6088 1528 
L 313 1528 
L 313 1978 
z
" transform="scale(0.015625)"/>
      <path id="DejaVuSans-77" d="M 269 3500 
L 844 3500 
L 1563 769 
L 2278 3500 
L 2956 3500 
L 3675 769 
L 4391 3500 
L 4966 3500 
L 4050 0 
L 3372 0 
L 2619 2869 
L 1863 0 
L 1184 0 
L 269 3500 
z
" transform="scale(0.015625)"/>
      <path id="DejaVuSans-62" d="M 3116 1747 
Q 3116 2381 2855 2742 
Q 2594 3103 2138 3103 
Q 1681 3103 1420 2742 
Q 1159 2381 1159 1747 
Q 1159 1113 1420 752 
Q 1681 391 2138 391 
Q 2594 391 2855 752 
Q 3116 1113 3116 1747 
z
M 1159 2969 
Q 1341 3281 1617 3432 
Q 1894 3584 2278 3584 
Q 2916 3584 3314 3078 
Q 3713 2572 3713 1747 
Q 3713 922 3314 415 
Q 2916 -91 2278 -91 
Q 1894 -91 1617 61 
Q 1341 213 1159 525 
L 1159 0 
L 581 0 
L 581 4863 
L 1159 4863 
L 1159 2969 
z
" transform="scale(0.015625)"/>
     </defs>
     <use xlink:href="#DejaVuSans-4c"/>
     <use xlink:href="#DejaVuSans-61" transform="translate(55.712891 0)"/>
     <use xlink:href="#DejaVuSans-74" transform="translate(116.992188 0)"/>
     <use xlink:href="#DejaVuSans-65" transform="translate(156.201172 0)"/>
     <use xlink:href="#DejaVuSans-6e" transform="translate(217.724609 0)"/>
     <use xlink:href="#DejaVuSans-63" transform="translate(281.103516 0)"/>
     <use xlink:href="#DejaVuSans-79" transform="translate(336.083984 0)"/>
     <use xlink:href="#DejaVuSans-20" transform="translate(395.263672 0)"/>
     <use xlink:href="#DejaVuSans-61" transform="translate(427.050781 0)"/>
     <use xlink:href="#DejaVuSans-74" transform="translate(488.330078 0)"/>
     <use xlink:href="#DejaVuSans-20" transform="translate(527.539062 0)"/>
     <use xlink:href="#DejaVuSans-70" transform="translate(559.326172 0)"/>
     <use xlink:href="#DejaVuSans-65" transform="translate(622.802734 0)"/>
     <use xlink:href="#DejaVuSans-72" transform="translate(684.326172 0)"/>
     <use xlink:href="#DejaVuSans-63" transform="translate(723.189453 0)"/>
     <use xlink:href="#DejaVuSans-65" transform="translate(778.169922 0)"/>
     <use xlink:href="#DejaVuSans-6e" transform="translate(839.693359 0)"/>
     <use xlink:href="#DejaVuSans-74" transform="translate(903.072266 0)"/>
     <use xlink:href="#DejaVuSans-69" transform="translate(942.28125 0)"/>
     <use xlink:href="#DejaVuSans-6c" transform="translate(970.064453 0)"/>
     <use xlink:href="#DejaVuSans-65" transform="translate(997.847656 0)"/>
     <use xlink:href="#DejaVuSans-20" transform="translate(1059.371094 0)"/>
     <use xlink:href="#DejaVuSans-70" transform="translate(1091.158203 0)"/>
     <use xlink:href="#DejaVuSans-20" transform="translate(1154.634766 0)"/>
     <use xlink:href="#DejaVuSans-28" transform="translate(1186.421875 0)"/>
     <use xlink:href="#DejaVuSans-6c" transform="translate(1225.435547 0)"/>
     <use xlink:href="#DejaVuSans-6f" transform="translate(1253.21875 0)"/>
     <use xlink:href="#DejaVuSans-67" transform="translate(1314.400391 0)"/>
     <use xlink:href="#DejaVuSans-20" transform="translate(1377.876953 0)"/>
     <use xlink:href="#DejaVuSans-61" transform="translate(1409.664062 0)"/>
     <use xlink:href="#DejaVuSans-78" transform="translate(1470.943359 0)"/>
     <use xlink:href="#DejaVuSans-65" transform="translate(1526.998047 0)"/>
     <use xlink:href="#DejaVuSans-73" transform="translate(1588.521484 0)"/>
     <use xlink:href="#DejaVuSans-29" transform="translate(1640.621094 0)"/>
     <use xlink:href="#DejaVuSans-20" transform="translate(1679.634766 0)"/>
     <use xlink:href="#DejaVuSans-2014" transform="translate(1711.421875 0)"/>
     <use xlink:href="#DejaVuSans-20" transform="translate(1811.421875 0)"/>
     <use xlink:href="#DejaVuSans-6c" transform="translate(1843.208984 0)"/>
     <use xlink:href="#DejaVuSans-6f" transform="translate(1870.992188 0)"/>
     <use xlink:href="#DejaVuSans-77" transform="translate(1932.173828 0)"/>
     <use xlink:href="#DejaVuSans-65" transform="translate(2013.960938 0)"/>
     <use xlink:href="#DejaVuSans-72" transform="translate(2075.484375 0)"/>
     <use xlink:href="#DejaVuSans-20" transform="translate(2116.597656 0)"/>
     <use xlink:href="#DejaVuSans-69" transform="translate(2148.384766 0)"/>
     <use xlink:href="#DejaVuSans-73" transform="translate(2176.167969 0)"/>
     <use xlink:href="#DejaVuSans-20" transform="translate(2228.267578 0)"/>
     <use xlink:href="#DejaVuSans-62" transform="translate(2260.054688 0)"/>
     <use xlink:href="#DejaVuSans-65" transform="translate(2323.53125 0)"/>
     <use xlink:href="#DejaVuSans-74" transform="translate(2385.054688 0)"/>
     <use xlink:href="#DejaVuSans-74" transform="translate(2424.263672 0)"/>
     <use xlink:href="#DejaVuSans-65" transform="translate(2463.472656 0)"/>
     <use xlink:href="#DejaVuSans-72" transform="translate(2524.996094 0)"/>
    </g>
   </g>
   <g id="text_16">
    <!-- Tail Latency — Get Hit @ 10M entries -->
    <g style="fill: #2b2f36" transform="translate(174.798236 23.916562) scale(0.22 -0.22)">
     <defs>
      <path id="DejaVuSans-54" d="M -19 4666 
L 3928 4666 
L 3928 4134 
L 2272 4134 
L 2272 0 
L 1638 0 
L 1638 4134 
L -19 4134 
L -19 4666 
z
" transform="scale(0.015625)"/>
      <path id="DejaVuSans-47" d="M 3809 666 
L 3809 1919 
L 2778 1919 
L 2778 2438 
L 4434 2438 
L 4434 434 
Q 4069 175 3628 42 
Q 3188 -91 2688 -91 
Q 1594 -91 976 548 
Q 359 1188 359 2328 
Q 359 3472 976 4111 
Q 1594 4750 2688 4750 
Q 3144 4750 3555 4637 
Q 3966 4525 4313 4306 
L 4313 3634 
Q 3963 3931 3569 4081 
Q 3175 4231 2741 4231 
Q 1884 4231 1454 3753 
Q 1025 3275 1025 2328 
Q 1025 1384 1454 906 
Q 1884 428 2741 428 
Q 3075 428 3337 486 
Q 3600 544 3809 666 
z
" transform="scale(0.015625)"/>
      <path id="DejaVuSans-48" d="M 628 4666 
L 1259 4666 
L 1259 2753 
L 3553 2753 
L 3553 4666 
L 4184 4666 
L 4184 0 
L 3553 0 
L 3553 2222 
L 1259 2222 
L 1259 0 
L 628 0 
L 628 4666 
z
" transform="scale(0.015625)"/>
      <path id="DejaVuSans-40" d="M 2381 1678 
Q 2381 1231 2603 976 
Q 2825 722 3213 722 
Q 3597 722 3817 978 
Q 4038 1234 4038 1678 
Q 4038 2116 3813 2373 
Q 3588 2631 3206 2631 
Q 2828 2631 2604 2375 
Q 2381 2119 2381 1678 
z
M 4084 744 
Q 3897 503 3655 389 
Q 3413 275 3091 275 
Q 2553 275 2217 664 
Q 1881 1053 1881 1678 
Q 1881 2303 2218 2693 
Q 2556 3084 3091 3084 
Q 3413 3084 3656 2967 
Q 3900 2850 4084 2613 
L 4084 3022 
L 4531 3022 
L 4531 722 
Q 4988 791 5245 1139 
Q 5503 1488 5503 2041 
Q 5503 2375 5404 2669 
Q 5306 2963 5106 3213 
Q 4781 3622 4314 3839 
Q 3847 4056 3297 4056 
Q 2913 4056 2559 3954 
Q 2206 3853 1906 3653 
Q 1416 3334 1139 2817 
Q 863 2300 863 1697 
Q 863 1200 1042 765 
Q 1222 331 1563 0 
Q 1891 -325 2322 -495 
Q 2753 -666 3244 -666 
Q 3647 -666 4036 -530 
Q 4425 -394 4750 -141 
L 5031 -488 
Q 4641 -791 4180 -952 
Q 3719 -1113 3244 -1113 
Q 2666 -1113 2153 -908 
Q 1641 -703 1241 -313 
Q 841 78 631 592 
Q 422 1106 422 1697 
Q 422 2266 634 2781 
Q 847 3297 1241 3688 
Q 1644 4084 2172 4295 
Q 2700 4506 3291 4506 
Q 3953 4506 4520 4234 
Q 5088 3963 5472 3463 
Q 5706 3156 5829 2797 
Q 5953 2438 5953 2053 
Q 5953 1231 5456 756 
Q 4959 281 4084 263 
L 4084 744 
z
" transform="scale(0.015625)"/>
      <path id="DejaVuSans-4d" d="M 628 4666 
L 1569 4666 
L 2759 1491 
L 3956 4666 
L 4897 4666 
L 4897 0 
L 4281 0 
L 4281 4097 
L 3078 897 
L 2444 897 
L 1241 4097 
L 1241 0 
L 628 0 
L 628 4666 
z
" transform="scale(0.015625)"/>
     </defs>
     <use xlink:href="#DejaVuSans-54"/>
     <use xlink:href="#DejaVuSans-61" transform="translate(44.583984 0)"/>
     <use xlink:href="#DejaVuSans-69" transform="translate(105.863281 0)"/>
     <use xlink:href="#DejaVuSans-6c" transform="translate(133.646484 0)"/>
     <use xlink:href="#DejaVuSans-20" transform="translate(161.429688 0)"/>
     <use xlink:href="#DejaVuSans-4c" transform="translate(193.216797 0)"/>
     <use xlink:href="#DejaVuSans-61" transform="translate(248.929688 0)"/>
     <use xlink:href="#DejaVuSans-74" transform="translate(310.208984 0)"/>
     <use xlink:href="#DejaVuSans-65" transform="translate(349.417969 0)"/>
     <use xlink:href="#DejaVuSans-6e" transform="translate(410.941406 0)"/>
     <use xlink:href="#DejaVuSans-63" transform="translate(474.320312 0)"/>
     <use xlink:href="#DejaVuSans-79" transform="translate(529.300781 0)"/>
     <use xlink:href="#DejaVuSans-20" transform="translate(588.480469 0)"/>
     <use xlink:href="#DejaVuSans-2014" transform="translate(620.267578 0)"/>
     <use xlink:href="#DejaVuSans-20" transform="translate(720.267578 0)"/>
     <use xlink:href="#DejaVuSans-47" transform="translate(752.054688 0)"/>
     <use xlink:href="#DejaVuSans-65" transform="translate(829.544922 0)"/>
     <use xlink:href="#DejaVuSans-74" transform="translate(891.068359 0)"/>
     <use xlink:href="#DejaVuSans-20" transform="translate(930.277344 0)"/>
     <use xlink:href="#DejaVuSans-48" transform="translate(962.064453 0)"/>
     <use xlink:href="#DejaVuSans-69" transform="translate(1037.259766 0)"/>
     <use xlink:href="#DejaVuSans-74" transform="translate(1065.042969 0)"/>
     <use xlink:href="#DejaVuSans-20" transform="translate(1104.251953 0)"/>
     <use xlink:href="#DejaVuSans-40" transform="translate(1136.039062 0)"/>
     <use xlink:href="#DejaVuSans-20" transform="translate(1236.039062 0)"/>
     <use xlink:href="#DejaVuSans-31" transform="translate(1267.826172 0)"/>
     <use xlink:href="#DejaVuSans-30" transform="translate(1331.449219 0)"/>
     <use xlink:href="#DejaVuSans-4d" transform="translate(1395.072266 0)"/>
     <use xlink:href="#DejaVuSans-20" transform="translate(1481.351562 0)"/>
     <use xlink:href="#DejaVuSans-65" transform="translate(1513.138672 0)"/>
     <use xlink:href="#DejaVuSans-6e" transform="translate(1574.662109 0)"/>
     <use xlink:href="#DejaVuSans-74" transform="translate(1638.041016 0)"/>
     <use xlink:href="#DejaVuSans-72" transform="translate(1677.25 0)"/>
     <use xlink:href="#DejaVuSans-69" transform="translate(1718.363281 0)"/>
     <use xlink:href="#DejaVuSans-65" transform="translate(1746.146484 0)"/>
     <use xlink:href="#DejaVuSans-73" transform="translate(1807.669922 0)"/>
    </g>
   </g>
   <g id="legend_1">
    <g id="patch_7">
     <path d="M 56.009375 131.971562 
L 223.911875 131.971562 
Q 226.311875 131.971562 226.311875 129.571562 
L 226.311875 60.316562 
Q 226.311875 57.916562 223.911875 57.916562 
L 56.009375 57.916562 
Q 53.609375 57.916562 53.609375 60.316562 
L 53.609375 129.571562 
Q 53.609375 131.971562 56.009375 131.971562 
z
" style="fill: #ffffff; opacity: 0.8; stroke: #cccccc; stroke-linejoin: miter"/>
    </g>
    <g id="line2d_17">
     <path d="M 58.409375 67.634687 
L 70.409375 67.634687 
L 82.409375 67.634687 
" style="fill: none; stroke: #1f77b4; stroke-width: 2; stroke-linecap: square"/>
     <g>
      <use xlink:href="#mf7b03e0951" x="70.409375" y="67.634687" style="fill: #1f77b4; stroke: #1f77b4"/>
     </g>
    </g>
    <g id="text_17">
     <!-- std::HashMap -->
     <g transform="translate(92.009375 71.834687) scale(0.12 -0.12)">
      <defs>
       <path id="DejaVuSans-64" d="M 2906 2969 
L 2906 4863 
L 3481 4863 
L 3481 0 
L 2906 0 
L 2906 525 
Q 2725 213 2448 61 
Q 2172 -91 1784 -91 
Q 1150 -91 751 415 
Q 353 922 353 1747 
Q 353 2572 751 3078 
Q 1150 3584 1784 3584 
Q 2172 3584 2448 3432 
Q 2725 3281 2906 2969 
z
M 947 1747 
Q 947 1113 1208 752 
Q 1469 391 1925 391 
Q 2381 391 2643 752 
Q 2906 1113 2906 1747 
Q 2906 2381 2643 2742 
Q 2381 3103 1925 3103 
Q 1469 3103 1208 2742 
Q 947 2381 947 1747 
z
" transform="scale(0.015625)"/>
       <path id="DejaVuSans-3a" d="M 750 794 
L 1409 794 
L 1409 0 
L 750 0 
L 750 794 
z
M 750 3309 
L 1409 3309 
L 1409 2516 
L 750 2516 
L 750 3309 
z
" transform="scale(0.015625)"/>
       <path id="DejaVuSans-68" d="M 3513 2113 
L 3513 0 
L 2938 0 
L 2938 2094 
Q 2938 2591 2744 2837 
Q 2550 3084 2163 3084 
Q 1697 3084 1428 2787 
Q 1159 2491 1159 1978 
L 1159 0 
L 581 0 
L 581 4863 
L 1159 4863 
L 1159 2956 
Q 1366 3272 1645 3428 
Q 1925 3584 2291 3584 
Q 2894 3584 3203 3211 
Q 3513 2838 3513 2113 
z
" transform="scale(0.015625)"/>
      </defs>
      <use xlink:href="#DejaVuSans-73"/>
      <use xlink:href="#DejaVuSans-74" transform="translate(52.099609 0)"/>
      <use xlink:href="#DejaVuSans-64" transform="translate(91.308594 0)"/>
      <use xlink:href="#DejaVuSans-3a" transform="translate(154.785156 0)"/>
      <use xlink:href="#DejaVuSans-3a" transform="translate(188.476562 0)"/>
      <use xlink:href="#DejaVuSans-48" transform="translate(222.167969 0)"/>
      <use xlink:href="#DejaVuSans-61" transform="translate(297.363281 0)"/>
      <use xlink:href="#DejaVuSans-73" transform="translate(358.642578 0)"/>
      <use xlink:href="#DejaVuSans-68" transform="translate(410.742188 0)"/>
      <use xlink:href="#DejaVuSans-4d" transform="translate(474.121094 0)"/>
      <use xlink:href="#DejaVuSans-61" transform="translate(560.400391 0)"/>
      <use xlink:href="#DejaVuSans-70" transform="translate(621.679688 0)"/>
     </g>
    </g>
    <g id="line2d_18">
     <path d="M 58.409375 85.248437 
L 70.409375 85.248437 
L 82.409375 85.248437 
" style="fill: none; stroke: #ff7f0e; stroke-width: 2; stroke-linecap: square"/>
     <g>
      <use xlink:href="#mcbc4a66deb" x="70.409375" y="85.248437" style="fill: #ff7f0e; stroke: #ff7f0e; stroke-linejoin: miter"/>
     </g>
    </g>
    <g id="text_18">
     <!-- hashbrown::HashMap -->
     <g transform="translate(92.009375 89.448437) scale(0.12 -0.12)">
      <use xlink:href="#DejaVuSans-68"/>
      <use xlink:href="#DejaVuSans-61" transform="translate(63.378906 0)"/>
      <use xlink:href="#DejaVuSans-73" transform="translate(124.658203 0)"/>
      <use xlink:href="#DejaVuSans-68" transform="translate(176.757812 0)"/>
      <use xlink:href="#DejaVuSans-62" transform="translate(240.136719 0)"/>
      <use xlink:href="#DejaVuSans-72" transform="translate(303.613281 0)"/>
      <use xlink:href="#DejaVuSans-6f" transform="translate(342.476562 0)"/>
      <use xlink:href="#DejaVuSans-77" transform="translate(403.658203 0)"/>
      <use xlink:href="#DejaVuSans-6e" transform="translate(485.445312 0)"/>
      <use xlink:href="#DejaVuSans-3a" transform="translate(548.824219 0)"/>
      <use xlink:href="#DejaVuSans-3a" transform="translate(582.515625 0)"/>
      <use xlink:href="#DejaVuSans-48" transform="translate(616.207031 0)"/>
      <use xlink:href="#DejaVuSans-61" transform="translate(691.402344 0)"/>
      <use xlink:href="#DejaVuSans-73" transform="translate(752.681641 0)"/>
      <use xlink:href="#DejaVuSans-68" transform="translate(804.78125 0)"/>
      <use xlink:href="#DejaVuSans-4d" transform="translate(868.160156 0)"/>
      <use xlink:href="#DejaVuSans-61" transform="translate(954.439453 0)"/>
      <use xlink:href="#DejaVuSans-70" transform="translate(1015.71875 0)"/>
     </g>
    </g>
    <g id="line2d_19">
     <path d="M 58.409375 102.862187 
L 70.409375 102.862187 
L 82.409375 102.862187 
" style="fill: none; stroke: #2ca02c; stroke-width: 2; stroke-linecap: square"/>
     <g>
      <use xlink:href="#m8c88b56696" x="70.409375" y="102.862187" style="fill: #2ca02c; stroke: #2ca02c; stroke-linejoin: miter"/>
     </g>
    </g>
    <g id="text_19">
     <!-- ElasticHashMap -->
     <g transform="translate(92.009375 107.062187) scale(0.12 -0.12)">
      <defs>
       <path id="DejaVuSans-45" d="M 628 4666 
L 3578 4666 
L 3578 4134 
L 1259 4134 
L 1259 2753 
L 3481 2753 
L 3481 2222 
L 1259 2222 
L 1259 531 
L 3634 531 
L 3634 0 
L 628 0 
L 628 4666 
z
" transform="scale(0.015625)"/>
      </defs>
      <use xlink:href="#DejaVuSans-45"/>
      <use xlink:href="#DejaVuSans-6c" transform="translate(63.183594 0)"/>
      <use xlink:href="#DejaVuSans-61" transform="translate(90.966797 0)"/>
      <use xlink:href="#DejaVuSans-73" transform="translate(152.246094 0)"/>
      <use xlink:href="#DejaVuSans-74" transform="translate(204.345703 0)"/>
      <use xlink:href="#DejaVuSans-69" transform="translate(243.554688 0)"/>
      <use xlink:href="#DejaVuSans-63" transform="translate(271.337891 0)"/>
      <use xlink:href="#DejaVuSans-48" transform="translate(326.318359 0)"/>
      <use xlink:href="#DejaVuSans-61" transform="translate(401.513672 0)"/>
      <use xlink:href="#DejaVuSans-73" transform="translate(462.792969 0)"/>
      <use xlink:href="#DejaVuSans-68" transform="translate(514.892578 0)"/>
      <use xlink:href="#DejaVuSans-4d" transform="translate(578.271484 0)"/>
      <use xlink:href="#DejaVuSans-61" transform="translate(664.550781 0)"/>
      <use xlink:href="#DejaVuSans-70" transform="translate(725.830078 0)"/>
     </g>
    </g>
    <g id="line2d_20">
     <path d="M 58.409375 120.475937 
L 70.409375 120.475937 
L 82.409375 120.475937 
" style="fill: none; stroke: #d62728; stroke-width: 2; stroke-linecap: square"/>
     <g>
      <use xlink:href="#m131ce8e057" x="70.409375" y="120.475937" style="fill: #d62728; stroke: #d62728; stroke-linejoin: miter"/>
     </g>
    </g>
    <g id="text_20">
     <!-- FunnelHashMap -->
     <g transform="translate(92.009375 124.675937) scale(0.12 -0.12)">
      <defs>
       <path id="DejaVuSans-46" d="M 628 4666 
L 3309 4666 
L 3309 4134 
L 1259 4134 
L 1259 2759 
L 3109 2759 
L 3109 2228 
L 1259 2228 
L 1259 0 
L 628 0 
L 628 4666 
z
" transform="scale(0.015625)"/>
       <path id="DejaVuSans-75" d="M 544 1381 
L 544 3500 
L 1119 3500 
L 1119 1403 
Q 1119 906 1312 657 
Q 1506 409 1894 409 
Q 2359 409 2629 706 
Q 2900 1003 2900 1516 
L 2900 3500 
L 3475 3500 
L 3475 0 
L 2900 0 
L 2900 538 
Q 2691 219 2414 64 
Q 2138 -91 1772 -91 
Q 1169 -91 856 284 
Q 544 659 544 1381 
z
M 1991 3584 
L 1991 3584 
z
" transform="scale(0.015625)"/>
      </defs>
      <use xlink:href="#DejaVuSans-46"/>
      <use xlink:href="#DejaVuSans-75" transform="translate(52.019531 0)"/>
      <use xlink:href="#DejaVuSans-6e" transform="translate(115.398438 0)"/>
      <use xlink:href="#DejaVuSans-6e" transform="translate(178.777344 0)"/>
      <use xlink:href="#DejaVuSans-65" transform="translate(242.15625 0)"/>
      <use xlink:href="#DejaVuSans-6c" transform="translate(303.679688 0)"/>
      <use xlink:href="#DejaVuSans-48" transform="translate(331.462891 0)"/>
      <use xlink:href="#DejaVuSans-61" transform="translate(406.658203 0)"/>
      <use xlink:href="#DejaVuSans-73" transform="translate(467.9375 0)"/>
      <use xlink:href="#DejaVuSans-68" transform="translate(520.037109 0)"/>
      <use xlink:href="#DejaVuSans-4d" transform="translate(583.416016 0)"/>
      <use xlink:href="#DejaVuSans-61" transform="translate(669.695312 0)"/>
      <use xlink:href="#DejaVuSans-70" transform="translate(730.974609 0)"/>
     </g>
    </g>
   </g>
  </g>
 </g>
 <defs>
  <clipPath id="p8ea24caf5e">
   <rect x="47.609375" y="51.916562" width="663.519284" height="338.619833"/>
  </clipPath>
 </defs>
</svg>
